<svg xmlns="http://www.w3.org/2000/svg" xmlns:xlink="http://www.w3.org/1999/xlink" version="1.1" id="Layer_1" x="0px" y="0px" width="64px" height="64px" viewBox="0 0 64 64" enable-background="new 0 0 64 64" xml:space="preserve">
  <polygon fill="#B2B1B1" stroke="#000000" stroke-width="3" stroke-miterlimit="10" points="6.803 26.5 33.08 3.013 59.39 26.5 "/>
  <polygon fill="#B3B3B3" points="14.678 23 33.081 6.565 51.508 23 "/>
  <path fill="#E2E0E0" d="M33.081 8.075L47.572 21H18.609L33.081 8.075M33.08 4.054L10.747 24h44.697L33.08 4.054 33.08 4.054z"/>
  <polygon fill="none" stroke="#B3B3B3" stroke-width="2" stroke-miterlimit="10" points="55.443 24 10.747 24 33.08 4.054 "/>
  <path fill="#605E5E" d="M9.319 25.713"/>
  <path fill="none" stroke="#605E5E" stroke-miterlimit="10" d="M9.319 25.713"/>
  <path fill="none" stroke="#000000" stroke-width="0.25" stroke-miterlimit="10" d="M9.319 25.713"/>
  <line fill="#605E5E" x1="12" y1="26" x2="10" y2="26"/>
  <line fill="none" stroke="#605E5E" stroke-miterlimit="10" x1="12" y1="25.5" x2="10" y2="25.5"/>
  <line fill="none" stroke="#000000" stroke-miterlimit="10" x1="12" y1="25.5" x2="10" y2="25.5"/>
  <polyline fill="#B3B3B3" points="56 26 51.394 26 51.394 26 12 26 "/>
  <polyline fill="none" stroke="#B3B3B3" stroke-miterlimit="10" points="56 25.5 51.394 25.5 51.394 25.5 12 25.5 "/>
  <polyline fill="none" stroke="#000000" stroke-miterlimit="10" points="56 25.5 51.394 25.5 51.394 25.5 12 25.5 "/>
  <path fill="#B3B3B3" d="M10.319 26c0 0-0.717 0.364-1.291 0.841 -0.586 0.487-0.126 1.221 0.386 1.312 0.972 0.173 41.324 0.541 46.791 0.166 0.305-0.021 0.501-0.062 0.576-0.087 0.642-0.22 1.038-0.741 0.489-1.382C56.734 26.225 56.79 26 56.79 26h-0.489H10.319z"/>
  <path fill="none" stroke="#B3B3B3" stroke-miterlimit="10" d="M10.319 25.5c0 0-0.717 0.614-1.291 1.091 -0.586 0.487-0.126 1.346 0.386 1.437 0.972 0.173 41.324 0.603 46.791 0.229 0.305-0.021 0.501-0.03 0.576-0.056 0.642-0.22 1.038-0.975 0.489-1.616 -0.536-0.625-0.48-1.084-0.48-1.084h-0.489H10.319z"/>
  <path fill="none" stroke="#000000" stroke-miterlimit="10" d="M10.319 25.5c0 0-0.717 0.614-1.291 1.091 -0.586 0.487-0.126 1.346 0.386 1.437 0.972 0.173 41.324 0.603 46.791 0.229 0.305-0.021 0.501-0.03 0.576-0.056 0.642-0.22 1.038-0.975 0.489-1.616 -0.536-0.625-0.48-1.084-0.48-1.084h-0.489H10.319z"/>
  <polygon fill="#E2E0E0" points="56.443 26 55.443 25 11.966 25 9.996 26 "/>
  <polygon opacity="0.08" fill="none" stroke="#605E5E" stroke-miterlimit="10" points="56.443 26.5 55.443 25.5 11.966 25.5 9.996 26.5 "/>
  <line fill="#605E5E" stroke="#605E5E" stroke-miterlimit="10" x1="11" y1="50.5" x2="56" y2="50.5"/>
  <path fill="#B3B3B3" stroke="#000000" stroke-width="2" stroke-miterlimit="10" d="M56 29v-0.593c0 0.412 0 1.944 0 2.587V47.8c0 0.642 0 1.171 0 1.582v1.373c0 0 0.688 0.245 1.584 0.808 0.5 0.545 0.416 1.213 0.416 1.213V62H8c0 0-0.125-8.262 0-9.225s0.547-1.212 0.547-1.212L11 51l0 0V28"/>
  <line fill="none" stroke="#E2E0E0" stroke-miterlimit="10" x1="17" y1="53.5" x2="53" y2="53.5"/>
  <line fill="none" stroke="#E2E0E0" stroke-miterlimit="10" x1="14" y1="56.5" x2="54" y2="56.5"/>
  <line fill="none" stroke="#E2E0E0" stroke-miterlimit="10" x1="13" y1="59.5" x2="56" y2="59.5"/>
  <path fill="#B2B1B1" stroke="#B3B3B3" stroke-miterlimit="10" d="M18.5 30.593c0-0.673 0-2.279 0-2.71V27.5h-6v23h6v-0.643c0-0.432 0-0.984 0-1.658V30.593z"/>
  <path fill="#F9F7F7" stroke="#B3B3B3" stroke-width="2" stroke-miterlimit="10" d="M21.11 27.819c-4.27-0.332-4.11 2.09-4.11 2.764v17.617c0 0.674-0.16 2.775 3.805 2.775 2.021 0 3.195-0.952 3.195-2.775V30.593C24 28.771 23.123 27.976 21.11 27.819z"/>
  <path fill="#B2B1B1" stroke="#B3B3B3" stroke-miterlimit="10" d="M44.5 30.593c0-0.673 0-2.279 0-2.71V27.5h-5v23h5v-0.643c0-0.432 0-0.984 0-1.658V30.593z"/>
  <path fill="#F9F7F7" stroke="#B3B3B3" stroke-width="2" stroke-miterlimit="10" d="M47.61 27.819C43.34 27.487 43 29.909 43 30.583v17.617c0 0.674 0.34 2.775 4.305 2.775 2.021 0 3.695-0.952 3.695-2.775V30.593C51 28.771 49.623 27.976 47.61 27.819z"/>
  <path fill="#B2B1B1" stroke="#B3B3B3" stroke-miterlimit="10" d="M28.5 30.593c0-0.673 0-2.279 0-2.71V27.5h-5v23h5v-0.643c0-0.432 0-0.984 0-1.658V30.593z"/>
  <path fill="#F9F7F7" stroke="#B3B3B3" stroke-width="2" stroke-miterlimit="10" d="M35.018 27.819C27.9 27.487 28 29.909 28 30.583v17.617c0 0.674-0.1 2.775 6.508 2.775 3.366 0 5.492-0.952 5.492-2.775V30.593C40 28.771 38.372 27.976 35.018 27.819z"/>
  <polyline fill="#B3B3B3" points="55 27 50 27 50 51 55 51 "/>
  <line fill="none" stroke="#E2E0E0" stroke-miterlimit="10" x1="12.5" y1="28" x2="12.5" y2="51"/>
  <line fill="none" stroke="#E2E0E0" stroke-miterlimit="10" x1="14.5" y1="28" x2="14.5" y2="51"/>
  <line fill="none" stroke="#E2E0E0" stroke-miterlimit="10" x1="16.5" y1="28" x2="16.5" y2="51"/>
  <line fill="none" stroke="#E2E0E0" stroke-miterlimit="10" x1="24.5" y1="28" x2="24.5" y2="51"/>
  <line fill="none" stroke="#E2E0E0" stroke-miterlimit="10" x1="26.5" y1="28" x2="26.5" y2="51"/>
  <line fill="none" stroke="#E2E0E0" stroke-miterlimit="10" x1="28.5" y1="28" x2="28.5" y2="51"/>
  <line fill="none" stroke="#E2E0E0" stroke-miterlimit="10" x1="39.5" y1="28" x2="39.5" y2="51"/>
  <line fill="none" stroke="#E2E0E0" stroke-miterlimit="10" x1="41.5" y1="28" x2="41.5" y2="51"/>
  <line fill="none" stroke="#E2E0E0" stroke-miterlimit="10" x1="43.5" y1="28" x2="43.5" y2="51"/>
  <line fill="none" stroke="#E2E0E0" stroke-miterlimit="10" x1="50.5" y1="28" x2="50.5" y2="51"/>
  <line fill="none" stroke="#E2E0E0" stroke-miterlimit="10" x1="52.5" y1="28" x2="52.5" y2="51"/>
  <line fill="none" stroke="#E2E0E0" stroke-miterlimit="10" x1="54.5" y1="28" x2="54.5" y2="51"/>
</svg>
