<svg enable-background="new 0 0 62 62" viewBox="0 0 62 62" x="0" y="0" width="62" height="62" version="1.1" xmlns="http://www.w3.org/2000/svg" xml:space="preserve">
  <polygon fill="#ffffff" stroke="#ffffff" stroke-miterlimit="10" points="54.5 58.6 6.5 58.5 6.5 2.5 42.5 2.5 42.5 12.5 54.5 12.5"/>
  <path fill="#ffffff" stroke="#333333" stroke-miterlimit="10" stroke-width="2" d="M54 60H6V2h36.3L54 12.5V60ZM6 60h48V13.1l-12 0V2.1L6 2.1V60Z"/>
  <path fill="#808080" d="M12.8 9.9l0.2 0.1c0 0.3-0.1 0.6-0.2 0.8 -0.1 0.2-0.3 0.3-0.4 0.3 -0.2 0-0.3-0.1-0.4-0.2 -0.1-0.1-0.2-0.3-0.3-0.6 -0.1-0.3-0.1-0.5-0.1-0.8 0-0.3 0-0.6 0.1-0.9 0.1-0.2 0.2-0.4 0.3-0.6 0.1-0.1 0.3-0.2 0.4-0.2 0.2 0 0.3 0.1 0.4 0.2 0.1 0.2 0.2 0.4 0.2 0.7l-0.2 0.1c0-0.2-0.1-0.4-0.2-0.5 -0.1-0.1-0.2-0.2-0.3-0.2 -0.1 0-0.2 0.1-0.3 0.2 -0.1 0.1-0.1 0.3-0.2 0.5 0 0.2-0.1 0.4-0.1 0.6 0 0.3 0 0.5 0.1 0.7 0 0.2 0.1 0.3 0.2 0.4 0.1 0.1 0.2 0.1 0.3 0.1 0.1 0 0.2-0.1 0.3-0.2C12.7 10.4 12.8 10.2 12.8 9.9Z"/>
  <path fill="#808080" d="M13.2 9.9c0-0.4 0.1-0.7 0.2-0.9 0.1-0.2 0.2-0.3 0.4-0.3 0.2 0 0.3 0.1 0.4 0.3 0.1 0.2 0.2 0.5 0.2 0.8 0 0.3 0 0.5-0.1 0.7 0 0.2-0.1 0.3-0.2 0.4 -0.1 0.1-0.2 0.1-0.3 0.1 -0.2 0-0.3-0.1-0.4-0.3C13.2 10.6 13.2 10.3 13.2 9.9ZM13.4 9.9c0 0.3 0 0.5 0.1 0.7 0.1 0.1 0.2 0.2 0.3 0.2s0.2-0.1 0.3-0.2c0.1-0.1 0.1-0.4 0.1-0.7 0-0.3 0-0.5-0.1-0.6 -0.1-0.1-0.1-0.2-0.2-0.2 -0.1 0-0.2 0.1-0.2 0.2C13.4 9.4 13.4 9.6 13.4 9.9Z"/>
  <path fill="#808080" d="M14.6 11V8.8h0.2v0.3c0.1-0.2 0.2-0.4 0.4-0.4 0.1 0 0.1 0 0.2 0.1 0.1 0 0.1 0.1 0.1 0.2 0 0.1 0.1 0.2 0.1 0.3 0 0.1 0 0.2 0 0.4v1.4H15.3V9.6c0-0.2 0-0.3 0-0.4 0-0.1 0-0.1-0.1-0.2 0 0-0.1-0.1-0.1-0.1 -0.1 0-0.2 0.1-0.2 0.2 -0.1 0.1-0.1 0.3-0.1 0.6v1.2H14.6Z"/>
  <path fill="#808080" d="M15.8 11.2l0.2 0.1c0 0.1 0 0.2 0.1 0.3 0.1 0.1 0.1 0.1 0.2 0.1 0.1 0 0.2 0 0.2-0.1 0.1-0.1 0.1-0.2 0.1-0.3 0-0.1 0-0.2 0-0.5 -0.1 0.2-0.2 0.3-0.3 0.3 -0.2 0-0.3-0.1-0.4-0.3 -0.1-0.2-0.1-0.5-0.1-0.8 0-0.2 0-0.4 0.1-0.6 0-0.2 0.1-0.3 0.2-0.4 0.1-0.1 0.2-0.1 0.3-0.1 0.1 0 0.3 0.1 0.3 0.3V8.8h0.2v2c0 0.4 0 0.6-0.1 0.8 0 0.1-0.1 0.3-0.2 0.3 -0.1 0.1-0.2 0.1-0.3 0.1 -0.1 0-0.3-0.1-0.3-0.2S15.8 11.5 15.8 11.2ZM16 9.8c0 0.3 0 0.5 0.1 0.7 0.1 0.1 0.1 0.2 0.2 0.2 0.1 0 0.2-0.1 0.2-0.2 0.1-0.1 0.1-0.3 0.1-0.6 0-0.3 0-0.5-0.1-0.6 -0.1-0.1-0.1-0.2-0.2-0.2 -0.1 0-0.2 0.1-0.2 0.2C16 9.4 16 9.6 16 9.8Z"/>
  <path fill="#808080" d="M17.1 11V8.8h0.2V9.1c0-0.2 0.1-0.3 0.1-0.3 0-0.1 0.1-0.1 0.1-0.1 0.1 0 0.1 0 0.2 0.1l-0.1 0.4C17.6 9.1 17.6 9.1 17.5 9.1c0 0-0.1 0-0.1 0.1s-0.1 0.1-0.1 0.2c0 0.1 0 0.3 0 0.4v1.2H17.1Z"/>
  <path fill="#808080" d="M18.7 10.7c-0.1 0.1-0.1 0.2-0.2 0.3 -0.1 0-0.1 0.1-0.2 0.1 -0.1 0-0.2-0.1-0.3-0.2 -0.1-0.1-0.1-0.3-0.1-0.5 0-0.1 0-0.2 0-0.3 0-0.1 0.1-0.2 0.1-0.2 0-0.1 0.1-0.1 0.1-0.1 0 0 0.1 0 0.2-0.1 0.2 0 0.3-0.1 0.4-0.1 0-0.1 0-0.1 0-0.1 0-0.2 0-0.3-0.1-0.3 -0.1-0.1-0.1-0.1-0.2-0.1 -0.1 0-0.2 0-0.2 0.1 0 0.1-0.1 0.2-0.1 0.3l-0.2 0c0-0.2 0-0.3 0.1-0.4 0-0.1 0.1-0.2 0.2-0.2 0.1-0.1 0.2-0.1 0.3-0.1s0.2 0 0.2 0.1c0.1 0 0.1 0.1 0.1 0.2 0 0.1 0.1 0.2 0.1 0.3 0 0.1 0 0.2 0 0.4v0.5c0 0.4 0 0.6 0 0.7 0 0.1 0 0.2 0.1 0.3h-0.2C18.7 10.9 18.7 10.9 18.7 10.7ZM18.6 9.9c-0.1 0.1-0.2 0.1-0.3 0.1 -0.1 0-0.1 0-0.2 0.1 0 0-0.1 0.1-0.1 0.1 0 0.1 0 0.1 0 0.2 0 0.1 0 0.2 0.1 0.3 0 0.1 0.1 0.1 0.2 0.1 0.1 0 0.1 0 0.2-0.1 0.1-0.1 0.1-0.2 0.1-0.3 0-0.1 0-0.2 0-0.4V9.9Z"/>
  <path fill="#808080" d="M19.6 10.7l0 0.3c-0.1 0-0.1 0-0.2 0 -0.1 0-0.1 0-0.2-0.1 0 0-0.1-0.1-0.1-0.2 0-0.1 0-0.2 0-0.5V9.1h-0.1V8.8h0.1V8.2l0.2-0.2v0.8H19.6v0.3h-0.2v1.3c0 0.1 0 0.2 0 0.2 0 0 0 0.1 0 0.1 0 0 0 0 0.1 0C19.5 10.7 19.6 10.7 19.6 10.7Z"/>
  <path fill="#808080" d="M19.7 10.3l0.2-0.1c0 0.2 0 0.3 0.1 0.4 0.1 0.1 0.1 0.1 0.2 0.1 0.1 0 0.2 0 0.2-0.1 0-0.1 0.1-0.2 0.1-0.3 0-0.1 0-0.2-0.1-0.2 0 0-0.1-0.1-0.2-0.1 -0.1-0.1-0.3-0.1-0.3-0.2 -0.1-0.1-0.1-0.1-0.1-0.2C19.8 9.6 19.8 9.5 19.8 9.4c0-0.1 0-0.2 0-0.3 0-0.1 0.1-0.2 0.1-0.2 0 0 0.1-0.1 0.1-0.1 0.1 0 0.1 0 0.2 0 0.1 0 0.2 0 0.2 0.1 0.1 0.1 0.1 0.1 0.2 0.2 0 0.1 0.1 0.2 0.1 0.4l-0.2 0.1c0-0.1 0-0.2-0.1-0.3 0-0.1-0.1-0.1-0.2-0.1 -0.1 0-0.2 0-0.2 0.1 0 0.1-0.1 0.1-0.1 0.2 0 0.1 0 0.1 0 0.1s0 0.1 0.1 0.1c0 0 0.1 0 0.2 0.1 0.1 0.1 0.2 0.1 0.3 0.2 0.1 0 0.1 0.1 0.1 0.2 0 0.1 0 0.2 0 0.3 0 0.1 0 0.2-0.1 0.4 0 0.1-0.1 0.2-0.2 0.3 -0.1 0.1-0.2 0.1-0.3 0.1 -0.2 0-0.3-0.1-0.4-0.2C19.8 10.8 19.7 10.6 19.7 10.3Z"/>
  <path fill="#808080" d="M22 10.7l0 0.3c-0.1 0-0.1 0-0.2 0 -0.1 0-0.1 0-0.2-0.1 0 0-0.1-0.1-0.1-0.2 0-0.1 0-0.2 0-0.5V9.1h-0.1V8.8h0.1V8.2l0.2-0.2v0.8h0.2v0.3h-0.2v1.3c0 0.1 0 0.2 0 0.2 0 0 0 0.1 0 0.1 0 0 0 0 0.1 0C22 10.7 22 10.7 22 10.7Z"/>
  <path fill="#808080" d="M22.2 9.9c0-0.4 0.1-0.7 0.2-0.9 0.1-0.2 0.2-0.3 0.4-0.3 0.2 0 0.3 0.1 0.4 0.3 0.1 0.2 0.2 0.5 0.2 0.8 0 0.3 0 0.5-0.1 0.7 0 0.2-0.1 0.3-0.2 0.4 -0.1 0.1-0.2 0.1-0.3 0.1 -0.2 0-0.3-0.1-0.4-0.3C22.2 10.6 22.2 10.3 22.2 9.9ZM22.4 9.9c0 0.3 0 0.5 0.1 0.7 0.1 0.1 0.2 0.2 0.3 0.2 0.1 0 0.2-0.1 0.3-0.2 0.1-0.1 0.1-0.4 0.1-0.7 0-0.3 0-0.5-0.1-0.6 -0.1-0.1-0.1-0.2-0.2-0.2 -0.1 0-0.2 0.1-0.3 0.2C22.4 9.4 22.4 9.6 22.4 9.9Z"/>
  <path fill="#808080" d="M25.3 7.9h0.2v1.8c0 0.3 0 0.6-0.1 0.8 0 0.2-0.1 0.3-0.2 0.5 -0.1 0.1-0.2 0.2-0.4 0.2 -0.2 0-0.3-0.1-0.4-0.2 -0.1-0.1-0.2-0.2-0.2-0.4 0-0.2-0.1-0.5-0.1-0.8V7.9h0.2V9.7c0 0.3 0 0.5 0 0.6 0 0.1 0.1 0.2 0.1 0.3 0.1 0.1 0.1 0.1 0.2 0.1 0.2 0 0.3-0.1 0.3-0.2 0.1-0.1 0.1-0.4 0.1-0.8V7.9Z"/>
  <path fill="#808080" d="M25.9 11V7.9h0.2v3.1H25.9Z"/>
  <path fill="#808080" d="M26.4 10l0.2 0c0 0.2 0 0.3 0.1 0.4 0 0.1 0.1 0.2 0.2 0.2 0.1 0.1 0.2 0.1 0.3 0.1 0.1 0 0.2 0 0.2-0.1 0.1 0 0.1-0.1 0.1-0.2 0-0.1 0-0.2 0-0.3 0-0.1 0-0.2 0-0.3 0-0.1-0.1-0.1-0.1-0.2C27.3 9.7 27.2 9.6 27 9.6c-0.2-0.1-0.3-0.1-0.3-0.2 -0.1-0.1-0.1-0.2-0.2-0.3 0-0.1-0.1-0.2-0.1-0.4 0-0.2 0-0.3 0.1-0.4 0-0.1 0.1-0.2 0.2-0.3 0.1-0.1 0.2-0.1 0.3-0.1 0.1 0 0.2 0 0.3 0.1 0.1 0.1 0.2 0.2 0.2 0.3 0.1 0.1 0.1 0.3 0.1 0.5l-0.2 0c0-0.2 0-0.3-0.1-0.4 -0.1-0.1-0.2-0.1-0.3-0.1 -0.1 0-0.2 0-0.3 0.1 -0.1 0.1-0.1 0.2-0.1 0.3 0 0.1 0 0.2 0.1 0.3 0 0.1 0.2 0.1 0.3 0.2 0.2 0.1 0.3 0.1 0.4 0.2 0.1 0.1 0.2 0.2 0.2 0.3 0 0.1 0.1 0.3 0.1 0.4 0 0.2 0 0.3-0.1 0.5 0 0.1-0.1 0.3-0.2 0.3s-0.2 0.1-0.3 0.1c-0.1 0-0.3 0-0.4-0.1 -0.1-0.1-0.2-0.2-0.2-0.4C26.4 10.4 26.4 10.2 26.4 10Z"/>
  <path fill="#808080" d="M28.8 11V10.7c-0.1 0.3-0.2 0.4-0.4 0.4 -0.1 0-0.1 0-0.2-0.1 -0.1-0.1-0.1-0.1-0.1-0.2 0-0.1 0-0.2-0.1-0.3 0-0.1 0-0.2 0-0.4V8.8h0.2v1.3c0 0.2 0 0.3 0 0.4 0 0.1 0 0.2 0.1 0.2 0 0.1 0.1 0.1 0.2 0.1 0.1 0 0.1 0 0.2-0.1 0.1-0.1 0.1-0.1 0.1-0.2 0-0.1 0-0.2 0-0.4V8.8h0.2v2.3H28.8Z"/>
  <path fill="#808080" d="M29.3 11.9V8.8h0.2v0.3c0-0.1 0.1-0.2 0.1-0.3 0.1-0.1 0.1-0.1 0.2-0.1 0.1 0 0.2 0 0.3 0.1 0.1 0.1 0.1 0.2 0.2 0.4 0 0.2 0.1 0.4 0.1 0.6 0 0.2 0 0.4-0.1 0.6 0 0.2-0.1 0.3-0.2 0.4 -0.1 0.1-0.2 0.1-0.3 0.1 -0.1 0-0.1 0-0.2-0.1 -0.1-0.1-0.1-0.1-0.1-0.2v1.1H29.3ZM29.4 9.9c0 0.3 0 0.5 0.1 0.6 0.1 0.1 0.1 0.2 0.2 0.2 0.1 0 0.2-0.1 0.2-0.2 0.1-0.1 0.1-0.4 0.1-0.7 0-0.3 0-0.5-0.1-0.6 -0.1-0.1-0.1-0.2-0.2-0.2 -0.1 0-0.2 0.1-0.2 0.2C29.5 9.4 29.4 9.6 29.4 9.9Z"/>
  <path fill="#808080" d="M30.5 11.9V8.8h0.2v0.3c0-0.1 0.1-0.2 0.1-0.3 0.1-0.1 0.1-0.1 0.2-0.1 0.1 0 0.2 0 0.3 0.1 0.1 0.1 0.1 0.2 0.2 0.4 0 0.2 0.1 0.4 0.1 0.6 0 0.2 0 0.4-0.1 0.6 0 0.2-0.1 0.3-0.2 0.4 -0.1 0.1-0.2 0.1-0.3 0.1 -0.1 0-0.1 0-0.2-0.1 -0.1-0.1-0.1-0.1-0.1-0.2v1.1H30.5ZM30.7 9.9c0 0.3 0 0.5 0.1 0.6 0.1 0.1 0.1 0.2 0.2 0.2 0.1 0 0.2-0.1 0.2-0.2 0.1-0.1 0.1-0.4 0.1-0.7 0-0.3 0-0.5-0.1-0.6 -0.1-0.1-0.1-0.2-0.2-0.2 -0.1 0-0.2 0.1-0.2 0.2C30.8 9.4 30.7 9.6 30.7 9.9Z"/>
  <path fill="#808080" d="M31.7 9.9c0-0.4 0.1-0.7 0.2-0.9 0.1-0.2 0.2-0.3 0.4-0.3 0.2 0 0.3 0.1 0.4 0.3 0.1 0.2 0.2 0.5 0.2 0.8 0 0.3 0 0.5-0.1 0.7 0 0.2-0.1 0.3-0.2 0.4 -0.1 0.1-0.2 0.1-0.3 0.1 -0.2 0-0.3-0.1-0.4-0.3C31.8 10.6 31.7 10.3 31.7 9.9ZM32 9.9c0 0.3 0 0.5 0.1 0.7 0.1 0.1 0.1 0.2 0.3 0.2 0.1 0 0.2-0.1 0.2-0.2 0.1-0.1 0.1-0.4 0.1-0.7 0-0.3 0-0.5-0.1-0.6 -0.1-0.1-0.1-0.2-0.2-0.2 -0.1 0-0.2 0.1-0.3 0.2C32 9.4 32 9.6 32 9.9Z"/>
  <path fill="#808080" d="M33.1 11V8.8h0.2V9.1c0-0.2 0.1-0.3 0.1-0.3 0-0.1 0.1-0.1 0.1-0.1 0.1 0 0.1 0 0.2 0.1l-0.1 0.4c0-0.1-0.1-0.1-0.1-0.1 0 0-0.1 0-0.1 0.1s-0.1 0.1-0.1 0.2c0 0.1 0 0.3 0 0.4v1.2H33.1Z"/>
  <path fill="#808080" d="M34.3 10.7l0 0.3c-0.1 0-0.1 0-0.2 0 -0.1 0-0.1 0-0.2-0.1 0 0-0.1-0.1-0.1-0.2 0-0.1 0-0.2 0-0.5V9.1h-0.1V8.8h0.1V8.2l0.2-0.2v0.8h0.2v0.3h-0.2v1.3c0 0.1 0 0.2 0 0.2 0 0 0 0.1 0 0.1 0 0 0 0 0.1 0C34.2 10.7 34.3 10.7 34.3 10.7Z"/>
  <path fill="#808080" d="M35.6 11V8.3h-0.5v-0.4h1.3v0.4h-0.5v2.8H35.6Z"/>
  <path fill="#808080" d="M37.1 10.3l0.2 0.1c0 0.2-0.1 0.4-0.2 0.5 -0.1 0.1-0.2 0.2-0.3 0.2 -0.2 0-0.3-0.1-0.4-0.3 -0.1-0.2-0.2-0.5-0.2-0.9 0-0.4 0.1-0.7 0.2-0.9 0.1-0.2 0.2-0.3 0.4-0.3 0.2 0 0.3 0.1 0.4 0.3 0.1 0.2 0.2 0.5 0.2 0.9 0 0 0 0.1 0 0.1h-0.9c0 0.2 0 0.4 0.1 0.6 0.1 0.1 0.1 0.2 0.3 0.2 0.1 0 0.1 0 0.2-0.1C37 10.6 37 10.5 37.1 10.3ZM36.4 9.7h0.7c0-0.2 0-0.3-0.1-0.4 -0.1-0.1-0.1-0.2-0.3-0.2 -0.1 0-0.2 0.1-0.2 0.2C36.5 9.3 36.4 9.5 36.4 9.7Z"/>
  <path fill="#808080" d="M38.3 10.7C38.2 10.9 38.2 11 38.1 11c-0.1 0-0.1 0.1-0.2 0.1 -0.1 0-0.2-0.1-0.3-0.2 -0.1-0.1-0.1-0.3-0.1-0.5 0-0.1 0-0.2 0-0.3 0-0.1 0.1-0.2 0.1-0.2 0-0.1 0.1-0.1 0.1-0.1 0 0 0.1 0 0.2-0.1 0.2 0 0.3-0.1 0.4-0.1C38.3 9.5 38.3 9.5 38.3 9.5c0-0.2 0-0.3-0.1-0.3 -0.1-0.1-0.1-0.1-0.2-0.1 -0.1 0-0.2 0-0.2 0.1 0 0.1-0.1 0.2-0.1 0.3l-0.2 0c0-0.2 0-0.3 0.1-0.4 0-0.1 0.1-0.2 0.2-0.2 0.1-0.1 0.2-0.1 0.3-0.1 0.1 0 0.2 0 0.2 0.1 0.1 0 0.1 0.1 0.1 0.2 0 0.1 0.1 0.2 0.1 0.3 0 0.1 0 0.2 0 0.4v0.5c0 0.4 0 0.6 0 0.7 0 0.1 0 0.2 0.1 0.3h-0.2C38.3 10.9 38.3 10.9 38.3 10.7ZM38.3 9.9c-0.1 0.1-0.2 0.1-0.3 0.1 -0.1 0-0.1 0-0.2 0.1 0 0-0.1 0.1-0.1 0.1 0 0.1 0 0.1 0 0.2 0 0.1 0 0.2 0.1 0.3 0 0.1 0.1 0.1 0.2 0.1 0.1 0 0.1 0 0.2-0.1 0.1-0.1 0.1-0.2 0.1-0.3 0-0.1 0-0.2 0-0.4V9.9Z"/>
  <path fill="#808080" d="M38.8 11V8.8h0.2v0.3c0-0.1 0.1-0.2 0.2-0.3 0.1-0.1 0.1-0.1 0.2-0.1 0.1 0 0.2 0 0.2 0.1 0.1 0.1 0.1 0.2 0.1 0.3 0.1-0.3 0.2-0.4 0.4-0.4 0.1 0 0.2 0.1 0.3 0.2 0.1 0.1 0.1 0.3 0.1 0.6v1.6h-0.2V9.6c0-0.2 0-0.3 0-0.3 0-0.1 0-0.1-0.1-0.2 0 0-0.1-0.1-0.1-0.1 -0.1 0-0.2 0.1-0.2 0.2 -0.1 0.1-0.1 0.3-0.1 0.5v1.3h-0.2V9.6c0-0.2 0-0.3 0-0.4 0-0.1-0.1-0.1-0.2-0.1 -0.1 0-0.1 0-0.2 0.1 0 0.1-0.1 0.1-0.1 0.3 0 0.1 0 0.3 0 0.5v1.2H38.8Z"/>
  <path fill="#808080" d="M11.6 17.1l0-0.4c0 0 0.1 0 0.1 0 0 0 0.1 0 0.1 0s0-0.1 0.1-0.1c0 0 0-0.1 0.1-0.3 0 0 0-0.1 0-0.1l-0.5-2.3h0.2l0.2 1.3c0 0.2 0.1 0.3 0.1 0.5 0-0.2 0.1-0.3 0.1-0.5l0.3-1.3h0.2l-0.5 2.3c0 0.2-0.1 0.4-0.1 0.5 0 0.1-0.1 0.2-0.1 0.3 0 0.1-0.1 0.1-0.2 0.1C11.7 17.2 11.6 17.2 11.6 17.1Z"/>
  <path fill="#808080" d="M12.7 15.1c0-0.4 0.1-0.7 0.2-0.9 0.1-0.2 0.2-0.3 0.4-0.3 0.2 0 0.3 0.1 0.4 0.3 0.1 0.2 0.2 0.5 0.2 0.8 0 0.3 0 0.5-0.1 0.7 0 0.2-0.1 0.3-0.2 0.4s-0.2 0.1-0.3 0.1c-0.2 0-0.3-0.1-0.4-0.3C12.7 15.8 12.7 15.5 12.7 15.1ZM12.9 15.1c0 0.3 0 0.5 0.1 0.7 0.1 0.1 0.2 0.2 0.3 0.2 0.1 0 0.2-0.1 0.3-0.2 0.1-0.1 0.1-0.4 0.1-0.7 0-0.3 0-0.5-0.1-0.6 -0.1-0.1-0.1-0.2-0.2-0.2 -0.1 0-0.2 0.1-0.3 0.2C12.9 14.6 12.9 14.8 12.9 15.1Z"/>
  <path fill="#808080" d="M14.8 16.3v-0.3c-0.1 0.3-0.2 0.4-0.4 0.4 -0.1 0-0.1 0-0.2-0.1 -0.1-0.1-0.1-0.1-0.1-0.2 0-0.1 0-0.2-0.1-0.3 0-0.1 0-0.2 0-0.4v-1.4h0.2v1.3c0 0.2 0 0.3 0 0.4 0 0.1 0 0.2 0.1 0.2 0 0.1 0.1 0.1 0.2 0.1 0.1 0 0.1 0 0.2-0.1 0.1-0.1 0.1-0.1 0.1-0.2 0-0.1 0-0.2 0-0.4v-1.2h0.2v2.3H14.8Z"/>
  <path fill="#808080" d="M16.7 16.3v-0.3c-0.1 0.2-0.2 0.3-0.3 0.3 -0.1 0-0.2 0-0.3-0.1 -0.1-0.1-0.1-0.2-0.2-0.4 0-0.2-0.1-0.4-0.1-0.6 0-0.2 0-0.4 0.1-0.6 0-0.2 0.1-0.3 0.2-0.4 0.1-0.1 0.2-0.1 0.3-0.1 0.1 0 0.1 0 0.2 0.1 0.1 0.1 0.1 0.1 0.1 0.2v-1.1h0.2v3.1H16.7ZM16.1 15.1c0 0.3 0 0.5 0.1 0.7 0.1 0.1 0.1 0.2 0.2 0.2 0.1 0 0.2-0.1 0.2-0.2 0.1-0.1 0.1-0.3 0.1-0.6 0-0.3 0-0.5-0.1-0.7 -0.1-0.1-0.1-0.2-0.2-0.2 -0.1 0-0.2 0.1-0.2 0.2C16.1 14.6 16.1 14.8 16.1 15.1Z"/>
  <path fill="#808080" d="M17.2 13.6v-0.4h0.2v0.4H17.2ZM17.2 16.3v-2.3h0.2v2.3H17.2Z"/>
  <path fill="#808080" d="M18.5 16.3v-0.3c-0.1 0.2-0.2 0.3-0.3 0.3 -0.1 0-0.2 0-0.3-0.1 -0.1-0.1-0.1-0.2-0.2-0.4 0-0.2-0.1-0.4-0.1-0.6 0-0.2 0-0.4 0.1-0.6 0-0.2 0.1-0.3 0.2-0.4 0.1-0.1 0.2-0.1 0.3-0.1 0.1 0 0.1 0 0.2 0.1 0.1 0.1 0.1 0.1 0.1 0.2v-1.1h0.2v3.1H18.5ZM17.9 15.1c0 0.3 0 0.5 0.1 0.7 0.1 0.1 0.1 0.2 0.2 0.2 0.1 0 0.2-0.1 0.2-0.2 0.1-0.1 0.1-0.3 0.1-0.6 0-0.3 0-0.5-0.1-0.7 -0.1-0.1-0.1-0.2-0.2-0.2 -0.1 0-0.2 0.1-0.2 0.2C17.9 14.6 17.9 14.8 17.9 15.1Z"/>
  <path fill="#808080" d="M20.4 16c-0.1 0.1-0.1 0.2-0.2 0.3 -0.1 0-0.1 0.1-0.2 0.1 -0.1 0-0.2-0.1-0.3-0.2 -0.1-0.1-0.1-0.3-0.1-0.5 0-0.1 0-0.2 0-0.3 0-0.1 0.1-0.2 0.1-0.2 0-0.1 0.1-0.1 0.1-0.1 0 0 0.1 0 0.2-0.1 0.2 0 0.3-0.1 0.4-0.1 0-0.1 0-0.1 0-0.1 0-0.2 0-0.3-0.1-0.3 -0.1-0.1-0.1-0.1-0.2-0.1 -0.1 0-0.2 0-0.2 0.1 0 0.1-0.1 0.2-0.1 0.3l-0.2-0.1c0-0.2 0-0.3 0.1-0.4 0-0.1 0.1-0.2 0.2-0.2 0.1-0.1 0.2-0.1 0.3-0.1s0.2 0 0.2 0.1c0.1 0 0.1 0.1 0.1 0.2 0 0.1 0.1 0.2 0.1 0.3 0 0.1 0 0.2 0 0.4v0.5c0 0.4 0 0.6 0 0.7 0 0.1 0 0.2 0.1 0.3H20.5C20.5 16.2 20.5 16.1 20.4 16ZM20.4 15.1c-0.1 0.1-0.2 0.1-0.3 0.1 -0.1 0-0.1 0-0.2 0.1 0 0-0.1 0.1-0.1 0.1 0 0.1 0 0.1 0 0.2 0 0.1 0 0.2 0.1 0.3 0 0.1 0.1 0.1 0.2 0.1s0.1 0 0.2-0.1c0.1-0.1 0.1-0.2 0.1-0.3 0-0.1 0-0.2 0-0.4V15.1Z"/>
  <path fill="#808080" d="M21.6 16.5l0.2 0.1c0 0.1 0 0.2 0.1 0.3 0.1 0.1 0.1 0.1 0.2 0.1 0.1 0 0.2 0 0.2-0.1 0.1-0.1 0.1-0.2 0.1-0.3 0-0.1 0-0.2 0-0.5 -0.1 0.2-0.2 0.3-0.3 0.3 -0.2 0-0.3-0.1-0.4-0.3 -0.1-0.2-0.1-0.5-0.1-0.8 0-0.2 0-0.4 0.1-0.6 0-0.2 0.1-0.3 0.2-0.4 0.1-0.1 0.2-0.1 0.3-0.1 0.1 0 0.3 0.1 0.3 0.3v-0.3h0.2v2c0 0.4 0 0.6-0.1 0.8 0 0.1-0.1 0.3-0.2 0.4 -0.1 0.1-0.2 0.1-0.3 0.1 -0.1 0-0.3-0.1-0.3-0.2C21.6 16.9 21.6 16.7 21.6 16.5ZM21.7 15.1c0 0.3 0 0.5 0.1 0.7 0.1 0.1 0.1 0.2 0.2 0.2 0.1 0 0.2-0.1 0.2-0.2 0.1-0.1 0.1-0.3 0.1-0.6 0-0.3 0-0.5-0.1-0.6 -0.1-0.1-0.1-0.2-0.2-0.2 -0.1 0-0.2 0.1-0.2 0.2C21.8 14.6 21.7 14.8 21.7 15.1Z"/>
  <path fill="#808080" d="M22.9 16.3v-2.3h0.2v0.3c0-0.2 0.1-0.3 0.1-0.3 0-0.1 0.1-0.1 0.1-0.1 0.1 0 0.1 0 0.2 0.1l-0.1 0.4c0-0.1-0.1-0.1-0.1-0.1 0 0-0.1 0-0.1 0.1 0 0.1-0.1 0.1-0.1 0.2 0 0.1 0 0.3 0 0.4v1.2H22.9Z"/>
  <path fill="#808080" d="M24.5 15.5l0.2 0.1c0 0.2-0.1 0.4-0.2 0.5 -0.1 0.1-0.2 0.2-0.3 0.2 -0.2 0-0.3-0.1-0.4-0.3 -0.1-0.2-0.2-0.5-0.2-0.9 0-0.4 0.1-0.7 0.2-0.9 0.1-0.2 0.2-0.3 0.4-0.3 0.2 0 0.3 0.1 0.4 0.3 0.1 0.2 0.2 0.5 0.2 0.9 0 0 0 0.1 0 0.1h-0.9c0 0.2 0 0.4 0.1 0.6s0.1 0.2 0.3 0.2c0.1 0 0.1 0 0.2-0.1C24.4 15.8 24.4 15.7 24.5 15.5ZM23.8 14.9h0.7c0-0.2 0-0.3-0.1-0.4 -0.1-0.1-0.1-0.2-0.2-0.2 -0.1 0-0.2 0.1-0.2 0.2C23.8 14.6 23.8 14.7 23.8 14.9Z"/>
  <path fill="#808080" d="M25.7 16c-0.1 0.1-0.1 0.2-0.2 0.3 -0.1 0-0.1 0.1-0.2 0.1 -0.1 0-0.2-0.1-0.3-0.2 -0.1-0.1-0.1-0.3-0.1-0.5 0-0.1 0-0.2 0-0.3 0-0.1 0.1-0.2 0.1-0.2 0-0.1 0.1-0.1 0.1-0.1 0 0 0.1 0 0.2-0.1 0.2 0 0.3-0.1 0.4-0.1 0-0.1 0-0.1 0-0.1 0-0.2 0-0.3-0.1-0.3 -0.1-0.1-0.1-0.1-0.2-0.1 -0.1 0-0.2 0-0.2 0.1 0 0.1-0.1 0.2-0.1 0.3l-0.2-0.1c0-0.2 0-0.3 0.1-0.4 0-0.1 0.1-0.2 0.2-0.2 0.1-0.1 0.2-0.1 0.3-0.1 0.1 0 0.2 0 0.2 0.1 0.1 0 0.1 0.1 0.1 0.2 0 0.1 0.1 0.2 0.1 0.3 0 0.1 0 0.2 0 0.4v0.5c0 0.4 0 0.6 0 0.7 0 0.1 0 0.2 0.1 0.3h-0.2C25.7 16.2 25.7 16.1 25.7 16ZM25.7 15.1c-0.1 0.1-0.2 0.1-0.3 0.1 -0.1 0-0.1 0-0.2 0.1 0 0-0.1 0.1-0.1 0.1 0 0.1 0 0.1 0 0.2 0 0.1 0 0.2 0.1 0.3 0 0.1 0.1 0.1 0.2 0.1s0.1 0 0.2-0.1c0.1-0.1 0.1-0.2 0.1-0.3 0-0.1 0-0.2 0-0.4V15.1Z"/>
  <path fill="#808080" d="M26.6 15.9l0 0.3c-0.1 0-0.1 0-0.2 0 -0.1 0-0.1 0-0.2-0.1 0 0-0.1-0.1-0.1-0.2 0-0.1 0-0.2 0-0.5v-1.3h-0.1v-0.3h0.1v-0.6l0.2-0.2v0.8h0.2v0.3h-0.2v1.3c0 0.1 0 0.2 0 0.2 0 0 0 0.1 0 0.1 0 0 0 0 0.1 0C26.6 15.9 26.6 15.9 26.6 15.9Z"/>
  <path fill="#808080" d="M27.2 17.2l0-0.3c0 0 0.1 0 0.1 0 0 0 0.1 0 0.1-0.1s0-0.2 0-0.4v-2.4h0.2v2.4c0 0.3 0 0.5-0.1 0.6 0 0.1-0.1 0.2-0.2 0.2C27.3 17.2 27.3 17.2 27.2 17.2ZM27.5 13.6v-0.4h0.2v0.4H27.5Z"/>
  <path fill="#808080" d="M27.9 15.1c0-0.4 0.1-0.7 0.2-0.9 0.1-0.2 0.2-0.3 0.4-0.3 0.2 0 0.3 0.1 0.4 0.3 0.1 0.2 0.2 0.5 0.2 0.8 0 0.3 0 0.5-0.1 0.7 0 0.2-0.1 0.3-0.2 0.4 -0.1 0.1-0.2 0.1-0.3 0.1 -0.2 0-0.3-0.1-0.4-0.3C28 15.8 27.9 15.5 27.9 15.1ZM28.1 15.1c0 0.3 0 0.5 0.1 0.7 0.1 0.1 0.2 0.2 0.3 0.2 0.1 0 0.2-0.1 0.3-0.2 0.1-0.1 0.1-0.4 0.1-0.7 0-0.3 0-0.5-0.1-0.6 -0.1-0.1-0.1-0.2-0.2-0.2s-0.2 0.1-0.2 0.2C28.2 14.6 28.1 14.8 28.1 15.1Z"/>
  <path fill="#808080" d="M29.5 16.3h-0.2v-3.1h0.2v1.1c0.1-0.2 0.2-0.3 0.3-0.3 0.1 0 0.1 0 0.2 0.1 0.1 0.1 0.1 0.1 0.2 0.2 0 0.1 0.1 0.2 0.1 0.4 0 0.1 0 0.3 0 0.5 0 0.4 0 0.7-0.2 0.9 -0.1 0.2-0.2 0.3-0.4 0.3 -0.1 0-0.2-0.1-0.3-0.3V16.3ZM29.5 15.1c0 0.3 0 0.5 0.1 0.6 0.1 0.2 0.1 0.3 0.3 0.3 0.1 0 0.2-0.1 0.2-0.2 0.1-0.1 0.1-0.4 0.1-0.7 0-0.3 0-0.5-0.1-0.7 -0.1-0.1-0.1-0.2-0.2-0.2 -0.1 0-0.2 0.1-0.2 0.2C29.5 14.6 29.5 14.8 29.5 15.1Z"/>
  <path fill="#808080" d="M31.4 16.3l-0.4-2.3h0.2l0.2 1.3 0.1 0.5c0 0 0-0.2 0.1-0.5l0.2-1.3h0.2l0.2 1.3 0.1 0.4 0.1-0.4 0.2-1.3h0.2l-0.4 2.3h-0.2l-0.2-1.4 0-0.4 -0.2 1.7H31.4Z"/>
  <path fill="#808080" d="M32.8 13.6v-0.4h0.2v0.4H32.8ZM32.8 16.3v-2.3h0.2v2.3H32.8Z"/>
  <path fill="#808080" d="M33.8 15.9l0 0.3c-0.1 0-0.1 0-0.2 0 -0.1 0-0.1 0-0.2-0.1 0 0-0.1-0.1-0.1-0.2 0-0.1 0-0.2 0-0.5v-1.3h-0.1v-0.3h0.1v-0.6l0.2-0.2v0.8h0.2v0.3h-0.2v1.3c0 0.1 0 0.2 0 0.2 0 0 0 0.1 0 0.1 0 0 0 0 0.1 0C33.7 15.9 33.8 15.9 33.8 15.9Z"/>
  <path fill="#808080" d="M34 16.3v-3.1H34.2v1.1c0.1-0.2 0.2-0.3 0.4-0.3 0.1 0 0.2 0 0.2 0.1 0.1 0.1 0.1 0.2 0.1 0.3 0 0.1 0 0.3 0 0.5v1.4h-0.2v-1.4c0-0.2 0-0.3-0.1-0.4 0-0.1-0.1-0.1-0.2-0.1 -0.1 0-0.1 0-0.2 0.1 -0.1 0.1-0.1 0.1-0.1 0.2 0 0.1 0 0.2 0 0.4v1.2H34Z"/>
  <path fill="#808080" d="M36.7 16c-0.1 0.1-0.1 0.2-0.2 0.3 -0.1 0-0.1 0.1-0.2 0.1 -0.1 0-0.2-0.1-0.3-0.2 -0.1-0.1-0.1-0.3-0.1-0.5 0-0.1 0-0.2 0-0.3 0-0.1 0.1-0.2 0.1-0.2 0-0.1 0.1-0.1 0.1-0.1 0 0 0.1 0 0.2-0.1 0.2 0 0.3-0.1 0.4-0.1 0-0.1 0-0.1 0-0.1 0-0.2 0-0.3-0.1-0.3 0-0.1-0.1-0.1-0.2-0.1 -0.1 0-0.2 0-0.2 0.1 0 0.1-0.1 0.2-0.1 0.3l-0.2-0.1c0-0.2 0-0.3 0.1-0.4 0-0.1 0.1-0.2 0.2-0.2 0.1-0.1 0.2-0.1 0.3-0.1s0.2 0 0.3 0.1c0.1 0 0.1 0.1 0.1 0.2 0 0.1 0.1 0.2 0.1 0.3 0 0.1 0 0.2 0 0.4v0.5c0 0.4 0 0.6 0 0.7 0 0.1 0 0.2 0.1 0.3h-0.2C36.7 16.2 36.7 16.1 36.7 16ZM36.7 15.1c-0.1 0.1-0.2 0.1-0.3 0.1 -0.1 0-0.1 0-0.2 0.1 0 0-0.1 0.1-0.1 0.1 0 0.1 0 0.1 0 0.2 0 0.1 0 0.2 0.1 0.3 0 0.1 0.1 0.1 0.2 0.1 0.1 0 0.1 0 0.2-0.1 0.1-0.1 0.1-0.2 0.1-0.3 0-0.1 0-0.2 0-0.4V15.1Z"/>
  <path fill="#808080" d="M37.2 16.3v-3.1h0.2v3.1H37.2Z"/>
  <path fill="#808080" d="M37.7 16.3v-3.1h0.2v3.1H37.7Z"/>
  <path fill="#808080" d="M12.4 21.2c-0.1 0.1-0.1 0.2-0.2 0.3 -0.1 0-0.1 0.1-0.2 0.1 -0.1 0-0.2-0.1-0.3-0.2 -0.1-0.1-0.1-0.3-0.1-0.5 0-0.1 0-0.2 0-0.3 0-0.1 0.1-0.2 0.1-0.2 0-0.1 0.1-0.1 0.1-0.1 0 0 0.1 0 0.2-0.1 0.2 0 0.3-0.1 0.4-0.1 0-0.1 0-0.1 0-0.1 0-0.2 0-0.3-0.1-0.3 -0.1-0.1-0.1-0.1-0.2-0.1 -0.1 0-0.2 0-0.2 0.1 0 0.1-0.1 0.2-0.1 0.3l-0.2-0.1c0-0.2 0-0.3 0.1-0.4 0-0.1 0.1-0.2 0.2-0.2 0.1-0.1 0.2-0.1 0.3-0.1 0.1 0 0.2 0 0.2 0.1 0.1 0 0.1 0.1 0.1 0.2 0 0.1 0.1 0.2 0.1 0.3 0 0.1 0 0.2 0 0.4v0.5c0 0.4 0 0.6 0 0.7 0 0.1 0 0.2 0.1 0.3h-0.2C12.4 21.4 12.4 21.3 12.4 21.2ZM12.4 20.4c-0.1 0.1-0.2 0.1-0.3 0.1 -0.1 0-0.1 0-0.2 0.1 0 0-0.1 0.1-0.1 0.1 0 0.1 0 0.1 0 0.2 0 0.1 0 0.2 0.1 0.3 0 0.1 0.1 0.1 0.2 0.1 0.1 0 0.1 0 0.2-0.1 0.1-0.1 0.1-0.2 0.1-0.3 0-0.1 0-0.2 0-0.4V20.4Z"/>
  <path fill="#808080" d="M12.9 22.4V19.3h0.2v0.3c0-0.1 0.1-0.2 0.1-0.3 0.1-0.1 0.1-0.1 0.2-0.1 0.1 0 0.2 0.1 0.3 0.2 0.1 0.1 0.1 0.2 0.2 0.4 0 0.2 0.1 0.4 0.1 0.6 0 0.2 0 0.4-0.1 0.6 0 0.2-0.1 0.3-0.2 0.4 -0.1 0.1-0.2 0.1-0.3 0.1 -0.1 0-0.1 0-0.2-0.1 -0.1-0.1-0.1-0.1-0.1-0.2v1.1H12.9ZM13.1 20.4c0 0.3 0 0.5 0.1 0.6 0.1 0.1 0.1 0.2 0.2 0.2 0.1 0 0.2-0.1 0.2-0.2 0.1-0.1 0.1-0.4 0.1-0.7 0-0.3 0-0.5-0.1-0.6 -0.1-0.1-0.1-0.2-0.2-0.2 -0.1 0-0.2 0.1-0.2 0.2C13.1 19.9 13.1 20.1 13.1 20.4Z"/>
  <path fill="#808080" d="M14.2 22.4V19.3h0.2v0.3c0-0.1 0.1-0.2 0.1-0.3 0.1-0.1 0.1-0.1 0.2-0.1 0.1 0 0.2 0.1 0.3 0.2 0.1 0.1 0.1 0.2 0.2 0.4 0 0.2 0.1 0.4 0.1 0.6 0 0.2 0 0.4-0.1 0.6 0 0.2-0.1 0.3-0.2 0.4 -0.1 0.1-0.2 0.1-0.3 0.1 -0.1 0-0.1 0-0.2-0.1 -0.1-0.1-0.1-0.1-0.1-0.2v1.1H14.2ZM14.4 20.4c0 0.3 0 0.5 0.1 0.6 0.1 0.1 0.1 0.2 0.2 0.2 0.1 0 0.2-0.1 0.2-0.2C15 20.9 15 20.7 15 20.4c0-0.3 0-0.5-0.1-0.6 -0.1-0.1-0.1-0.2-0.2-0.2 -0.1 0-0.2 0.1-0.2 0.2C14.4 19.9 14.4 20.1 14.4 20.4Z"/>
  <path fill="#808080" d="M15.4 21.5v-3.1h0.2v3.1H15.4Z"/>
  <path fill="#808080" d="M16 18.8v-0.4h0.2v0.4H16ZM16 21.5V19.3h0.2v2.3H16Z"/>
  <path fill="#808080" d="M17.3 20.7l0.2 0c0 0.3-0.1 0.5-0.2 0.6 -0.1 0.1-0.2 0.2-0.3 0.2 -0.2 0-0.3-0.1-0.4-0.3 -0.1-0.2-0.1-0.5-0.1-0.9 0-0.2 0-0.5 0.1-0.6 0-0.2 0.1-0.3 0.2-0.4 0.1-0.1 0.2-0.1 0.3-0.1 0.1 0 0.2 0.1 0.3 0.2 0.1 0.1 0.1 0.3 0.2 0.5l-0.2 0.1c0-0.2-0.1-0.3-0.1-0.3 0-0.1-0.1-0.1-0.2-0.1 -0.1 0-0.2 0.1-0.2 0.2 -0.1 0.1-0.1 0.4-0.1 0.7 0 0.3 0 0.5 0.1 0.7 0.1 0.1 0.1 0.2 0.2 0.2 0.1 0 0.1 0 0.2-0.1C17.2 21 17.2 20.9 17.3 20.7Z"/>
  <path fill="#808080" d="M18.4 21.2c-0.1 0.1-0.1 0.2-0.2 0.3 -0.1 0-0.1 0.1-0.2 0.1 -0.1 0-0.2-0.1-0.3-0.2 -0.1-0.1-0.1-0.3-0.1-0.5 0-0.1 0-0.2 0-0.3 0-0.1 0.1-0.2 0.1-0.2 0-0.1 0.1-0.1 0.1-0.1 0 0 0.1 0 0.2-0.1 0.2 0 0.3-0.1 0.4-0.1 0-0.1 0-0.1 0-0.1 0-0.2 0-0.3-0.1-0.3 -0.1-0.1-0.1-0.1-0.2-0.1 -0.1 0-0.2 0-0.2 0.1 0 0.1-0.1 0.2-0.1 0.3l-0.2-0.1c0-0.2 0-0.3 0.1-0.4 0-0.1 0.1-0.2 0.2-0.2 0.1-0.1 0.2-0.1 0.3-0.1 0.1 0 0.2 0 0.2 0.1 0.1 0 0.1 0.1 0.1 0.2 0 0.1 0.1 0.2 0.1 0.3 0 0.1 0 0.2 0 0.4v0.5c0 0.4 0 0.6 0 0.7 0 0.1 0 0.2 0.1 0.3h-0.2C18.4 21.4 18.4 21.3 18.4 21.2ZM18.4 20.4c-0.1 0.1-0.2 0.1-0.3 0.1 -0.1 0-0.1 0-0.2 0.1 0 0-0.1 0.1-0.1 0.1 0 0.1 0 0.1 0 0.2 0 0.1 0 0.2 0.1 0.3 0 0.1 0.1 0.1 0.2 0.1 0.1 0 0.1 0 0.2-0.1 0.1-0.1 0.1-0.2 0.1-0.3 0-0.1 0-0.2 0-0.4V20.4Z"/>
  <path fill="#808080" d="M19.3 21.2l0 0.3c-0.1 0-0.1 0-0.2 0 -0.1 0-0.1 0-0.2-0.1 0 0-0.1-0.1-0.1-0.2 0-0.1 0-0.2 0-0.5v-1.3h-0.1V19.3h0.1v-0.6l0.2-0.2v0.8h0.2v0.3h-0.2v1.3c0 0.1 0 0.2 0 0.2 0 0 0 0.1 0 0.1 0 0 0 0 0.1 0C19.3 21.2 19.3 21.2 19.3 21.2Z"/>
  <path fill="#808080" d="M19.5 18.8v-0.4h0.2v0.4H19.5ZM19.5 21.5V19.3h0.2v2.3H19.5Z"/>
  <path fill="#808080" d="M20 20.4c0-0.4 0.1-0.7 0.2-0.9 0.1-0.2 0.2-0.3 0.4-0.3 0.2 0 0.3 0.1 0.4 0.3 0.1 0.2 0.2 0.5 0.2 0.8 0 0.3 0 0.5-0.1 0.7 0 0.2-0.1 0.3-0.2 0.4 -0.1 0.1-0.2 0.1-0.3 0.1 -0.2 0-0.3-0.1-0.4-0.3C20 21.1 20 20.8 20 20.4ZM20.2 20.4c0 0.3 0 0.5 0.1 0.7 0.1 0.1 0.2 0.2 0.3 0.2 0.1 0 0.2-0.1 0.3-0.2 0.1-0.1 0.1-0.4 0.1-0.7 0-0.3 0-0.5-0.1-0.6 -0.1-0.1-0.1-0.2-0.2-0.2s-0.2 0.1-0.2 0.2C20.2 19.9 20.2 20.1 20.2 20.4Z"/>
  <path fill="#808080" d="M21.3 21.5V19.3h0.2v0.3c0.1-0.2 0.2-0.4 0.4-0.4 0.1 0 0.1 0 0.2 0.1 0.1 0 0.1 0.1 0.1 0.2s0.1 0.2 0.1 0.3c0 0.1 0 0.2 0 0.4v1.4h-0.2v-1.4c0-0.2 0-0.3 0-0.4 0-0.1 0-0.1-0.1-0.2 0 0-0.1-0.1-0.1-0.1 -0.1 0-0.2 0.1-0.2 0.2 -0.1 0.1-0.1 0.3-0.1 0.6v1.2H21.3Z"/>
  <path fill="#808080" d="M23.7 21.2l0 0.3c-0.1 0-0.1 0-0.2 0 -0.1 0-0.1 0-0.2-0.1 0 0-0.1-0.1-0.1-0.2 0-0.1 0-0.2 0-0.5v-1.3h-0.1V19.3h0.1v-0.6l0.2-0.2v0.8h0.2v0.3h-0.2v1.3c0 0.1 0 0.2 0 0.2 0 0 0 0.1 0 0.1 0 0 0 0 0.1 0C23.6 21.2 23.7 21.2 23.7 21.2Z"/>
  <path fill="#808080" d="M23.9 21.5v-3.1h0.2v1.1c0.1-0.2 0.2-0.3 0.4-0.3 0.1 0 0.2 0 0.2 0.1 0.1 0.1 0.1 0.2 0.1 0.3 0 0.1 0 0.3 0 0.5v1.4h-0.2V20.1c0-0.2 0-0.3-0.1-0.4 0-0.1-0.1-0.1-0.2-0.1 -0.1 0-0.1 0-0.2 0.1 -0.1 0.1-0.1 0.1-0.1 0.2s0 0.2 0 0.4v1.2H23.9Z"/>
  <path fill="#808080" d="M26 21.2c-0.1 0.1-0.1 0.2-0.2 0.3 -0.1 0-0.1 0.1-0.2 0.1 -0.1 0-0.2-0.1-0.3-0.2 -0.1-0.1-0.1-0.3-0.1-0.5 0-0.1 0-0.2 0-0.3 0-0.1 0.1-0.2 0.1-0.2 0-0.1 0.1-0.1 0.1-0.1 0 0 0.1 0 0.2-0.1 0.2 0 0.3-0.1 0.4-0.1 0-0.1 0-0.1 0-0.1 0-0.2 0-0.3-0.1-0.3 -0.1-0.1-0.1-0.1-0.2-0.1 -0.1 0-0.2 0-0.2 0.1 0 0.1-0.1 0.2-0.1 0.3l-0.2-0.1c0-0.2 0-0.3 0.1-0.4 0-0.1 0.1-0.2 0.2-0.2 0.1-0.1 0.2-0.1 0.3-0.1 0.1 0 0.2 0 0.2 0.1 0.1 0 0.1 0.1 0.1 0.2 0 0.1 0.1 0.2 0.1 0.3 0 0.1 0 0.2 0 0.4v0.5c0 0.4 0 0.6 0 0.7 0 0.1 0 0.2 0.1 0.3h-0.2C26 21.4 26 21.3 26 21.2ZM25.9 20.4c-0.1 0.1-0.2 0.1-0.3 0.1 -0.1 0-0.1 0-0.2 0.1 0 0-0.1 0.1-0.1 0.1 0 0.1 0 0.1 0 0.2 0 0.1 0 0.2 0.1 0.3 0 0.1 0.1 0.1 0.2 0.1 0.1 0 0.1 0 0.2-0.1 0.1-0.1 0.1-0.2 0.1-0.3 0-0.1 0-0.2 0-0.4V20.4Z"/>
  <path fill="#808080" d="M26.9 21.2l0 0.3c-0.1 0-0.1 0-0.2 0 -0.1 0-0.1 0-0.2-0.1 0 0-0.1-0.1-0.1-0.2 0-0.1 0-0.2 0-0.5v-1.3h-0.1V19.3h0.1v-0.6l0.2-0.2v0.8h0.2v0.3H26.7v1.3c0 0.1 0 0.2 0 0.2 0 0 0 0.1 0 0.1 0 0 0 0 0.1 0C26.8 21.2 26.9 21.2 26.9 21.2Z"/>
  <path fill="#808080" d="M28 21.5l-0.4-2.3h0.2l0.2 1.3 0.1 0.5c0 0 0-0.2 0.1-0.5l0.2-1.3h0.2l0.2 1.3 0.1 0.4 0.1-0.4 0.2-1.3h0.2l-0.4 2.3h-0.2l-0.2-1.4 0-0.4 -0.2 1.7H28Z"/>
  <path fill="#808080" d="M30.2 21.2c-0.1 0.1-0.1 0.2-0.2 0.3 -0.1 0-0.1 0.1-0.2 0.1 -0.1 0-0.2-0.1-0.3-0.2 -0.1-0.1-0.1-0.3-0.1-0.5 0-0.1 0-0.2 0-0.3 0-0.1 0.1-0.2 0.1-0.2 0-0.1 0.1-0.1 0.1-0.1 0 0 0.1 0 0.2-0.1 0.2 0 0.3-0.1 0.4-0.1 0-0.1 0-0.1 0-0.1 0-0.2 0-0.3-0.1-0.3 -0.1-0.1-0.1-0.1-0.2-0.1 -0.1 0-0.2 0-0.2 0.1 0 0.1-0.1 0.2-0.1 0.3l-0.2-0.1c0-0.2 0-0.3 0.1-0.4 0-0.1 0.1-0.2 0.2-0.2 0.1-0.1 0.2-0.1 0.3-0.1 0.1 0 0.2 0 0.2 0.1 0.1 0 0.1 0.1 0.1 0.2 0 0.1 0.1 0.2 0.1 0.3 0 0.1 0 0.2 0 0.4v0.5c0 0.4 0 0.6 0 0.7 0 0.1 0 0.2 0.1 0.3h-0.2C30.2 21.4 30.2 21.3 30.2 21.2ZM30.2 20.4c-0.1 0.1-0.2 0.1-0.3 0.1 -0.1 0-0.1 0-0.2 0.1 0 0-0.1 0.1-0.1 0.1 0 0.1 0 0.1 0 0.2 0 0.1 0 0.2 0.1 0.3 0 0.1 0.1 0.1 0.2 0.1 0.1 0 0.1 0 0.2-0.1 0.1-0.1 0.1-0.2 0.1-0.3 0-0.1 0-0.2 0-0.4V20.4Z"/>
  <path fill="#808080" d="M30.6 20.8l0.2-0.1c0 0.2 0 0.3 0.1 0.4 0.1 0.1 0.1 0.1 0.2 0.1 0.1 0 0.2 0 0.2-0.1 0-0.1 0.1-0.2 0.1-0.3 0-0.1 0-0.2-0.1-0.2 0 0-0.1-0.1-0.2-0.1 -0.1-0.1-0.2-0.1-0.3-0.2 -0.1-0.1-0.1-0.1-0.1-0.2 0-0.1 0-0.2 0-0.3 0-0.1 0-0.2 0-0.3 0-0.1 0.1-0.2 0.1-0.2 0 0 0.1-0.1 0.1-0.1 0.1 0 0.1 0 0.2 0 0.1 0 0.2 0 0.2 0.1 0.1 0.1 0.1 0.1 0.2 0.2 0 0.1 0.1 0.2 0.1 0.4l-0.2 0.1c0-0.1 0-0.2-0.1-0.3 0-0.1-0.1-0.1-0.2-0.1 -0.1 0-0.2 0-0.2 0.1 0 0.1-0.1 0.1-0.1 0.2 0 0 0 0.1 0 0.1 0 0 0 0.1 0.1 0.1 0 0 0.1 0 0.2 0.1 0.1 0.1 0.2 0.1 0.3 0.2 0.1 0 0.1 0.1 0.1 0.2 0 0.1 0 0.2 0 0.3 0 0.1 0 0.2-0.1 0.4 0 0.1-0.1 0.2-0.2 0.3 -0.1 0.1-0.2 0.1-0.3 0.1 -0.2 0-0.3-0.1-0.4-0.2C30.7 21.3 30.6 21.1 30.6 20.8Z"/>
  <path fill="#808080" d="M32.9 21.2l0 0.3c-0.1 0-0.1 0-0.2 0 -0.1 0-0.1 0-0.2-0.1 0 0-0.1-0.1-0.1-0.2 0-0.1 0-0.2 0-0.5v-1.3h-0.1V19.3h0.2v-0.6l0.2-0.2v0.8h0.2v0.3h-0.2v1.3c0 0.1 0 0.2 0 0.2 0 0 0 0.1 0 0.1 0 0 0 0 0.1 0C32.8 21.2 32.9 21.2 32.9 21.2Z"/>
  <path fill="#808080" d="M33.1 21.5v-3.1h0.2v1.1c0.1-0.2 0.2-0.3 0.4-0.3 0.1 0 0.2 0 0.2 0.1 0.1 0.1 0.1 0.2 0.1 0.3 0 0.1 0 0.3 0 0.5v1.4h-0.2V20.1c0-0.2 0-0.3-0.1-0.4 0-0.1-0.1-0.1-0.2-0.1 -0.1 0-0.1 0-0.2 0.1s-0.1 0.1-0.1 0.2c0 0.1 0 0.2 0 0.4v1.2H33.1Z"/>
  <path fill="#808080" d="M34.4 21.5V19.3h0.2v0.3c0-0.2 0.1-0.3 0.1-0.3 0-0.1 0.1-0.1 0.1-0.1 0.1 0 0.1 0 0.2 0.1l-0.1 0.4c0-0.1-0.1-0.1-0.1-0.1 0 0-0.1 0-0.1 0.1 0 0.1-0.1 0.1-0.1 0.2 0 0.1 0 0.3 0 0.4v1.2H34.4Z"/>
  <path fill="#808080" d="M35.1 20.4c0-0.4 0.1-0.7 0.2-0.9 0.1-0.2 0.2-0.3 0.4-0.3 0.2 0 0.3 0.1 0.4 0.3s0.2 0.5 0.2 0.8c0 0.3 0 0.5-0.1 0.7s-0.1 0.3-0.2 0.4c-0.1 0.1-0.2 0.1-0.3 0.1 -0.2 0-0.3-0.1-0.4-0.3C35.1 21.1 35.1 20.8 35.1 20.4ZM35.3 20.4c0 0.3 0 0.5 0.1 0.7 0.1 0.1 0.1 0.2 0.2 0.2 0.1 0 0.2-0.1 0.3-0.2 0.1-0.1 0.1-0.4 0.1-0.7 0-0.3 0-0.5-0.1-0.6 -0.1-0.1-0.1-0.2-0.3-0.2 -0.1 0-0.2 0.1-0.2 0.2C35.3 19.9 35.3 20.1 35.3 20.4Z"/>
  <path fill="#808080" d="M36.6 21.5l-0.4-2.3h0.2l0.2 1.3 0.1 0.5c0 0 0-0.2 0.1-0.5l0.2-1.3h0.2l0.2 1.3 0.1 0.4 0.1-0.4 0.2-1.3h0.2l-0.4 2.3h-0.2l-0.2-1.4L37.1 19.8l-0.2 1.7H36.6Z"/>
  <path fill="#808080" d="M38.1 21.5V19.3h0.2v0.3c0.1-0.2 0.2-0.4 0.4-0.4 0.1 0 0.1 0 0.2 0.1 0.1 0 0.1 0.1 0.1 0.2 0 0.1 0.1 0.2 0.1 0.3 0 0.1 0 0.2 0 0.4v1.4h-0.2v-1.4c0-0.2 0-0.3 0-0.4s0-0.1-0.1-0.2c0 0-0.1-0.1-0.1-0.1 -0.1 0-0.2 0.1-0.2 0.2 -0.1 0.1-0.1 0.3-0.1 0.6v1.2H38.1Z"/>
  <path fill="#808080" d="M40.8 21.2c-0.1 0.1-0.1 0.2-0.2 0.3 -0.1 0-0.1 0.1-0.2 0.1 -0.1 0-0.2-0.1-0.3-0.2 -0.1-0.1-0.1-0.3-0.1-0.5 0-0.1 0-0.2 0-0.3 0-0.1 0.1-0.2 0.1-0.2 0-0.1 0.1-0.1 0.1-0.1 0 0 0.1 0 0.2-0.1 0.2 0 0.3-0.1 0.4-0.1 0-0.1 0-0.1 0-0.1 0-0.2 0-0.3-0.1-0.3 -0.1-0.1-0.1-0.1-0.2-0.1 -0.1 0-0.2 0-0.2 0.1 0 0.1-0.1 0.2-0.1 0.3l-0.2-0.1c0-0.2 0-0.3 0.1-0.4 0-0.1 0.1-0.2 0.2-0.2 0.1-0.1 0.2-0.1 0.3-0.1 0.1 0 0.2 0 0.2 0.1 0.1 0 0.1 0.1 0.1 0.2 0 0.1 0.1 0.2 0.1 0.3 0 0.1 0 0.2 0 0.4v0.5c0 0.4 0 0.6 0 0.7 0 0.1 0 0.2 0.1 0.3h-0.2C40.8 21.4 40.8 21.3 40.8 21.2ZM40.8 20.4c-0.1 0.1-0.2 0.1-0.3 0.1 -0.1 0-0.1 0-0.2 0.1 0 0-0.1 0.1-0.1 0.1 0 0.1 0 0.1 0 0.2 0 0.1 0 0.2 0.1 0.3 0 0.1 0.1 0.1 0.2 0.1s0.1 0 0.2-0.1c0.1-0.1 0.1-0.2 0.1-0.3 0-0.1 0-0.2 0-0.4V20.4Z"/>
  <path fill="#808080" d="M41.7 21.2l0 0.3c-0.1 0-0.1 0-0.1 0 -0.1 0-0.1 0-0.2-0.1 0 0-0.1-0.1-0.1-0.2 0-0.1 0-0.2 0-0.5v-1.3h-0.1V19.3h0.2v-0.6l0.2-0.2v0.8h0.2v0.3h-0.2v1.3c0 0.1 0 0.2 0 0.2 0 0 0 0.1 0 0.1 0 0 0 0 0.1 0C41.7 21.2 41.7 21.2 41.7 21.2Z"/>
  <path fill="#808080" d="M11.6 27.6l0-0.4c0 0 0.1 0 0.1 0 0 0 0.1 0 0.1 0 0 0 0-0.1 0.1-0.1 0 0 0-0.1 0.1-0.3 0 0 0-0.1 0-0.1l-0.5-2.3h0.2l0.2 1.3c0 0.2 0.1 0.3 0.1 0.5 0-0.2 0.1-0.3 0.1-0.5l0.3-1.3h0.2l-0.5 2.3c0 0.2-0.1 0.4-0.1 0.5 0 0.1-0.1 0.2-0.1 0.3 0 0.1-0.1 0.1-0.2 0.1C11.7 27.7 11.6 27.7 11.6 27.6Z"/>
  <path fill="#808080" d="M12.7 25.6c0-0.4 0.1-0.7 0.2-0.9 0.1-0.2 0.2-0.3 0.4-0.3 0.2 0 0.3 0.1 0.4 0.3 0.1 0.2 0.2 0.5 0.2 0.8 0 0.3 0 0.5-0.1 0.7 0 0.2-0.1 0.3-0.2 0.4 -0.1 0.1-0.2 0.1-0.3 0.1 -0.2 0-0.3-0.1-0.4-0.3C12.7 26.3 12.7 26 12.7 25.6ZM12.9 25.6c0 0.3 0 0.5 0.1 0.7 0.1 0.1 0.2 0.2 0.3 0.2 0.1 0 0.2-0.1 0.3-0.2s0.1-0.4 0.1-0.7c0-0.3 0-0.5-0.1-0.6 -0.1-0.1-0.1-0.2-0.2-0.2 -0.1 0-0.2 0.1-0.3 0.2C12.9 25.1 12.9 25.3 12.9 25.6Z"/>
  <path fill="#808080" d="M14.8 26.8v-0.3c-0.1 0.3-0.2 0.4-0.4 0.4 -0.1 0-0.1 0-0.2-0.1 -0.1 0-0.1-0.1-0.1-0.2 0-0.1 0-0.2-0.1-0.3 0-0.1 0-0.2 0-0.4v-1.4h0.2v1.3c0 0.2 0 0.3 0 0.4 0 0.1 0 0.2 0.1 0.2 0 0.1 0.1 0.1 0.2 0.1 0.1 0 0.1 0 0.2-0.1 0.1-0.1 0.1-0.1 0.1-0.2 0-0.1 0-0.2 0-0.4v-1.2h0.2v2.3H14.8Z"/>
  <path fill="#808080" d="M15.4 26.8v-0.4h0.2v0.4H15.4Z"/>
  <path fill="#808080" d="M12.1 32V29.3h-0.5v-0.4h1.3v0.4h-0.5v2.8H12.1Z"/>
  <path fill="#808080" d="M13 32v-3.1h0.2v1.1c0.1-0.2 0.2-0.3 0.4-0.3 0.1 0 0.2 0 0.2 0.1 0.1 0.1 0.1 0.2 0.1 0.3 0 0.1 0 0.3 0 0.5v1.4h-0.2v-1.4c0-0.2 0-0.3-0.1-0.4 0-0.1-0.1-0.1-0.2-0.1 -0.1 0-0.1 0-0.2 0.1 -0.1 0.1-0.1 0.1-0.1 0.2 0 0.1 0 0.2 0 0.4v1.2H13Z"/>
  <path fill="#808080" d="M14.3 29.3v-0.4h0.2v0.4H14.3ZM14.3 32v-2.3h0.2v2.3H14.3Z"/>
  <path fill="#808080" d="M14.7 31.3l0.2-0.1c0 0.2 0 0.3 0.1 0.3 0.1 0.1 0.1 0.1 0.2 0.1s0.2 0 0.2-0.1c0-0.1 0.1-0.2 0.1-0.3 0-0.1 0-0.2-0.1-0.2 0 0-0.1-0.1-0.2-0.1 -0.1-0.1-0.3-0.1-0.3-0.2 -0.1-0.1-0.1-0.1-0.1-0.2 0-0.1 0-0.2 0-0.3 0-0.1 0-0.2 0-0.3 0-0.1 0.1-0.2 0.1-0.2 0 0 0.1-0.1 0.1-0.1 0.1 0 0.1 0 0.2 0 0.1 0 0.2 0 0.2 0.1 0.1 0.1 0.1 0.1 0.2 0.2s0.1 0.2 0.1 0.4l-0.2 0.1c0-0.1 0-0.2-0.1-0.3 0-0.1-0.1-0.1-0.2-0.1 -0.1 0-0.2 0-0.2 0.1 0 0.1-0.1 0.1-0.1 0.2 0 0.1 0 0.1 0 0.1 0 0 0 0.1 0.1 0.1 0 0 0.1 0 0.2 0.1 0.1 0.1 0.2 0.1 0.3 0.2 0.1 0 0.1 0.1 0.1 0.2 0 0.1 0 0.2 0 0.3 0 0.1 0 0.3-0.1 0.4 0 0.1-0.1 0.2-0.2 0.3s-0.2 0.1-0.3 0.1c-0.2 0-0.3-0.1-0.4-0.2S14.7 31.6 14.7 31.3Z"/>
  <path fill="#808080" d="M16.6 29.3v-0.4H16.8v0.4H16.6ZM16.6 32v-2.3H16.8v2.3H16.6Z"/>
  <path fill="#808080" d="M17 31.3l0.2-0.1c0 0.2 0 0.3 0.1 0.3 0.1 0.1 0.1 0.1 0.2 0.1 0.1 0 0.2 0 0.2-0.1 0-0.1 0.1-0.2 0.1-0.3 0-0.1 0-0.2-0.1-0.2 0 0-0.1-0.1-0.2-0.1 -0.1-0.1-0.3-0.1-0.3-0.2 -0.1-0.1-0.1-0.1-0.1-0.2 0-0.1 0-0.2 0-0.3 0-0.1 0-0.2 0-0.3 0-0.1 0.1-0.2 0.1-0.2 0 0 0.1-0.1 0.1-0.1 0.1 0 0.1 0 0.2 0 0.1 0 0.2 0 0.2 0.1 0.1 0.1 0.1 0.1 0.2 0.2 0 0.1 0.1 0.2 0.1 0.4l-0.2 0.1c0-0.1 0-0.2-0.1-0.3 0-0.1-0.1-0.1-0.2-0.1 -0.1 0-0.2 0-0.2 0.1 0 0.1-0.1 0.1-0.1 0.2 0 0.1 0 0.1 0 0.1 0 0 0 0.1 0.1 0.1 0 0 0.1 0 0.2 0.1 0.1 0.1 0.2 0.1 0.3 0.2 0.1 0 0.1 0.1 0.1 0.2 0 0.1 0 0.2 0 0.3 0 0.1 0 0.3-0.1 0.4 0 0.1-0.1 0.2-0.2 0.3 -0.1 0.1-0.2 0.1-0.3 0.1 -0.2 0-0.3-0.1-0.4-0.2C17.1 31.8 17.1 31.6 17 31.3Z"/>
  <path fill="#808080" d="M19.3 31.7l0 0.3c-0.1 0-0.1 0-0.2 0 -0.1 0-0.1 0-0.2-0.1 0 0-0.1-0.1-0.1-0.2 0-0.1 0-0.2 0-0.5v-1.3h-0.1v-0.3h0.1v-0.6l0.2-0.2v0.8h0.2v0.3h-0.2v1.3c0 0.1 0 0.2 0 0.2 0 0 0 0.1 0 0.1 0 0 0 0 0.1 0C19.3 31.7 19.3 31.7 19.3 31.7Z"/>
  <path fill="#808080" d="M19.5 32v-3.1h0.2v1.1c0.1-0.2 0.2-0.3 0.4-0.3 0.1 0 0.2 0 0.2 0.1 0.1 0.1 0.1 0.2 0.1 0.3 0 0.1 0 0.3 0 0.5v1.4h-0.2v-1.4c0-0.2 0-0.3-0.1-0.4 0-0.1-0.1-0.1-0.2-0.1 -0.1 0-0.1 0-0.2 0.1 -0.1 0.1-0.1 0.1-0.1 0.2 0 0.1 0 0.2 0 0.4v1.2H19.5Z"/>
  <path fill="#808080" d="M21.6 31.3l0.2 0.1c0 0.2-0.1 0.4-0.2 0.5 -0.1 0.1-0.2 0.2-0.3 0.2 -0.2 0-0.3-0.1-0.4-0.3 -0.1-0.2-0.2-0.5-0.2-0.9 0-0.4 0.1-0.7 0.2-0.9 0.1-0.2 0.2-0.3 0.4-0.3 0.2 0 0.3 0.1 0.4 0.3 0.1 0.2 0.2 0.5 0.2 0.9 0 0 0 0.1 0 0.1h-0.9c0 0.2 0 0.4 0.1 0.6 0.1 0.1 0.1 0.2 0.3 0.2 0.1 0 0.1 0 0.2-0.1C21.6 31.6 21.6 31.4 21.6 31.3ZM21 30.7h0.7c0-0.2 0-0.3-0.1-0.4 -0.1-0.1-0.1-0.2-0.2-0.2 -0.1 0-0.2 0.1-0.2 0.2C21 30.3 21 30.5 21 30.7Z"/>
  <path fill="#808080" d="M22.8 32v-2h-0.2v-0.3h0.2V29.5c0-0.1 0-0.3 0-0.3 0-0.1 0.1-0.2 0.1-0.2 0-0.1 0.1-0.1 0.2-0.1 0.1 0 0.1 0 0.2 0l0 0.3c0 0-0.1 0-0.1 0 -0.1 0-0.1 0-0.1 0.1 0 0.1 0 0.1 0 0.3v0.2h0.2v0.3h-0.2v2H22.8Z"/>
  <path fill="#808080" d="M23.4 29.3v-0.4h0.2v0.4H23.4ZM23.4 32v-2.3h0.2v2.3H23.4Z"/>
  <path fill="#808080" d="M23.9 32v-2.3h0.2v0.3c0.1-0.2 0.2-0.4 0.4-0.4 0.1 0 0.1 0 0.2 0.1 0.1 0.1 0.1 0.1 0.1 0.2 0 0.1 0.1 0.2 0.1 0.3 0 0.1 0 0.2 0 0.4v1.4h-0.2v-1.4c0-0.2 0-0.3 0-0.4 0-0.1 0-0.1-0.1-0.2 0 0-0.1-0.1-0.1-0.1 -0.1 0-0.2 0.1-0.2 0.2 -0.1 0.1-0.1 0.3-0.1 0.6v1.2H23.9Z"/>
  <path fill="#808080" d="M25.9 31.7c-0.1 0.1-0.1 0.2-0.2 0.3 -0.1 0.1-0.1 0.1-0.2 0.1 -0.1 0-0.2-0.1-0.3-0.2 -0.1-0.1-0.1-0.3-0.1-0.5 0-0.1 0-0.2 0-0.3 0-0.1 0.1-0.2 0.1-0.2 0-0.1 0.1-0.1 0.1-0.1 0 0 0.1 0 0.2-0.1 0.2 0 0.3-0.1 0.4-0.1 0-0.1 0-0.1 0-0.1 0-0.2 0-0.3-0.1-0.3 -0.1-0.1-0.1-0.1-0.2-0.1 -0.1 0-0.2 0-0.2 0.1 0 0.1-0.1 0.2-0.1 0.3l-0.2-0.1c0-0.2 0-0.3 0.1-0.4 0-0.1 0.1-0.2 0.2-0.2 0.1-0.1 0.2-0.1 0.3-0.1 0.1 0 0.2 0 0.2 0.1 0.1 0 0.1 0.1 0.1 0.2 0 0.1 0.1 0.2 0.1 0.3 0 0.1 0 0.2 0 0.4v0.5c0 0.4 0 0.6 0 0.7 0 0.1 0 0.2 0.1 0.3h-0.2C26 31.9 26 31.8 25.9 31.7ZM25.9 30.9c-0.1 0.1-0.2 0.1-0.3 0.1 -0.1 0-0.1 0-0.2 0.1 0 0-0.1 0.1-0.1 0.1 0 0.1 0 0.1 0 0.2 0 0.1 0 0.2 0.1 0.3 0 0.1 0.1 0.1 0.2 0.1 0.1 0 0.1 0 0.2-0.1 0.1-0.1 0.1-0.2 0.1-0.3 0-0.1 0-0.2 0-0.4V30.9Z"/>
  <path fill="#808080" d="M26.4 32v-3.1h0.2v3.1H26.4Z"/>
  <path fill="#808080" d="M27.5 31.3l0.2-0.1c0 0.2 0 0.3 0.1 0.3 0.1 0.1 0.1 0.1 0.2 0.1 0.1 0 0.2 0 0.2-0.1 0-0.1 0.1-0.2 0.1-0.3 0-0.1 0-0.2-0.1-0.2 0 0-0.1-0.1-0.2-0.1 -0.1-0.1-0.2-0.1-0.3-0.2 -0.1-0.1-0.1-0.1-0.1-0.2 0-0.1 0-0.2 0-0.3 0-0.1 0-0.2 0-0.3 0-0.1 0.1-0.2 0.1-0.2 0 0 0.1-0.1 0.1-0.1 0.1 0 0.1 0 0.2 0 0.1 0 0.2 0 0.2 0.1 0.1 0.1 0.1 0.1 0.2 0.2 0 0.1 0.1 0.2 0.1 0.4l-0.2 0.1c0-0.1 0-0.2-0.1-0.3 0-0.1-0.1-0.1-0.2-0.1 -0.1 0-0.2 0-0.2 0.1 0 0.1-0.1 0.1-0.1 0.2 0 0.1 0 0.1 0 0.1 0 0 0 0.1 0.1 0.1 0 0 0.1 0 0.2 0.1 0.1 0.1 0.2 0.1 0.3 0.2 0.1 0 0.1 0.1 0.1 0.2 0 0.1 0.1 0.2 0.1 0.3 0 0.1 0 0.3-0.1 0.4 0 0.1-0.1 0.2-0.2 0.3 -0.1 0.1-0.2 0.1-0.3 0.1 -0.2 0-0.3-0.1-0.4-0.2C27.6 31.8 27.5 31.6 27.5 31.3Z"/>
  <path fill="#808080" d="M29.2 31.7l0 0.3c-0.1 0-0.1 0-0.2 0 -0.1 0-0.1 0-0.2-0.1 0 0-0.1-0.1-0.1-0.2 0-0.1 0-0.2 0-0.5v-1.3h-0.1v-0.3h0.1v-0.6l0.2-0.2v0.8h0.2v0.3h-0.2v1.3c0 0.1 0 0.2 0 0.2 0 0 0 0.1 0 0.1 0 0 0 0 0.1 0C29.1 31.7 29.2 31.7 29.2 31.7Z"/>
  <path fill="#808080" d="M30.2 31.7c-0.1 0.1-0.1 0.2-0.2 0.3 -0.1 0.1-0.1 0.1-0.2 0.1 -0.1 0-0.2-0.1-0.3-0.2 -0.1-0.1-0.1-0.3-0.1-0.5 0-0.1 0-0.2 0-0.3 0-0.1 0.1-0.2 0.1-0.2 0-0.1 0.1-0.1 0.1-0.1 0 0 0.1 0 0.2-0.1 0.2 0 0.3-0.1 0.4-0.1 0-0.1 0-0.1 0-0.1 0-0.2 0-0.3-0.1-0.3 -0.1-0.1-0.1-0.1-0.2-0.1 -0.1 0-0.2 0-0.2 0.1 0 0.1-0.1 0.2-0.1 0.3l-0.2-0.1c0-0.2 0-0.3 0.1-0.4 0-0.1 0.1-0.2 0.2-0.2 0.1-0.1 0.2-0.1 0.3-0.1 0.1 0 0.2 0 0.2 0.1 0.1 0 0.1 0.1 0.1 0.2 0 0.1 0.1 0.2 0.1 0.3 0 0.1 0 0.2 0 0.4v0.5c0 0.4 0 0.6 0 0.7 0 0.1 0 0.2 0.1 0.3h-0.2C30.2 31.9 30.2 31.8 30.2 31.7ZM30.2 30.9c-0.1 0.1-0.2 0.1-0.3 0.1 -0.1 0-0.1 0-0.2 0.1 0 0-0.1 0.1-0.1 0.1 0 0.1 0 0.1 0 0.2 0 0.1 0 0.2 0.1 0.3 0 0.1 0.1 0.1 0.2 0.1 0.1 0 0.1 0 0.2-0.1 0.1-0.1 0.1-0.2 0.1-0.3 0-0.1 0-0.2 0-0.4V30.9Z"/>
  <path fill="#808080" d="M31.1 31.7l0 0.3c-0.1 0-0.1 0-0.2 0 -0.1 0-0.1 0-0.2-0.1 0 0-0.1-0.1-0.1-0.2 0-0.1 0-0.2 0-0.5v-1.3h-0.1v-0.3h0.1v-0.6l0.2-0.2v0.8h0.2v0.3h-0.2v1.3c0 0.1 0 0.2 0 0.2 0 0 0 0.1 0 0.1 0 0 0 0 0.1 0C31 31.7 31.1 31.7 31.1 31.7Z"/>
  <path fill="#808080" d="M32.1 31.3l0.2 0.1c0 0.2-0.1 0.4-0.2 0.5s-0.2 0.2-0.3 0.2c-0.2 0-0.3-0.1-0.4-0.3 -0.1-0.2-0.2-0.5-0.2-0.9 0-0.4 0.1-0.7 0.2-0.9 0.1-0.2 0.2-0.3 0.4-0.3 0.2 0 0.3 0.1 0.4 0.3 0.1 0.2 0.2 0.5 0.2 0.9 0 0 0 0.1 0 0.1h-0.9c0 0.2 0 0.4 0.1 0.6 0.1 0.1 0.2 0.2 0.2 0.2 0.1 0 0.1 0 0.2-0.1C32.1 31.6 32.1 31.4 32.1 31.3ZM31.5 30.7h0.7c0-0.2 0-0.3-0.1-0.4 -0.1-0.1-0.1-0.2-0.2-0.2 -0.1 0-0.2 0.1-0.2 0.2C31.5 30.3 31.5 30.5 31.5 30.7Z"/>
  <path fill="#808080" d="M32.6 32v-2.3h0.2v0.3c0-0.1 0.1-0.2 0.1-0.3 0.1-0.1 0.1-0.1 0.2-0.1 0.1 0 0.2 0 0.2 0.1 0.1 0.1 0.1 0.2 0.1 0.3 0.1-0.3 0.2-0.4 0.4-0.4 0.1 0 0.2 0.1 0.3 0.2 0.1 0.1 0.1 0.3 0.1 0.6v1.6h-0.2v-1.4c0-0.2 0-0.3 0-0.3 0-0.1 0-0.1-0.1-0.2 0 0-0.1-0.1-0.1-0.1 -0.1 0-0.2 0.1-0.2 0.2 -0.1 0.1-0.1 0.3-0.1 0.5v1.3h-0.2v-1.5c0-0.2 0-0.3-0.1-0.4 0-0.1-0.1-0.1-0.2-0.1 -0.1 0-0.1 0-0.2 0.1 0 0.1-0.1 0.1-0.1 0.3 0 0.1 0 0.3 0 0.5v1.2H32.6Z"/>
  <path fill="#808080" d="M35.3 31.3l0.2 0.1c0 0.2-0.1 0.4-0.2 0.5s-0.2 0.2-0.3 0.2c-0.2 0-0.3-0.1-0.4-0.3 -0.1-0.2-0.2-0.5-0.2-0.9 0-0.4 0.1-0.7 0.2-0.9 0.1-0.2 0.2-0.3 0.4-0.3 0.2 0 0.3 0.1 0.4 0.3 0.1 0.2 0.2 0.5 0.2 0.9 0 0 0 0.1 0 0.1h-0.9c0 0.2 0 0.4 0.1 0.6 0.1 0.1 0.2 0.2 0.2 0.2 0.1 0 0.1 0 0.2-0.1C35.2 31.6 35.3 31.4 35.3 31.3ZM34.7 30.7h0.7c0-0.2 0-0.3-0.1-0.4 -0.1-0.1-0.1-0.2-0.3-0.2 -0.1 0-0.2 0.1-0.2 0.2C34.7 30.3 34.7 30.5 34.7 30.7Z"/>
  <path fill="#808080" d="M35.8 32v-2.3h0.2v0.3c0.1-0.2 0.2-0.4 0.4-0.4 0.1 0 0.1 0 0.2 0.1 0.1 0.1 0.1 0.1 0.1 0.2 0 0.1 0.1 0.2 0.1 0.3 0 0.1 0 0.2 0 0.4v1.4h-0.2v-1.4c0-0.2 0-0.3 0-0.4 0-0.1 0-0.1-0.1-0.2 0 0-0.1-0.1-0.1-0.1 -0.1 0-0.2 0.1-0.2 0.2 -0.1 0.1-0.1 0.3-0.1 0.6v1.2H35.8Z"/>
  <path fill="#808080" d="M37.5 31.7l0 0.3c-0.1 0-0.1 0-0.2 0 -0.1 0-0.1 0-0.2-0.1 0 0-0.1-0.1-0.1-0.2 0-0.1 0-0.2 0-0.5v-1.3h-0.1v-0.3H37.1v-0.6l0.2-0.2v0.8h0.2v0.3h-0.2v1.3c0 0.1 0 0.2 0 0.2 0 0 0 0.1 0 0.1 0 0 0 0 0.1 0C37.4 31.7 37.5 31.7 37.5 31.7Z"/>
  <path fill="#808080" d="M38.8 31.7l0 0.3c-0.1 0-0.1 0-0.2 0 -0.1 0-0.1 0-0.2-0.1 0 0-0.1-0.1-0.1-0.2 0-0.1 0-0.2 0-0.5v-1.3h-0.1v-0.3h0.2v-0.6l0.2-0.2v0.8h0.2v0.3H38.6v1.3c0 0.1 0 0.2 0 0.2 0 0 0 0.1 0 0.1 0 0 0 0 0.1 0C38.7 31.7 38.7 31.7 38.8 31.7Z"/>
  <path fill="#808080" d="M39 32v-3.1h0.2v1.1c0.1-0.2 0.2-0.3 0.4-0.3 0.1 0 0.2 0 0.2 0.1 0.1 0.1 0.1 0.2 0.1 0.3 0 0.1 0 0.3 0 0.5v1.4h-0.2v-1.4c0-0.2 0-0.3-0.1-0.4 0-0.1-0.1-0.1-0.2-0.1 -0.1 0-0.1 0-0.2 0.1 -0.1 0.1-0.1 0.1-0.1 0.2 0 0.1 0 0.2 0 0.4v1.2H39Z"/>
  <path fill="#808080" d="M41 31.7c-0.1 0.1-0.1 0.2-0.2 0.3 -0.1 0.1-0.1 0.1-0.2 0.1 -0.1 0-0.2-0.1-0.3-0.2 -0.1-0.1-0.1-0.3-0.1-0.5 0-0.1 0-0.2 0-0.3 0-0.1 0.1-0.2 0.1-0.2 0-0.1 0.1-0.1 0.1-0.1 0 0 0.1 0 0.2-0.1 0.2 0 0.3-0.1 0.4-0.1 0-0.1 0-0.1 0-0.1 0-0.2 0-0.3-0.1-0.3 -0.1-0.1-0.1-0.1-0.2-0.1 -0.1 0-0.2 0-0.2 0.1 0 0.1-0.1 0.2-0.1 0.3l-0.2-0.1c0-0.2 0-0.3 0.1-0.4 0-0.1 0.1-0.2 0.2-0.2 0.1-0.1 0.2-0.1 0.3-0.1s0.2 0 0.2 0.1c0.1 0 0.1 0.1 0.1 0.2 0 0.1 0.1 0.2 0.1 0.3 0 0.1 0 0.2 0 0.4v0.5c0 0.4 0 0.6 0 0.7 0 0.1 0 0.2 0.1 0.3h-0.2C41.1 31.9 41 31.8 41 31.7ZM41 30.9c-0.1 0.1-0.2 0.1-0.3 0.1 -0.1 0-0.1 0-0.2 0.1 0 0-0.1 0.1-0.1 0.1 0 0.1 0 0.1 0 0.2 0 0.1 0 0.2 0.1 0.3 0 0.1 0.1 0.1 0.2 0.1 0.1 0 0.1 0 0.2-0.1 0.1-0.1 0.1-0.2 0.1-0.3 0-0.1 0-0.2 0-0.4V30.9Z"/>
  <path fill="#808080" d="M42 31.7l0 0.3c-0.1 0-0.1 0-0.2 0 -0.1 0-0.1 0-0.2-0.1 0 0-0.1-0.1-0.1-0.2 0-0.1 0-0.2 0-0.5v-1.3h-0.1v-0.3h0.1v-0.6l0.2-0.2v0.8h0.2v0.3h-0.2v1.3c0 0.1 0 0.2 0 0.2 0 0 0 0.1 0 0.1 0 0 0 0 0.1 0C41.9 31.7 41.9 31.7 42 31.7Z"/>
  <path fill="#808080" d="M11.8 37.3l-0.4-2.3h0.2l0.2 1.3 0.1 0.5c0 0 0-0.2 0.1-0.5l0.2-1.3h0.2l0.2 1.3 0.1 0.4 0.1-0.4 0.2-1.3h0.2l-0.4 2.3h-0.2L12.3 35.9l0-0.4 -0.2 1.7H11.8Z"/>
  <path fill="#808080" d="M13.3 34.6v-0.4h0.2v0.4H13.3ZM13.3 37.3v-2.3h0.2v2.3H13.3Z"/>
  <path fill="#808080" d="M13.8 37.3v-3.1h0.2v3.1H13.8Z"/>
  <path fill="#808080" d="M14.3 37.3v-3.1h0.2v3.1H14.3Z"/>
  <path fill="#808080" d="M15.6 37.3h-0.2v-3.1h0.2v1.1c0.1-0.2 0.2-0.3 0.3-0.3 0.1 0 0.1 0 0.2 0.1 0.1 0.1 0.1 0.1 0.2 0.2 0 0.1 0.1 0.2 0.1 0.4 0 0.1 0 0.3 0 0.5 0 0.4-0.1 0.7-0.2 0.9 -0.1 0.2-0.2 0.3-0.4 0.3 -0.1 0-0.2-0.1-0.3-0.3V37.3ZM15.6 36.1c0 0.3 0 0.5 0.1 0.6 0.1 0.2 0.1 0.3 0.3 0.3 0.1 0 0.2-0.1 0.2-0.2 0.1-0.1 0.1-0.4 0.1-0.7 0-0.3 0-0.5-0.1-0.7 -0.1-0.1-0.1-0.2-0.2-0.2 -0.1 0-0.2 0.1-0.2 0.2C15.7 35.6 15.6 35.8 15.6 36.1Z"/>
  <path fill="#808080" d="M17.5 36.5l0.2 0c0 0.2-0.1 0.4-0.2 0.5 -0.1 0.1-0.2 0.2-0.3 0.2 -0.2 0-0.3-0.1-0.4-0.3 -0.1-0.2-0.2-0.5-0.2-0.9 0-0.4 0.1-0.7 0.2-0.9 0.1-0.2 0.2-0.3 0.4-0.3 0.2 0 0.3 0.1 0.4 0.3 0.1 0.2 0.2 0.5 0.2 0.9 0 0 0 0.1 0 0.1h-0.9c0 0.3 0 0.4 0.1 0.6 0.1 0.1 0.1 0.2 0.2 0.2 0.1 0 0.1 0 0.2-0.1C17.5 36.8 17.5 36.7 17.5 36.5ZM16.9 35.9h0.7c0-0.2 0-0.3-0.1-0.4 -0.1-0.1-0.1-0.2-0.2-0.2 -0.1 0-0.2 0.1-0.2 0.2C16.9 35.6 16.9 35.7 16.9 35.9Z"/>
  <path fill="#808080" d="M18.6 37.4l0.2 0.1c0 0.1 0 0.2 0.1 0.3 0 0.1 0.1 0.1 0.2 0.1 0.1 0 0.2 0 0.2-0.1 0.1-0.1 0.1-0.2 0.1-0.3 0-0.1 0-0.2 0-0.5 -0.1 0.2-0.2 0.3-0.3 0.3 -0.2 0-0.3-0.1-0.4-0.3 -0.1-0.2-0.1-0.5-0.1-0.8 0-0.2 0-0.4 0.1-0.6 0-0.2 0.1-0.3 0.2-0.4 0.1-0.1 0.2-0.1 0.3-0.1 0.1 0 0.3 0.1 0.3 0.3v-0.3h0.2v2c0 0.4 0 0.6-0.1 0.8 0 0.1-0.1 0.3-0.2 0.4 -0.1 0.1-0.2 0.1-0.3 0.1 -0.1 0-0.3-0.1-0.3-0.2C18.6 37.9 18.6 37.7 18.6 37.4ZM18.8 36.1c0 0.3 0 0.5 0.1 0.6 0.1 0.1 0.1 0.2 0.2 0.2s0.2-0.1 0.2-0.2c0.1-0.1 0.1-0.3 0.1-0.6 0-0.3 0-0.5-0.1-0.6 -0.1-0.1-0.1-0.2-0.2-0.2 -0.1 0-0.2 0.1-0.2 0.2C18.8 35.6 18.8 35.8 18.8 36.1Z"/>
  <path fill="#808080" d="M19.8 36.1c0-0.4 0.1-0.7 0.2-0.9 0.1-0.2 0.2-0.3 0.4-0.3 0.2 0 0.3 0.1 0.4 0.3 0.1 0.2 0.2 0.5 0.2 0.8 0 0.3 0 0.5-0.1 0.7 0 0.2-0.1 0.3-0.2 0.4 -0.1 0.1-0.2 0.1-0.3 0.1 -0.2 0-0.3-0.1-0.4-0.3C19.9 36.8 19.8 36.5 19.8 36.1ZM20.1 36.1c0 0.3 0 0.5 0.1 0.7 0.1 0.1 0.2 0.2 0.3 0.2 0.1 0 0.2-0.1 0.3-0.2 0.1-0.1 0.1-0.4 0.1-0.7 0-0.3 0-0.5-0.1-0.6 -0.1-0.1-0.2-0.2-0.2-0.2 -0.1 0-0.2 0.1-0.3 0.2C20.1 35.6 20.1 35.8 20.1 36.1Z"/>
  <path fill="#808080" d="M21.2 34.6v-0.4h0.2v0.4H21.2ZM21.2 37.3v-2.3h0.2v2.3H21.2Z"/>
  <path fill="#808080" d="M21.7 37.3v-2.3h0.2v0.3c0.1-0.2 0.2-0.4 0.4-0.4 0.1 0 0.1 0 0.2 0.1 0.1 0 0.1 0.1 0.1 0.2 0 0.1 0.1 0.2 0.1 0.3 0 0.1 0 0.2 0 0.4v1.4h-0.2v-1.4c0-0.2 0-0.3 0-0.4 0-0.1 0-0.1-0.1-0.2s-0.1-0.1-0.1-0.1c-0.1 0-0.2 0.1-0.2 0.2 -0.1 0.1-0.1 0.3-0.1 0.6v1.2H21.7Z"/>
  <path fill="#808080" d="M23 37.4l0.2 0.1c0 0.1 0 0.2 0.1 0.3 0.1 0.1 0.1 0.1 0.2 0.1 0.1 0 0.2 0 0.2-0.1 0.1-0.1 0.1-0.2 0.1-0.3 0-0.1 0-0.2 0-0.5 -0.1 0.2-0.2 0.3-0.3 0.3 -0.2 0-0.3-0.1-0.4-0.3 -0.1-0.2-0.1-0.5-0.1-0.8 0-0.2 0-0.4 0.1-0.6 0-0.2 0.1-0.3 0.2-0.4 0.1-0.1 0.2-0.1 0.3-0.1 0.1 0 0.3 0.1 0.3 0.3v-0.3h0.2v2c0 0.4 0 0.6-0.1 0.8 0 0.1-0.1 0.3-0.2 0.4 -0.1 0.1-0.2 0.1-0.3 0.1 -0.1 0-0.3-0.1-0.3-0.2C23 37.9 23 37.7 23 37.4ZM23.1 36.1c0 0.3 0 0.5 0.1 0.6 0.1 0.1 0.1 0.2 0.2 0.2 0.1 0 0.2-0.1 0.2-0.2 0.1-0.1 0.1-0.3 0.1-0.6 0-0.3 0-0.5-0.1-0.6 -0.1-0.1-0.1-0.2-0.2-0.2 -0.1 0-0.2 0.1-0.2 0.2C23.2 35.6 23.1 35.8 23.1 36.1Z"/>
  <path fill="#808080" d="M24.8 36.1c0-0.4 0.1-0.7 0.2-0.9 0.1-0.2 0.2-0.3 0.4-0.3 0.2 0 0.3 0.1 0.4 0.3 0.1 0.2 0.2 0.5 0.2 0.8 0 0.3 0 0.5-0.1 0.7 0 0.2-0.1 0.3-0.2 0.4 -0.1 0.1-0.2 0.1-0.3 0.1 -0.2 0-0.3-0.1-0.4-0.3C24.9 36.8 24.8 36.5 24.8 36.1ZM25 36.1c0 0.3 0 0.5 0.1 0.7 0.1 0.1 0.2 0.2 0.3 0.2 0.1 0 0.2-0.1 0.3-0.2 0.1-0.1 0.1-0.4 0.1-0.7 0-0.3 0-0.5-0.1-0.6 -0.1-0.1-0.1-0.2-0.2-0.2 -0.1 0-0.2 0.1-0.3 0.2C25.1 35.6 25 35.8 25 36.1Z"/>
  <path fill="#808080" d="M26.2 37.3v-2.3h0.2v0.3c0.1-0.2 0.2-0.4 0.4-0.4 0.1 0 0.1 0 0.2 0.1 0.1 0 0.1 0.1 0.1 0.2 0 0.1 0.1 0.2 0.1 0.3 0 0.1 0 0.2 0 0.4v1.4h-0.2v-1.4c0-0.2 0-0.3 0-0.4 0-0.1 0-0.1-0.1-0.2 0 0-0.1-0.1-0.1-0.1 -0.1 0-0.2 0.1-0.2 0.2 -0.1 0.1-0.1 0.3-0.1 0.6v1.2H26.2Z"/>
  <path fill="#808080" d="M28.6 36.9l0 0.3c-0.1 0-0.1 0-0.2 0 -0.1 0-0.1 0-0.2-0.1 0 0-0.1-0.1-0.1-0.2 0-0.1 0-0.2 0-0.5v-1.3h-0.1v-0.3h0.1v-0.6l0.2-0.2v0.8h0.2v0.3h-0.2v1.3c0 0.1 0 0.2 0 0.2 0 0 0 0.1 0 0.1 0 0 0 0 0.1 0C28.5 36.9 28.5 36.9 28.6 36.9Z"/>
  <path fill="#808080" d="M28.8 37.3v-3.1h0.2v1.1c0.1-0.2 0.2-0.3 0.4-0.3 0.1 0 0.2 0 0.2 0.1 0.1 0.1 0.1 0.2 0.1 0.3 0 0.1 0 0.3 0 0.5v1.4h-0.2v-1.4c0-0.2 0-0.3-0.1-0.4 0-0.1-0.1-0.1-0.2-0.1 -0.1 0-0.1 0-0.2 0.1 -0.1 0.1-0.1 0.1-0.1 0.2 0 0.1 0 0.2 0 0.4v1.2H28.8Z"/>
  <path fill="#808080" d="M30 34.6v-0.4h0.2v0.4H30ZM30 37.3v-2.3h0.2v2.3H30Z"/>
  <path fill="#808080" d="M30.5 36.6l0.2-0.1c0 0.2 0 0.3 0.1 0.4 0.1 0.1 0.1 0.1 0.2 0.1 0.1 0 0.2 0 0.2-0.1 0-0.1 0.1-0.2 0.1-0.3 0-0.1 0-0.2-0.1-0.2 0 0-0.1-0.1-0.2-0.1 -0.1-0.1-0.2-0.1-0.3-0.2 -0.1-0.1-0.1-0.1-0.1-0.2 0-0.1 0-0.2 0-0.3 0-0.1 0-0.2 0-0.3 0-0.1 0.1-0.2 0.1-0.2 0 0 0.1-0.1 0.1-0.1 0.1 0 0.1 0 0.2 0 0.1 0 0.2 0 0.2 0.1 0.1 0.1 0.1 0.1 0.2 0.2 0 0.1 0.1 0.2 0.1 0.4l-0.2 0.1c0-0.1 0-0.2-0.1-0.3 0-0.1-0.1-0.1-0.2-0.1 -0.1 0-0.2 0-0.2 0.1 0 0.1-0.1 0.1-0.1 0.2 0 0.1 0 0.1 0 0.1 0 0 0 0.1 0.1 0.1 0 0 0.1 0 0.2 0.1 0.1 0.1 0.2 0.1 0.3 0.2 0.1 0 0.1 0.1 0.1 0.2 0 0.1 0 0.2 0 0.3 0 0.1 0 0.2-0.1 0.4 0 0.1-0.1 0.2-0.2 0.3 -0.1 0.1-0.2 0.1-0.3 0.1 -0.2 0-0.3-0.1-0.4-0.2C30.5 37 30.5 36.8 30.5 36.6Z"/>
  <path fill="#808080" d="M32.3 34.6v-0.4h0.2v0.4H32.3ZM32.3 37.3v-2.3h0.2v2.3H32.3Z"/>
  <path fill="#808080" d="M32.8 37.3v-2.3h0.2v0.3c0-0.1 0.1-0.2 0.1-0.3 0.1-0.1 0.1-0.1 0.2-0.1 0.1 0 0.2 0 0.2 0.1 0.1 0.1 0.1 0.2 0.1 0.3 0.1-0.3 0.2-0.4 0.4-0.4 0.1 0 0.2 0.1 0.3 0.2 0.1 0.1 0.1 0.3 0.1 0.6v1.6h-0.2v-1.4c0-0.2 0-0.3 0-0.3 0-0.1 0-0.1-0.1-0.2 0 0-0.1-0.1-0.1-0.1 -0.1 0-0.2 0.1-0.2 0.2 -0.1 0.1-0.1 0.3-0.1 0.5v1.3h-0.2v-1.5c0-0.2 0-0.3 0-0.4 0-0.1-0.1-0.1-0.2-0.1 -0.1 0-0.1 0-0.2 0.1 0 0.1-0.1 0.1-0.1 0.2 0 0.1 0 0.3 0 0.5v1.2H32.8Z"/>
  <path fill="#808080" d="M35.5 37c-0.1 0.1-0.1 0.2-0.2 0.3 -0.1 0.1-0.1 0.1-0.2 0.1 -0.1 0-0.2-0.1-0.3-0.2 -0.1-0.1-0.1-0.3-0.1-0.5 0-0.1 0-0.2 0-0.3 0-0.1 0.1-0.2 0.1-0.2 0-0.1 0.1-0.1 0.1-0.1 0 0 0.1 0 0.2-0.1 0.2 0 0.3-0.1 0.4-0.1 0-0.1 0-0.1 0-0.1 0-0.2 0-0.3-0.1-0.3 -0.1-0.1-0.1-0.1-0.2-0.1 -0.1 0-0.2 0-0.2 0.1 0 0.1-0.1 0.2-0.1 0.3l-0.2-0.1c0-0.2 0-0.3 0.1-0.4 0-0.1 0.1-0.2 0.2-0.2 0.1-0.1 0.2-0.1 0.3-0.1 0.1 0 0.2 0 0.2 0.1 0.1 0 0.1 0.1 0.1 0.2 0 0.1 0.1 0.2 0.1 0.3 0 0.1 0 0.2 0 0.4v0.5c0 0.4 0 0.6 0 0.7 0 0.1 0 0.2 0.1 0.3h-0.2C35.6 37.2 35.5 37.1 35.5 37ZM35.5 36.1c-0.1 0.1-0.2 0.1-0.3 0.1 -0.1 0-0.1 0-0.2 0.1 0 0-0.1 0.1-0.1 0.1 0 0.1 0 0.1 0 0.2 0 0.1 0 0.2 0.1 0.3 0 0.1 0.1 0.1 0.2 0.1 0.1 0 0.1 0 0.2-0.1 0.1-0.1 0.1-0.2 0.1-0.3 0-0.1 0-0.2 0-0.4V36.1Z"/>
  <path fill="#808080" d="M36 37.4l0.2 0.1c0 0.1 0 0.2 0.1 0.3 0.1 0.1 0.1 0.1 0.2 0.1 0.1 0 0.2 0 0.2-0.1 0-0.1 0.1-0.2 0.1-0.3 0-0.1 0-0.2 0-0.5 -0.1 0.2-0.2 0.3-0.3 0.3 -0.2 0-0.3-0.1-0.4-0.3 -0.1-0.2-0.1-0.5-0.1-0.8 0-0.2 0-0.4 0.1-0.6 0-0.2 0.1-0.3 0.2-0.4 0.1-0.1 0.2-0.1 0.3-0.1 0.1 0 0.3 0.1 0.3 0.3v-0.3h0.2v2c0 0.4 0 0.6-0.1 0.8 0 0.1-0.1 0.3-0.2 0.4 -0.1 0.1-0.2 0.1-0.3 0.1 -0.1 0-0.3-0.1-0.3-0.2C36 37.9 36 37.7 36 37.4ZM36.2 36.1c0 0.3 0 0.5 0.1 0.6 0.1 0.1 0.1 0.2 0.2 0.2s0.2-0.1 0.2-0.2c0.1-0.1 0.1-0.3 0.1-0.6 0-0.3 0-0.5-0.1-0.6 -0.1-0.1-0.1-0.2-0.2-0.2 -0.1 0-0.2 0.1-0.2 0.2C36.2 35.6 36.2 35.8 36.2 36.1Z"/>
  <path fill="#808080" d="M38.1 36.5l0.2 0c0 0.2-0.1 0.4-0.2 0.5 -0.1 0.1-0.2 0.2-0.3 0.2 -0.2 0-0.3-0.1-0.4-0.3 -0.1-0.2-0.2-0.5-0.2-0.9 0-0.4 0.1-0.7 0.2-0.9 0.1-0.2 0.2-0.3 0.4-0.3 0.2 0 0.3 0.1 0.4 0.3 0.1 0.2 0.2 0.5 0.2 0.9 0 0 0 0.1 0 0.1h-0.9c0 0.3 0 0.4 0.1 0.6 0.1 0.1 0.2 0.2 0.3 0.2 0.1 0 0.1 0 0.2-0.1C38.1 36.8 38.1 36.7 38.1 36.5ZM37.5 35.9h0.7c0-0.2 0-0.3-0.1-0.4 -0.1-0.1-0.1-0.2-0.3-0.2 -0.1 0-0.2 0.1-0.2 0.2C37.5 35.6 37.5 35.7 37.5 35.9Z"/>
  <path fill="#808080" d="M39.7 36.9l0 0.3c-0.1 0-0.1 0-0.2 0 -0.1 0-0.1 0-0.2-0.1 0 0-0.1-0.1-0.1-0.2 0-0.1 0-0.2 0-0.5v-1.3H39.1v-0.3h0.1v-0.6l0.2-0.2v0.8h0.2v0.3h-0.2v1.3c0 0.1 0 0.2 0 0.2 0 0 0 0.1 0 0.1 0 0 0 0 0.1 0C39.6 36.9 39.6 36.9 39.7 36.9Z"/>
  <path fill="#808080" d="M39.8 36.1c0-0.4 0.1-0.7 0.2-0.9 0.1-0.2 0.2-0.3 0.4-0.3 0.2 0 0.3 0.1 0.4 0.3 0.1 0.2 0.2 0.5 0.2 0.8 0 0.3 0 0.5-0.1 0.7 0 0.2-0.1 0.3-0.2 0.4 -0.1 0.1-0.2 0.1-0.3 0.1 -0.2 0-0.3-0.1-0.4-0.3C39.9 36.8 39.8 36.5 39.8 36.1ZM40 36.1c0 0.3 0 0.5 0.1 0.7 0.1 0.1 0.2 0.2 0.3 0.2 0.1 0 0.2-0.1 0.3-0.2 0.1-0.1 0.1-0.4 0.1-0.7 0-0.3 0-0.5-0.1-0.6 -0.1-0.1-0.2-0.2-0.2-0.2 -0.1 0-0.2 0.1-0.3 0.2C40 35.6 40 35.8 40 36.1Z"/>
  <path fill="#808080" d="M11.6 42.5v-2.3h0.2v0.3c0-0.1 0.1-0.2 0.1-0.3 0.1-0.1 0.1-0.1 0.2-0.1 0.1 0 0.2 0 0.2 0.1 0.1 0.1 0.1 0.2 0.1 0.3 0.1-0.3 0.2-0.4 0.4-0.4 0.1 0 0.2 0.1 0.3 0.2 0.1 0.1 0.1 0.3 0.1 0.6v1.6h-0.2v-1.4c0-0.2 0-0.3 0-0.3 0-0.1 0-0.1-0.1-0.2 0 0-0.1-0.1-0.1-0.1 -0.1 0-0.2 0.1-0.2 0.2 -0.1 0.1-0.1 0.3-0.1 0.5v1.3h-0.2v-1.5c0-0.2 0-0.3 0-0.4 0-0.1-0.1-0.1-0.2-0.1 -0.1 0-0.1 0-0.2 0.1 0 0.1-0.1 0.1-0.1 0.3 0 0.1 0 0.3 0 0.5v1.2H11.6Z"/>
  <path fill="#808080" d="M14.3 42.2c-0.1 0.1-0.1 0.2-0.2 0.3 -0.1 0.1-0.1 0.1-0.2 0.1 -0.1 0-0.2-0.1-0.3-0.2 -0.1-0.1-0.1-0.3-0.1-0.5 0-0.1 0-0.2 0-0.3 0-0.1 0.1-0.2 0.1-0.2 0-0.1 0.1-0.1 0.1-0.1 0 0 0.1 0 0.2-0.1 0.2 0 0.3-0.1 0.4-0.1 0-0.1 0-0.1 0-0.1 0-0.2 0-0.3-0.1-0.3 -0.1-0.1-0.1-0.1-0.2-0.1 -0.1 0-0.2 0-0.2 0.1 0 0.1-0.1 0.2-0.1 0.3l-0.2-0.1c0-0.2 0-0.3 0.1-0.4 0-0.1 0.1-0.2 0.2-0.2 0.1-0.1 0.2-0.1 0.3-0.1 0.1 0 0.2 0 0.2 0.1 0.1 0 0.1 0.1 0.1 0.2 0 0.1 0.1 0.2 0.1 0.3 0 0.1 0 0.2 0 0.4v0.5c0 0.4 0 0.6 0 0.7 0 0.1 0 0.2 0.1 0.3h-0.2C14.3 42.4 14.3 42.3 14.3 42.2ZM14.3 41.4c-0.1 0.1-0.2 0.1-0.3 0.1 -0.1 0-0.1 0-0.2 0.1 0 0-0.1 0.1-0.1 0.1 0 0.1 0 0.1 0 0.2 0 0.1 0 0.2 0.1 0.3 0 0.1 0.1 0.1 0.2 0.1 0.1 0 0.1 0 0.2-0.1 0.1-0.1 0.1-0.2 0.1-0.3 0-0.1 0-0.2 0-0.4V41.4Z"/>
  <path fill="#808080" d="M14.8 42.5v-3.1h0.2v1.8l0.5-0.9h0.3l-0.5 0.8 0.5 1.4h-0.2l-0.4-1.2 -0.1 0.3v0.9H14.8Z"/>
  <path fill="#808080" d="M16.8 41.8l0.2 0c0 0.2-0.1 0.4-0.2 0.5 -0.1 0.1-0.2 0.2-0.3 0.2 -0.2 0-0.3-0.1-0.4-0.3 -0.1-0.2-0.2-0.5-0.2-0.9 0-0.4 0.1-0.7 0.2-0.9 0.1-0.2 0.2-0.3 0.4-0.3 0.2 0 0.3 0.1 0.4 0.3 0.1 0.2 0.2 0.5 0.2 0.9 0 0 0 0.1 0 0.1h-0.9c0 0.2 0 0.4 0.1 0.6 0.1 0.1 0.2 0.2 0.3 0.2 0.1 0 0.1 0 0.2-0.1C16.7 42.1 16.7 41.9 16.8 41.8ZM16.1 41.2h0.7c0-0.2 0-0.3-0.1-0.4 -0.1-0.1-0.1-0.2-0.3-0.2 -0.1 0-0.2 0.1-0.2 0.2C16.2 40.8 16.1 41 16.1 41.2Z"/>
  <path fill="#808080" d="M17.9 39.8v-0.4h0.2v0.4H17.9ZM17.9 42.5v-2.3h0.2v2.3H17.9Z"/>
  <path fill="#808080" d="M18.8 42.2l0 0.3c-0.1 0-0.1 0-0.2 0 -0.1 0-0.1 0-0.2-0.1 0 0-0.1-0.1-0.1-0.2 0-0.1 0-0.2 0-0.5v-1.3h-0.1v-0.3h0.1v-0.6l0.2-0.2v0.8h0.2v0.3h-0.2v1.3c0 0.1 0 0.2 0 0.2 0 0 0 0.1 0 0.1 0 0 0 0 0.1 0C18.8 42.2 18.8 42.2 18.8 42.2Z"/>
  <path fill="#808080" d="M19.7 42.5v-3.1h0.2v3.1H19.7Z"/>
  <path fill="#808080" d="M20.1 41.4c0-0.4 0.1-0.7 0.2-0.9 0.1-0.2 0.2-0.2 0.4-0.2 0.2 0 0.3 0.1 0.4 0.3 0.1 0.2 0.2 0.5 0.2 0.8 0 0.3 0 0.5-0.1 0.7 0 0.2-0.1 0.3-0.2 0.4 -0.1 0.1-0.2 0.1-0.3 0.1 -0.2 0-0.3-0.1-0.4-0.3C20.2 42 20.1 41.8 20.1 41.4ZM20.3 41.4c0 0.3 0 0.5 0.1 0.7 0.1 0.1 0.2 0.2 0.3 0.2 0.1 0 0.2-0.1 0.3-0.2 0.1-0.1 0.1-0.4 0.1-0.7 0-0.3 0-0.5-0.1-0.6 -0.1-0.1-0.1-0.2-0.2-0.2 -0.1 0-0.2 0.1-0.3 0.2C20.3 40.9 20.3 41.1 20.3 41.4Z"/>
  <path fill="#808080" d="M21.4 41.4c0-0.4 0.1-0.7 0.2-0.9 0.1-0.2 0.2-0.2 0.4-0.2 0.2 0 0.3 0.1 0.4 0.3 0.1 0.2 0.2 0.5 0.2 0.8 0 0.3 0 0.5-0.1 0.7 0 0.2-0.1 0.3-0.2 0.4 -0.1 0.1-0.2 0.1-0.3 0.1 -0.2 0-0.3-0.1-0.4-0.3C21.4 42 21.4 41.8 21.4 41.4ZM21.6 41.4c0 0.3 0 0.5 0.1 0.7 0.1 0.1 0.2 0.2 0.3 0.2 0.1 0 0.2-0.1 0.3-0.2 0.1-0.1 0.1-0.4 0.1-0.7 0-0.3 0-0.5-0.1-0.6 -0.1-0.1-0.1-0.2-0.2-0.2 -0.1 0-0.2 0.1-0.3 0.2C21.6 40.9 21.6 41.1 21.6 41.4Z"/>
  <path fill="#808080" d="M22.7 42.5v-3.1h0.2v1.8l0.5-0.9h0.3l-0.5 0.8 0.5 1.4h-0.2l-0.4-1.2 -0.1 0.3v0.9H22.7Z"/>
  <path fill="#808080" d="M24.5 42.5v-3.1h0.2v3.1H24.5Z"/>
  <path fill="#808080" d="M25 39.8v-0.4h0.2v0.4H25ZM25 42.5v-2.3h0.2v2.3H25Z"/>
  <path fill="#808080" d="M25.6 42.5v-3.1h0.2v1.8l0.5-0.9h0.3l-0.5 0.8 0.5 1.4h-0.2l-0.4-1.2 -0.1 0.3v0.9H25.6Z"/>
  <path fill="#808080" d="M27.5 41.8l0.2 0c0 0.2-0.1 0.4-0.2 0.5 -0.1 0.1-0.2 0.2-0.3 0.2 -0.2 0-0.3-0.1-0.4-0.3 -0.1-0.2-0.2-0.5-0.2-0.9 0-0.4 0.1-0.7 0.2-0.9 0.1-0.2 0.2-0.3 0.4-0.3 0.2 0 0.3 0.1 0.4 0.3 0.1 0.2 0.2 0.5 0.2 0.9 0 0 0 0.1 0 0.1h-0.9c0 0.2 0 0.4 0.1 0.6 0.1 0.1 0.2 0.2 0.3 0.2 0.1 0 0.1 0 0.2-0.1C27.4 42.1 27.5 41.9 27.5 41.8ZM26.9 41.2h0.7c0-0.2 0-0.3-0.1-0.4 -0.1-0.1-0.1-0.2-0.3-0.2 -0.1 0-0.2 0.1-0.2 0.2C26.9 40.8 26.9 41 26.9 41.2Z"/>
  <path fill="#808080" d="M29.4 42.2c-0.1 0.1-0.1 0.2-0.2 0.3 -0.1 0.1-0.1 0.1-0.2 0.1 -0.1 0-0.2-0.1-0.3-0.2 -0.1-0.1-0.1-0.3-0.1-0.5 0-0.1 0-0.2 0-0.3 0-0.1 0.1-0.2 0.1-0.2 0-0.1 0.1-0.1 0.1-0.1 0 0 0.1 0 0.2-0.1 0.2 0 0.3-0.1 0.4-0.1 0-0.1 0-0.1 0-0.1 0-0.2 0-0.3-0.1-0.3 0-0.1-0.1-0.1-0.2-0.1 -0.1 0-0.2 0-0.2 0.1s-0.1 0.2-0.1 0.3l-0.2-0.1c0-0.2 0-0.3 0.1-0.4 0-0.1 0.1-0.2 0.2-0.2 0.1-0.1 0.2-0.1 0.3-0.1s0.2 0 0.2 0.1c0.1 0 0.1 0.1 0.1 0.2 0 0.1 0.1 0.2 0.1 0.3 0 0.1 0 0.2 0 0.4v0.5c0 0.4 0 0.6 0 0.7 0 0.1 0 0.2 0.1 0.3h-0.2C29.4 42.4 29.4 42.3 29.4 42.2ZM29.4 41.4c-0.1 0.1-0.2 0.1-0.3 0.1 -0.1 0-0.1 0-0.2 0.1 0 0-0.1 0.1-0.1 0.1 0 0.1 0 0.1 0 0.2 0 0.1 0 0.2 0.1 0.3 0 0.1 0.1 0.1 0.2 0.1 0.1 0 0.1 0 0.2-0.1 0.1-0.1 0.1-0.2 0.1-0.3 0-0.1 0-0.2 0-0.4V41.4Z"/>
  <path fill="#808080" d="M31 42.2l0 0.3c-0.1 0-0.1 0-0.2 0 -0.1 0-0.1 0-0.2-0.1 0 0-0.1-0.1-0.1-0.2 0-0.1 0-0.2 0-0.5v-1.3h-0.1v-0.3h0.2v-0.6l0.2-0.2v0.8h0.2v0.3h-0.2v1.3c0 0.1 0 0.2 0 0.2 0 0 0 0.1 0 0.1 0 0 0 0 0.1 0C30.9 42.2 30.9 42.2 31 42.2Z"/>
  <path fill="#808080" d="M31.2 42.5v-2.3h0.2v0.3c0-0.2 0.1-0.3 0.1-0.3 0 0 0.1-0.1 0.1-0.1 0.1 0 0.1 0 0.2 0.1l-0.1 0.4c-0.1-0.1-0.1-0.1-0.1-0.1 0 0-0.1 0-0.1 0.1 0 0.1-0.1 0.1-0.1 0.2 0 0.1 0 0.3 0 0.4v1.2H31.2Z"/>
  <path fill="#808080" d="M32.8 41.8l0.2 0c0 0.2-0.1 0.4-0.2 0.5 -0.1 0.1-0.2 0.2-0.3 0.2 -0.2 0-0.3-0.1-0.4-0.3 -0.1-0.2-0.2-0.5-0.2-0.9 0-0.4 0.1-0.7 0.2-0.9 0.1-0.2 0.2-0.3 0.4-0.3 0.2 0 0.3 0.1 0.4 0.3 0.1 0.2 0.2 0.5 0.2 0.9 0 0 0 0.1 0 0.1h-0.9c0 0.2 0 0.4 0.1 0.6 0.1 0.1 0.1 0.2 0.3 0.2 0.1 0 0.1 0 0.2-0.1C32.7 42.1 32.7 41.9 32.8 41.8ZM32.1 41.2h0.7c0-0.2 0-0.3-0.1-0.4 -0.1-0.1-0.1-0.2-0.3-0.2 -0.1 0-0.2 0.1-0.2 0.2C32.1 40.8 32.1 41 32.1 41.2Z"/>
  <path fill="#808080" d="M34 41.8l0.2 0c0 0.2-0.1 0.4-0.2 0.5 -0.1 0.1-0.2 0.2-0.3 0.2 -0.2 0-0.3-0.1-0.4-0.3 -0.1-0.2-0.2-0.5-0.2-0.9 0-0.4 0.1-0.7 0.2-0.9 0.1-0.2 0.2-0.3 0.4-0.3 0.2 0 0.3 0.1 0.4 0.3 0.1 0.2 0.2 0.5 0.2 0.9 0 0 0 0.1 0 0.1h-0.9c0 0.2 0 0.4 0.1 0.6 0.1 0.1 0.2 0.2 0.2 0.2 0.1 0 0.1 0 0.2-0.1C34 42.1 34 41.9 34 41.8ZM33.4 41.2h0.7c0-0.2 0-0.3-0.1-0.4 -0.1-0.1-0.1-0.2-0.2-0.2 -0.1 0-0.2 0.1-0.2 0.2C33.4 40.8 33.4 41 33.4 41.2Z"/>
  <path fill="#808080" d="M35.9 42.5v-0.3c-0.1 0.2-0.2 0.3-0.3 0.3 -0.1 0-0.2 0-0.3-0.1 -0.1-0.1-0.1-0.2-0.2-0.4 0-0.2-0.1-0.4-0.1-0.6 0-0.2 0-0.4 0.1-0.6 0-0.2 0.1-0.3 0.2-0.4 0.1-0.1 0.2-0.1 0.3-0.1 0.1 0 0.1 0 0.2 0.1 0.1 0.1 0.1 0.1 0.1 0.2v-1.1h0.2v3.1H35.9ZM35.3 41.4c0 0.3 0 0.5 0.1 0.6 0.1 0.1 0.1 0.2 0.2 0.2 0.1 0 0.2-0.1 0.2-0.2 0.1-0.1 0.1-0.3 0.1-0.6 0-0.3 0-0.5-0.1-0.7 -0.1-0.1-0.1-0.2-0.2-0.2 -0.1 0-0.2 0.1-0.2 0.2C35.3 40.9 35.3 41.1 35.3 41.4Z"/>
  <path fill="#808080" d="M36.3 41.4c0-0.4 0.1-0.7 0.2-0.9 0.1-0.2 0.2-0.2 0.4-0.2 0.2 0 0.3 0.1 0.4 0.3 0.1 0.2 0.2 0.5 0.2 0.8 0 0.3 0 0.5-0.1 0.7 0 0.2-0.1 0.3-0.2 0.4 -0.1 0.1-0.2 0.1-0.3 0.1 -0.2 0-0.3-0.1-0.4-0.3C36.4 42 36.3 41.8 36.3 41.4ZM36.6 41.4c0 0.3 0 0.5 0.1 0.7s0.2 0.2 0.3 0.2c0.1 0 0.2-0.1 0.3-0.2 0.1-0.1 0.1-0.4 0.1-0.7 0-0.3 0-0.5-0.1-0.6 -0.1-0.1-0.1-0.2-0.2-0.2 -0.1 0-0.2 0.1-0.3 0.2C36.6 40.9 36.6 41.1 36.6 41.4Z"/>
  <path fill="#808080" d="M38.5 41.7l0.2 0.1c0 0.3-0.1 0.5-0.2 0.6 -0.1 0.1-0.2 0.2-0.3 0.2 -0.2 0-0.3-0.1-0.4-0.3 -0.1-0.2-0.1-0.5-0.1-0.9 0-0.2 0-0.5 0.1-0.6 0-0.2 0.1-0.3 0.2-0.4 0.1-0.1 0.2-0.1 0.3-0.1 0.1 0 0.2 0.1 0.3 0.2 0.1 0.1 0.1 0.3 0.2 0.5l-0.2 0.1c0-0.2-0.1-0.3-0.1-0.3 0-0.1-0.1-0.1-0.2-0.1 -0.1 0-0.2 0.1-0.2 0.2 -0.1 0.1-0.1 0.4-0.1 0.7 0 0.3 0 0.5 0.1 0.7 0.1 0.1 0.1 0.2 0.2 0.2 0.1 0 0.1 0 0.2-0.1C38.4 42 38.5 41.9 38.5 41.7Z"/>
  <path fill="#808080" d="M39.6 42.5V42.2c-0.1 0.3-0.2 0.4-0.4 0.4 -0.1 0-0.1 0-0.2-0.1 -0.1-0.1-0.1-0.1-0.1-0.2 0-0.1-0.1-0.2-0.1-0.3 0-0.1 0-0.2 0-0.4v-1.4h0.2v1.3c0 0.2 0 0.3 0 0.4 0 0.1 0 0.2 0.1 0.2 0 0.1 0.1 0.1 0.2 0.1 0.1 0 0.1 0 0.2-0.1 0.1-0.1 0.1-0.1 0.1-0.2 0-0.1 0-0.2 0-0.4v-1.2h0.2v2.3H39.6Z"/>
  <path fill="#808080" d="M40.1 42.5v-2.3h0.2v0.3c0-0.1 0.1-0.2 0.1-0.3 0.1-0.1 0.1-0.1 0.2-0.1 0.1 0 0.2 0 0.2 0.1 0.1 0.1 0.1 0.2 0.1 0.3 0.1-0.3 0.2-0.4 0.4-0.4 0.1 0 0.2 0.1 0.3 0.2 0.1 0.1 0.1 0.3 0.1 0.6v1.6h-0.2v-1.4c0-0.2 0-0.3 0-0.3 0-0.1 0-0.1-0.1-0.2 0 0-0.1-0.1-0.1-0.1 -0.1 0-0.2 0.1-0.2 0.2 -0.1 0.1-0.1 0.3-0.1 0.5v1.3h-0.2v-1.5c0-0.2 0-0.3-0.1-0.4 0-0.1-0.1-0.1-0.2-0.1 -0.1 0-0.1 0-0.2 0.1 0 0.1-0.1 0.1-0.1 0.3 0 0.1 0 0.3 0 0.5v1.2H40.1Z"/>
  <path fill="#808080" d="M42.8 42.5V42.2c-0.1 0.3-0.2 0.4-0.4 0.4 -0.1 0-0.1 0-0.2-0.1 -0.1-0.1-0.1-0.1-0.1-0.2 0-0.1-0.1-0.2-0.1-0.3 0-0.1 0-0.2 0-0.4v-1.4h0.2v1.3c0 0.2 0 0.3 0 0.4 0 0.1 0 0.2 0.1 0.2 0 0.1 0.1 0.1 0.2 0.1 0.1 0 0.1 0 0.2-0.1 0.1-0.1 0.1-0.1 0.1-0.2 0-0.1 0-0.2 0-0.4v-1.2h0.2v2.3H42.8Z"/>
  <path fill="#808080" d="M43.3 42.5v-2.3h0.2v0.3c0.1-0.2 0.2-0.4 0.4-0.4 0.1 0 0.1 0 0.2 0.1 0.1 0.1 0.1 0.1 0.1 0.2 0 0.1 0.1 0.2 0.1 0.3 0 0.1 0 0.2 0 0.4v1.4H44.1v-1.4c0-0.2 0-0.3 0-0.4 0-0.1 0-0.1-0.1-0.2 0 0-0.1-0.1-0.1-0.1 -0.1 0-0.2 0.1-0.2 0.2s-0.1 0.3-0.1 0.6v1.2H43.3Z"/>
  <path fill="#808080" d="M45.4 41.8l0.2 0c0 0.2-0.1 0.4-0.2 0.5 -0.1 0.1-0.2 0.2-0.3 0.2 -0.2 0-0.3-0.1-0.4-0.3 -0.1-0.2-0.2-0.5-0.2-0.9 0-0.4 0.1-0.7 0.2-0.9 0.1-0.2 0.2-0.3 0.4-0.3 0.2 0 0.3 0.1 0.4 0.3 0.1 0.2 0.2 0.5 0.2 0.9 0 0 0 0.1 0 0.1h-0.9c0 0.2 0 0.4 0.1 0.6 0.1 0.1 0.1 0.2 0.2 0.2 0.1 0 0.1 0 0.2-0.1C45.4 42.1 45.4 41.9 45.4 41.8ZM44.8 41.2h0.7c0-0.2 0-0.3-0.1-0.4 -0.1-0.1-0.1-0.2-0.2-0.2 -0.1 0-0.2 0.1-0.2 0.2C44.8 40.8 44.8 41 44.8 41.2Z"/>
  <path fill="#808080" d="M46.3 42.2l0 0.3c-0.1 0-0.1 0-0.2 0 -0.1 0-0.1 0-0.2-0.1 0 0-0.1-0.1-0.1-0.2 0-0.1 0-0.2 0-0.5v-1.3h-0.1v-0.3h0.1v-0.6l0.2-0.2v0.8h0.2v0.3h-0.2v1.3c0 0.1 0 0.2 0 0.2 0 0 0 0.1 0 0.1 0 0 0 0 0.1 0C46.3 42.2 46.3 42.2 46.3 42.2Z"/>
  <path fill="#808080" d="M12.1 47.4l0 0.3c-0.1 0-0.1 0-0.2 0 -0.1 0-0.1 0-0.2-0.1 0 0-0.1-0.1-0.1-0.2 0-0.1 0-0.2 0-0.5v-1.3H11.5v-0.3h0.1v-0.6l0.2-0.2v0.8h0.2v0.3h-0.2v1.3c0 0.1 0 0.2 0 0.2 0 0 0 0.1 0 0.1 0 0 0 0 0.1 0C12 47.4 12 47.4 12.1 47.4Z"/>
  <path fill="#808080" d="M12.3 47.8v-3.1h0.2v1.1c0.1-0.2 0.2-0.3 0.4-0.3 0.1 0 0.2 0 0.2 0.1 0.1 0.1 0.1 0.2 0.1 0.3 0 0.1 0 0.3 0 0.5v1.4h-0.2v-1.4c0-0.2 0-0.3-0.1-0.4 0-0.1-0.1-0.1-0.2-0.1 -0.1 0-0.1 0-0.2 0.1 -0.1 0.1-0.1 0.1-0.1 0.2 0 0.1 0 0.2 0 0.4v1.2H12.3Z"/>
  <path fill="#808080" d="M14.3 47.5c-0.1 0.1-0.1 0.2-0.2 0.3 -0.1 0.1-0.1 0.1-0.2 0.1 -0.1 0-0.2-0.1-0.3-0.2 -0.1-0.1-0.1-0.3-0.1-0.5 0-0.1 0-0.2 0-0.3s0.1-0.2 0.1-0.2c0-0.1 0.1-0.1 0.1-0.1 0 0 0.1 0 0.2-0.1 0.2 0 0.3-0.1 0.4-0.1 0-0.1 0-0.1 0-0.1 0-0.2 0-0.3-0.1-0.3 -0.1-0.1-0.1-0.1-0.2-0.1 -0.1 0-0.2 0-0.2 0.1 0 0.1-0.1 0.2-0.1 0.3l-0.2-0.1c0-0.2 0-0.3 0.1-0.4 0-0.1 0.1-0.2 0.2-0.2 0.1-0.1 0.2-0.1 0.3-0.1 0.1 0 0.2 0 0.2 0.1 0.1 0 0.1 0.1 0.1 0.2 0 0.1 0.1 0.2 0.1 0.3 0 0.1 0 0.2 0 0.4v0.5c0 0.4 0 0.6 0 0.7 0 0.1 0 0.2 0.1 0.3h-0.2C14.3 47.7 14.3 47.6 14.3 47.5ZM14.3 46.6c-0.1 0.1-0.2 0.1-0.3 0.1 -0.1 0-0.1 0-0.2 0.1 0 0-0.1 0.1-0.1 0.1 0 0.1 0 0.1 0 0.2 0 0.1 0 0.2 0.1 0.3 0 0.1 0.1 0.1 0.2 0.1 0.1 0 0.1 0 0.2-0.1 0.1-0.1 0.1-0.2 0.1-0.3 0-0.1 0-0.2 0-0.4V46.6Z"/>
  <path fill="#808080" d="M15.3 47.4l0 0.3c-0.1 0-0.1 0-0.2 0 -0.1 0-0.1 0-0.2-0.1 0 0-0.1-0.1-0.1-0.2 0-0.1 0-0.2 0-0.5v-1.3h-0.1v-0.3h0.1v-0.6l0.2-0.2v0.8h0.2v0.3h-0.2v1.3c0 0.1 0 0.2 0 0.2 0 0 0 0.1 0 0.1s0 0 0.1 0C15.2 47.4 15.2 47.4 15.3 47.4Z"/>
  <path fill="#808080" d="M16.1 47.8v-3.1h0.2v1.1c0.1-0.2 0.2-0.3 0.4-0.3 0.1 0 0.2 0 0.2 0.1 0.1 0.1 0.1 0.2 0.1 0.3 0 0.1 0 0.3 0 0.5v1.4h-0.2v-1.4c0-0.2 0-0.3-0.1-0.4 0-0.1-0.1-0.1-0.2-0.1 -0.1 0-0.1 0-0.2 0.1 -0.1 0.1-0.1 0.1-0.1 0.2 0 0.1 0 0.2 0 0.4v1.2H16.1Z"/>
  <path fill="#808080" d="M18.1 47.5c-0.1 0.1-0.1 0.2-0.2 0.3 -0.1 0.1-0.1 0.1-0.2 0.1 -0.1 0-0.2-0.1-0.3-0.2 -0.1-0.1-0.1-0.3-0.1-0.5 0-0.1 0-0.2 0-0.3 0-0.1 0.1-0.2 0.1-0.2 0-0.1 0.1-0.1 0.1-0.1 0 0 0.1 0 0.2-0.1 0.2 0 0.3-0.1 0.4-0.1 0-0.1 0-0.1 0-0.1 0-0.2 0-0.3-0.1-0.3 -0.1-0.1-0.1-0.1-0.2-0.1 -0.1 0-0.2 0-0.2 0.1 0 0.1-0.1 0.2-0.1 0.3l-0.2-0.1c0-0.2 0-0.3 0.1-0.4 0-0.1 0.1-0.2 0.2-0.2 0.1-0.1 0.2-0.1 0.3-0.1s0.2 0 0.2 0.1c0.1 0 0.1 0.1 0.1 0.2 0 0.1 0.1 0.2 0.1 0.3 0 0.1 0 0.2 0 0.4v0.5c0 0.4 0 0.6 0 0.7 0 0.1 0 0.2 0.1 0.3h-0.2C18.2 47.7 18.2 47.6 18.1 47.5ZM18.1 46.6c-0.1 0.1-0.2 0.1-0.3 0.1 -0.1 0-0.1 0-0.2 0.1 0 0-0.1 0.1-0.1 0.1 0 0.1 0 0.1 0 0.2 0 0.1 0 0.2 0.1 0.3 0 0.1 0.1 0.1 0.2 0.1 0.1 0 0.1 0 0.2-0.1 0.1-0.1 0.1-0.2 0.1-0.3 0-0.1 0-0.2 0-0.4V46.6Z"/>
  <path fill="#808080" d="M18.6 47.1l0.2-0.1c0 0.2 0 0.3 0.1 0.4 0.1 0.1 0.1 0.1 0.2 0.1s0.2 0 0.2-0.1c0-0.1 0.1-0.2 0.1-0.3 0-0.1 0-0.2-0.1-0.2 0 0-0.1-0.1-0.2-0.1 -0.1-0.1-0.3-0.1-0.3-0.2 -0.1-0.1-0.1-0.1-0.1-0.2 0-0.1 0-0.2 0-0.3 0-0.1 0-0.2 0-0.3 0-0.1 0.1-0.2 0.1-0.2 0 0 0.1-0.1 0.1-0.1 0.1 0 0.1 0 0.2 0 0.1 0 0.2 0 0.2 0.1 0.1 0.1 0.1 0.1 0.2 0.2 0 0.1 0.1 0.2 0.1 0.4l-0.2 0.1c0-0.1 0-0.2-0.1-0.3 0-0.1-0.1-0.1-0.2-0.1 -0.1 0-0.2 0-0.2 0.1 0 0.1-0.1 0.1-0.1 0.2 0 0 0 0.1 0 0.1 0 0 0 0.1 0.1 0.1 0 0 0.1 0 0.2 0.1 0.1 0.1 0.2 0.1 0.3 0.2 0.1 0 0.1 0.1 0.1 0.2 0 0.1 0 0.2 0 0.3 0 0.1 0 0.2-0.1 0.4 0 0.1-0.1 0.2-0.2 0.3 -0.1 0.1-0.2 0.1-0.3 0.1 -0.2 0-0.3-0.1-0.4-0.2C18.6 47.5 18.6 47.3 18.6 47.1Z"/>
  <path fill="#808080" d="M20.6 47.8h-0.2v-3.1h0.2v1.1c0.1-0.2 0.2-0.3 0.3-0.3 0.1 0 0.1 0 0.2 0.1 0.1 0.1 0.1 0.1 0.2 0.2 0 0.1 0.1 0.2 0.1 0.4 0 0.1 0 0.3 0 0.5 0 0.4 0 0.7-0.2 0.9 -0.1 0.2-0.2 0.3-0.4 0.3 -0.1 0-0.3-0.1-0.3-0.3V47.8ZM20.6 46.6c0 0.3 0 0.5 0.1 0.6 0.1 0.2 0.1 0.3 0.3 0.3 0.1 0 0.2-0.1 0.2-0.2 0.1-0.1 0.1-0.4 0.1-0.6 0-0.3 0-0.5-0.1-0.7 -0.1-0.1-0.1-0.2-0.2-0.2 -0.1 0-0.2 0.1-0.2 0.2C20.7 46.1 20.6 46.3 20.6 46.6Z"/>
  <path fill="#808080" d="M22.5 47l0.2 0c0 0.2-0.1 0.4-0.2 0.5 -0.1 0.1-0.2 0.2-0.3 0.2 -0.2 0-0.3-0.1-0.4-0.3 -0.1-0.2-0.2-0.5-0.2-0.9 0-0.4 0.1-0.7 0.2-0.9 0.1-0.2 0.2-0.3 0.4-0.3 0.2 0 0.3 0.1 0.4 0.3 0.1 0.2 0.2 0.5 0.2 0.9 0 0 0 0.1 0 0.1h-0.9c0 0.3 0 0.4 0.1 0.6 0.1 0.1 0.1 0.2 0.3 0.2 0.1 0 0.1 0 0.2-0.1C22.5 47.3 22.5 47.2 22.5 47ZM21.9 46.4h0.7c0-0.2 0-0.3-0.1-0.4 -0.1-0.1-0.1-0.2-0.3-0.2 -0.1 0-0.2 0.1-0.2 0.2C21.9 46 21.9 46.2 21.9 46.4Z"/>
  <path fill="#808080" d="M23.8 47l0.2 0c0 0.2-0.1 0.4-0.2 0.5 -0.1 0.1-0.2 0.2-0.3 0.2 -0.2 0-0.3-0.1-0.4-0.3 -0.1-0.2-0.2-0.5-0.2-0.9 0-0.4 0.1-0.7 0.2-0.9 0.1-0.2 0.2-0.3 0.4-0.3 0.2 0 0.3 0.1 0.4 0.3 0.1 0.2 0.2 0.5 0.2 0.9 0 0 0 0.1 0 0.1h-0.9c0 0.3 0 0.4 0.1 0.6 0.1 0.1 0.2 0.2 0.3 0.2 0.1 0 0.1 0 0.2-0.1C23.7 47.3 23.8 47.2 23.8 47ZM23.2 46.4h0.7c0-0.2 0-0.3-0.1-0.4 -0.1-0.1-0.1-0.2-0.3-0.2 -0.1 0-0.2 0.1-0.2 0.2C23.2 46 23.2 46.2 23.2 46.4Z"/>
  <path fill="#808080" d="M24.3 47.8v-2.3h0.2v0.3c0.1-0.2 0.2-0.4 0.4-0.4 0.1 0 0.1 0 0.2 0.1 0.1 0.1 0.1 0.1 0.1 0.2 0 0.1 0.1 0.2 0.1 0.3 0 0.1 0 0.2 0 0.4v1.4h-0.2v-1.4c0-0.2 0-0.3 0-0.4 0-0.1 0-0.1-0.1-0.2 0 0-0.1-0.1-0.1-0.1 -0.1 0-0.2 0.1-0.2 0.2 -0.1 0.1-0.1 0.3-0.1 0.6v1.2H24.3Z"/>
  <path fill="#808080" d="M26.1 47.1l0.2-0.1c0 0.2 0 0.3 0.1 0.4 0.1 0.1 0.1 0.1 0.2 0.1 0.1 0 0.2 0 0.2-0.1 0-0.1 0.1-0.2 0.1-0.3 0-0.1 0-0.2-0.1-0.2 0 0-0.1-0.1-0.2-0.1 -0.1-0.1-0.3-0.1-0.3-0.2 -0.1-0.1-0.1-0.1-0.1-0.2 0-0.1 0-0.2 0-0.3 0-0.1 0-0.2 0-0.3 0-0.1 0.1-0.2 0.1-0.2 0 0 0.1-0.1 0.1-0.1 0.1 0 0.1 0 0.2 0 0.1 0 0.2 0 0.2 0.1 0.1 0.1 0.1 0.1 0.2 0.2 0 0.1 0.1 0.2 0.1 0.4l-0.2 0.1c0-0.1 0-0.2-0.1-0.3 0-0.1-0.1-0.1-0.2-0.1 -0.1 0-0.2 0-0.2 0.1 0 0.1-0.1 0.1-0.1 0.2 0 0 0 0.1 0 0.1 0 0 0 0.1 0.1 0.1 0 0 0.1 0 0.2 0.1 0.1 0.1 0.2 0.1 0.3 0.2 0.1 0 0.1 0.1 0.1 0.2 0 0.1 0 0.2 0 0.3 0 0.1 0 0.2-0.1 0.4 0 0.1-0.1 0.2-0.2 0.3 -0.1 0.1-0.2 0.1-0.3 0.1 -0.2 0-0.3-0.1-0.4-0.2C26.2 47.5 26.1 47.3 26.1 47.1Z"/>
  <path fill="#808080" d="M27.3 47.8v-3.1h0.2v1.1c0.1-0.2 0.2-0.3 0.4-0.3 0.1 0 0.2 0 0.2 0.1 0.1 0.1 0.1 0.2 0.1 0.3 0 0.1 0 0.3 0 0.5v1.4h-0.2v-1.4c0-0.2 0-0.3-0.1-0.4 0-0.1-0.1-0.1-0.2-0.1 -0.1 0-0.1 0-0.2 0.1 -0.1 0.1-0.1 0.1-0.1 0.2 0 0.1 0 0.2 0 0.4v1.2H27.3Z"/>
  <path fill="#808080" d="M28.6 47.8v-2.3h0.2v0.3c0-0.2 0.1-0.3 0.1-0.3 0 0 0.1-0.1 0.1-0.1 0.1 0 0.1 0 0.2 0.1l-0.1 0.4c0-0.1-0.1-0.1-0.1-0.1 0 0-0.1 0-0.1 0.1 0 0.1-0.1 0.1-0.1 0.2 0 0.1 0 0.3 0 0.4v1.2H28.6Z"/>
  <path fill="#808080" d="M30.2 47.8v-0.3c-0.1 0.3-0.2 0.4-0.4 0.4 -0.1 0-0.1 0-0.2-0.1 -0.1-0.1-0.1-0.1-0.1-0.2 0-0.1 0-0.2-0.1-0.3 0-0.1 0-0.2 0-0.4v-1.4h0.2v1.3c0 0.2 0 0.3 0 0.4 0 0.1 0 0.2 0.1 0.2 0 0.1 0.1 0.1 0.2 0.1 0.1 0 0.1 0 0.2-0.1 0.1-0.1 0.1-0.1 0.1-0.2 0-0.1 0-0.3 0-0.4v-1.2h0.2v2.3H30.2Z"/>
  <path fill="#808080" d="M30.7 47.8v-2.3h0.2v0.3c0.1-0.2 0.2-0.4 0.4-0.4 0.1 0 0.1 0 0.2 0.1 0.1 0.1 0.1 0.1 0.1 0.2 0 0.1 0.1 0.2 0.1 0.3 0 0.1 0 0.2 0 0.4v1.4h-0.2v-1.4c0-0.2 0-0.3 0-0.4 0-0.1 0-0.1-0.1-0.2 0 0-0.1-0.1-0.1-0.1 -0.1 0-0.2 0.1-0.2 0.2 -0.1 0.1-0.1 0.3-0.1 0.6v1.2H30.7Z"/>
  <path fill="#808080" d="M32 47.8v-3.1h0.2v1.8l0.5-0.9h0.3l-0.5 0.8 0.5 1.4h-0.2l-0.4-1.2 -0.1 0.3v0.9H32Z"/>
  <path fill="#808080" d="M33.9 47l0.2 0c0 0.2-0.1 0.4-0.2 0.5s-0.2 0.2-0.3 0.2c-0.2 0-0.3-0.1-0.4-0.3 -0.1-0.2-0.2-0.5-0.2-0.9 0-0.4 0.1-0.7 0.2-0.9 0.1-0.2 0.2-0.3 0.4-0.3 0.2 0 0.3 0.1 0.4 0.3 0.1 0.2 0.2 0.5 0.2 0.9 0 0 0 0.1 0 0.1h-0.9c0 0.3 0 0.4 0.1 0.6 0.1 0.1 0.2 0.2 0.3 0.2 0.1 0 0.1 0 0.2-0.1C33.9 47.3 33.9 47.2 33.9 47ZM33.3 46.4h0.7c0-0.2 0-0.3-0.1-0.4 -0.1-0.1-0.1-0.2-0.3-0.2 -0.1 0-0.2 0.1-0.2 0.2C33.3 46 33.3 46.2 33.3 46.4Z"/>
  <path fill="#808080" d="M35.2 47.8v-0.3c-0.1 0.2-0.2 0.3-0.3 0.3 -0.1 0-0.2 0-0.3-0.1 -0.1-0.1-0.1-0.2-0.2-0.4 0-0.2-0.1-0.4-0.1-0.6 0-0.2 0-0.4 0.1-0.6 0-0.2 0.1-0.3 0.2-0.4 0.1-0.1 0.2-0.1 0.3-0.1 0.1 0 0.1 0 0.2 0.1 0.1 0.1 0.1 0.1 0.1 0.2v-1.1h0.2v3.1H35.2ZM34.5 46.6c0 0.3 0 0.5 0.1 0.7 0.1 0.1 0.1 0.2 0.2 0.2 0.1 0 0.2-0.1 0.2-0.2 0.1-0.1 0.1-0.3 0.1-0.6 0-0.3 0-0.5-0.1-0.7 -0.1-0.1-0.1-0.2-0.2-0.2s-0.2 0.1-0.2 0.2S34.5 46.3 34.5 46.6Z"/>
  <path fill="#808080" d="M35.7 47.8v-0.4h0.2v0.4H35.7Z"/>
  <path fill="#808080" d="M12.1 54.9v-2.8h-0.5v-0.4h1.3v0.4h-0.5v2.8H12.1Z"/>
  <path fill="#808080" d="M13 54.9v-3.1h0.2v1.1c0.1-0.2 0.2-0.3 0.4-0.3 0.1 0 0.2 0 0.2 0.1 0.1 0.1 0.1 0.2 0.1 0.3 0 0.1 0 0.3 0 0.5v1.4h-0.2v-1.4c0-0.2 0-0.3-0.1-0.4 0-0.1-0.1-0.1-0.2-0.1 -0.1 0-0.1 0-0.2 0.1 -0.1 0.1-0.1 0.1-0.1 0.2 0 0.1 0 0.2 0 0.4v1.2H13Z"/>
  <path fill="#808080" d="M15.1 54.7c-0.1 0.1-0.1 0.2-0.2 0.3 -0.1 0.1-0.1 0.1-0.2 0.1 -0.1 0-0.2-0.1-0.3-0.2 -0.1-0.1-0.1-0.3-0.1-0.5 0-0.1 0-0.2 0-0.3 0-0.1 0.1-0.2 0.1-0.2 0-0.1 0.1-0.1 0.1-0.1 0 0 0.1 0 0.2-0.1 0.2 0 0.3-0.1 0.4-0.1 0-0.1 0-0.1 0-0.1 0-0.2 0-0.3-0.1-0.3 -0.1-0.1-0.1-0.1-0.2-0.1 -0.1 0-0.2 0-0.2 0.1 0 0.1-0.1 0.2-0.1 0.3l-0.2 0c0-0.2 0-0.3 0.1-0.4 0-0.1 0.1-0.2 0.2-0.2 0.1-0.1 0.2-0.1 0.3-0.1 0.1 0 0.2 0 0.2 0.1 0.1 0 0.1 0.1 0.1 0.2s0.1 0.2 0.1 0.3c0 0.1 0 0.2 0 0.4v0.5c0 0.4 0 0.6 0 0.7 0 0.1 0 0.2 0.1 0.3h-0.2C15.1 54.9 15.1 54.8 15.1 54.7ZM15.1 53.8c-0.1 0.1-0.2 0.1-0.3 0.1 -0.1 0-0.1 0-0.2 0.1 0 0-0.1 0.1-0.1 0.1 0 0.1 0 0.1 0 0.2 0 0.1 0 0.2 0.1 0.3 0 0.1 0.1 0.1 0.2 0.1 0.1 0 0.1 0 0.2-0.1 0.1-0.1 0.1-0.2 0.1-0.3 0-0.1 0-0.2 0-0.4V53.8Z"/>
  <path fill="#808080" d="M15.6 54.9v-2.3h0.2v0.3c0.1-0.2 0.2-0.4 0.4-0.4 0.1 0 0.1 0 0.2 0.1 0.1 0.1 0.1 0.1 0.1 0.2 0 0.1 0.1 0.2 0.1 0.3 0 0.1 0 0.2 0 0.4v1.4h-0.2v-1.4c0-0.2 0-0.3 0-0.4 0-0.1 0-0.1-0.1-0.2 0 0-0.1-0.1-0.1-0.1 -0.1 0-0.2 0.1-0.2 0.2 -0.1 0.1-0.1 0.3-0.1 0.6v1.2H15.6Z"/>
  <path fill="#808080" d="M16.9 54.9v-3.1h0.2v1.8l0.5-0.9h0.3l-0.5 0.8 0.5 1.4h-0.2l-0.4-1.2 -0.1 0.3v0.9H16.9Z"/>
  <path fill="#808080" d="M18.6 55.8l0-0.4c0 0 0.1 0 0.1 0 0 0 0.1 0 0.1 0 0 0 0-0.1 0.1-0.1 0 0 0-0.1 0.1-0.3 0 0 0-0.1 0-0.1l-0.5-2.3h0.2l0.2 1.3c0 0.2 0.1 0.3 0.1 0.5 0-0.2 0.1-0.3 0.1-0.5l0.3-1.3h0.2l-0.5 2.3c0 0.2-0.1 0.4-0.1 0.5 0 0.1-0.1 0.2-0.1 0.3 0 0.1-0.1 0.1-0.2 0.1C18.7 55.9 18.7 55.9 18.6 55.8Z"/>
  <path fill="#808080" d="M19.7 53.8c0-0.4 0.1-0.7 0.2-0.9 0.1-0.2 0.2-0.3 0.4-0.3 0.2 0 0.3 0.1 0.4 0.3 0.1 0.2 0.2 0.5 0.2 0.8 0 0.3 0 0.5-0.1 0.7 0 0.2-0.1 0.3-0.2 0.4 -0.1 0.1-0.2 0.1-0.3 0.1 -0.2 0-0.3-0.1-0.4-0.3C19.8 54.5 19.7 54.2 19.7 53.8ZM19.9 53.8c0 0.3 0 0.5 0.1 0.7 0.1 0.1 0.2 0.2 0.3 0.2s0.2-0.1 0.3-0.2c0.1-0.1 0.1-0.4 0.1-0.7 0-0.3 0-0.5-0.1-0.6 -0.1-0.1-0.2-0.2-0.2-0.2 -0.1 0-0.2 0.1-0.3 0.2C20 53.3 19.9 53.5 19.9 53.8Z"/>
  <path fill="#808080" d="M21.9 54.9v-0.3c-0.1 0.3-0.2 0.4-0.4 0.4 -0.1 0-0.1 0-0.2-0.1s-0.1-0.1-0.1-0.2c0-0.1-0.1-0.2-0.1-0.3 0-0.1 0-0.2 0-0.4v-1.4h0.2v1.3c0 0.2 0 0.3 0 0.4 0 0.1 0 0.2 0.1 0.2 0 0.1 0.1 0.1 0.2 0.1 0.1 0 0.1 0 0.2-0.1 0.1-0.1 0.1-0.1 0.1-0.2 0-0.1 0-0.2 0-0.4v-1.2h0.2v2.3H21.9Z"/>
  <polygon fill="#0ddf00" stroke="#216372" stroke-miterlimit="10" points="36.5 35.4 36.5 28.5 24.5 28.5 24.5 18.5 36.5 18.5 36.5 11.3 54.4 23.3"/>
</svg>
