<svg xmlns="http://www.w3.org/2000/svg" xmlns:xlink="http://www.w3.org/1999/xlink" version="1.1" id="Layer_1" x="0px" y="0px" width="24px" height="24px" viewBox="0 0 24 24" enable-background="new 0 0 24 24" xml:space="preserve">
  <polygon fill="#BBBBBC" stroke="#000000" stroke-width="0.5" stroke-miterlimit="10" points="5.559 22.578 7.761 21.52 5.807 20.09 "/>
  <path fill="#C69C6D" stroke="#000000" stroke-width="0.5" stroke-miterlimit="10" d="M8.898 17.613c-0.933-0.66-2.292-0.986-2.738-1.08L5.807 20.09l1.954 1.43 3.283-1.578C10.756 19.484 10.002 18.394 8.898 17.613z"/>
  <path fill="#CA5E5C" stroke="#000000" stroke-width="0.5" stroke-miterlimit="10" d="M19.459 2.733c-1.251-0.875-2.719-1.129-3.168-0.487 0 0-0.833 1.16-1.659 2.299 0.047 0.006 1.583 0.219 2.779 1.078 1.05 0.753 1.833 1.985 2.04 2.33l1.641-2.344C21.542 4.966 20.71 3.608 19.459 2.733z"/>
  <path fill="#D8D4D4" stroke="#000000" stroke-width="0.5" stroke-miterlimit="10" d="M17.411 5.623c-1.196-0.858-2.732-1.072-2.779-1.078 -0.256 0.353-1.125 1.573-2.158 3.027 0.048 0.005 1.74 0.191 2.937 1.05 0.987 0.708 1.734 1.833 1.993 2.253l2.047-2.923C19.244 7.607 18.461 6.376 17.411 5.623z"/>
  <path fill="#FBCC33" stroke="#000000" stroke-width="0.5" stroke-miterlimit="10" d="M15.411 8.623c-1.197-0.859-2.889-1.045-2.937-1.05 -2.029 2.857-4.706 6.636-4.706 6.636L6.35 16.145c0.446 0.094 1.615 0.809 2.548 1.469 1.104 0.78 1.812 1.701 2.099 2.158l0.24 0.03c0.046-0.065 1.432-2.163 1.432-2.163l4.736-6.763C17.146 10.456 16.398 9.331 15.411 8.623z"/>
  <linearGradient id="SVGID_1_" gradientUnits="userSpaceOnUse" x1="14.6318" y1="4.9199" x2="21.2158" y2="4.9199">
    <stop offset="0" stop-color="#FFFFFF"/>
    <stop offset="1" stop-color="#000000"/>
  </linearGradient>
  <path opacity="0.18" fill="url(#SVGID_1_)" stroke="#000000" stroke-width="0.5" stroke-miterlimit="10" d="M19.459 2.733c-1.251-0.875-2.719-1.129-3.168-0.487 0 0-0.833 1.16-1.659 2.299 0.047 0.006 1.583 0.219 2.779 1.078 1.05 0.753 1.833 1.985 2.04 2.33l1.641-2.344C21.542 4.966 20.71 3.608 19.459 2.733z"/>
  <linearGradient id="SVGID_2_" gradientUnits="userSpaceOnUse" x1="12.4741" y1="7.71" x2="19.4512" y2="7.71">
    <stop offset="0" stop-color="#FFFFFF"/>
    <stop offset="1" stop-color="#000000"/>
  </linearGradient>
  <path opacity="0.38" fill="url(#SVGID_2_)" stroke="#000000" stroke-width="0.5" stroke-miterlimit="10" d="M17.411 5.623c-1.196-0.858-2.732-1.072-2.779-1.078 -0.256 0.353-1.125 1.573-2.158 3.027 0.048 0.005 1.74 0.191 2.937 1.05 0.987 0.708 1.734 1.833 1.993 2.253l2.047-2.923C19.244 7.607 18.461 6.376 17.411 5.623z"/>
  <path opacity="0.7" fill="#FBCC33" stroke="#000000" stroke-width="0.5" stroke-miterlimit="10" d="M15.411 8.623c-1.197-0.859-2.889-1.045-2.937-1.05 -2.029 2.857-4.706 6.636-4.706 6.636L6.35 16.145c0.446 0.094 1.615 0.809 2.548 1.469 1.104 0.78 1.812 1.701 2.099 2.158l0.24 0.03c0.046-0.065 1.432-2.163 1.432-2.163l4.736-6.763C17.146 10.456 16.398 9.331 15.411 8.623z"/>
  <path fill="none" stroke="#000000" stroke-width="0.25" stroke-miterlimit="10" d="M17.674 10.428c0 0-0.734-1.589-1.893-2.645 -1.042-0.95-2.521-1.378-2.521-1.378l0.074-0.093c0 0 1.261 0.241 2.387 1.09 1.251 0.944 2.129 2.458 2.129 2.458l0.018-0.429c0 0-0.742-1.281-1.836-2.221 -0.095-0.083-0.192-0.162-0.292-0.237 -1.126-0.849-2.166-1.051-2.166-1.051l0.689-1.049c0 0 1.351 0.25 2.477 1.1 0.1 0.076 0.197 0.155 0.292 0.237 1.094 0.94 1.836 2.221 1.836 2.221L18.79 8.83c0 0-0.817-1.483-2.068-2.428 -1.126-0.849-2.518-1.109-2.518-1.109l0.057 0.112c0 0 1.479 0.429 2.521 1.378C17.939 7.839 18.61 9.31 18.61 9.31"/>
  <path fill="#F2F2F2" stroke="#000000" stroke-width="0.5" stroke-miterlimit="10" d="M12.982 6.748"/>
  <path fill="#F2F2F2" stroke="#000000" stroke-width="0.5" stroke-miterlimit="10" d="M12.982 6.748"/>
</svg>
