<svg viewBox="0 0 92 92" width="92" height="92" xmlns="http://www.w3.org/2000/svg"><path d="M72.052 64.004l-4.76-.04c-.068 0-.133.027-.2.037h-.484a.254.254 0 0 1 0 0l-.705-.006a.267.267 0 0 0-.026-.03c.01.01.018.02.026.03l-2.167-.018c-.007-.005-.008-.01-.013-.014.005.005.006.01.013.014l-.72-.007c-.003-.003-.003-.006-.006-.01.003.004.003.007.007.01l-.707-.006s-.003-.002-.003-.004c0 .002.003.003.003.004l-.373-.002c-.15 0-.243.033-.29.096-.1-.026-.198-.058-.302-.058 0 0-22.694.07-33.578.032-3.436-.01-13 2.24-13 2.24s-2.46 1.522-2.117 1.653c.727.28 1.322.636 1.322.636 1.98 1.13 5.746 2.6 7.247 3.182.205.146.473.227.705.25 0 .004.063.007.063.007h39.356c.135 0 .267-.033.396-.076.046.05.142.076.294.076H72.05c1.207 0 2.185-1.837 2.182-4.02 0-2.18-.975-3.976-2.18-3.976z" fill="#aaa7a5"/><path d="M60.27 22.784c-1.136.915.106 3.4 2.663 5.454 2.557 2.057 5.643 3.058 6.78 2.143l4.486-3.61c1.136-.916-.106-3.397-2.666-5.453-2.554-2.055-5.593-3.02-6.73-2.103l-4.533 3.57z" fill="#ca5e5c"/><path d="M26.98 64.727c1.363-1.106-3.724-.8-6.36-2.674-.07-.05-.138-.1-.205-.152a5.015 5.015 0 0 1-.265-.228c-2.242-2.084-1.423-5.505-2.77-4.41 0 0-4.426 10.04-4.32 10.12 1.355 1.005 13.92-2.655 13.92-2.655z" fill="#bc9908"/><path d="M17.642 57.077c-1.138.914.108 3.396 2.662 5.45 2.558 2.057 5.644 3.06 6.78 2.144l37.02-29.78c1.138-.914-.106-3.396-2.664-5.454-2.554-2.054-5.594-3.018-6.73-2.103L17.642 57.077z" fill="#009245"/><path fill="#969493" d="M17.547 66.928l-5.142 1.278 1.775-3.985.75.604 1.215.977z"/><path d="M55.22 26.846c-1.137.915 3.71 1.027 6.265 3.083 2.558 2.056 2.136 5.35 3.273 4.437l4.954-3.987c1.14-.916-.104-3.397-2.66-5.455-2.558-2.055-5.596-3.02-6.734-2.104l-5.098 4.026z" fill="#b7b2b2"/><path d="M60.27 22.784c2.398.324 4.758 1.288 6.378 2.748 1.416 1.278 2.48 2.93 3.157 4.547-.732-1.745-1.902-3.472-3.467-4.82-1.53-1.322-3.862-2.18-6.067-2.476z" fill="#4d4d4d"/><path d="M59.596 23.324c2.398.324 4.76 1.288 6.378 2.75C67.392 27.35 68.452 29 69.13 30.62c-.73-1.745-1.902-3.472-3.465-4.818-1.53-1.323-3.863-2.18-6.07-2.478z" fill="#4d4d4d"/><path d="M58.936 23.857c2.396.325 4.756 1.288 6.375 2.748 1.42 1.278 2.48 2.93 3.16 4.547-.732-1.745-1.904-3.472-3.468-4.818-1.53-1.322-3.862-2.18-6.066-2.477zM56.904 25.49c2.398.325 4.758 1.29 6.378 2.75 1.418 1.277 2.48 2.93 3.156 4.547-.732-1.743-1.904-3.47-3.466-4.817-1.53-1.324-3.86-2.18-6.068-2.48z" fill="#4d4d4d"/><path d="M56.23 26.032c2.4.324 4.756 1.288 6.377 2.748 1.416 1.277 2.48 2.93 3.16 4.547-.734-1.745-1.905-3.47-3.467-4.818-1.53-1.323-3.862-2.18-6.07-2.478z" fill="#4d4d4d"/><path d="M55.567 26.564c2.4.324 4.76 1.29 6.378 2.75 1.418 1.277 2.478 2.93 3.158 4.547-.733-1.743-1.904-3.47-3.466-4.817-1.53-1.322-3.862-2.18-6.07-2.48z" fill="#4d4d4d"/></svg>