<svg xmlns="http://www.w3.org/2000/svg" viewBox="0 0 128 128"><path d="M101.082 121.82l-39.87-27.903-36.555 26.742 14.805-45.724-37.29-25.748 49.02-.354L64.7 6.18 80.19 51.68l45.64-.613-39.447 28.475z" fill="#fff"/><path d="M63.995 12.338l12.82 39.47h41.508l-33.586 24.39 12.832 39.466-33.575-24.398-33.576 24.398L43.24 76.2 9.677 51.8h41.486l12.833-39.464m0-9.677a9.67 9.67 0 0 0-9.2 6.69L44.142 42.123H9.677a9.67 9.67 0 0 0-9.2 6.69A9.67 9.67 0 0 0 3.99 59.628l27.887 20.266-10.655 32.78a9.667 9.667 0 0 0 3.51 10.816 9.68 9.68 0 0 0 5.69 1.85c2 0 4-.617 5.688-1.85l27.887-20.265 27.887 20.265a9.63 9.63 0 0 0 5.688 1.85 9.672 9.672 0 0 0 9.2-12.664L96.115 79.893l27.897-20.26a9.668 9.668 0 0 0 3.51-10.815 9.682 9.682 0 0 0-9.2-6.69H83.85L73.193 9.35a9.68 9.68 0 0 0-9.2-6.69z" fill="#007681"/></svg>