<svg xmlns="http://www.w3.org/2000/svg" xmlns:xlink="http://www.w3.org/1999/xlink" version="1.1" id="Layer_1" x="0px" y="0px" width="24px" height="24px" viewBox="0 0 24 24" enable-background="new 0 0 24 24" xml:space="preserve">
  <rect x="0.5" y="6.5" fill="#FFFFFF" stroke="#575959" stroke-miterlimit="10" width="23" height="14"/>
  <path fill="#FFFFFF" stroke="#383A3A" stroke-width="0.5" stroke-miterlimit="10" d="M8.248 14.928l1.162-1.096 1.488 1.461c0 0 0.98-0.943 1.053-1.066 0.073-0.121 0.766 0.408 0.944 0.641 0.178 0.232 1.197-0.641 1.307-0.762s0.87-0.547 0.979-0.273 1.198 1.766 1.198 1.766"/>
  <polyline fill="#FFFFFF" stroke="#383A3A" stroke-width="0.5" stroke-miterlimit="10" points="8.248 17.498 9.118 16.98 10.063 17.621 11.587 17.301 12.567 17.621 13.874 16.676 14.528 17.621 "/>
  <polyline fill="#FFFFFF" stroke="#383A3A" stroke-width="0.5" stroke-miterlimit="10" points="8.248 15.852 8.828 16.217 9.699 15.852 10.426 16.034 11.732 15.67 12.495 16.552 13.838 15.67 "/>
  <path fill="none" stroke="#333535" stroke-width="0.25" stroke-miterlimit="10" d="M3.331 10.228l0.875-0.903 0.282 0.734 0.537-0.734c0 0 0.339 0.452 0.423 0.452s0.621-0.452 0.621-0.452l0.396 0.734 0.593-0.734 0.282 0.452"/>
  <polyline fill="none" stroke="#333535" stroke-width="0.25" stroke-miterlimit="10" points="3.331 11 3.782 10.5 4.149 10.75 4.686 10.228 4.968 10.623 5.476 10.5 5.871 10.614 6.154 10.228 6.803 10.5 7.057 10.228 "/>
  <path fill="#639CE0" d="M19.304 9.566L19.304 9.566l0.068 0.221 -0.279 0.292c0 0-0.282 0.051-0.334 0.051 -0.05 0-0.075 0.128-0.075 0.128l-0.205 0.153c0 0 0.013 0.142-0.025 0.142s-0.384 0.298-0.384 0.298l0.064-1.285h1.12H19.304z"/>
  <ellipse fill="#FFFFFF" cx="18.259" cy="9.613" rx="0.045" ry="0.038"/>
  <ellipse fill="#FFFFFF" cx="18.899" cy="9.613" rx="0.045" ry="0.038"/>
  <ellipse fill="#FFFFFF" cx="18.259" cy="10.162" rx="0.045" ry="0.038"/>
  <ellipse fill="#FFFFFF" cx="18.42" cy="10.162" rx="0.045" ry="0.038"/>
  <ellipse fill="#FFFFFF" cx="18.611" cy="10.162" rx="0.045" ry="0.038"/>
  <ellipse fill="#FFFFFF" cx="18.259" cy="9.725" rx="0.045" ry="0.037"/>
  <ellipse fill="#FFFFFF" cx="18.899" cy="9.725" rx="0.045" ry="0.037"/>
  <ellipse fill="#FFFFFF" cx="18.899" cy="10.005" rx="0.045" ry="0.038"/>
  <ellipse fill="#FFFFFF" cx="18.259" cy="10.005" rx="0.045" ry="0.038"/>
  <ellipse fill="#FFFFFF" cx="18.259" cy="9.845" rx="0.045" ry="0.037"/>
  <ellipse fill="#FFFFFF" cx="18.899" cy="9.845" rx="0.045" ry="0.037"/>
  <ellipse fill="#FFFFFF" cx="19.123" cy="9.613" rx="0.045" ry="0.038"/>
  <ellipse fill="#FFFFFF" cx="19.123" cy="9.725" rx="0.045" ry="0.037"/>
  <ellipse fill="#FFFFFF" cx="19.123" cy="10.005" rx="0.045" ry="0.038"/>
  <ellipse fill="#FFFFFF" cx="19.123" cy="9.845" rx="0.045" ry="0.037"/>
  <ellipse fill="#FFFFFF" cx="18.453" cy="9.613" rx="0.045" ry="0.038"/>
  <ellipse fill="#FFFFFF" cx="18.453" cy="9.725" rx="0.045" ry="0.037"/>
  <ellipse fill="#FFFFFF" cx="18.453" cy="10.005" rx="0.045" ry="0.038"/>
  <ellipse fill="#FFFFFF" cx="18.453" cy="9.845" rx="0.045" ry="0.037"/>
  <ellipse fill="#FFFFFF" cx="18.644" cy="9.613" rx="0.045" ry="0.038"/>
  <ellipse fill="#FFFFFF" cx="18.644" cy="9.725" rx="0.045" ry="0.037"/>
  <ellipse fill="#FFFFFF" cx="18.644" cy="10.005" rx="0.045" ry="0.038"/>
  <ellipse fill="#FFFFFF" cx="18.644" cy="9.845" rx="0.045" ry="0.037"/>
  <ellipse fill="#FFFFFF" cx="18.259" cy="10.52" rx="0.045" ry="0.038"/>
  <ellipse fill="#FFFFFF" cx="18.259" cy="10.363" rx="0.045" ry="0.038"/>
  <ellipse fill="#FFFFFF" cx="18.425" cy="10.363" rx="0.045" ry="0.038"/>
  <path fill="#C1272D" d="M19.065 11.268c0.339-0.278 0.694-0.526 1.05-0.773l-0.091 0.132c0.008-0.18 0.028-0.357 0.042-0.536l0.314 0.23c-0.694 0.417-1.439 0.729-2.182 1.049l-0.58 0.25 0.306-0.533 0.462-0.806 0.037-0.064 0.058-0.018 2.022-0.634 -0.051 0.123 -0.108-0.258 0.09 0.041c-0.361 0.082-0.714 0.168-1.067 0.277 -0.013 0.004-0.027-0.003-0.031-0.016 -0.004-0.013 0.004-0.026 0.016-0.031 0.34-0.142 0.692-0.265 1.041-0.378l0.059-0.019 0.032 0.06 0.132 0.247 0.045 0.084 -0.096 0.039 -1.966 0.791 0.095-0.083 -0.401 0.837 -0.274-0.283c0.709-0.387 1.414-0.783 2.17-1.073l0.401-0.154 -0.087 0.385c-0.039 0.175-0.071 0.351-0.116 0.524l-0.026 0.104 -0.064 0.029c-0.396 0.177-0.791 0.353-1.204 0.499 -0.014 0.004-0.028-0.002-0.033-0.016C19.055 11.286 19.058 11.275 19.065 11.268z"/>
  <rect x="17.5" y="9.5" opacity="0.29" fill="none" stroke="#000000" stroke-linecap="round" stroke-miterlimit="6" stroke-dasharray="0.5,0.5" width="3" height="2"/>
</svg>
