<svg xmlns="http://www.w3.org/2000/svg" viewBox="0 0 100 125"><path d="M50 79.09a7.954 7.954 0 0 0-7.956 7.957A7.953 7.953 0 0 0 50 95c4.392 0 7.956-3.56 7.956-7.953A7.958 7.958 0 0 0 50 79.09zM60.93 15.58c-.197-2.263-1.07-4.392-2.396-6.138C56.504 6.772 53.404 4.995 50 5c-3.406-.005-6.505 1.773-8.534 4.442-1.326 1.746-2.198 3.875-2.395 6.137-.054.623-.047 1.3 0 1.906 0 0 4.55 52.044 4.565 52.148.002.013.017.025.026.037a.833.833 0 0 0 .822.736h11.036a.83.83 0 0 0 .82-.735c.01-.01.025-.023.027-.036.017-.104 4.564-52.148 4.564-52.148.048-.607.053-1.283 0-1.907z"/><text y="115" font-size="5" font-weight="bold" font-family="'Helvetica Neue', Helvetica, Arial-Unicode, Arial, Sans-serif">Created by TMD</text><text y="120" font-size="5" font-weight="bold" font-family="'Helvetica Neue', Helvetica, Arial-Unicode, Arial, Sans-serif">from the Noun Project</text></svg>