<svg xmlns="http://www.w3.org/2000/svg" viewBox="0 0 24 24"><path fill="#f0f9fc" d="M9.813 12.176h3.494v6.147H9.813z"/><path d="M11.75 14.334l-4.875-6.01L2 2.314l9.69-.024 9.69-.025L16.565 8.3zM13.38 18.42l-1.81 1.496-1.807 1.495-.087-2.792-.087-2.794 1.894 1.3z" fill="#f0f9fc"/><path d="M9.592 21.78c0 .088.044.176.132.198.023.022.067.022.09.022a.2.2 0 0 0 .153-.066l3.532-3.516a.2.2 0 0 0 .065-.154v-5.737l8.39-10.175a.235.235 0 0 0 .02-.242.232.232 0 0 0-.198-.11H2.263c-.088 0-.154.044-.198.132-.045.066-.023.154.022.22l7.505 10.044v9.384zM2.705 2.44h18.61l-8.147 9.868a.31.31 0 0 0-.044.132v5.714l-3.09 3.077v-8.9c0-.044-.023-.088-.045-.132L2.704 2.44z"/></svg>