<svg xmlns="http://www.w3.org/2000/svg" width="26.247" height="32" viewBox="0 0 26.24719 32"><g fill="#707070"><path d="M24.81 4.674h-5.604l-1.118-2.682c-.26-.615-.7-1.078-1.21-1.42C16.365.23 15.768.004 15.1 0h-4.313c-.674.004-1.273.24-1.78.592-.502.356-.93.838-1.164 1.47l-.946 2.603.024.01H1.44a1.438 1.438 0 0 0 0 2.876h1.438v21.933c0 .693.286 1.327.74 1.778.45.455 1.085.74 1.777.74h15.46c.694 0 1.328-.285 1.78-.74.452-.45.738-1.084.738-1.777V7.55h1.44a1.438 1.438 0 0 0 0-2.876zM9.87 2.8c.036-.113.178-.307.375-.44.193-.14.424-.207.542-.203H15.1c.124-.004.37.065.58.21.214.137.374.34.416.454l.773 1.854H9.19L9.87 2.8zm11.343 26.683a.354.354 0 0 1-.106.253.354.354 0 0 1-.253.107H5.394a.354.354 0 0 1-.254-.107.354.354 0 0 1-.106-.253V7.55h16.18v21.933z"/><path d="M8.27 27.326a1.08 1.08 0 0 0 1.078-1.08v-15.46a1.08 1.08 0 0 0-2.157 0v15.46c0 .597.484 1.08 1.08 1.08zM17.618 27.326a1.08 1.08 0 0 0 1.08-1.08v-15.46a1.08 1.08 0 0 0-2.16 0v15.46c0 .597.484 1.08 1.08 1.08zM12.944 27.326a1.08 1.08 0 0 0 1.078-1.08v-15.46a1.08 1.08 0 0 0-2.157 0v15.46c0 .597.483 1.08 1.08 1.08z"/></g></svg>