<svg viewBox="0 0 32 32" width="32" height="32" xmlns="http://www.w3.org/2000/svg"><path fill="#707070" d="M3.224 30.147h20.773c1.71 0 3.413-1.288 3.88-2.934l4.006-14.158c.24-.85.105-1.7-.37-2.33-.48-.632-1.26-.994-2.144-.994h-2.15V8.3a3.227 3.227 0 0 0-3.223-3.224H12.52L11.81 3.3c-.33-.825-1.25-1.448-2.14-1.448H1.79C.804 1.852 0 2.656 0 3.644v23.28a3.227 3.227 0 0 0 3.224 3.223zM30.368 11.59c.207.272.255.655.136 1.076l-4.006 14.158c-.29 1.024-1.436 1.89-2.5 1.89H3.223c-.113 0-.223-.013-.33-.032-.285-.058-.517-.19-.67-.39-.206-.275-.254-.657-.136-1.078l4.007-14.158c.29-1.025 1.435-1.89 2.5-1.89h20.773c.44 0 .793.15 1 .423zM1.79 3.284h7.88c.298 0 .698.27.81.547l1.07 2.676h12.447c.987 0 1.79.803 1.79 1.79v1.434H8.597c-1.71 0-3.415 1.29-3.88 2.934L1.433 24.27V3.644c0-.195.164-.36.358-.36z"/><path fill="#daebec" d="M26.56 26.915c-.29 1.043-1.435 1.925-2.5 1.925H3.286c-.113 0-.223-.014-.33-.033-.285-.06-.517-.194-.67-.398-.206-.28-.254-.67-.136-1.097l4.007-14.41c.29-1.044 1.435-1.925 2.5-1.925H29.43c.438 0 .792.153 1 .432.206.278.254.668.135 1.096l-4.004 14.41"/><path fill="#7fa9bb" d="M1.433 3.644c0-.194.164-.358.358-.358h7.88c.298 0 .698.27.81.547l1.07 2.676h12.447c.987 0 1.79.802 1.79 1.79v1.433H8.597c-1.71 0-3.415 1.29-3.88 2.934L1.433 24.27V3.644z"/></svg>