<svg id="Layer_1" enable-background="new 375 375 192 192" viewBox="375 375 192 192" x="0px" y="0px" width="192px" height="192px" version="1.1" xmlns="http://www.w3.org/2000/svg" xml:space="preserve" xmlns:xlink="http://www.w3.org/1999/xlink">
  <path fill="#514f4f" d="M490.86 527.341l2.394-33.245 49.536-49.543 15.675-1.127c6.28-1.679 7.655-6.824 3.062-11.424l-51.525-51.54c-4.6-4.601-9.729-3.226-11.424 3.054l-1.119 15.682 -49.55 49.544 -33.262 2.408c-7.989 2.122-9.745 8.666-3.886 14.517 0 0 25.6 25.614 27.589 27.589l-50.001 50.157 -10.616 20.845 20.866-10.618 50.143-50 27.589 27.603c5.853 5.853 12.395 4.098 14.532-3.884V527.341Z"/>
</svg>
