<svg xmlns="http://www.w3.org/2000/svg" viewBox="0 0 128 128"><path d="M100.815 120.49l-36.24-19.08-36.463 18.663L35.29 80.14 6.044 51.666l40.677-5.6 18.39-36.263 17.962 36.47 40.608 6.065-29.575 28.14z" fill="#d3413e"/><path d="M63.995 12.338l12.82 39.47h41.508l-33.586 24.39 12.832 39.466-33.575-24.398-33.576 24.398L43.24 76.2 9.677 51.8h41.486l12.833-39.464m0-9.677a9.67 9.67 0 0 0-9.2 6.69L44.142 42.123H9.677a9.67 9.67 0 0 0-9.2 6.69A9.67 9.67 0 0 0 3.99 59.628l27.887 20.266-10.655 32.78a9.667 9.667 0 0 0 3.51 10.816 9.678 9.678 0 0 0 5.69 1.85c2 0 4-.617 5.688-1.85l27.887-20.265 27.887 20.265a9.63 9.63 0 0 0 5.688 1.85 9.672 9.672 0 0 0 9.2-12.664L96.115 79.893l27.897-20.26a9.668 9.668 0 0 0 3.51-10.815 9.682 9.682 0 0 0-9.2-6.69H83.85L73.193 9.35a9.68 9.68 0 0 0-9.2-6.69z" fill="#444"/></svg>