<svg xmlns="http://www.w3.org/2000/svg" viewBox="0 0 32 32" width="32" height="32"><path d="M28.8 7.467H13.92l-1.13-2.83c-.328-.82-1.24-1.437-2.123-1.437h-8.89A1.78 1.78 0 0 0 0 4.978V25.6c0 1.764 1.435 3.2 3.2 3.2h25.6c1.765 0 3.2-1.436 3.2-3.2V10.667c0-1.765-1.435-3.2-3.2-3.2zM1.778 4.622h8.89c.294 0 .69.27.8.544l.92 2.3H3.2c-.657 0-1.27.2-1.778.542v-3.03a.36.36 0 0 1 .356-.356zm28.8 20.978a1.78 1.78 0 0 1-1.778 1.778H3.2A1.78 1.78 0 0 1 1.422 25.6V10.667c0-.98.798-1.778 1.778-1.778h25.6c.98 0 1.778.796 1.778 1.777V25.6zM16.71 17.422h3.557v1.422H16.71V22.4h-1.42v-3.556h-3.557v-1.422h3.556v-3.555h1.42v3.555z" fill="#707070"/></svg>