<svg xmlns="http://www.w3.org/2000/svg" viewBox="0 0 128 128" width="128" height="128"><rect width="105.5" height="126.607" x="11.074" y="1.097" ry="23.226" fill="#fff" stroke="#444" stroke-width="1.432" stroke-miterlimit="1"/><path d="M96.76 0H31.463A22.34 22.34 0 0 0 9.082 22.382v5.364h-4.07c-1.48 0-2.59 1.11-2.59 2.774 0 1.48 1.296 2.59 2.776 2.59h4.07v28.3h-4.07c-1.48 0-2.59 1.295-2.59 2.775s1.295 2.59 2.775 2.59h4.07v26.82h-4.07c-1.48 0-2.59 1.295-2.59 2.59 0 1.48 1.295 2.59 2.775 2.59h4.07v6.844A22.34 22.34 0 0 0 32.017 128h65.296a22.34 22.34 0 0 0 22.38-22.381V22.38C119.14 9.988 109.153 0 96.76 0zm12.762 118.75c-3.33 3.33-7.77 5.366-12.948 5.366h-65.11a18.326 18.326 0 0 1-12.948-5.365c-3.33-3.328-5.364-7.767-5.364-12.947V98.96h3.884c.925 2.034 2.96 3.33 5.364 3.33 3.33 0 6.104-2.776 6.104-6.105 0-3.33-2.774-6.104-6.104-6.104-2.404 0-4.44 1.48-5.55 3.515h-3.883v-26.82h3.7c.924 2.034 3.144 3.514 5.548 3.514 3.33 0 6.104-2.776 6.104-6.105 0-3.33-2.775-6.104-6.105-6.104-2.404 0-4.44 1.296-5.364 3.33h-3.883v-28.3h3.884c.926 2.035 2.96 3.33 5.365 3.33 3.33 0 6.104-2.775 6.104-6.105 0-3.33-2.775-6.104-6.105-6.104-2.404 0-4.44 1.48-5.55 3.516h-3.883v-5.364c0-4.995 2.035-9.62 5.364-12.948 3.33-3.33 7.77-5.365 12.948-5.365H96.39c4.993 0 9.617 2.034 12.947 5.364 3.33 3.33 5.364 7.768 5.364 12.948v83.237c.186 5.178-1.85 9.802-5.178 13.13z"/><path d="M39.048 26.636h56.97v2.035H39.05zM39.048 62.705h56.97v2.035H39.05zM39.048 98.775h56.97v2.035H39.05zM39.048 80.647h56.97v2.035H39.05zM39.048 44.578h56.97v2.035H39.05z"/></svg>