<svg xmlns="http://www.w3.org/2000/svg" viewBox="0 0 128 128"><path d="M103.666 124.693L62.174 95.056l-38.04 28.402 15.407-48.56L.736 47.55l51.013-.376L65.804 1.87 81.926 50.2l47.493-.652-41.05 30.244z" fill="#007681"/><path d="M63.995 12.338l12.82 39.47h41.508l-33.586 24.39 12.832 39.466-33.575-24.398-33.576 24.398L43.24 76.2 9.677 51.8h41.486l12.833-39.464m0-9.677a9.67 9.67 0 0 0-9.2 6.69L44.142 42.123H9.677a9.67 9.67 0 0 0-9.2 6.69A9.67 9.67 0 0 0 3.99 59.628l27.887 20.266-10.655 32.78a9.667 9.667 0 0 0 3.51 10.816 9.68 9.68 0 0 0 5.69 1.85c2 0 4-.617 5.688-1.85l27.887-20.265 27.887 20.265a9.63 9.63 0 0 0 5.688 1.85 9.672 9.672 0 0 0 9.2-12.664L96.115 79.893l27.897-20.26a9.668 9.668 0 0 0 3.51-10.815 9.682 9.682 0 0 0-9.2-6.69H83.85L73.193 9.35a9.68 9.68 0 0 0-9.2-6.69z" fill="#007681"/></svg>