<?xml version="1.0" encoding="UTF-8" standalone="no"?>
<svg
   xmlns:dc="http://purl.org/dc/elements/1.1/"
   xmlns:cc="http://creativecommons.org/ns#"
   xmlns:rdf="http://www.w3.org/1999/02/22-rdf-syntax-ns#"
   xmlns:svg="http://www.w3.org/2000/svg"
   xmlns="http://www.w3.org/2000/svg"
   xmlns:sodipodi="http://sodipodi.sourceforge.net/DTD/sodipodi-0.dtd"
   xmlns:inkscape="http://www.inkscape.org/namespaces/inkscape"
   version="1.1"
   x="0px"
   y="0px"
   viewBox="0 0 28 28"
   enable-background="new 0 0 100 100"
   xml:space="preserve"
   id="svg2"
   inkscape:version="0.91 r13725"
   sodipodi:docname="noun_28399_cc.svg"
   width="28"
   height="28"><metadata
     id="metadata28"><rdf:RDF><cc:Work
         rdf:about=""><dc:format>image/svg+xml</dc:format><dc:type
           rdf:resource="http://purl.org/dc/dcmitype/StillImage" /><dc:title></dc:title></cc:Work></rdf:RDF></metadata><defs
     id="defs26" /><sodipodi:namedview
     pagecolor="#ffffff"
     bordercolor="#666666"
     borderopacity="1"
     objecttolerance="10"
     gridtolerance="10"
     guidetolerance="10"
     inkscape:pageopacity="0"
     inkscape:pageshadow="2"
     inkscape:window-width="1857"
     inkscape:window-height="1178"
     id="namedview24"
     showgrid="false"
     inkscape:zoom="1.888"
     inkscape:cx="-28.125"
     inkscape:cy="62.5"
     inkscape:window-x="-8"
     inkscape:window-y="-8"
     inkscape:window-maximized="1"
     inkscape:current-layer="svg2" /><g
     id="g3356"
     transform="matrix(0.31111284,0,0,0.31111284,-1.555642,-1.555642)"
     style="fill:#707070;fill-opacity:1"><path
       id="path4"
       d="m 5.964,71.747 c -1.285,1.284 -1.285,3.367 0,4.652 l 9.824,9.823 c 0.16,0.161 0.336,0.305 0.525,0.431 0.035,0.023 0.074,0.038 0.109,0.059 0.148,0.089 0.298,0.174 0.458,0.24 0.062,0.025 0.127,0.038 0.188,0.058 0.14,0.048 0.278,0.097 0.426,0.126 0.097,0.019 0.196,0.02 0.295,0.03 0.113,0.012 0.223,0.035 0.339,0.035 0.106,0 0.206,-0.021 0.308,-0.031 0.109,-0.011 0.22,-0.012 0.329,-0.033 0.133,-0.027 0.259,-0.073 0.387,-0.115 0.075,-0.025 0.153,-0.04 0.228,-0.071 0.14,-0.058 0.27,-0.135 0.4,-0.211 0.055,-0.032 0.114,-0.054 0.167,-0.09 0.185,-0.123 0.357,-0.263 0.512,-0.419 l 9.833,-9.833 c 1.285,-1.284 1.285,-3.367 0,-4.652 -1.283,-1.285 -3.367,-1.285 -4.652,0 l -4.223,4.223 0,-24.957 c 0,-1.817 -1.473,-3.29 -3.29,-3.29 -1.817,0 -3.29,1.473 -3.29,3.29 l 0,24.954 -4.222,-4.221 C 9.331,70.46 7.247,70.46 5.964,71.747 Z"
       inkscape:connector-curvature="0"
       style="fill:#707070;fill-opacity:1" /><path
       id="path6"
       d="m 94.036,28.253 c 1.285,-1.284 1.285,-3.367 0,-4.652 L 84.212,13.778 C 84.052,13.617 83.876,13.473 83.687,13.347 83.652,13.324 83.613,13.309 83.578,13.288 83.43,13.199 83.28,13.114 83.12,13.048 83.058,13.023 82.993,13.01 82.932,12.99 c -0.14,-0.048 -0.278,-0.097 -0.426,-0.126 -0.097,-0.019 -0.196,-0.02 -0.295,-0.03 -0.113,-0.012 -0.223,-0.035 -0.339,-0.035 -0.106,0 -0.206,0.021 -0.308,0.031 -0.109,0.011 -0.22,0.012 -0.329,0.033 -0.133,0.027 -0.259,0.073 -0.387,0.115 -0.075,0.025 -0.153,0.04 -0.228,0.071 -0.14,0.058 -0.27,0.135 -0.4,0.211 -0.055,0.032 -0.114,0.054 -0.167,0.09 -0.185,0.123 -0.357,0.263 -0.512,0.419 l -9.833,9.833 c -1.285,1.284 -1.285,3.367 0,4.652 1.283,1.285 3.367,1.285 4.652,0 l 4.223,-4.223 0,24.956 c 0,1.817 1.473,3.29 3.29,3.29 1.817,0 3.29,-1.473 3.29,-3.29 l 0,-24.953 4.222,4.221 c 1.284,1.285 3.368,1.285 4.651,-0.002 z"
       inkscape:connector-curvature="0"
       style="fill:#707070;fill-opacity:1" /><g
       id="g8"
       style="fill:#707070;fill-opacity:1"><path
         id="path10"
         d="m 31.074,62.906 c 0,-1.903 1.543,-3.446 3.446,-3.446 l 31.01,0 c 1.903,0 3.446,1.543 3.446,3.446 0,1.903 -1.543,3.446 -3.446,3.446 l -31.01,0 c -1.903,-0.001 -3.446,-1.543 -3.446,-3.446 z"
         inkscape:connector-curvature="0"
         style="fill:#707070;fill-opacity:1" /></g><g
       id="g12"
       style="fill:#707070;fill-opacity:1"><path
         id="path14"
         d="M 31.074,49.446 C 31.074,47.543 32.617,46 34.52,46 l 31.01,0 c 1.903,0 3.446,1.543 3.446,3.446 0,1.903 -1.543,3.446 -3.446,3.446 l -31.01,0 c -1.903,0 -3.446,-1.543 -3.446,-3.446 z"
         inkscape:connector-curvature="0"
         style="fill:#707070;fill-opacity:1" /></g><g
       id="g16"
       style="fill:#707070;fill-opacity:1"><path
         id="path18"
         d="m 31.074,35.987 c 0,-1.903 1.543,-3.446 3.446,-3.446 l 31.01,0 c 1.903,0 3.446,1.543 3.446,3.446 0,1.903 -1.543,3.446 -3.446,3.446 l -31.01,0 C 32.617,39.432 31.074,37.89 31.074,35.987 Z"
         inkscape:connector-curvature="0"
         style="fill:#707070;fill-opacity:1" /></g></g></svg>