<svg xmlns="http://www.w3.org/2000/svg" viewBox="0 0 128 128" width="128" height="128"><path fill="#fff" stroke-miterlimit="1" d="M21.888 16.242h98.702v77.86H21.888z"/><path fill="#fff" stroke-miterlimit="1" d="M6.62 32.13h98.703v77.86H6.62z"/><path d="M123.797 12.12H19.83a4.21 4.21 0 0 0-4.205 4.205V27.74H4.205A4.212 4.212 0 0 0 0 31.95v79.727a4.21 4.21 0 0 0 4.206 4.206h103.966a4.21 4.21 0 0 0 4.206-4.205V100.26h11.416A4.21 4.21 0 0 0 128 96.052V16.325a4.206 4.206 0 0 0-4.203-4.206zM8.413 36.154h95.554v14.843H8.413V36.155zm95.554 71.313H8.413v-48.06h95.554v48.06zm15.623-15.623h-7.21V31.948a4.21 4.21 0 0 0-4.206-4.206H24.036v-7.21h95.554v71.313z"/><circle cx="16.25" cy="35.757" r="2.627" transform="translate(0 3)"/><circle cx="23.373" cy="35.757" r="2.627" transform="translate(0 3)"/><circle cx="30.438" cy="35.757" r="2.627" transform="translate(0 3)"/></svg>