<svg xmlns="http://www.w3.org/2000/svg" width="32" height="32" viewBox="0 0 32 32"><path fill="none" d="M3.672 5.333H1.895a.36.36 0 0 0-.355.355v20.477l2.133-7.54V5.334zM29.272 13.156H8.65c-1.058 0-2.194.86-2.482 1.877L2.19 29.088c-.118.417-.07.797.135 1.068.15.2.38.33.665.39.106.02.215.032.327.032H23.94c1.057 0 2.193-.86 2.48-1.878l3.98-14.055c.118-.417.07-.797-.136-1.068-.205-.272-.557-.42-.992-.42z"/><path fill="#707070" d="M8.65 9.6h14.93v1.42H8.65z"/><path fill="none" d="M8.65 9.6h14.93v1.42H8.65zM29.272 13.156H8.65c-1.058 0-2.194.86-2.482 1.877L2.19 29.088c-.118.417-.07.797.135 1.068.15.2.38.33.665.39.106.02.215.032.327.032H23.94c1.057 0 2.193-.86 2.48-1.878l3.98-14.055c.118-.417.07-.797-.136-1.068-.205-.272-.557-.42-.992-.42z"/><path fill="#7FA9AE" d="M3.672 5.333H1.895a.36.36 0 0 0-.355.355v20.477l2.133-7.54V5.334z"/><g><path fill="none" d="M3.672 5.333H1.895a.36.36 0 0 0-.355.355v20.477l2.133-7.54V5.334zM8.65 9.6h14.93v1.42H8.65z"/><path fill="#707070" d="M31.4 12.72c-.48-.63-1.25-.99-2.13-.99h-.71V6.82L21.74 0H5.45c-.98 0-1.78.8-1.78 1.78v2.13H1.89c-.98 0-1.77.8-1.77 1.78V28.8c0 1.76 1.43 3.2 3.2 3.2h20.62c1.7 0 3.39-1.28 3.85-2.91l3.98-14.06c.24-.84.1-1.68-.37-2.31zM22.16 2.43l3.97 3.97h-3.61c-.2 0-.36-.16-.36-.36V2.43zM5.09 1.78c0-.2.16-.36.36-.36h15.29v4.62c0 .98.8 1.78 1.78 1.78h4.62v3.91H8.65c-1.44 0-2.87.92-3.56 2.2V1.78zM1.54 5.69c0-.19.16-.36.35-.36h1.78v13.3l-2.13 7.54V5.69zm28.86 8.96L26.42 28.7c-.29 1.02-1.42 1.88-2.48 1.88H3.32c-.12 0-.22-.02-.33-.04-.28-.05-.51-.18-.66-.38-.21-.28-.26-.66-.14-1.07l3.98-14.06c.29-1.01 1.42-1.87 2.48-1.87h20.62c.44 0 .79.15.99.42.21.27.26.65.14 1.07z"/><path fill="#FFF" d="M26.13 6.4h-3.61c-.2 0-.36-.16-.36-.36V2.43l3.97 3.97z"/><path fill="#FFF" d="M22.52 7.82c-.98 0-1.78-.8-1.78-1.78V1.42H5.45c-.2 0-.36.16-.36.36v12.15c.69-1.28 2.12-2.2 3.56-2.2h18.49V7.82h-4.62zm1.06 3.2H8.65V9.6h14.93v1.42z"/><path fill="#DAEBEC" d="M29.272 13.156H8.65c-1.058 0-2.194.86-2.482 1.877L2.19 29.088c-.118.417-.07.797.135 1.068.15.2.38.33.665.39.106.02.215.032.327.032H23.94c1.057 0 2.193-.86 2.48-1.878l3.98-14.055c.118-.417.07-.797-.136-1.068-.205-.272-.557-.42-.992-.42z"/></g></svg>