<svg viewBox="0 0 32 32" width="32" height="32" xmlns="http://www.w3.org/2000/svg"><path fill="none" d="M28.8 8.89H3.2a1.78 1.78 0 0 0-1.778 1.777V25.6c0 .98.797 1.778 1.778 1.778h25.6a1.78 1.78 0 0 0 1.778-1.778V10.667A1.78 1.78 0 0 0 28.8 8.89zM12.39 7.467l-.92-2.3c-.11-.275-.508-.544-.804-.544H1.778a.36.36 0 0 0-.355.355v3.03c.508-.34 1.12-.54 1.777-.54h9.19z"/><path fill="none" d="M28.8 8.89H3.2a1.78 1.78 0 0 0-1.778 1.777V25.6c0 .98.797 1.778 1.778 1.778h25.6a1.78 1.78 0 0 0 1.778-1.778V10.667A1.78 1.78 0 0 0 28.8 8.89zM12.39 7.467l-.92-2.3c-.11-.275-.508-.544-.804-.544H1.778a.36.36 0 0 0-.355.355v3.03c.508-.34 1.12-.54 1.777-.54h9.19z"/><path fill="#707070" d="M28.8 7.467H13.92l-1.13-2.83c-.328-.82-1.24-1.437-2.123-1.437h-8.89A1.78 1.78 0 0 0 0 4.978V25.6c0 1.765 1.436 3.2 3.2 3.2h25.6c1.765 0 3.2-1.436 3.2-3.2V10.667c0-1.765-1.436-3.2-3.2-3.2zM1.422 4.977a.36.36 0 0 1 .355-.354h8.89c.294 0 .692.27.802.543l.92 2.3H3.2c-.658 0-1.27.2-1.778.542v-3.03zM30.578 25.6a1.78 1.78 0 0 1-1.778 1.778H3.2A1.78 1.78 0 0 1 1.422 25.6V10.667c0-.98.797-1.778 1.778-1.778h25.6c.98 0 1.778.797 1.778 1.777V25.6z"/><path fill="#7fa9ae" d="M1.422 4.978a.36.36 0 0 1 .355-.355h8.89c.294 0 .692.27.802.543l.92 2.3H3.2c-.658 0-1.27.2-1.778.542v-3.03z"/><path fill="#daebec" d="M30.578 25.6a1.78 1.78 0 0 1-1.778 1.778H3.2A1.78 1.78 0 0 1 1.422 25.6V10.667c0-.98.797-1.778 1.778-1.778h25.6c.98 0 1.778.797 1.778 1.777V25.6z"/></svg>