<svg id="svg2" enable-background="new 0 0 32 32" viewBox="0 0 32 32" x="0px" y="0px" width="32px" height="32px" xmlns:svg="http://www.w3.org/2000/svg" inkscape:version="0.48.4 r9939" version="1.1" xmlns="http://www.w3.org/2000/svg" sodipodi:docname="emp-folder-open.svg" xmlns:inkscape="http://www.inkscape.org/namespaces/inkscape" xmlns:sodipodi="http://sodipodi.sourceforge.net/DTD/sodipodi-0.dtd" xmlns:rdf="http://www.w3.org/1999/02/22-rdf-syntax-ns#" xmlns:cc="http://creativecommons.org/ns#" xmlns:dc="http://purl.org/dc/elements/1.1/" xml:space="preserve" xmlns:xlink="http://www.w3.org/1999/xlink">
  <sodipodi:namedview inkscape:window-y="-8" inkscape:window-x="-8" inkscape:window-height="1178" inkscape:window-width="1857" inkscape:current-layer="layer1" inkscape:cy="29.611289" inkscape:cx="10.238355" inkscape:zoom="7.552" inkscape:pageshadow="2" inkscape:pageopacity="0" borderopacity="1" bordercolor="#666666" pagecolor="#ffffff" inkscape:window-maximized="1" showgrid="false" id="namedview36" guidetolerance="10" gridtolerance="10" objecttolerance="10"/>
  <g id="g4" display="none" transform="translate(0 -93)">
    <g id="g6" display="inline">
      <path id="path8" d="M81 82c0 3.85-3.15 7-7 7H12c-3.85 0-7-3.15-7-7V26c0-3.85 3.15-7 7-7h62c3.85 0 7 3.15 7 7V82Z" inkscape:connector-curvature="0"/>
    </g>
    <g id="g10" display="inline">
      <path id="path12" d="M36.113 12.785C35.501 11.254 33.65 10 32 10H8c-1.65 0-3 1.35-3 3v19c0 1.65 1.35 3 3 3h34c1.65 0 2.498-1.254 1.887-2.785L36.113 12.785Z" inkscape:connector-curvature="0"/>
    </g>
    <g id="g14" display="inline">
      <path id="path16" d="M12 90c-2.179 0-4.03-0.845-5.212-2.378 -1.182-1.533-1.528-3.538-0.974-5.646l11.437-43.462C18.342 34.371 22.715 31 27 31h62c2.18 0 4.029 0.845 5.212 2.378 1.183 1.534 1.528 3.539 0.974 5.646L83.748 82.485C82.658 86.629 78.285 90 74 90H12Z" inkscape:connector-curvature="0"/>
      <path id="path18" d="M89 32c3.85 0 6.198 3.046 5.219 6.77L82.781 82.23C81.802 85.954 77.85 89 74 89H12c-3.85 0-6.198-3.046-5.219-6.77l11.438-43.46C19.198 35.046 23.15 32 27 32H89M89 30H27c-4.79 0-9.497 3.628-10.715 8.261L4.847 81.722c-0.626 2.379-0.208 4.753 1.148 6.511C7.352 89.991 9.54 91 12 91h62c4.79 0 9.497-3.629 10.716-8.261l11.438-43.461c0.625-2.379 0.207-4.752-1.149-6.511C93.648 31.009 91.46 30 89 30L89 30Z" inkscape:connector-curvature="0"/>
    </g>
  </g>
  <g id="g20" display="none" transform="translate(0 -93)">
    <path id="path22" display="inline" stroke="#e00c02" stroke-miterlimit="10" stroke-width="4" d="M79 34v-6c0-3.85-3.15-7-7-7H38.6l-2.486-6.215C35.501 13.254 33.65 12 32 12H10c-1.65 0-3 1.35-3 3v65c0 3.85 3.15 7 7 7" inkscape:connector-curvature="0"/>
    <g id="g24" display="inline">
      <path id="path26" stroke="#e00c02" stroke-miterlimit="10" stroke-width="4" d="M80.906 80.265C79.857 83.969 75.85 87 72 87H14c-3.85 0-6.142-3.031-5.094-6.735l11.187-39.529C21.143 37.031 25.15 34 29 34h58c3.85 0 6.143 3.031 5.094 6.735L80.906 80.265Z" inkscape:connector-curvature="0"/>
    </g>
  </g>
  <g id="layer1" inkscape:groupmode="layer" inkscape:label="outline">
    <path id="path30" fill="#707070" d="M3.224 30.147h20.773c1.709 0 3.413-1.288 3.88-2.934l4.006-14.158c0.241-0.85 0.105-1.7-0.371-2.331 -0.479-0.631-1.258-0.993-2.143-0.993h-2.148V8.299c0-1.777-1.446-3.223-3.224-3.223H12.519L11.809 3.3c-0.33-0.825-1.25-1.448-2.139-1.448H1.791C0.803 1.853 0 2.656 0 3.644v23.28C0 28.701 1.446 30.147 3.224 30.147ZM30.368 11.589c0.207 0.273 0.255 0.656 0.136 1.077l-4.006 14.158 0 0c-0.291 1.024-1.436 1.891-2.501 1.891H3.224c-0.113 0-0.223-0.014-0.33-0.033 -0.285-0.058-0.517-0.19-0.669-0.391 -0.207-0.274-0.255-0.656-0.137-1.077l4.007-14.158c0.29-1.025 1.435-1.891 2.5-1.891h20.773C29.807 11.165 30.161 11.315 30.368 11.589ZM1.791 3.285H9.67c0.298 0 0.698 0.271 0.809 0.547l1.07 2.676h12.448c0.987 0 1.79 0.803 1.79 1.791v1.433H8.596c-1.709 0-3.414 1.289-3.879 2.934L1.433 24.27V3.644C1.433 3.449 1.597 3.285 1.791 3.285Z" inkscape:connector-curvature="0"/>
  </g>
  <path fill="#daebec" d="M26.561 26.915c-0.291 1.043-1.436 1.925-2.501 1.925H3.286c-0.113 0-0.223-0.014-0.33-0.033 -0.285-0.059-0.517-0.194-0.669-0.398C2.08 28.129 2.032 27.74 2.15 27.313l4.007-14.411c0.29-1.043 1.435-1.924 2.5-1.924h20.773c0.438 0 0.792 0.153 0.999 0.432 0.207 0.278 0.255 0.668 0.136 1.096L26.561 26.915 26.561 26.915"/>
  <path fill="#7fa9bb" d="M1.433 3.644c0-0.194 0.164-0.358 0.358-0.358H9.67c0.298 0 0.698 0.271 0.809 0.547l1.07 2.676h12.448c0.987 0 1.79 0.803 1.79 1.791v1.433H8.596c-1.709 0-3.414 1.289-3.879 2.934L1.433 24.27V3.644Z"/>
</svg>
