<svg id="Layer_1" enable-background="new 0 0 24 24" viewBox="0 0 24 24" x="0px" y="0px" width="24px" height="24px" version="1.1" xmlns="http://www.w3.org/2000/svg" xml:space="preserve">
  <path fill="#bf0022" stroke="#5e1010" stroke-linejoin="round" stroke-miterlimit="10" d="M12.718 22.832c-1.496 0-2.712-1.09-2.712-2.429 0-1.341 1.217-2.432 2.712-2.432 1.496 0 2.713 1.091 2.713 2.432C15.431 21.742 14.214 22.832 12.718 22.832ZM11.242 15.5l-0.164-0.957L9.979 3.314c-0.056-0.534 0.093-0.988 0.484-1.45 0.491-0.583 1.333-0.937 2.255-0.937 0.871 0 1.735 0.38 2.255 0.996 0.37 0.439 0.542 0.99 0.484 1.551l-1.101 11.125L14.195 15.5H11.242Z"/>
  <path fill="#bf0022" d="M12.718 22.582c-1.358 0-2.462-0.978-2.462-2.179s1.104-2.182 2.462-2.182c1.357 0 2.463 0.98 2.463 2.182S14.075 22.582 12.718 22.582ZM11.932 15l-0.605-0.369L10.228 3.347c-0.051-0.488 0.096-0.903 0.426-1.292 0.461-0.548 1.252-0.863 2.064-0.863 0.812 0 1.603 0.354 2.063 0.9 0.33 0.392 0.478 0.868 0.427 1.36l-1.101 11.175L13.503 15H11.932Z"/>
</svg>
