<svg xmlns="http://www.w3.org/2000/svg" xmlns:xlink="http://www.w3.org/1999/xlink" version="1.1" id="Layer_1" x="0px" y="0px" width="92px" height="92px" viewBox="0 0 92 92" enable-background="new 0 0 92 92" xml:space="preserve">
  <path fill="#5AC0DB" stroke="#1B81BF" stroke-width="3" stroke-miterlimit="10" d="M78.5 58.729c0 6.712-2.265 12.771-8.266 12.771H28.15L12.402 86.377l2.245-15.344c-6 0-12.146-5.593-12.146-12.305V24.706C2.5 17.996 9.932 14.5 15.932 14.5h54.303c6.001 0 8.266 3.496 8.266 10.206V58.729z"/>
  <path fill="#5B94D8" d="M85.998 55.689C84.498 57.994 81.021 60 78.271 60H43.381c-2.75 0-6.45-1.84-8.222-3.943l-0.841-0.946C32.545 53.008 31 48.978 31 46.228v-30.42c0-2.75 1.547-6.169 3.321-7.904C36.096 6.169 39.892 5 42.642 5h35.815c2.75 0 6.247 1.48 7.771 3.596C87.753 10.711 89 14.442 89 17.192v28.761c0 2.75-1.227 6.945-2.727 9.251L85.998 55.689z"/>
  <path fill="none" stroke="#17627F" stroke-width="2" stroke-miterlimit="10" d="M85.998 55.689C84.498 57.994 81.021 60 78.271 60H43.381c-2.75 0-6.45-1.84-8.222-3.943l-0.841-0.946C32.545 53.008 31 48.978 31 46.228v-30.42c0-2.75 1.547-6.169 3.321-7.904C36.096 6.169 39.892 5 42.642 5h35.815c2.75 0 6.247 1.48 7.771 3.596C87.753 10.711 89 14.442 89 17.192v28.761c0 2.75-1.227 6.945-2.727 9.251L85.998 55.689z"/>
  <polygon fill="#EBF1F2" points="63 53 58 53 58 35.06 37 35 37 30 58 30 58 9 63 9 63 30 83 30 83 35 63 35 "/>
</svg>
