<?xml version="1.0" encoding="UTF-8" standalone="no"?>
<svg
   xmlns:sketch="http://www.bohemiancoding.com/sketch/ns"
   xmlns:dc="http://purl.org/dc/elements/1.1/"
   xmlns:cc="http://creativecommons.org/ns#"
   xmlns:rdf="http://www.w3.org/1999/02/22-rdf-syntax-ns#"
   xmlns:svg="http://www.w3.org/2000/svg"
   xmlns="http://www.w3.org/2000/svg"
   xmlns:sodipodi="http://sodipodi.sourceforge.net/DTD/sodipodi-0.dtd"
   xmlns:inkscape="http://www.inkscape.org/namespaces/inkscape"
   viewBox="0 0 24 24"
   version="1.1"
   x="0px"
   y="0px"
   id="svg2"
   inkscape:version="0.91 r13725"
   sodipodi:docname="framework-ghost.svg"
   width="24"
   height="24">
  <metadata
     id="metadata24">
    <rdf:RDF>
      <cc:Work
         rdf:about="">
        <dc:format>image/svg+xml</dc:format>
        <dc:type
           rdf:resource="http://purl.org/dc/dcmitype/StillImage" />
        <dc:title>blinky</dc:title>
      </cc:Work>
    </rdf:RDF>
  </metadata>
  <defs
     id="defs22" />
  <sodipodi:namedview
     pagecolor="#ffffff"
     bordercolor="#666666"
     borderopacity="1"
     objecttolerance="10"
     gridtolerance="10"
     guidetolerance="10"
     inkscape:pageopacity="0"
     inkscape:pageshadow="2"
     inkscape:window-width="933"
     inkscape:window-height="640"
     id="namedview20"
     showgrid="false"
     inkscape:zoom="7.8666667"
     inkscape:cx="12"
     inkscape:cy="9.7881356"
     inkscape:window-x="182"
     inkscape:window-y="60"
     inkscape:window-maximized="0"
     inkscape:current-layer="svg2" />
  <title
     id="title4">blinky</title>
  <desc
     id="desc6">Created with Sketch Beta.</desc>
  <g
     sketch:type="MSPage"
     id="g8"
     style="fill:none;fill-rule:evenodd;stroke:none;stroke-width:1"
     transform="translate(0.25423729,-0.66101695)">
    <g
       sketch:type="MSLayerGroup"
       id="g10">
      <path
         d="M 22,0 0,0 0,22 22,22 22,0 Z"
         sketch:type="MSShapeGroup"
         transform="matrix(1,0,0,-1,0,22)"
         id="path12"
         inkscape:connector-curvature="0" />
      <path
         d="M 4,19.034254 4,9.9978195 C 4,5.5807458 7.5907123,2 12,2 c 4.418278,0 8,3.5793596 8,8.001519 l 0,9.013153 C 20,20.009781 20,22 19.111111,22 18.222222,22 18.217014,20 17.333333,20 16.018066,20 15.944155,22 14.666667,22 13.291317,22 13.323025,20 12,20 10.676975,20 10.666265,22 9.3586756,22 8.082883,22 7.984468,20 6.6666667,20 5.7712131,20 5.7777778,22 4.8888889,22 4,22 4,20.022836 4,19.034254 Z M 16,12 c 1.104569,0 2,-0.89543 2,-2 0,-1.1045695 -0.895431,-2 -2,-2 -1.104569,0 -2,0.8954305 -2,2 0,1.10457 0.895431,2 2,2 z m -6,0 c 1.10457,0 2,-0.89543 2,-2 0,-1.1045695 -0.89543,-2 -2,-2 -1.1045695,0 -2,0.8954305 -2,2 0,1.10457 0.8954305,2 2,2 z"
         sketch:type="MSShapeGroup"
         id="path14"
         inkscape:connector-curvature="0"
         style="fill:#000000" />
    </g>
  </g>
</svg>
