<svg id="Layer_1" viewBox="0 0 92 92" x="0px" y="0px" width="92px" height="92px" version="1.1" xmlns="http://www.w3.org/2000/svg" xml:space="preserve" xmlns:xlink="http://www.w3.org/1999/xlink">
  <g>
    <path d="M16 2v0.705 10.168L83.706 13l-0.022 23H90V12.873 2H16ZM89 35h-4V13h4V35Z" style="fill:#00385f;opacity:0.9"/>
    <path d="M17.772 3.5h70.775H17.772Z" style="fill:none;stroke-miterlimit:10;stroke:#fff"/>
    <path d="M11 5v1.166 10.168l67.177 0.431L78.277 39H84V16.334 5H11ZM83 38h-3V17h3V38Z" style="fill:#00385f;opacity:0.95"/>
    <path d="M12.366 6.5h70.775H12.366Z" style="fill:none;stroke-miterlimit:10;stroke:#fff"/>
    <path d="M6 10v0.78 10.168V43h73V20.949 10H6ZM78 42H7V22h71V42Z" fill="#00385f"/>
    <path d="M6.883 11.5h71.852H6.883Z" style="fill:none;stroke-miterlimit:10;stroke:#fff"/>
    <polygon points="49.63 69.235 50.168 88.5 32.943 88.5 33.482 69.235 20.563 69.108 41.493 43.663 62.548 69.133" style="fill:#e6e6e6;stroke-miterlimit:10;stroke:#03444f"/>
  </g>
</svg>
