<svg id="Layer_1" enable-background="new 0 0 24 24" viewBox="0 0 24 24" x="0px" y="0px" width="24px" height="24px" version="1.1" xmlns="http://www.w3.org/2000/svg" xml:space="preserve">
  <path fill="#020202" d="M3.724 22c-0.354-1-0.58-4.525 0.017-7.803 0.067-0.367 0.146-0.604 0.211-0.824 0.296-0.993 0.343-1.531-0.348-3.384C2.988 8.337 3.649 6.858 4.313 5.904c1.611-2.32 4.891-4 7.798-4 2.872 0 6.004 1.535 7.615 3.73 0.723 0.983 1.46 2.548 0.874 4.417 -0.671 2.136-0.691 2.49-0.225 3.781 0.057 0.158 0.122 0.339 0.194 0.555 1.006 3 1.083 6.591 0.719 7.47 -0.321 0.046-0.61 0.068-0.82 0.075 -0.038-0.085-0.081-0.2-0.116-0.293 -0.122-0.325-0.273-0.729-0.568-1.12 -0.361-0.481-1.135-0.696-1.739-0.696 -0.625 0-1.168 0.228-1.528 0.641 -0.305 0.351-0.445 0.744-0.558 1.06 -0.051 0.141-0.126 0.354-0.174 0.402 -0.007 0.002-0.077 0.022-0.219 0.022 -0.168-0.002-0.282-0.014-0.356-0.025 -0.001-0.008-0.002-0.015-0.003-0.022 -0.064-0.411-0.215-1.374-1.481-1.74 -0.277-0.079-0.766-0.22-1.274-0.22 -0.524 0-0.952 0.149-1.273 0.445 -0.369 0.34-0.499 0.766-0.604 1.108 -0.145 0.474-0.145 0.474-0.544 0.474 -0.085 0-0.177-0.005-0.276-0.015 -0.098-0.047-0.205-0.249-0.275-0.384 -0.221-0.42-0.556-1.056-1.327-1.373 -0.458-0.189-1.218-0.204-1.44-0.204 -0.776 0-1.212 0.132-1.507 0.456 -0.317 0.35-0.371 0.798-0.423 1.232 -0.011 0.087-0.025 0.205-0.042 0.31 -0.051 0.007-0.104-0.034-0.16-0.025C4.335 22.001 4.03 22 3.789 22 3.765 22 3.743 22 3.724 22Z"/>
  <path d="M12.11 2.907c2.574 0 5.374 1.365 6.81 3.32 0.852 1.16 1.096 2.345 0.726 3.524 -0.703 2.24-0.79 2.818-0.211 4.419 0.055 0.151 0.117 0.325 0.187 0.532 0.575 1.714 0.828 3.688 0.862 5.092 -0.627-0.716-1.689-0.974-2.439-0.974 -0.919 0-1.729 0.35-2.282 0.984 -0.095 0.108-0.178 0.22-0.251 0.33 -0.371-0.441-0.879-0.756-1.524-0.942 -0.287-0.083-0.887-0.255-1.536-0.255 -0.976 0-1.6 0.386-1.951 0.71 -0.254 0.234-0.434 0.493-0.566 0.741 -0.296-0.408-0.733-0.844-1.4-1.119 -0.59-0.244-1.396-0.28-1.823-0.28 -0.714 0-1.615 0.089-2.248 0.784 -0.019 0.021-0.037 0.041-0.054 0.062 -0.078-1.495-0.021-3.562 0.315-5.41 0.056-0.306 0.119-0.518 0.186-0.742 0.372-1.247 0.372-2.043-0.369-4.031C4.168 8.651 4.367 7.584 5.134 6.48 6.549 4.443 9.548 2.907 12.11 2.907M12.11 0.907c-5.216 0-11.186 4.767-9.444 9.444 0.86 2.309 0.382 2.112 0.09 3.717 -0.602 3.307-0.459 7.739 0.208 8.738 0.151 0.226 0.47 0.294 0.825 0.294 0.521 0 1.117-0.146 1.367-0.153 0.755-0.021 0.506-1.518 0.787-1.827 0.083-0.091 0.407-0.129 0.767-0.129 0.412 0 0.869 0.05 1.06 0.129 0.956 0.394 0.759 1.715 1.883 1.827 0.136 0.014 0.261 0.02 0.376 0.02 1.679 0 1.3-1.361 1.826-1.847 0.146-0.135 0.364-0.182 0.595-0.181 0.375 0 0.787 0.147 0.997 0.208C14.908 21.568 13.403 23 15.527 23c0.013 0 0.025 0 0.038 0 1.402 0 1.149-1.217 1.704-1.854 0.191-0.221 0.484-0.312 0.774-0.312 0.422 0 0.84 0.158 0.94 0.291 0.518 0.688 0.466 1.573 1.124 1.795 0.026 0.009 0.108 0.014 0.234 0.014 0.281 0 0.777-0.031 1.34-0.128 1.215-0.21 0.963-5.374-0.165-8.739 -0.538-1.604-0.706-1.352 0.036-3.717C23.115 5.374 17.325 0.907 12.11 0.907L12.11 0.907Z"/>
  <g id="REye">
    <circle fill="#ffffff" stroke="#000000" stroke-miterlimit="10" stroke-width="0.75" cx="17.349" cy="8.685" r="3.593"/>
    <path fill="none" stroke="#000000" stroke-miterlimit="10" d="M19.95 11.349c0 0.734-1.191 1.332-2.662 1.332s-2.662-0.597-2.662-1.332c0-0.735 1.191-3.305 2.662-3.305S19.95 10.613 19.95 11.349Z"/>
    <path fill="none" stroke="#000000" stroke-miterlimit="10" stroke-width="0.75" d="M18.439 10.59c0 0.518-0.418 0.938-0.941 0.938 -0.52 0-0.938-0.421-0.938-0.938 0-0.519 0.418-0.94 0.938-0.94C18.021 9.65 18.439 10.071 18.439 10.59Z"/>
    <path fill="none" stroke="#fcfcfc" stroke-miterlimit="10" stroke-width="0.25" d="M18.23 10.575c0 0.409-0.318 0.734-0.705 0.734 -0.389 0-0.707-0.326-0.707-0.734s0.318-0.734 0.707-0.734C17.912 9.841 18.23 10.167 18.23 10.575Z"/>
  </g>
  <g id="LEye_1_">
    <circle fill="#ffffff" stroke="#000000" stroke-miterlimit="10" stroke-width="0.75" cx="9.549" cy="8.685" r="3.594"/>
    <path fill="none" stroke="#000000" stroke-miterlimit="10" d="M12.15 11.349c0 0.734-1.191 1.331-2.662 1.331s-2.662-0.597-2.662-1.331c0-0.735 1.191-3.305 2.662-3.305S12.15 10.613 12.15 11.349Z"/>
    <path fill="none" stroke="#000000" stroke-miterlimit="10" stroke-width="0.75" d="M10.639 10.59c0 0.518-0.418 0.938-0.941 0.938 -0.52 0-0.938-0.421-0.938-0.938 0-0.519 0.418-0.94 0.938-0.94C10.221 9.65 10.639 10.071 10.639 10.59Z"/>
    <path fill="none" stroke="#fcfcfc" stroke-miterlimit="10" stroke-width="0.25" d="M10.43 10.575c0 0.409-0.318 0.734-0.705 0.734 -0.389 0-0.707-0.326-0.707-0.734s0.318-0.734 0.707-0.734C10.112 9.841 10.43 10.167 10.43 10.575Z"/>
  </g>
</svg>
