<svg xmlns="http://www.w3.org/2000/svg" xmlns:xlink="http://www.w3.org/1999/xlink" version="1.1" id="Layer_1" x="0px" y="0px" width="24px" height="24px" viewBox="0 0 24 24" enable-background="new 0 0 24 24" xml:space="preserve">
  <path fill="#CCCCCC" stroke="#605E5E" stroke-miterlimit="10" d="M20.5 21.447c0 0.582-0.447 1.053-1 1.053h-15c-0.552 0-1-0.471-1-1.053V3.553c0-0.582 0.448-1.053 1-1.053h15c0.553 0 1 0.471 1 1.053V21.447z"/>
  <linearGradient id="SVGID_1_" gradientUnits="userSpaceOnUse" x1="12.0005" y1="9" x2="12.0005" y2="4">
    <stop offset="0" stop-color="#FFFFFF"/>
    <stop offset="0.1096" stop-color="#FAFAFA"/>
    <stop offset="0.2334" stop-color="#EDEDED"/>
    <stop offset="0.3643" stop-color="#D6D6D6"/>
    <stop offset="0.5001" stop-color="#B6B6B6"/>
    <stop offset="0.6397" stop-color="#8D8D8D"/>
    <stop offset="0.7824" stop-color="#5B5B5B"/>
    <stop offset="0.925" stop-color="#222222"/>
    <stop offset="1" stop-color="#000000"/>
  </linearGradient>
  <path fill="url(#SVGID_1_)" d="M19 7.75C19 8.44 18.44 9 17.75 9H6.25C5.56 9 5 8.44 5 7.75v-2.5C5 4.56 5.56 4 6.25 4h11.5C18.44 4 19 4.56 19 5.25V7.75z"/>
  <path fill="#FFFFFF" d="M18 6.738c0 0.55-0.144 0.993-0.205 1.131S16.861 8 16.312 8H7.266c-0.55 0-0.995 0.069-1.133 0.008C5.995 7.945 6 7.288 6 6.738V6.736c0-0.55-0.067-1.23-0.006-1.368S6.716 5 7.266 5h9.046c0.55 0 1.206 0.168 1.344 0.229C17.794 5.292 18 6.187 18 6.736V6.738z"/>
  <path fill="#E6E6E6" d="M17.312 5C17.451 5 18 5.598 18 5.736v2.002C18 7.876 17.451 8 17.312 8H6.266C6.126 8 6 7.876 6 7.738V5.736C6 5.598 6.126 5 6.266 5H17M17.312 5H6.266C5.988 5 6 5.46 6 5.736v2.002C6 8.015 5.988 8 6.266 8h11.046C17.59 8 18 8.015 18 7.738V5.736C18 5.46 17.59 5 17.312 5L17.312 5z"/>
  <g id="Button1">
    <path fill="#FF0000" d="M6.5 13.375c-0.207 0-0.375-0.168-0.375-0.375v-1c0-0.207 0.168-0.375 0.375-0.375h1c0.207 0 0.375 0.168 0.375 0.375v1c0 0.207-0.168 0.375-0.375 0.375H6.5z"/>
    <path fill="#FF0000" d="M7.5 11.75c0.138 0 0.25 0.112 0.25 0.25v1c0 0.138-0.112 0.25-0.25 0.25h-1c-0.138 0-0.25-0.112-0.25-0.25v-1c0-0.138 0.112-0.25 0.25-0.25H7.5M7.5 11.5h-1C6.225 11.5 6 11.725 6 12v1c0 0.275 0.225 0.5 0.5 0.5h1C7.775 13.5 8 13.275 8 13v-1C8 11.725 7.775 11.5 7.5 11.5L7.5 11.5z"/>
    <g opacity="0.96">
      <path d="M7.5 11.75c0.138 0 0.25 0.112 0.25 0.25v1c0 0.138-0.112 0.25-0.25 0.25h-1c-0.138 0-0.25-0.112-0.25-0.25v-1c0-0.138 0.112-0.25 0.25-0.25H7.5M7.5 11.5h-1C6.225 11.5 6 11.725 6 12v1c0 0.275 0.225 0.5 0.5 0.5h1C7.775 13.5 8 13.275 8 13v-1C8 11.725 7.775 11.5 7.5 11.5L7.5 11.5z"/>
    </g>
    <linearGradient id="SVGID_2_" gradientUnits="userSpaceOnUse" x1="6" y1="13.1992" x2="8" y2="13.1992">
      <stop offset="0" style="stop-color:#231F20;stop-opacity:0"/>
      <stop offset="0.5" stop-color="#231F20"/>
      <stop offset="1" style="stop-color:#231F20;stop-opacity:0"/>
    </linearGradient>
    <path fill="url(#SVGID_2_)" d="M7.5 13.398h-1c-0.275 0-0.5-0.225-0.5-0.5V13c0 0.275 0.225 0.5 0.5 0.5h1C7.775 13.5 8 13.275 8 13v-0.102C8 13.174 7.775 13.398 7.5 13.398z"/>
    <linearGradient id="SVGID_3_" gradientUnits="userSpaceOnUse" x1="6.4238" y1="11.3706" x2="7.577" y2="12.5238">
      <stop offset="0.0121" style="stop-color:#FFFFFF;stop-opacity:0"/>
      <stop offset="0.5" stop-color="#FFFFFF"/>
      <stop offset="1" style="stop-color:#FFFFFF;stop-opacity:0"/>
    </linearGradient>
    <path fill="url(#SVGID_3_)" d="M7.5 11.5h-1C6.225 11.5 6 11.725 6 12v0.1c0-0.274 0.225-0.5 0.5-0.5h1c0.275 0 0.5 0.226 0.5 0.5V12C8 11.725 7.775 11.5 7.5 11.5z"/>
  </g>
  <g id="Button2">
    <path fill="#4D4D4D" d="M9.5 13.375c-0.207 0-0.375-0.168-0.375-0.375v-1c0-0.207 0.168-0.375 0.375-0.375h1c0.207 0 0.375 0.168 0.375 0.375v1c0 0.207-0.168 0.375-0.375 0.375H9.5z"/>
    <path fill="#4D4D4D" d="M10.5 11.75c0.138 0 0.25 0.112 0.25 0.25v1c0 0.138-0.112 0.25-0.25 0.25h-1c-0.138 0-0.25-0.112-0.25-0.25v-1c0-0.138 0.112-0.25 0.25-0.25H10.5M10.5 11.5h-1C9.225 11.5 9 11.725 9 12v1c0 0.275 0.225 0.5 0.5 0.5h1c0.275 0 0.5-0.225 0.5-0.5v-1C11 11.725 10.775 11.5 10.5 11.5L10.5 11.5z"/>
    <g opacity="0.96">
      <path d="M10.5 11.75c0.138 0 0.25 0.112 0.25 0.25v1c0 0.138-0.112 0.25-0.25 0.25h-1c-0.138 0-0.25-0.112-0.25-0.25v-1c0-0.138 0.112-0.25 0.25-0.25H10.5M10.5 11.5h-1C9.225 11.5 9 11.725 9 12v1c0 0.275 0.225 0.5 0.5 0.5h1c0.275 0 0.5-0.225 0.5-0.5v-1C11 11.725 10.775 11.5 10.5 11.5L10.5 11.5z"/>
    </g>
    <linearGradient id="SVGID_4_" gradientUnits="userSpaceOnUse" x1="9" y1="13.1992" x2="11" y2="13.1992">
      <stop offset="0" style="stop-color:#231F20;stop-opacity:0"/>
      <stop offset="0.5" stop-color="#231F20"/>
      <stop offset="1" style="stop-color:#231F20;stop-opacity:0"/>
    </linearGradient>
    <path fill="url(#SVGID_4_)" d="M10.5 13.398h-1c-0.275 0-0.5-0.225-0.5-0.5V13c0 0.275 0.225 0.5 0.5 0.5h1c0.275 0 0.5-0.225 0.5-0.5v-0.102C11 13.174 10.775 13.398 10.5 13.398z"/>
    <linearGradient id="SVGID_5_" gradientUnits="userSpaceOnUse" x1="9.4238" y1="11.3706" x2="10.577" y2="12.5238">
      <stop offset="0.0121" style="stop-color:#FFFFFF;stop-opacity:0"/>
      <stop offset="0.5" stop-color="#FFFFFF"/>
      <stop offset="1" style="stop-color:#FFFFFF;stop-opacity:0"/>
    </linearGradient>
    <path fill="url(#SVGID_5_)" d="M10.5 11.5h-1C9.225 11.5 9 11.725 9 12v0.1c0-0.274 0.225-0.5 0.5-0.5h1c0.275 0 0.5 0.226 0.5 0.5V12C11 11.725 10.775 11.5 10.5 11.5z"/>
  </g>
  <g id="Button2_1_">
    <path fill="#4D4D4D" d="M12.5 13.375c-0.207 0-0.375-0.168-0.375-0.375v-1c0-0.207 0.168-0.375 0.375-0.375h1c0.207 0 0.375 0.168 0.375 0.375v1c0 0.207-0.168 0.375-0.375 0.375H12.5z"/>
    <path fill="#4D4D4D" d="M13.5 11.75c0.138 0 0.25 0.112 0.25 0.25v1c0 0.138-0.112 0.25-0.25 0.25h-1c-0.138 0-0.25-0.112-0.25-0.25v-1c0-0.138 0.112-0.25 0.25-0.25H13.5M13.5 11.5h-1c-0.275 0-0.5 0.225-0.5 0.5v1c0 0.275 0.225 0.5 0.5 0.5h1c0.275 0 0.5-0.225 0.5-0.5v-1C14 11.725 13.775 11.5 13.5 11.5L13.5 11.5z"/>
    <g opacity="0.96">
      <path d="M13.5 11.75c0.138 0 0.25 0.112 0.25 0.25v1c0 0.138-0.112 0.25-0.25 0.25h-1c-0.138 0-0.25-0.112-0.25-0.25v-1c0-0.138 0.112-0.25 0.25-0.25H13.5M13.5 11.5h-1c-0.275 0-0.5 0.225-0.5 0.5v1c0 0.275 0.225 0.5 0.5 0.5h1c0.275 0 0.5-0.225 0.5-0.5v-1C14 11.725 13.775 11.5 13.5 11.5L13.5 11.5z"/>
    </g>
    <linearGradient id="SVGID_6_" gradientUnits="userSpaceOnUse" x1="12" y1="13.1992" x2="14" y2="13.1992">
      <stop offset="0" style="stop-color:#231F20;stop-opacity:0"/>
      <stop offset="0.5" stop-color="#231F20"/>
      <stop offset="1" style="stop-color:#231F20;stop-opacity:0"/>
    </linearGradient>
    <path fill="url(#SVGID_6_)" d="M13.5 13.398h-1c-0.275 0-0.5-0.225-0.5-0.5V13c0 0.275 0.225 0.5 0.5 0.5h1c0.275 0 0.5-0.225 0.5-0.5v-0.102C14 13.174 13.775 13.398 13.5 13.398z"/>
    <linearGradient id="SVGID_7_" gradientUnits="userSpaceOnUse" x1="12.4238" y1="11.3701" x2="13.577" y2="12.5233">
      <stop offset="0.0121" style="stop-color:#FFFFFF;stop-opacity:0"/>
      <stop offset="0.5" stop-color="#FFFFFF"/>
      <stop offset="1" style="stop-color:#FFFFFF;stop-opacity:0"/>
    </linearGradient>
    <path fill="url(#SVGID_7_)" d="M13.5 11.5h-1c-0.275 0-0.5 0.225-0.5 0.5v0.1c0-0.274 0.225-0.5 0.5-0.5h1c0.275 0 0.5 0.226 0.5 0.5V12C14 11.725 13.775 11.5 13.5 11.5z"/>
  </g>
  <g id="Button2_2_">
    <path fill="#4D4D4D" d="M15.5 13.375c-0.207 0-0.375-0.168-0.375-0.375v-1c0-0.207 0.168-0.375 0.375-0.375h1c0.207 0 0.375 0.168 0.375 0.375v1c0 0.207-0.168 0.375-0.375 0.375H15.5z"/>
    <path fill="#4D4D4D" d="M16.5 11.75c0.138 0 0.25 0.112 0.25 0.25v1c0 0.138-0.112 0.25-0.25 0.25h-1c-0.138 0-0.25-0.112-0.25-0.25v-1c0-0.138 0.112-0.25 0.25-0.25H16.5M16.5 11.5h-1c-0.275 0-0.5 0.225-0.5 0.5v1c0 0.275 0.225 0.5 0.5 0.5h1c0.275 0 0.5-0.225 0.5-0.5v-1C17 11.725 16.775 11.5 16.5 11.5L16.5 11.5z"/>
    <g opacity="0.96">
      <path d="M16.5 11.75c0.138 0 0.25 0.112 0.25 0.25v1c0 0.138-0.112 0.25-0.25 0.25h-1c-0.138 0-0.25-0.112-0.25-0.25v-1c0-0.138 0.112-0.25 0.25-0.25H16.5M16.5 11.5h-1c-0.275 0-0.5 0.225-0.5 0.5v1c0 0.275 0.225 0.5 0.5 0.5h1c0.275 0 0.5-0.225 0.5-0.5v-1C17 11.725 16.775 11.5 16.5 11.5L16.5 11.5z"/>
    </g>
    <linearGradient id="SVGID_8_" gradientUnits="userSpaceOnUse" x1="15" y1="13.1992" x2="17" y2="13.1992">
      <stop offset="0" style="stop-color:#231F20;stop-opacity:0"/>
      <stop offset="0.5" stop-color="#231F20"/>
      <stop offset="1" style="stop-color:#231F20;stop-opacity:0"/>
    </linearGradient>
    <path fill="url(#SVGID_8_)" d="M16.5 13.398h-1c-0.275 0-0.5-0.225-0.5-0.5V13c0 0.275 0.225 0.5 0.5 0.5h1c0.275 0 0.5-0.225 0.5-0.5v-0.102C17 13.174 16.775 13.398 16.5 13.398z"/>
    <linearGradient id="SVGID_9_" gradientUnits="userSpaceOnUse" x1="15.4238" y1="11.3706" x2="16.5763" y2="12.5231">
      <stop offset="0.0121" style="stop-color:#FFFFFF;stop-opacity:0"/>
      <stop offset="0.5" stop-color="#FFFFFF"/>
      <stop offset="1" style="stop-color:#FFFFFF;stop-opacity:0"/>
    </linearGradient>
    <path fill="url(#SVGID_9_)" d="M16.5 11.5h-1c-0.275 0-0.5 0.225-0.5 0.5v0.1c0-0.274 0.225-0.5 0.5-0.5h1c0.275 0 0.5 0.226 0.5 0.5V12C17 11.725 16.775 11.5 16.5 11.5z"/>
  </g>
  <g id="Button2_8_">
    <path fill="#4D4D4D" d="M9.5 16.634c-0.207 0-0.375-0.168-0.375-0.375v-1c0-0.207 0.168-0.375 0.375-0.375h1c0.207 0 0.375 0.168 0.375 0.375v1c0 0.207-0.168 0.375-0.375 0.375H9.5z"/>
    <path fill="#4D4D4D" d="M10.5 15.009c0.138 0 0.25 0.112 0.25 0.25v1c0 0.138-0.112 0.25-0.25 0.25h-1c-0.138 0-0.25-0.112-0.25-0.25v-1c0-0.138 0.112-0.25 0.25-0.25H10.5M10.5 14.759h-1c-0.275 0-0.5 0.225-0.5 0.5v1c0 0.275 0.225 0.5 0.5 0.5h1c0.275 0 0.5-0.225 0.5-0.5v-1C11 14.983 10.775 14.759 10.5 14.759L10.5 14.759z"/>
    <g opacity="0.96">
      <path d="M10.5 15.009c0.138 0 0.25 0.112 0.25 0.25v1c0 0.138-0.112 0.25-0.25 0.25h-1c-0.138 0-0.25-0.112-0.25-0.25v-1c0-0.138 0.112-0.25 0.25-0.25H10.5M10.5 14.759h-1c-0.275 0-0.5 0.225-0.5 0.5v1c0 0.275 0.225 0.5 0.5 0.5h1c0.275 0 0.5-0.225 0.5-0.5v-1C11 14.983 10.775 14.759 10.5 14.759L10.5 14.759z"/>
    </g>
    <linearGradient id="SVGID_10_" gradientUnits="userSpaceOnUse" x1="9" y1="16.458" x2="11" y2="16.458">
      <stop offset="0" style="stop-color:#231F20;stop-opacity:0"/>
      <stop offset="0.5" stop-color="#231F20"/>
      <stop offset="1" style="stop-color:#231F20;stop-opacity:0"/>
    </linearGradient>
    <path fill="url(#SVGID_10_)" d="M10.5 16.657h-1c-0.275 0-0.5-0.225-0.5-0.5v0.102c0 0.275 0.225 0.5 0.5 0.5h1c0.275 0 0.5-0.225 0.5-0.5v-0.102C11 16.433 10.775 16.657 10.5 16.657z"/>
    <linearGradient id="SVGID_11_" gradientUnits="userSpaceOnUse" x1="9.4238" y1="14.6299" x2="10.577" y2="15.7831">
      <stop offset="0.0121" style="stop-color:#FFFFFF;stop-opacity:0"/>
      <stop offset="0.5" stop-color="#FFFFFF"/>
      <stop offset="1" style="stop-color:#FFFFFF;stop-opacity:0"/>
    </linearGradient>
    <path fill="url(#SVGID_11_)" d="M10.5 14.759h-1c-0.275 0-0.5 0.225-0.5 0.5v0.1c0-0.274 0.225-0.5 0.5-0.5h1c0.275 0 0.5 0.226 0.5 0.5v-0.1C11 14.983 10.775 14.759 10.5 14.759z"/>
  </g>
  <g id="Button2_7_">
    <path fill="#4D4D4D" d="M12.5 16.634c-0.207 0-0.375-0.168-0.375-0.375v-1c0-0.207 0.168-0.375 0.375-0.375h1c0.207 0 0.375 0.168 0.375 0.375v1c0 0.207-0.168 0.375-0.375 0.375H12.5z"/>
    <path fill="#4D4D4D" d="M13.5 15.009c0.138 0 0.25 0.112 0.25 0.25v1c0 0.138-0.112 0.25-0.25 0.25h-1c-0.138 0-0.25-0.112-0.25-0.25v-1c0-0.138 0.112-0.25 0.25-0.25H13.5M13.5 14.759h-1c-0.275 0-0.5 0.225-0.5 0.5v1c0 0.275 0.225 0.5 0.5 0.5h1c0.275 0 0.5-0.225 0.5-0.5v-1C14 14.983 13.775 14.759 13.5 14.759L13.5 14.759z"/>
    <g opacity="0.96">
      <path d="M13.5 15.009c0.138 0 0.25 0.112 0.25 0.25v1c0 0.138-0.112 0.25-0.25 0.25h-1c-0.138 0-0.25-0.112-0.25-0.25v-1c0-0.138 0.112-0.25 0.25-0.25H13.5M13.5 14.759h-1c-0.275 0-0.5 0.225-0.5 0.5v1c0 0.275 0.225 0.5 0.5 0.5h1c0.275 0 0.5-0.225 0.5-0.5v-1C14 14.983 13.775 14.759 13.5 14.759L13.5 14.759z"/>
    </g>
    <linearGradient id="SVGID_12_" gradientUnits="userSpaceOnUse" x1="12" y1="16.458" x2="14" y2="16.458">
      <stop offset="0" style="stop-color:#231F20;stop-opacity:0"/>
      <stop offset="0.5" stop-color="#231F20"/>
      <stop offset="1" style="stop-color:#231F20;stop-opacity:0"/>
    </linearGradient>
    <path fill="url(#SVGID_12_)" d="M13.5 16.657h-1c-0.275 0-0.5-0.225-0.5-0.5v0.102c0 0.275 0.225 0.5 0.5 0.5h1c0.275 0 0.5-0.225 0.5-0.5v-0.102C14 16.433 13.775 16.657 13.5 16.657z"/>
    <linearGradient id="SVGID_13_" gradientUnits="userSpaceOnUse" x1="12.4238" y1="14.6289" x2="13.577" y2="15.7821">
      <stop offset="0.0121" style="stop-color:#FFFFFF;stop-opacity:0"/>
      <stop offset="0.5" stop-color="#FFFFFF"/>
      <stop offset="1" style="stop-color:#FFFFFF;stop-opacity:0"/>
    </linearGradient>
    <path fill="url(#SVGID_13_)" d="M13.5 14.759h-1c-0.275 0-0.5 0.225-0.5 0.5v0.1c0-0.274 0.225-0.5 0.5-0.5h1c0.275 0 0.5 0.226 0.5 0.5v-0.1C14 14.983 13.775 14.759 13.5 14.759z"/>
  </g>
  <g id="Button1_2_">
    <path fill="#FF0000" d="M6.5 19.664c-0.207 0-0.375-0.168-0.375-0.375v-1c0-0.207 0.168-0.375 0.375-0.375h1c0.207 0 0.375 0.168 0.375 0.375v1c0 0.207-0.168 0.375-0.375 0.375H6.5z"/>
    <path fill="#FF0000" d="M7.5 18.039c0.138 0 0.25 0.112 0.25 0.25v1c0 0.138-0.112 0.25-0.25 0.25h-1c-0.138 0-0.25-0.112-0.25-0.25v-1c0-0.138 0.112-0.25 0.25-0.25H7.5M7.5 17.789h-1c-0.275 0-0.5 0.225-0.5 0.5v1c0 0.275 0.225 0.5 0.5 0.5h1c0.275 0 0.5-0.225 0.5-0.5v-1C8 18.014 7.775 17.789 7.5 17.789L7.5 17.789z"/>
    <g opacity="0.96">
      <path d="M7.5 18.039c0.138 0 0.25 0.112 0.25 0.25v1c0 0.138-0.112 0.25-0.25 0.25h-1c-0.138 0-0.25-0.112-0.25-0.25v-1c0-0.138 0.112-0.25 0.25-0.25H7.5M7.5 17.789h-1c-0.275 0-0.5 0.225-0.5 0.5v1c0 0.275 0.225 0.5 0.5 0.5h1c0.275 0 0.5-0.225 0.5-0.5v-1C8 18.014 7.775 17.789 7.5 17.789L7.5 17.789z"/>
    </g>
    <linearGradient id="SVGID_14_" gradientUnits="userSpaceOnUse" x1="6" y1="19.4883" x2="8" y2="19.4883">
      <stop offset="0" style="stop-color:#231F20;stop-opacity:0"/>
      <stop offset="0.5" stop-color="#231F20"/>
      <stop offset="1" style="stop-color:#231F20;stop-opacity:0"/>
    </linearGradient>
    <path fill="url(#SVGID_14_)" d="M7.5 19.688h-1c-0.275 0-0.5-0.225-0.5-0.5v0.102c0 0.275 0.225 0.5 0.5 0.5h1c0.275 0 0.5-0.225 0.5-0.5v-0.102C8 19.463 7.775 19.688 7.5 19.688z"/>
    <linearGradient id="SVGID_15_" gradientUnits="userSpaceOnUse" x1="6.4243" y1="17.6602" x2="7.5768" y2="18.8127">
      <stop offset="0.0121" style="stop-color:#FFFFFF;stop-opacity:0"/>
      <stop offset="0.5" stop-color="#FFFFFF"/>
      <stop offset="1" style="stop-color:#FFFFFF;stop-opacity:0"/>
    </linearGradient>
    <path fill="url(#SVGID_15_)" d="M7.5 17.789h-1c-0.275 0-0.5 0.225-0.5 0.5v0.1c0-0.274 0.225-0.5 0.5-0.5h1c0.275 0 0.5 0.226 0.5 0.5v-0.1C8 18.014 7.775 17.789 7.5 17.789z"/>
  </g>
  <g id="Button2_11_">
    <path fill="#4D4D4D" d="M9.5 19.664c-0.207 0-0.375-0.168-0.375-0.375v-1c0-0.207 0.168-0.375 0.375-0.375h1c0.207 0 0.375 0.168 0.375 0.375v1c0 0.207-0.168 0.375-0.375 0.375H9.5z"/>
    <path fill="#4D4D4D" d="M10.5 18.039c0.138 0 0.25 0.112 0.25 0.25v1c0 0.138-0.112 0.25-0.25 0.25h-1c-0.138 0-0.25-0.112-0.25-0.25v-1c0-0.138 0.112-0.25 0.25-0.25H10.5M10.5 17.789h-1c-0.275 0-0.5 0.225-0.5 0.5v1c0 0.275 0.225 0.5 0.5 0.5h1c0.275 0 0.5-0.225 0.5-0.5v-1C11 18.014 10.775 17.789 10.5 17.789L10.5 17.789z"/>
    <g opacity="0.96">
      <path d="M10.5 18.039c0.138 0 0.25 0.112 0.25 0.25v1c0 0.138-0.112 0.25-0.25 0.25h-1c-0.138 0-0.25-0.112-0.25-0.25v-1c0-0.138 0.112-0.25 0.25-0.25H10.5M10.5 17.789h-1c-0.275 0-0.5 0.225-0.5 0.5v1c0 0.275 0.225 0.5 0.5 0.5h1c0.275 0 0.5-0.225 0.5-0.5v-1C11 18.014 10.775 17.789 10.5 17.789L10.5 17.789z"/>
    </g>
    <linearGradient id="SVGID_16_" gradientUnits="userSpaceOnUse" x1="9" y1="19.4883" x2="11" y2="19.4883">
      <stop offset="0" style="stop-color:#231F20;stop-opacity:0"/>
      <stop offset="0.5" stop-color="#231F20"/>
      <stop offset="1" style="stop-color:#231F20;stop-opacity:0"/>
    </linearGradient>
    <path fill="url(#SVGID_16_)" d="M10.5 19.688h-1c-0.275 0-0.5-0.225-0.5-0.5v0.102c0 0.275 0.225 0.5 0.5 0.5h1c0.275 0 0.5-0.225 0.5-0.5v-0.102C11 19.463 10.775 19.688 10.5 19.688z"/>
    <linearGradient id="SVGID_17_" gradientUnits="userSpaceOnUse" x1="9.4238" y1="17.6592" x2="10.577" y2="18.8124">
      <stop offset="0.0121" style="stop-color:#FFFFFF;stop-opacity:0"/>
      <stop offset="0.5" stop-color="#FFFFFF"/>
      <stop offset="1" style="stop-color:#FFFFFF;stop-opacity:0"/>
    </linearGradient>
    <path fill="url(#SVGID_17_)" d="M10.5 17.789h-1c-0.275 0-0.5 0.225-0.5 0.5v0.1c0-0.274 0.225-0.5 0.5-0.5h1c0.275 0 0.5 0.226 0.5 0.5v-0.1C11 18.014 10.775 17.789 10.5 17.789z"/>
  </g>
  <g id="Button2_10_">
    <path fill="#4D4D4D" d="M12.5 19.664c-0.207 0-0.375-0.168-0.375-0.375v-1c0-0.207 0.168-0.375 0.375-0.375h1c0.207 0 0.375 0.168 0.375 0.375v1c0 0.207-0.168 0.375-0.375 0.375H12.5z"/>
    <path fill="#4D4D4D" d="M13.5 18.039c0.138 0 0.25 0.112 0.25 0.25v1c0 0.138-0.112 0.25-0.25 0.25h-1c-0.138 0-0.25-0.112-0.25-0.25v-1c0-0.138 0.112-0.25 0.25-0.25H13.5M13.5 17.789h-1c-0.275 0-0.5 0.225-0.5 0.5v1c0 0.275 0.225 0.5 0.5 0.5h1c0.275 0 0.5-0.225 0.5-0.5v-1C14 18.014 13.775 17.789 13.5 17.789L13.5 17.789z"/>
    <g opacity="0.96">
      <path d="M13.5 18.039c0.138 0 0.25 0.112 0.25 0.25v1c0 0.138-0.112 0.25-0.25 0.25h-1c-0.138 0-0.25-0.112-0.25-0.25v-1c0-0.138 0.112-0.25 0.25-0.25H13.5M13.5 17.789h-1c-0.275 0-0.5 0.225-0.5 0.5v1c0 0.275 0.225 0.5 0.5 0.5h1c0.275 0 0.5-0.225 0.5-0.5v-1C14 18.014 13.775 17.789 13.5 17.789L13.5 17.789z"/>
    </g>
    <linearGradient id="SVGID_18_" gradientUnits="userSpaceOnUse" x1="12" y1="19.4883" x2="14" y2="19.4883">
      <stop offset="0" style="stop-color:#231F20;stop-opacity:0"/>
      <stop offset="0.5" stop-color="#231F20"/>
      <stop offset="1" style="stop-color:#231F20;stop-opacity:0"/>
    </linearGradient>
    <path fill="url(#SVGID_18_)" d="M13.5 19.688h-1c-0.275 0-0.5-0.225-0.5-0.5v0.102c0 0.275 0.225 0.5 0.5 0.5h1c0.275 0 0.5-0.225 0.5-0.5v-0.102C14 19.463 13.775 19.688 13.5 19.688z"/>
    <linearGradient id="SVGID_19_" gradientUnits="userSpaceOnUse" x1="12.4238" y1="17.6592" x2="13.577" y2="18.8124">
      <stop offset="0.0121" style="stop-color:#FFFFFF;stop-opacity:0"/>
      <stop offset="0.5" stop-color="#FFFFFF"/>
      <stop offset="1" style="stop-color:#FFFFFF;stop-opacity:0"/>
    </linearGradient>
    <path fill="url(#SVGID_19_)" d="M13.5 17.789h-1c-0.275 0-0.5 0.225-0.5 0.5v0.1c0-0.274 0.225-0.5 0.5-0.5h1c0.275 0 0.5 0.226 0.5 0.5v-0.1C14 18.014 13.775 17.789 13.5 17.789z"/>
  </g>
  <g id="Button2_3_">
    <path fill="#4D4D4D" d="M6.5 16.634c-0.207 0-0.375-0.168-0.375-0.375v-1c0-0.207 0.168-0.375 0.375-0.375h1c0.207 0 0.375 0.168 0.375 0.375v1c0 0.207-0.168 0.375-0.375 0.375H6.5z"/>
    <path fill="#4D4D4D" d="M7.5 15.009c0.138 0 0.25 0.112 0.25 0.25v1c0 0.138-0.112 0.25-0.25 0.25h-1c-0.138 0-0.25-0.112-0.25-0.25v-1c0-0.138 0.112-0.25 0.25-0.25H7.5M7.5 14.759h-1c-0.275 0-0.5 0.225-0.5 0.5v1c0 0.275 0.225 0.5 0.5 0.5h1c0.275 0 0.5-0.225 0.5-0.5v-1C8 14.983 7.775 14.759 7.5 14.759L7.5 14.759z"/>
    <g opacity="0.96">
      <path d="M7.5 15.009c0.138 0 0.25 0.112 0.25 0.25v1c0 0.138-0.112 0.25-0.25 0.25h-1c-0.138 0-0.25-0.112-0.25-0.25v-1c0-0.138 0.112-0.25 0.25-0.25H7.5M7.5 14.759h-1c-0.275 0-0.5 0.225-0.5 0.5v1c0 0.275 0.225 0.5 0.5 0.5h1c0.275 0 0.5-0.225 0.5-0.5v-1C8 14.983 7.775 14.759 7.5 14.759L7.5 14.759z"/>
    </g>
    <linearGradient id="SVGID_20_" gradientUnits="userSpaceOnUse" x1="6" y1="16.458" x2="8" y2="16.458">
      <stop offset="0" style="stop-color:#231F20;stop-opacity:0"/>
      <stop offset="0.5" stop-color="#231F20"/>
      <stop offset="1" style="stop-color:#231F20;stop-opacity:0"/>
    </linearGradient>
    <path fill="url(#SVGID_20_)" d="M7.5 16.657h-1c-0.275 0-0.5-0.225-0.5-0.5v0.102c0 0.275 0.225 0.5 0.5 0.5h1c0.275 0 0.5-0.225 0.5-0.5v-0.102C8 16.433 7.775 16.657 7.5 16.657z"/>
    <linearGradient id="SVGID_21_" gradientUnits="userSpaceOnUse" x1="6.4243" y1="14.6299" x2="7.5768" y2="15.7824">
      <stop offset="0.0121" style="stop-color:#FFFFFF;stop-opacity:0"/>
      <stop offset="0.5" stop-color="#FFFFFF"/>
      <stop offset="1" style="stop-color:#FFFFFF;stop-opacity:0"/>
    </linearGradient>
    <path fill="url(#SVGID_21_)" d="M7.5 14.759h-1c-0.275 0-0.5 0.225-0.5 0.5v0.1c0-0.274 0.225-0.5 0.5-0.5h1c0.275 0 0.5 0.226 0.5 0.5v-0.1C8 14.983 7.775 14.759 7.5 14.759z"/>
  </g>
  <g id="Button2_9_">
    <path fill="#4D4D4D" d="M15.5 20c-0.153 0-0.5-0.604-0.5-1.291v-2.5C15 15.522 15.347 15 15.5 15h1c0.153 0 0.5 0.522 0.5 1.209v2.5C17 19.396 16.653 20 16.5 20H15.5z"/>
    <path fill="#4D4D4D" d="M16.49 15c0.078 0 0.51 0.601 0.51 1.209v2.5c0 0.62-0.313 0.969-0.375 1l-1.174 0.002C15.376 19.678 15 19.329 15 18.709v-2.5C15 15.589 15.438 15 15.5 15H16M16.5 15h-1c-0.275 0-0.5 0.521-0.5 1.209v2.5C15 19.397 15.225 20 15.5 20h1c0.275 0 0.5-0.603 0.5-1.291v-2.5C17 15.521 16.775 15 16.5 15L16.5 15z"/>
    <g opacity="0.96">
      <path d="M16.49 15c0.078 0 0.51 0.601 0.51 1.209v2.5c0 0.62-0.313 0.969-0.375 1l-1.174 0.002C15.376 19.678 15 19.329 15 18.709v-2.5C15 15.589 15.438 15 15.5 15H16M16.5 15h-1c-0.275 0-0.5 0.521-0.5 1.209v2.5C15 19.397 15.225 20 15.5 20h1c0.275 0 0.5-0.603 0.5-1.291v-2.5C17 15.521 16.775 15 16.5 15L16.5 15z"/>
    </g>
    <linearGradient id="SVGID_22_" gradientUnits="userSpaceOnUse" x1="15" y1="19.207" x2="17" y2="19.207">
      <stop offset="0" style="stop-color:#231F20;stop-opacity:0"/>
      <stop offset="0.5" stop-color="#231F20"/>
      <stop offset="1" style="stop-color:#231F20;stop-opacity:0"/>
    </linearGradient>
    <path fill="url(#SVGID_22_)" d="M16.5 19.705h-1c-0.275 0-0.5-0.562-0.5-1.25v0.254c0 0.688 0.225 1.25 0.5 1.25h1c0.275 0 0.5-0.562 0.5-1.25v-0.254C17 19.144 16.775 19.705 16.5 19.705z"/>
    <linearGradient id="SVGID_23_" gradientUnits="userSpaceOnUse" x1="15.2266" y1="15.1367" x2="16.774" y2="16.6842">
      <stop offset="0.0121" style="stop-color:#FFFFFF;stop-opacity:0"/>
      <stop offset="0.5" stop-color="#FFFFFF"/>
      <stop offset="1" style="stop-color:#FFFFFF;stop-opacity:0"/>
    </linearGradient>
    <path fill="url(#SVGID_23_)" d="M16.5 14.959h-1c-0.275 0-0.5 0.562-0.5 1.25v0.249c0-0.687 0.225-1.25 0.5-1.25h1c0.275 0 0.5 0.563 0.5 1.25v-0.249C17 15.521 16.775 14.959 16.5 14.959z"/>
  </g>
</svg>
