<svg id="Layer_1" enable-background="new 0 0 24 28" viewBox="0 0 24 28" x="0px" y="0px" width="24px" height="28px" version="1.1" xmlns="http://www.w3.org/2000/svg" xml:space="preserve">
  <path fill="#d9dbdb" stroke="#343535" stroke-miterlimit="10" d="M21.064 22.18c-0.663 0.59-2.089 0.32-2.089 0.32H7.993l-2.399 3.121L6.045 22.5H5.029c0 0-1.198 0.203-1.864-0.369C2.571 21.621 2.5 20.729 2.5 20.729v-9.862c0 0 0.079-1.188 0.75-1.759C3.837 8.608 5.029 8.5 5.029 8.5h13.947c0 0 1.078 0.155 1.713 0.715 0.831 0.904 0.812 1.727 0.812 1.727v9.711C21.5 20.653 21.66 21.65 21.064 22.18Z"/>
</svg>
