<svg id="Layer_1" enable-background="new 0 0 24 24" viewBox="0 0 24 24" x="0px" y="0px" width="24px" height="24px" version="1.1" xmlns="http://www.w3.org/2000/svg" xml:space="preserve" xmlns:xlink="http://www.w3.org/1999/xlink">
  <path fill="#ffffff" d="M5.342 7.505c0-3.862 3.184-7.005 7.096-7.005s7.095 3.143 7.095 7.005c0 3.861-3.183 7.005-7.095 7.005S5.342 11.366 5.342 7.505Z"/>
  <path d="M12.438 1c3.643 0 6.595 2.912 6.595 6.505 0 3.593-2.952 6.505-6.595 6.505s-6.596-2.912-6.596-6.505C5.842 3.912 8.795 1 12.438 1M13.611 11.973c-1.213 0-2.466-0.364-3.577-1.124C7.432 9.067 6.559 5.767 7.945 3.285c-0.1 0.119-0.195 0.241-0.286 0.37 -1.722 2.519-0.896 6.084 1.849 7.963 1.112 0.76 2.369 1.127 3.584 1.127 1.785 0 3.482-0.791 4.509-2.291 0.088-0.129 0.167-0.264 0.241-0.399C16.801 11.311 15.242 11.973 13.611 11.973M12.438 0C8.25 0 4.842 3.367 4.842 7.505c0 4.138 3.408 7.505 7.596 7.505s7.595-3.367 7.595-7.505C20.032 3.367 16.625 0 12.438 0L12.438 0Z"/>
  <path fill="#b3b3b3" d="M9.508 11.59c2.745 1.874 6.367 1.354 8.092-1.162 0.088-0.129 0.167-0.264 0.241-0.399 -1.813 2.188-5.205 2.57-7.808 0.792C7.433 9.039 6.56 5.739 7.945 3.257c-0.1 0.119-0.193 0.241-0.285 0.37C5.938 6.146 6.764 9.711 9.508 11.59Z"/>
  <path fill="#ffffff" d="M1.375 19.719c0.545 0.485 1.473 0.546 1.473 0.546l0.402-0.451c0 0-0.928-0.06-1.473-0.545 -0.503-0.449-0.626-1.328-0.626-1.328l-0.403 0.45C0.748 18.391 0.871 19.27 1.375 19.719Z"/>
  <path d="M0 19.229c0 0 0.142 0.73 0.666 1.199 0.526 0.47 1.434 0.676 1.434 0.676l0.748-0.839c0 0-0.928-0.061-1.473-0.546 -0.504-0.449-0.627-1.328-0.627-1.328L0 19.229Z"/>
  <path d="M1.776 19.269c0.545 0.485 1.474 0.545 1.474 0.545l5.484-6.383c0 0-0.759-0.195-1.245-0.631 -0.558-0.499-0.854-1.243-0.854-1.243L1.151 17.94C1.151 17.94 1.274 18.819 1.776 19.269Z"/>
  <polygon fill="#ed1c24" points="18 13 21 13 21 17 24 17 19.51 23.886 15.014 17 18 17"/>
</svg>
