<svg enable-background="new 0 0 42 42" viewBox="0 0 42 42" x="0" y="0" width="42" height="42" version="1.1" xmlns="http://www.w3.org/2000/svg" xml:space="preserve">
  <path fill="none" d="M4.5 8h7.6l-0.4-2H3.5L2.7 8.3C3.5 8 4.5 8 4.5 8Z"/>
  <path fill="#ffffff" d="M4.6 9c0 0-1.4 0.3-2 0.9C2.3 10.1 2 10.7 2 11v0.6V35h37V11.7c0 0-0.2-1.3-0.8-1.9C37.7 9.3 36.5 9 36.5 9H12.3 4.6Z"/>
  <path fill="#0a557f" d="M1 8.7V8.4C1 8.4 1 8.6 1 8.7Z"/>
  <path fill="#0a557f" d="M39 9.2C38.4 8.5 36.5 8 36.5 8H13.4l-1.1-4H3.1L1.3 9.2C1.2 9 1 10 1 9.8V9.5v0 23.2V36h37.7H40v-3.3V11.8C40 11.8 40 10.3 39 9.2ZM36.5 9c0 0 1.2 0.3 1.7 0.8C38.8 10.4 39 11.7 39 11.7V35H2V11.7c0-0.3 0.5-1.7 0.7-1.9C3.3 9.2 4.6 9 4.6 9h7.7H36.5ZM3.5 5h8.2l0.4 3H4.5c0 0-1 0-1.8 0.3L3.5 5Z"/>
</svg>
