<svg xmlns="http://www.w3.org/2000/svg" xmlns:xlink="http://www.w3.org/1999/xlink" version="1.1" id="Layer_1" x="0px" y="0px" width="24px" height="24px" viewBox="0 0 24 24" enable-background="new 0 0 24 24" xml:space="preserve">
  <linearGradient id="SVGID_1_" gradientUnits="userSpaceOnUse" x1="4" y1="9.5" x2="19.9375" y2="9.5">
    <stop offset="0" stop-color="#BE1349"/>
    <stop offset="0.24" stop-color="#BE124E"/>
    <stop offset="0.2528" stop-color="#BE124E"/>
    <stop offset="0.4326" stop-color="#F8AEAE"/>
    <stop offset="0.4724" stop-color="#E7979C"/>
    <stop offset="0.5628" stop-color="#C66A78"/>
    <stop offset="0.6537" stop-color="#AA445A"/>
    <stop offset="0.7434" stop-color="#952643"/>
    <stop offset="0.8318" stop-color="#851132"/>
    <stop offset="0.9181" stop-color="#7C0428"/>
    <stop offset="1" stop-color="#790025"/>
  </linearGradient>
  <path fill="url(#SVGID_1_)" stroke="#000000" stroke-miterlimit="10" d="M4 16V3c0 0 6.643 1.417 6.414 2.464 -0.227 1.046 3.066 2.07 3.498 1.628 0.206-0.21 3.518 0.281 3.543 0.955 0.029 0.74 2.482 1.471 2.482 1.471s-1.838 1.227-2.433 0.88c-0.594-0.347-3.601 1.153-3.342 1.523 0.498 0.715-3.873 2.429-4.182 1.839C9.673 13.171 4 16 4 16z"/>
  <path d="M3.993 21.5H2.014c0 0-0.064-19.558 0-20s1.948-0.345 1.979 0C4.024 1.845 3.993 21.5 3.993 21.5z"/>
  <path d="M14.287 22.734v-9.306h1.879v3.663h3.682v-3.663h1.879v9.306h-1.879v-4.068h-3.682v4.068H14.287z"/>
</svg>
