<svg xmlns="http://www.w3.org/2000/svg" xmlns:xlink="http://www.w3.org/1999/xlink" version="1.1" id="Layer_1" x="0px" y="0px" width="24px" height="24px" viewBox="0 0 24 24" enable-background="new 0 0 24 24" xml:space="preserve">
  <linearGradient id="SVGID_1_" gradientUnits="userSpaceOnUse" x1="4" y1="9.5" x2="19.9375" y2="9.5">
    <stop offset="0" stop-color="#FFEC5F"/>
    <stop offset="0.2727" stop-color="#FCF09A"/>
    <stop offset="0.5636" stop-color="#DFBA16"/>
    <stop offset="0.8364" stop-color="#FFF197"/>
    <stop offset="1" stop-color="#C4A513"/>
  </linearGradient>
  <path fill="url(#SVGID_1_)" stroke="#000000" stroke-miterlimit="10" d="M4 16V3c0 0 6.643 1.417 6.414 2.464 -0.227 1.046 3.066 2.07 3.498 1.628 0.206-0.21 3.518 0.281 3.543 0.955 0.029 0.74 2.482 1.471 2.482 1.471s-1.838 1.227-2.433 0.88c-0.594-0.347-3.601 1.153-3.342 1.523 0.498 0.715-3.873 2.429-4.182 1.839C9.673 13.171 4 16 4 16z"/>
  <path d="M3.993 21.5H2.014c0 0-0.064-19.558 0-20s1.948-0.345 1.979 0C4.024 1.845 3.993 21.5 3.993 21.5z"/>
  <path d="M13.131 23v-9.306h2.813l1.688 6.348 1.669-6.348h2.818V23h-1.745v-7.325L18.527 23h-1.81l-1.841-7.325V23H13.131z"/>
</svg>
