<svg xmlns="http://www.w3.org/2000/svg" version="1.1" id="Layer_1" x="0px" y="0px" width="24px" height="24px" viewBox="0 0 24 24" enable-background="new 0 0 24 24" xml:space="preserve">
  <path fill="#9EE28D" stroke="#43A52F" stroke-linecap="round" stroke-linejoin="round" d="M10.5 18.983c-1-0.088-0.98-0.188-1.382-0.339 -0.962-0.36-1.722-0.831-2.179-1.417 -0.457-0.583-0.775-1.331-0.899-2.241l-2.654 0.199c0.038 1.216 0.418 2.309 1.155 3.273 0.736 0.964 1.851 1.688 3.145 2.167C8.472 20.918 9.5 21.11 10.5 21.225V22.5h2v-1.176c1-0.056 2.682-0.278 3.729-0.691 1.207-0.478 2.255-1.144 2.897-2.001 0.646-0.856 1.028-1.77 1.028-2.738 0-0.978-0.263-1.843-0.852-2.591 -0.585-0.751-1.722-1.369-2.953-1.858 -0.703-0.275-2.85-0.592-3.85-0.945v-0.499V5.212 4.708c1 0.117 2.084 0.384 2.689 0.812 0.832 0.588 1.44 1.458 1.585 2.609l2.745-0.174c-0.048-1.068-0.363-2.025-1.009-2.87 -0.646-0.845-1.794-1.485-2.99-1.919C14.682 2.861 13.5 2.669 12.5 2.578V1.5h-2v1.085c-1 0.091-1.864 0.269-2.652 0.549 -1.164 0.414-2.101 1.021-2.707 1.82C4.535 5.753 4.207 6.612 4.207 7.532c0 0.836 0.235 1.593 0.73 2.267 0.496 0.675 1.345 1.241 2.354 1.696 0.639 0.292 1.208 0.6 3.208 0.922v-0.021V18.983z"/>
  <path fill="#F4F2F2" stroke="#43A52F" stroke-linecap="round" stroke-linejoin="round" d="M12.5 19.137c1-0.05 1.727-0.153 2.352-0.361 0.814-0.273 1.545-0.648 1.944-1.125 0.398-0.476 0.66-0.995 0.66-1.559 0-0.571-0.163-1.071-0.546-1.499 -0.386-0.425-1.248-0.783-2.133-1.073C14.402 13.394 13.5 13.218 12.5 13v0.593 4.788V19.137z"/>
  <path fill="#F9F9F9" stroke="#43A52F" stroke-linecap="round" stroke-linejoin="round" d="M10.5 10.207c-1-0.302-2.44-0.792-2.833-1.124 -0.024-0.021 0.077-0.041 0.055-0.06 -0.53-0.435-0.728-1.057-0.728-1.711 0-0.754 0.434-1.369 1.208-1.903C8.731 5.043 9.5 4.841 10.5 4.727v0.485V10.207z"/>
</svg>
