<svg id="Layer_1" enable-background="new 0 0 24 24" viewBox="0 0 24 24" x="0px" y="0px" width="24px" height="24px" version="1.1" xmlns="http://www.w3.org/2000/svg" xml:space="preserve">
  <path fill="#ffffff" stroke="#000000" stroke-miterlimit="10" d="M14.624 21.297V17.54h-3.97v-2.593h3.97v-3.758h2.646v3.758h3.981v2.593h-3.981v3.757H14.624Z"/>
  <path fill="#ffffff" d="M10.389 17.004v-3.759h-3.97v-2.592h3.97V6.896h2.647v3.757h3.98v2.592h-3.98v3.759H10.389Z"/>
  <g opacity="0.96">
    <path fill="none" stroke="#000000" stroke-miterlimit="10" d="M10.389 17.004v-3.759h-3.97v-2.592h3.97V6.896h2.647v3.757h3.98v2.592h-3.98v3.759H10.389Z"/>
  </g>
  <path fill="#ffffff" d="M6.448 12.607V8.85h-3.97V6.256h3.97V2.499h2.648v3.757h3.979V8.85H9.097v3.757H6.448Z"/>
  <g opacity="0.86">
    <path fill="none" stroke="#000000" stroke-miterlimit="10" d="M6.448 12.607V8.85h-3.97V6.256h3.97V2.499h2.648v3.757h3.979V8.85H9.097v3.757H6.448Z"/>
  </g>
</svg>
