<svg enable-background="new 0 0 42 42" viewBox="0 0 42 42" x="0" y="0" width="42" height="42" version="1.1" xmlns="http://www.w3.org/2000/svg" xml:space="preserve">
  <polygon fill="#ffffff" stroke="#ffffff" stroke-miterlimit="10" points="32.5 39 3.5 38.9 3.5 4.5 24.5 4.5 24.5 10.5 32.5 10.5"/>
  <path fill="#ffffff" stroke="#333333" stroke-miterlimit="10" stroke-width="2" d="M32 40H3V4h22.6L32 10.3V40ZM3 40h29V10.9l-7 0V4L3 4V40Z"/>
  <path fill="#808080" d="M6.7 8.8l0.1 0.1c0 0.2-0.1 0.4-0.2 0.5 -0.1 0.1-0.2 0.2-0.3 0.2 -0.1 0-0.2 0-0.3-0.1C6 9.3 6 9.2 5.9 9.1 5.9 8.9 5.9 8.7 5.9 8.5c0-0.2 0-0.4 0.1-0.5C6 7.9 6.1 7.7 6.1 7.7 6.2 7.6 6.3 7.6 6.4 7.6c0.1 0 0.2 0 0.3 0.1 0.1 0.1 0.1 0.2 0.2 0.4L6.7 8.2C6.7 8 6.6 7.9 6.6 7.9 6.5 7.8 6.5 7.8 6.4 7.8c-0.1 0-0.2 0-0.2 0.1 -0.1 0.1-0.1 0.2-0.1 0.3 0 0.1 0 0.2 0 0.4 0 0.2 0 0.3 0 0.4C6.1 9.1 6.2 9.2 6.2 9.2c0.1 0.1 0.1 0.1 0.2 0.1 0.1 0 0.2 0 0.2-0.1C6.7 9.1 6.7 9 6.7 8.8Z"/>
  <path fill="#808080" d="M7 8.8c0-0.3 0-0.5 0.1-0.6 0.1-0.1 0.2-0.2 0.3-0.2 0.1 0 0.2 0.1 0.3 0.2 0.1 0.1 0.1 0.3 0.1 0.5 0 0.2 0 0.3 0 0.4C7.6 9.3 7.6 9.4 7.5 9.5 7.5 9.5 7.4 9.6 7.3 9.6c-0.1 0-0.2-0.1-0.3-0.2C7 9.2 7 9.1 7 8.8ZM7.1 8.8c0 0.2 0 0.3 0.1 0.4s0.1 0.1 0.2 0.1c0.1 0 0.1 0 0.2-0.1 0-0.1 0.1-0.2 0.1-0.4 0-0.2 0-0.3-0.1-0.4 0-0.1-0.1-0.1-0.2-0.1 -0.1 0-0.1 0-0.2 0.1C7.1 8.5 7.1 8.6 7.1 8.8Z"/>
  <path fill="#808080" d="M7.9 9.5V8.1h0.1v0.2C8.1 8.2 8.1 8.1 8.3 8.1c0 0 0.1 0 0.1 0C8.4 8.2 8.5 8.2 8.5 8.3 8.5 8.3 8.5 8.4 8.5 8.4 8.5 8.5 8.5 8.5 8.5 8.7v0.9H8.4V8.7c0-0.1 0-0.2 0-0.2C8.4 8.4 8.3 8.4 8.3 8.3 8.3 8.3 8.3 8.3 8.2 8.3c-0.1 0-0.1 0-0.1 0.1C8 8.5 8 8.6 8 8.8v0.8H7.9Z"/>
  <path fill="#808080" d="M8.7 9.6L8.8 9.7c0 0.1 0 0.1 0 0.2 0 0 0.1 0.1 0.1 0.1 0.1 0 0.1 0 0.1-0.1C9.2 9.8 9.2 9.7 9.2 9.6c0 0 0-0.1 0-0.3C9.2 9.5 9.1 9.5 9 9.5c-0.1 0-0.2-0.1-0.3-0.2 -0.1-0.1-0.1-0.3-0.1-0.5 0-0.1 0-0.3 0-0.4 0-0.1 0.1-0.2 0.1-0.3 0.1-0.1 0.1-0.1 0.2-0.1 0.1 0 0.2 0.1 0.2 0.2V8.1h0.1v1.2c0 0.2 0 0.4 0 0.5 0 0.1-0.1 0.2-0.1 0.2 -0.1 0.1-0.1 0.1-0.2 0.1 -0.1 0-0.2 0-0.2-0.1C8.7 9.9 8.7 9.8 8.7 9.6ZM8.8 8.8c0 0.2 0 0.3 0.1 0.4C8.9 9.3 9 9.3 9 9.3c0.1 0 0.1 0 0.2-0.1C9.2 9.1 9.3 9 9.3 8.8c0-0.2 0-0.3-0.1-0.4C9.2 8.3 9.1 8.3 9 8.3c-0.1 0-0.1 0-0.2 0.1C8.8 8.5 8.8 8.6 8.8 8.8Z"/>
  <path fill="#808080" d="M9.6 9.5V8.1h0.1V8.3c0-0.1 0.1-0.2 0.1-0.2C9.8 8.1 9.8 8.1 9.9 8.1c0 0 0.1 0 0.1 0.1l0 0.2C9.9 8.3 9.9 8.3 9.9 8.3c0 0-0.1 0-0.1 0 0 0 0 0.1-0.1 0.1C9.7 8.6 9.7 8.7 9.7 8.8v0.7H9.6Z"/>
  <path fill="#808080" d="M10.6 9.3c0 0.1-0.1 0.1-0.1 0.2 0 0-0.1 0-0.1 0 -0.1 0-0.2 0-0.2-0.1 0-0.1-0.1-0.2-0.1-0.3 0-0.1 0-0.1 0-0.2 0-0.1 0-0.1 0.1-0.1 0 0 0.1-0.1 0.1-0.1 0 0 0.1 0 0.1 0 0.1 0 0.2 0 0.2-0.1 0 0 0-0.1 0-0.1 0-0.1 0-0.2 0-0.2 0-0.1-0.1-0.1-0.2-0.1 -0.1 0-0.1 0-0.1 0.1 0 0-0.1 0.1-0.1 0.2l-0.1 0c0-0.1 0-0.2 0.1-0.2 0-0.1 0.1-0.1 0.1-0.1 0.1 0 0.1 0 0.2 0 0.1 0 0.1 0 0.2 0 0 0 0.1 0.1 0.1 0.1 0 0 0 0.1 0 0.2 0 0 0 0.1 0 0.2v0.3c0 0.2 0 0.4 0 0.4 0 0.1 0 0.1 0 0.2h-0.1C10.6 9.5 10.6 9.4 10.6 9.3ZM10.6 8.8c-0.1 0-0.1 0.1-0.2 0.1 -0.1 0-0.1 0-0.1 0 0 0 0 0-0.1 0.1 0 0 0 0.1 0 0.1 0 0.1 0 0.1 0 0.2 0 0 0.1 0.1 0.1 0.1 0.1 0 0.1 0 0.1-0.1 0 0 0.1-0.1 0.1-0.2 0-0.1 0-0.1 0-0.2V8.8Z"/>
  <path fill="#808080" d="M11.3 9.3l0 0.2c0 0-0.1 0-0.1 0 0 0-0.1 0-0.1 0 0 0 0-0.1-0.1-0.1 0 0 0-0.1 0-0.3V8.3H10.9V8.1h0.1V7.8l0.1-0.1v0.5h0.1v0.2h-0.1v0.8c0 0.1 0 0.1 0 0.1 0 0 0 0 0 0 0 0 0 0 0 0C11.2 9.3 11.2 9.3 11.3 9.3Z"/>
  <path fill="#808080" d="M11.3 9.1l0.1 0c0 0.1 0 0.2 0.1 0.2 0 0.1 0.1 0.1 0.1 0.1 0.1 0 0.1 0 0.1-0.1 0 0 0-0.1 0-0.2 0-0.1 0-0.1 0-0.1 0 0-0.1 0-0.1-0.1 -0.1 0-0.2-0.1-0.2-0.1 0 0-0.1-0.1-0.1-0.1 0-0.1 0-0.1 0-0.2 0-0.1 0-0.1 0-0.2 0-0.1 0-0.1 0.1-0.1 0 0 0 0 0.1-0.1 0 0 0.1 0 0.1 0 0.1 0 0.1 0 0.2 0 0 0 0.1 0.1 0.1 0.1 0 0.1 0 0.1 0 0.2l-0.1 0c0-0.1 0-0.1-0.1-0.2 0 0-0.1-0.1-0.1-0.1 -0.1 0-0.1 0-0.1 0.1 0 0 0 0.1 0 0.1 0 0 0 0.1 0 0.1 0 0 0 0 0.1 0.1 0 0 0.1 0 0.1 0.1 0.1 0 0.2 0.1 0.2 0.1 0 0 0.1 0.1 0.1 0.1 0 0.1 0 0.1 0 0.2 0 0.1 0 0.2 0 0.2 0 0.1-0.1 0.1-0.1 0.2 0 0-0.1 0.1-0.2 0.1 -0.1 0-0.2 0-0.2-0.1C11.4 9.4 11.3 9.3 11.3 9.1Z"/>
  <path fill="#808080" d="M12.9 9.3l0 0.2c0 0-0.1 0-0.1 0 -0.1 0-0.1 0-0.1 0 0 0 0-0.1-0.1-0.1 0 0 0-0.1 0-0.3V8.3h-0.1V8.1h0.1V7.8l0.1-0.1v0.5h0.1v0.2h-0.1v0.8c0 0.1 0 0.1 0 0.1 0 0 0 0 0 0 0 0 0 0 0 0C12.8 9.3 12.8 9.3 12.9 9.3Z"/>
  <path fill="#808080" d="M13 8.8c0-0.3 0-0.5 0.1-0.6 0.1-0.1 0.2-0.2 0.3-0.2 0.1 0 0.2 0.1 0.3 0.2 0.1 0.1 0.1 0.3 0.1 0.5 0 0.2 0 0.3 0 0.4 0 0.1-0.1 0.2-0.1 0.2 -0.1 0.1-0.1 0.1-0.2 0.1 -0.1 0-0.2-0.1-0.3-0.2C13 9.2 13 9.1 13 8.8ZM13.1 8.8c0 0.2 0 0.3 0.1 0.4 0 0.1 0.1 0.1 0.2 0.1 0.1 0 0.1 0 0.2-0.1 0-0.1 0.1-0.2 0.1-0.4 0-0.2 0-0.3-0.1-0.4 0-0.1-0.1-0.1-0.2-0.1 -0.1 0-0.1 0-0.2 0.1C13.1 8.5 13.1 8.6 13.1 8.8Z"/>
  <path fill="#808080" d="M15 7.6h0.1v1.1c0 0.2 0 0.3 0 0.5 0 0.1-0.1 0.2-0.1 0.3 -0.1 0.1-0.1 0.1-0.3 0.1 -0.1 0-0.2 0-0.3-0.1 -0.1-0.1-0.1-0.2-0.1-0.3 0-0.1 0-0.3 0-0.5v-1.1h0.1v1.1c0 0.2 0 0.3 0 0.4 0 0.1 0 0.1 0.1 0.2s0.1 0.1 0.2 0.1c0.1 0 0.2 0 0.2-0.1 0-0.1 0.1-0.2 0.1-0.5V7.6Z"/>
  <path fill="#808080" d="M15.4 9.5V7.6h0.1v1.9H15.4Z"/>
  <path fill="#808080" d="M15.8 8.9l0.1 0c0 0.1 0 0.2 0 0.2 0 0.1 0.1 0.1 0.1 0.2 0.1 0 0.1 0.1 0.2 0.1 0.1 0 0.1 0 0.1 0 0 0 0.1-0.1 0.1-0.1 0 0 0-0.1 0-0.2 0-0.1 0-0.1 0-0.2 0 0-0.1-0.1-0.1-0.1 0 0-0.1-0.1-0.2-0.1 -0.1 0-0.2-0.1-0.2-0.1 -0.1 0-0.1-0.1-0.1-0.2 0-0.1 0-0.2 0-0.2 0-0.1 0-0.2 0-0.3 0-0.1 0.1-0.1 0.1-0.2 0.1 0 0.1-0.1 0.2-0.1 0.1 0 0.2 0 0.2 0.1 0.1 0 0.1 0.1 0.1 0.2 0 0.1 0.1 0.2 0.1 0.3l-0.1 0c0-0.1 0-0.2-0.1-0.3 0-0.1-0.1-0.1-0.2-0.1 -0.1 0-0.2 0-0.2 0.1 0 0.1-0.1 0.1-0.1 0.2 0 0.1 0 0.1 0 0.2 0 0 0.1 0.1 0.2 0.1 0.1 0 0.2 0.1 0.2 0.1 0.1 0.1 0.1 0.1 0.1 0.2 0 0.1 0 0.2 0 0.3s0 0.2 0 0.3c0 0.1-0.1 0.2-0.1 0.2 -0.1 0.1-0.1 0.1-0.2 0.1 -0.1 0-0.2 0-0.3-0.1 -0.1-0.1-0.1-0.1-0.2-0.2C15.8 9.1 15.8 9 15.8 8.9Z"/>
  <path fill="#808080" d="M17.4 9.5V9.3c-0.1 0.2-0.1 0.2-0.3 0.2 0 0-0.1 0-0.1 0 0 0-0.1-0.1-0.1-0.1 0 0 0-0.1 0-0.2 0 0 0-0.1 0-0.2V8.1h0.1v0.8c0 0.1 0 0.2 0 0.3 0 0.1 0 0.1 0.1 0.1 0 0 0.1 0.1 0.1 0.1 0 0 0.1 0 0.1-0.1 0 0 0.1-0.1 0.1-0.1 0-0.1 0-0.2 0-0.3V8.1h0.1v1.4H17.4Z"/>
  <path fill="#808080" d="M17.7 10.1V8.1h0.1v0.2c0-0.1 0.1-0.1 0.1-0.2 0 0 0.1-0.1 0.1-0.1 0.1 0 0.1 0 0.2 0.1 0.1 0.1 0.1 0.1 0.1 0.3 0 0.1 0 0.2 0 0.4 0 0.1 0 0.3 0 0.4C18.3 9.3 18.3 9.4 18.2 9.5c-0.1 0.1-0.1 0.1-0.2 0.1 0 0-0.1 0-0.1-0.1 0 0-0.1-0.1-0.1-0.1v0.7H17.7ZM17.8 8.8c0 0.2 0 0.3 0.1 0.4 0 0.1 0.1 0.1 0.2 0.1 0.1 0 0.1 0 0.2-0.1 0-0.1 0.1-0.2 0.1-0.4 0-0.2 0-0.3-0.1-0.4 0-0.1-0.1-0.1-0.1-0.1 -0.1 0-0.1 0-0.2 0.1C17.8 8.5 17.8 8.6 17.8 8.8Z"/>
  <path fill="#808080" d="M18.6 10.1V8.1h0.1v0.2c0-0.1 0.1-0.1 0.1-0.2 0 0 0.1-0.1 0.1-0.1 0.1 0 0.1 0 0.2 0.1 0.1 0.1 0.1 0.1 0.1 0.3 0 0.1 0 0.2 0 0.4 0 0.1 0 0.3 0 0.4 0 0.1-0.1 0.2-0.1 0.3 -0.1 0.1-0.1 0.1-0.2 0.1 0 0-0.1 0-0.1-0.1 0 0-0.1-0.1-0.1-0.1v0.7H18.6ZM18.7 8.8c0 0.2 0 0.3 0.1 0.4s0.1 0.1 0.2 0.1c0.1 0 0.1 0 0.2-0.1 0-0.1 0.1-0.2 0.1-0.4 0-0.2 0-0.3-0.1-0.4 0-0.1-0.1-0.1-0.1-0.1 -0.1 0-0.1 0-0.2 0.1C18.7 8.5 18.7 8.6 18.7 8.8Z"/>
  <path fill="#808080" d="M19.4 8.8c0-0.3 0-0.5 0.1-0.6 0.1-0.1 0.2-0.2 0.3-0.2 0.1 0 0.2 0.1 0.3 0.2 0.1 0.1 0.1 0.3 0.1 0.5 0 0.2 0 0.3 0 0.4 0 0.1-0.1 0.2-0.1 0.2 -0.1 0.1-0.1 0.1-0.2 0.1 -0.1 0-0.2-0.1-0.3-0.2C19.4 9.2 19.4 9.1 19.4 8.8ZM19.5 8.8c0 0.2 0 0.3 0.1 0.4s0.1 0.1 0.2 0.1c0.1 0 0.1 0 0.2-0.1 0-0.1 0.1-0.2 0.1-0.4 0-0.2 0-0.3-0.1-0.4 0-0.1-0.1-0.1-0.2-0.1 -0.1 0-0.1 0-0.2 0.1C19.5 8.5 19.5 8.6 19.5 8.8Z"/>
  <path fill="#808080" d="M20.3 9.5V8.1h0.1V8.3c0-0.1 0.1-0.2 0.1-0.2 0 0 0.1 0 0.1 0 0 0 0.1 0 0.1 0.1l0 0.2c0 0-0.1-0.1-0.1-0.1 0 0-0.1 0-0.1 0 0 0 0 0.1 0 0.1 0 0.1 0 0.2 0 0.3v0.7H20.3Z"/>
  <path fill="#808080" d="M21.1 9.3l0 0.2c0 0-0.1 0-0.1 0 0 0-0.1 0-0.1 0 0 0 0-0.1-0.1-0.1 0 0 0-0.1 0-0.3V8.3h-0.1V8.1h0.1V7.8l0.1-0.1v0.5h0.1v0.2h-0.1v0.8c0 0.1 0 0.1 0 0.1 0 0 0 0 0 0 0 0 0 0 0 0C21 9.3 21 9.3 21.1 9.3Z"/>
  <path fill="#808080" d="M6.3 12.8v-1.7H5.9v-0.2h0.9v0.2H6.4v1.7H6.3Z"/>
  <path fill="#808080" d="M7.3 12.4l0.1 0c0 0.1-0.1 0.3-0.1 0.3 -0.1 0.1-0.1 0.1-0.2 0.1 -0.1 0-0.2-0.1-0.3-0.2 -0.1-0.1-0.1-0.3-0.1-0.5 0-0.2 0-0.4 0.1-0.5 0.1-0.1 0.2-0.2 0.3-0.2 0.1 0 0.2 0.1 0.3 0.2 0.1 0.1 0.1 0.3 0.1 0.5 0 0 0 0 0 0.1H6.8c0 0.2 0 0.3 0.1 0.4 0 0.1 0.1 0.1 0.2 0.1 0 0 0.1 0 0.1-0.1C7.2 12.5 7.2 12.5 7.3 12.4ZM6.8 12H7.3c0-0.1 0-0.2 0-0.3 0-0.1-0.1-0.1-0.2-0.1 -0.1 0-0.1 0-0.2 0.1C6.9 11.7 6.8 11.8 6.8 12Z"/>
  <path fill="#808080" d="M8.1 12.6C8.1 12.7 8 12.8 8 12.8c0 0-0.1 0-0.1 0 -0.1 0-0.2 0-0.2-0.1 0-0.1-0.1-0.2-0.1-0.3 0-0.1 0-0.1 0-0.2 0-0.1 0-0.1 0.1-0.1 0 0 0.1-0.1 0.1-0.1 0 0 0.1 0 0.1 0 0.1 0 0.2 0 0.2-0.1 0 0 0-0.1 0-0.1 0-0.1 0-0.2 0-0.2 0-0.1-0.1-0.1-0.2-0.1 -0.1 0-0.1 0-0.1 0.1 0 0-0.1 0.1-0.1 0.2l-0.1 0c0-0.1 0-0.2 0.1-0.2 0-0.1 0.1-0.1 0.1-0.1 0.1 0 0.1 0 0.2 0 0.1 0 0.1 0 0.2 0 0 0 0.1 0.1 0.1 0.1 0 0 0 0.1 0 0.2 0 0 0 0.1 0 0.2v0.3c0 0.2 0 0.4 0 0.4 0 0.1 0 0.1 0 0.2H8.1C8.1 12.8 8.1 12.7 8.1 12.6ZM8.1 12.1c0 0-0.1 0.1-0.2 0.1 -0.1 0-0.1 0-0.1 0 0 0 0 0-0.1 0.1 0 0 0 0.1 0 0.1 0 0.1 0 0.1 0 0.2 0 0 0.1 0.1 0.1 0.1 0.1 0 0.1 0 0.1-0.1 0 0 0.1-0.1 0.1-0.2 0-0.1 0-0.1 0-0.2V12.1Z"/>
  <path fill="#808080" d="M8.4 12.8v-1.4h0.1v0.2c0-0.1 0.1-0.1 0.1-0.2 0 0 0.1-0.1 0.1-0.1 0.1 0 0.1 0 0.1 0.1 0 0 0.1 0.1 0.1 0.2 0.1-0.2 0.1-0.2 0.2-0.2 0.1 0 0.1 0 0.2 0.1 0 0.1 0.1 0.2 0.1 0.4v1H9.4v-0.9c0-0.1 0-0.2 0-0.2 0 0 0-0.1 0-0.1 0 0 0 0-0.1 0 -0.1 0-0.1 0-0.1 0.1 0 0.1-0.1 0.2-0.1 0.3v0.8H8.9v-0.9c0-0.1 0-0.2 0-0.2 0-0.1-0.1-0.1-0.1-0.1 0 0-0.1 0-0.1 0.1 0 0-0.1 0.1-0.1 0.2 0 0.1 0 0.2 0 0.3v0.7H8.4Z"/>
  <path fill="#808080" d="M10.3 13.3l0-0.2c0 0 0.1 0 0.1 0 0 0 0.1 0 0.1 0 0 0 0 0 0-0.1 0 0 0-0.1 0-0.2 0 0 0 0 0-0.1l-0.3-1.4h0.1l0.2 0.8c0 0.1 0 0.2 0.1 0.3 0-0.1 0-0.2 0.1-0.3l0.2-0.8h0.1l-0.3 1.4c0 0.2-0.1 0.3-0.1 0.3 0 0.1-0.1 0.1-0.1 0.2 0 0-0.1 0.1-0.1 0.1C10.3 13.3 10.3 13.3 10.3 13.3Z"/>
  <path fill="#808080" d="M11 12.1c0-0.3 0-0.5 0.1-0.6 0.1-0.1 0.2-0.2 0.3-0.2 0.1 0 0.2 0.1 0.3 0.2 0.1 0.1 0.1 0.3 0.1 0.5 0 0.2 0 0.3 0 0.4 0 0.1-0.1 0.2-0.1 0.2s-0.1 0.1-0.2 0.1c-0.1 0-0.2-0.1-0.3-0.2C11 12.5 11 12.3 11 12.1ZM11.1 12.1c0 0.2 0 0.3 0.1 0.4 0 0.1 0.1 0.1 0.2 0.1 0.1 0 0.1 0 0.2-0.1 0-0.1 0.1-0.2 0.1-0.4 0-0.2 0-0.3-0.1-0.4 0-0.1-0.1-0.1-0.2-0.1 -0.1 0-0.1 0-0.2 0.1C11.2 11.8 11.1 11.9 11.1 12.1Z"/>
  <path fill="#808080" d="M12.4 12.8V12.6c-0.1 0.2-0.1 0.2-0.3 0.2 0 0-0.1 0-0.1 0 0 0-0.1-0.1-0.1-0.1 0 0 0-0.1 0-0.2 0 0 0-0.1 0-0.2v-0.9h0.1v0.8c0 0.1 0 0.2 0 0.3 0 0.1 0 0.1 0.1 0.1 0 0 0.1 0.1 0.1 0.1 0 0 0.1 0 0.1-0.1 0 0 0.1-0.1 0.1-0.1 0-0.1 0-0.2 0-0.3v-0.8h0.1v1.4H12.4Z"/>
  <path fill="#808080" d="M13.7 12.8v-0.2c0 0.1-0.1 0.2-0.2 0.2 -0.1 0-0.1 0-0.2-0.1 -0.1-0.1-0.1-0.1-0.1-0.3 0-0.1 0-0.2 0-0.4 0-0.1 0-0.3 0-0.4 0-0.1 0.1-0.2 0.1-0.3 0.1-0.1 0.1-0.1 0.2-0.1 0 0 0.1 0 0.1 0.1 0 0 0.1 0.1 0.1 0.1V10.8h0.1v1.9H13.7ZM13.3 12.1c0 0.2 0 0.3 0.1 0.4 0 0.1 0.1 0.1 0.2 0.1 0.1 0 0.1 0 0.2-0.1 0-0.1 0.1-0.2 0.1-0.4 0-0.2 0-0.3-0.1-0.4 0-0.1-0.1-0.1-0.2-0.1 -0.1 0-0.1 0-0.1 0.1C13.3 11.7 13.3 11.9 13.3 12.1Z"/>
  <path fill="#808080" d="M14 11.1V10.8h0.1v0.3H14ZM14 12.8v-1.4h0.1v1.4H14Z"/>
  <path fill="#808080" d="M14.9 12.8v-0.2c-0.1 0.1-0.1 0.2-0.2 0.2 -0.1 0-0.1 0-0.2-0.1 -0.1-0.1-0.1-0.1-0.1-0.3 0-0.1 0-0.2 0-0.4 0-0.1 0-0.3 0-0.4 0-0.1 0.1-0.2 0.1-0.3 0.1-0.1 0.1-0.1 0.2-0.1 0 0 0.1 0 0.1 0.1 0 0 0.1 0.1 0.1 0.1V10.8h0.1v1.9H14.9ZM14.5 12.1c0 0.2 0 0.3 0.1 0.4 0 0.1 0.1 0.1 0.2 0.1 0.1 0 0.1 0 0.2-0.1 0-0.1 0.1-0.2 0.1-0.4 0-0.2 0-0.3-0.1-0.4 0-0.1-0.1-0.1-0.2-0.1 -0.1 0-0.1 0-0.2 0.1C14.5 11.7 14.5 11.9 14.5 12.1Z"/>
  <path fill="#808080" d="M16.2 12.6c0 0.1-0.1 0.1-0.1 0.2 0 0-0.1 0-0.1 0 -0.1 0-0.2 0-0.2-0.1 0-0.1-0.1-0.2-0.1-0.3 0-0.1 0-0.1 0-0.2 0-0.1 0-0.1 0.1-0.1 0 0 0.1-0.1 0.1-0.1 0 0 0.1 0 0.1 0 0.1 0 0.2 0 0.2-0.1 0 0 0-0.1 0-0.1 0-0.1 0-0.2 0-0.2 0-0.1-0.1-0.1-0.2-0.1 -0.1 0-0.1 0-0.1 0.1 0 0-0.1 0.1-0.1 0.2l-0.1 0c0-0.1 0-0.2 0.1-0.2 0-0.1 0.1-0.1 0.1-0.1 0.1 0 0.1 0 0.2 0 0.1 0 0.1 0 0.2 0s0.1 0.1 0.1 0.1c0 0 0 0.1 0 0.2 0 0 0 0.1 0 0.2v0.3c0 0.2 0 0.4 0 0.4 0 0.1 0 0.1 0 0.2h-0.1C16.2 12.7 16.2 12.7 16.2 12.6ZM16.2 12.1c0 0-0.1 0.1-0.2 0.1 -0.1 0-0.1 0-0.1 0 0 0 0 0-0.1 0.1 0 0 0 0.1 0 0.1 0 0.1 0 0.1 0 0.2 0 0 0.1 0.1 0.1 0.1 0.1 0 0.1 0 0.1-0.1 0 0 0.1-0.1 0.1-0.2 0-0.1 0-0.1 0-0.2V12.1Z"/>
  <path fill="#808080" d="M16.9 13.2l0.2 0c0 0.1 0 0.1 0.1 0.2 0 0.1 0.1 0.1 0.2 0.1 0.1 0 0.1 0 0.2-0.1 0-0.1 0.1-0.1 0.1-0.2 0-0.1 0-0.2 0-0.4 -0.1 0.1-0.2 0.2-0.3 0.2 -0.1 0-0.2-0.1-0.3-0.2 -0.1-0.2-0.1-0.4-0.1-0.6 0-0.2 0-0.3 0-0.4 0-0.1 0.1-0.2 0.1-0.3 0.1-0.1 0.1-0.1 0.2-0.1 0.1 0 0.2 0.1 0.3 0.2v-0.2h0.1v1.4c0 0.3 0 0.4 0 0.5 0 0.1-0.1 0.2-0.1 0.3 -0.1 0.1-0.1 0.1-0.2 0.1 -0.1 0-0.2 0-0.3-0.1C16.9 13.5 16.9 13.4 16.9 13.2ZM17 12.2c0 0.2 0 0.4 0.1 0.5 0 0.1 0.1 0.1 0.2 0.1s0.1 0 0.2-0.1c0-0.1 0.1-0.3 0.1-0.5 0-0.2 0-0.4-0.1-0.5 -0.1-0.1-0.1-0.2-0.2-0.2 -0.1 0-0.1 0-0.2 0.2C17.1 11.9 17 12 17 12.2Z"/>
  <path fill="#808080" d="M17.9 13.1v-1.6h0.1v0.2c0-0.1 0.1-0.2 0.1-0.2 0 0 0.1-0.1 0.1-0.1 0.1 0 0.1 0 0.2 0.1l-0.1 0.3c0 0-0.1-0.1-0.1-0.1 0 0-0.1 0-0.1 0.1 0 0 0 0.1-0.1 0.2 0 0.1 0 0.2 0 0.3v0.9H17.9Z"/>
  <path fill="#808080" d="M19.2 12.6l0.2 0c0 0.2-0.1 0.3-0.1 0.4 -0.1 0.1-0.2 0.1-0.3 0.1 -0.1 0-0.2-0.1-0.3-0.2 -0.1-0.1-0.1-0.4-0.1-0.6 0-0.3 0-0.5 0.1-0.6 0.1-0.2 0.2-0.2 0.3-0.2 0.1 0 0.2 0.1 0.3 0.2 0.1 0.2 0.1 0.4 0.1 0.6 0 0 0 0 0 0.1h-0.7c0 0.2 0 0.3 0.1 0.4 0.1 0.1 0.1 0.1 0.2 0.1 0.1 0 0.1 0 0.1-0.1C19.1 12.8 19.2 12.7 19.2 12.6ZM18.7 12.1h0.5c0-0.1 0-0.2-0.1-0.3 0-0.1-0.1-0.2-0.2-0.2 -0.1 0-0.1 0-0.2 0.1C18.7 11.9 18.7 12 18.7 12.1Z"/>
  <path fill="#808080" d="M20.2 12.9c-0.1 0.1-0.1 0.2-0.2 0.2 -0.1 0-0.1 0.1-0.2 0.1 -0.1 0-0.2 0-0.2-0.1 -0.1-0.1-0.1-0.2-0.1-0.3 0-0.1 0-0.2 0-0.2 0-0.1 0-0.1 0.1-0.2 0 0 0.1-0.1 0.1-0.1 0 0 0.1 0 0.1 0 0.1 0 0.2-0.1 0.3-0.1 0 0 0-0.1 0-0.1 0-0.1 0-0.2 0-0.2 0-0.1-0.1-0.1-0.2-0.1 -0.1 0-0.1 0-0.2 0.1 0 0-0.1 0.1-0.1 0.2l-0.2 0c0-0.1 0-0.2 0.1-0.3 0-0.1 0.1-0.1 0.1-0.2 0.1 0 0.1-0.1 0.2-0.1s0.1 0 0.2 0 0.1 0.1 0.1 0.1c0 0.1 0 0.1 0 0.2 0 0 0 0.1 0 0.3v0.4c0 0.3 0 0.4 0 0.5 0 0.1 0 0.1 0 0.2h-0.2C20.2 13 20.2 13 20.2 12.9ZM20.1 12.3c-0.1 0-0.1 0.1-0.3 0.1 -0.1 0-0.1 0-0.1 0.1 0 0 0 0-0.1 0.1 0 0 0 0.1 0 0.1 0 0.1 0 0.1 0 0.2 0 0 0.1 0.1 0.1 0.1 0.1 0 0.1 0 0.2-0.1 0 0 0.1-0.1 0.1-0.2 0-0.1 0-0.2 0-0.3V12.3Z"/>
  <path fill="#808080" d="M20.9 12.8l0 0.2c0 0-0.1 0-0.1 0 -0.1 0-0.1 0-0.1 0 0 0-0.1-0.1-0.1-0.1 0-0.1 0-0.2 0-0.3V11.7h-0.1v-0.2h0.1v-0.4l0.2-0.2v0.6h0.2v0.2h-0.2v1c0 0.1 0 0.1 0 0.2 0 0 0 0 0 0.1 0 0 0 0 0.1 0C20.8 12.9 20.9 12.9 20.9 12.8Z"/>
  <path fill="#808080" d="M21.3 13.7l0-0.2c0 0 0.1 0 0.1 0 0 0 0.1 0 0.1-0.1 0 0 0-0.1 0-0.3v-1.7h0.2v1.7c0 0.2 0 0.3 0 0.4 0 0.1-0.1 0.2-0.2 0.2C21.4 13.8 21.4 13.8 21.3 13.7ZM21.5 11.2V10.8h0.2v0.3H21.5Z"/>
  <path fill="#808080" d="M21.9 12.3c0-0.3 0-0.5 0.1-0.7 0.1-0.1 0.2-0.2 0.3-0.2 0.1 0 0.2 0.1 0.3 0.2 0.1 0.1 0.1 0.4 0.1 0.6 0 0.2 0 0.4-0.1 0.5 0 0.1-0.1 0.2-0.2 0.3s-0.1 0.1-0.2 0.1c-0.1 0-0.2-0.1-0.3-0.2C21.9 12.8 21.9 12.6 21.9 12.3ZM22 12.3c0 0.2 0 0.4 0.1 0.5 0.1 0.1 0.1 0.2 0.2 0.2 0.1 0 0.1-0.1 0.2-0.2 0.1-0.1 0.1-0.3 0.1-0.5 0-0.2 0-0.4-0.1-0.5 -0.1-0.1-0.1-0.2-0.2-0.2 -0.1 0-0.1 0.1-0.2 0.2C22.1 11.9 22 12.1 22 12.3Z"/>
  <path fill="#808080" d="M23.1 13.1h-0.1V10.8h0.2v0.8c0.1-0.1 0.2-0.2 0.3-0.2 0.1 0 0.1 0 0.2 0.1 0.1 0 0.1 0.1 0.1 0.2 0 0.1 0.1 0.2 0.1 0.3 0 0.1 0 0.2 0 0.3 0 0.3 0 0.5-0.1 0.7 -0.1 0.2-0.2 0.2-0.3 0.2 -0.1 0-0.2-0.1-0.3-0.2V13.1ZM23.1 12.3c0 0.2 0 0.3 0 0.4 0.1 0.1 0.1 0.2 0.2 0.2 0.1 0 0.1-0.1 0.2-0.2 0.1-0.1 0.1-0.3 0.1-0.5 0-0.2 0-0.4-0.1-0.5 0-0.1-0.1-0.2-0.2-0.2 -0.1 0-0.1 0.1-0.2 0.2C23.1 11.9 23.1 12.1 23.1 12.3Z"/>
  <path fill="#808080" d="M6.1 15.9l-0.2-1.4h0.1l0.1 0.8L6.2 15.6c0 0 0-0.1 0-0.3l0.1-0.8h0.1l0.1 0.8 0 0.3 0-0.3 0.1-0.8H7l-0.2 1.4H6.6l-0.1-0.8 0-0.2 -0.2 1.1H6.1Z"/>
  <path fill="#808080" d="M7.1 14.2V13.9h0.1v0.3H7.1ZM7.1 15.9v-1.4h0.1v1.4H7.1Z"/>
  <path fill="#808080" d="M7.7 15.7l0 0.2c0 0-0.1 0-0.1 0 0 0-0.1 0-0.1 0 0 0 0-0.1-0.1-0.1 0 0 0-0.1 0-0.3v-0.8h-0.1v-0.2h0.1v-0.3l0.1-0.1v0.5h0.1v0.2H7.6v0.8c0 0.1 0 0.1 0 0.1 0 0 0 0 0 0 0 0 0 0 0 0C7.7 15.7 7.7 15.7 7.7 15.7Z"/>
  <path fill="#808080" d="M7.9 15.9V13.9h0.1v0.7c0.1-0.1 0.1-0.2 0.2-0.2 0.1 0 0.1 0 0.2 0.1 0 0 0.1 0.1 0.1 0.2 0 0.1 0 0.2 0 0.3v0.9H8.4v-0.9c0-0.1 0-0.2 0-0.3 0-0.1-0.1-0.1-0.1-0.1 0 0-0.1 0-0.1 0.1 0 0-0.1 0.1-0.1 0.1 0 0.1 0 0.2 0 0.3v0.8H7.9Z"/>
  <path fill="#808080" d="M9.7 15.7c-0.1 0.1-0.1 0.1-0.1 0.2 0 0-0.1 0-0.1 0 -0.1 0-0.2 0-0.2-0.1 0-0.1-0.1-0.2-0.1-0.3 0-0.1 0-0.1 0-0.2 0-0.1 0-0.1 0.1-0.1 0 0 0.1-0.1 0.1-0.1 0 0 0.1 0 0.1 0 0.1 0 0.2 0 0.2-0.1 0 0 0-0.1 0-0.1 0-0.1 0-0.2 0-0.2 0-0.1-0.1-0.1-0.2-0.1 -0.1 0-0.1 0-0.1 0.1 0 0-0.1 0.1-0.1 0.2l-0.1 0c0-0.1 0-0.2 0.1-0.2 0-0.1 0.1-0.1 0.1-0.1 0.1 0 0.1 0 0.2 0 0.1 0 0.1 0 0.2 0 0 0 0.1 0.1 0.1 0.1 0 0 0 0.1 0 0.2 0 0 0 0.1 0 0.2v0.3c0 0.2 0 0.4 0 0.4 0 0.1 0 0.1 0 0.2H9.7C9.7 15.8 9.7 15.8 9.7 15.7ZM9.7 15.2c0 0-0.1 0.1-0.2 0.1 -0.1 0-0.1 0-0.1 0 0 0 0 0-0.1 0.1 0 0 0 0.1 0 0.1 0 0.1 0 0.1 0 0.2s0.1 0.1 0.1 0.1c0.1 0 0.1 0 0.1-0.1 0 0 0.1-0.1 0.1-0.2 0-0.1 0-0.1 0-0.2V15.2Z"/>
  <path fill="#808080" d="M10 15.9V13.9h0.1v1.9H10Z"/>
  <path fill="#808080" d="M10.3 15.9V13.9h0.1v1.9H10.3Z"/>
  <path fill="#808080" d="M12 15.8c-0.1 0.1-0.1 0.1-0.1 0.2 0 0-0.1 0-0.1 0 -0.1 0-0.2 0-0.2-0.1 0-0.1-0.1-0.2-0.1-0.3 0-0.1 0-0.1 0-0.2 0-0.1 0-0.1 0.1-0.1 0 0 0.1-0.1 0.1-0.1 0 0 0.1 0 0.1 0 0.1 0 0.2 0 0.2-0.1 0 0 0-0.1 0-0.1 0-0.1 0-0.2 0-0.2 0-0.1-0.1-0.1-0.2-0.1 -0.1 0-0.1 0-0.1 0.1 0 0-0.1 0.1-0.1 0.2l-0.1 0c0-0.1 0-0.2 0.1-0.2 0-0.1 0.1-0.1 0.1-0.1 0.1 0 0.1 0 0.2 0s0.1 0 0.2 0c0 0 0.1 0.1 0.1 0.1 0 0 0 0.1 0 0.2 0 0 0 0.1 0 0.2v0.3c0 0.2 0 0.4 0 0.4 0 0.1 0 0.1 0 0.2h-0.1C12 16 12 15.9 12 15.8ZM12 15.3c0 0-0.1 0.1-0.2 0.1 -0.1 0-0.1 0-0.1 0 0 0 0 0-0.1 0.1 0 0 0 0.1 0 0.1 0 0.1 0 0.1 0 0.2 0 0 0.1 0.1 0.1 0.1 0.1 0 0.1 0 0.1-0.1 0 0 0.1-0.1 0.1-0.2 0-0.1 0-0.1 0-0.2V15.3Z"/>
  <path fill="#808080" d="M12.4 16.6V14.6h0.1v0.2c0-0.1 0.1-0.1 0.1-0.2 0 0 0.1-0.1 0.1-0.1 0.1 0 0.1 0 0.2 0.1 0.1 0.1 0.1 0.1 0.1 0.3 0 0.1 0 0.2 0 0.4 0 0.1 0 0.3 0 0.4 0 0.1-0.1 0.2-0.1 0.3 -0.1 0.1-0.1 0.1-0.2 0.1 0 0-0.1 0-0.1-0.1 0 0-0.1-0.1-0.1-0.1v0.7H12.4ZM12.5 15.3c0 0.2 0 0.3 0.1 0.4 0 0.1 0.1 0.1 0.2 0.1 0.1 0 0.1 0 0.2-0.1 0-0.1 0.1-0.2 0.1-0.4 0-0.2 0-0.3-0.1-0.4 0-0.1-0.1-0.1-0.1-0.1 -0.1 0-0.1 0-0.2 0.1C12.5 15 12.5 15.1 12.5 15.3Z"/>
  <path fill="#808080" d="M13.2 16.8v-2.2h0.1v0.2c0-0.1 0.1-0.1 0.1-0.2 0 0 0.1-0.1 0.1-0.1 0.1 0 0.1 0 0.2 0.1 0.1 0.1 0.1 0.2 0.1 0.3 0 0.1 0 0.3 0 0.4 0 0.2 0 0.3 0 0.4 0 0.1-0.1 0.2-0.1 0.3 -0.1 0.1-0.1 0.1-0.2 0.1 0 0-0.1 0-0.1-0.1 0 0-0.1-0.1-0.1-0.1v0.8H13.2ZM13.4 15.5c0 0.2 0 0.3 0.1 0.4 0 0.1 0.1 0.1 0.2 0.1s0.1 0 0.2-0.1c0-0.1 0.1-0.3 0.1-0.5 0-0.2 0-0.3-0.1-0.4 0-0.1-0.1-0.1-0.2-0.1 -0.1 0-0.1 0.1-0.2 0.2C13.4 15.1 13.4 15.3 13.4 15.5Z"/>
  <path fill="#808080" d="M14.2 16.2v-2.2h0.2v2.2H14.2Z"/>
  <path fill="#808080" d="M14.6 14.4v-0.3h0.2v0.3H14.6ZM14.6 16.2v-1.6h0.2v1.6H14.6Z"/>
  <path fill="#808080" d="M15.5 15.7l0.1 0c0 0.2-0.1 0.3-0.1 0.4 -0.1 0.1-0.1 0.2-0.2 0.2 -0.1 0-0.2-0.1-0.3-0.2 -0.1-0.1-0.1-0.3-0.1-0.6 0-0.2 0-0.3 0-0.4 0-0.1 0.1-0.2 0.1-0.3 0.1-0.1 0.1-0.1 0.2-0.1 0.1 0 0.2 0 0.2 0.1 0.1 0.1 0.1 0.2 0.1 0.4l-0.1 0c0-0.1 0-0.2-0.1-0.2 0-0.1-0.1-0.1-0.1-0.1 -0.1 0-0.1 0-0.2 0.1 0 0.1-0.1 0.2-0.1 0.5 0 0.2 0 0.4 0.1 0.5 0 0.1 0.1 0.1 0.2 0.1 0.1 0 0.1 0 0.1-0.1C15.5 15.9 15.5 15.8 15.5 15.7Z"/>
  <path fill="#808080" d="M16.4 16c-0.1 0.1-0.1 0.1-0.2 0.2 -0.1 0-0.1 0.1-0.2 0.1 -0.1 0-0.2 0-0.2-0.1 -0.1-0.1-0.1-0.2-0.1-0.3 0-0.1 0-0.1 0-0.2 0-0.1 0-0.1 0.1-0.2 0 0 0.1-0.1 0.1-0.1 0 0 0.1 0 0.1 0 0.1 0 0.2-0.1 0.3-0.1 0 0 0-0.1 0-0.1 0-0.1 0-0.2 0-0.2 0-0.1-0.1-0.1-0.2-0.1 -0.1 0-0.1 0-0.2 0.1 0 0-0.1 0.1-0.1 0.2l-0.1 0c0-0.1 0-0.2 0.1-0.3 0-0.1 0.1-0.1 0.1-0.2 0.1 0 0.1-0.1 0.2-0.1 0.1 0 0.1 0 0.2 0 0 0 0.1 0.1 0.1 0.1 0 0 0 0.1 0 0.2 0 0 0 0.1 0 0.2v0.4c0 0.2 0 0.4 0 0.5 0 0.1 0 0.1 0 0.2h-0.2C16.4 16.2 16.4 16.1 16.4 16ZM16.4 15.4c-0.1 0-0.1 0.1-0.2 0.1 -0.1 0-0.1 0-0.1 0.1 0 0 0 0-0.1 0.1 0 0 0 0.1 0 0.1 0 0.1 0 0.1 0 0.2 0 0 0.1 0.1 0.1 0.1 0.1 0 0.1 0 0.2-0.1 0 0 0.1-0.1 0.1-0.2 0-0.1 0-0.1 0-0.3V15.4Z"/>
  <path fill="#808080" d="M17.1 16l0 0.2c0 0-0.1 0-0.1 0 -0.1 0-0.1 0-0.1 0 0 0-0.1-0.1-0.1-0.1 0 0 0-0.2 0-0.3v-0.9h-0.1v-0.2h0.1v-0.4l0.1-0.2v0.5h0.2v0.2h-0.2v0.9c0 0.1 0 0.1 0 0.1 0 0 0 0 0 0.1 0 0 0 0 0.1 0C17 16 17 16 17.1 16Z"/>
  <path fill="#808080" d="M17.2 14.4v-0.3h0.1v0.3H17.2ZM17.2 16.2v-1.6h0.1v1.6H17.2Z"/>
  <path fill="#808080" d="M17.5 15.5c0-0.3 0-0.5 0.1-0.6 0.1-0.1 0.2-0.2 0.3-0.2 0.1 0 0.2 0.1 0.3 0.2 0.1 0.1 0.1 0.3 0.1 0.6 0 0.2 0 0.4-0.1 0.5 0 0.1-0.1 0.2-0.1 0.3 -0.1 0.1-0.1 0.1-0.2 0.1 -0.1 0-0.2-0.1-0.3-0.2C17.6 15.9 17.5 15.7 17.5 15.5ZM17.7 15.5c0 0.2 0 0.3 0.1 0.4 0.1 0.1 0.1 0.1 0.2 0.1s0.1 0 0.2-0.1c0.1-0.1 0.1-0.3 0.1-0.5 0-0.2 0-0.3-0.1-0.4 0-0.1-0.1-0.1-0.2-0.1 -0.1 0-0.1 0-0.2 0.1C17.7 15.1 17.7 15.3 17.7 15.5Z"/>
  <path fill="#808080" d="M18.5 16.2v-1.6h0.1v0.2c0.1-0.2 0.2-0.3 0.3-0.3 0.1 0 0.1 0 0.1 0.1 0 0 0.1 0.1 0.1 0.1 0 0.1 0 0.1 0 0.2 0 0 0 0.1 0 0.3v1h-0.1V15.3c0-0.1 0-0.2 0-0.2 0-0.1 0-0.1-0.1-0.1 0 0-0.1 0-0.1 0 -0.1 0-0.1 0-0.2 0.1 0 0.1-0.1 0.2-0.1 0.4v0.9H18.5Z"/>
  <path fill="#808080" d="M20.3 16l0 0.2c0 0-0.1 0-0.1 0 -0.1 0-0.1 0-0.1 0 0 0-0.1-0.1-0.1-0.1 0 0 0-0.2 0-0.3v-0.9h-0.1v-0.2h0.1v-0.4l0.1-0.2v0.5h0.2v0.2h-0.2v0.9c0 0.1 0 0.1 0 0.1 0 0 0 0 0 0.1 0 0 0 0 0.1 0C20.2 16 20.3 16 20.3 16Z"/>
  <path fill="#808080" d="M20.4 16.2v-2.2h0.2v0.8c0.1-0.1 0.2-0.2 0.3-0.2 0.1 0 0.1 0 0.2 0.1 0 0 0.1 0.1 0.1 0.2 0 0.1 0 0.2 0 0.4v1h-0.1v-1c0-0.1 0-0.2 0-0.3 0-0.1-0.1-0.1-0.1-0.1 0 0-0.1 0-0.1 0.1 0 0-0.1 0.1-0.1 0.2 0 0.1 0 0.2 0 0.3v0.9H20.4Z"/>
  <path fill="#808080" d="M22 16c-0.1 0.1-0.1 0.1-0.2 0.2 -0.1 0-0.1 0.1-0.2 0.1 -0.1 0-0.2 0-0.2-0.1 -0.1-0.1-0.1-0.2-0.1-0.3 0-0.1 0-0.1 0-0.2 0-0.1 0-0.1 0.1-0.2 0 0 0.1-0.1 0.1-0.1 0 0 0.1 0 0.1 0 0.1 0 0.2-0.1 0.3-0.1 0 0 0-0.1 0-0.1 0-0.1 0-0.2 0-0.2 0-0.1-0.1-0.1-0.2-0.1 -0.1 0-0.1 0-0.2 0.1 0 0-0.1 0.1-0.1 0.2l-0.1 0c0-0.1 0-0.2 0.1-0.3 0-0.1 0.1-0.1 0.1-0.2 0.1 0 0.1-0.1 0.2-0.1 0.1 0 0.1 0 0.2 0 0 0 0.1 0.1 0.1 0.1 0 0 0 0.1 0 0.2 0 0 0 0.1 0 0.2v0.4c0 0.2 0 0.4 0 0.5 0 0.1 0 0.1 0 0.2h-0.2C22 16.2 22 16.1 22 16ZM22 15.4c-0.1 0-0.1 0.1-0.2 0.1 -0.1 0-0.1 0-0.1 0.1 0 0 0 0-0.1 0.1 0 0 0 0.1 0 0.1 0 0.1 0 0.1 0 0.2 0 0 0.1 0.1 0.1 0.1 0.1 0 0.1 0 0.2-0.1 0 0 0.1-0.1 0.1-0.2 0-0.1 0-0.1 0-0.3V15.4Z"/>
  <path fill="#808080" d="M22.7 16l0 0.2c0 0-0.1 0-0.1 0 -0.1 0-0.1 0-0.1 0 0 0-0.1-0.1-0.1-0.1 0 0 0-0.2 0-0.3v-0.9h-0.1v-0.2h0.1v-0.4l0.1-0.2v0.5h0.2v0.2h-0.2v0.9c0 0.1 0 0.1 0 0.1 0 0 0 0 0 0.1 0 0 0 0 0.1 0C22.6 16 22.6 16 22.7 16Z"/>
  <path fill="#808080" d="M23.5 16.2l-0.3-1.6h0.2l0.1 0.9 0.1 0.3c0 0 0-0.1 0-0.3l0.1-0.9h0.2l0.1 0.9 0 0.3 0.1-0.3 0.2-0.9h0.1l-0.3 1.6h-0.2l-0.1-0.9 0-0.3 -0.2 1.2H23.5Z"/>
  <path fill="#808080" d="M25.1 16c-0.1 0.1-0.1 0.1-0.2 0.2 -0.1 0-0.1 0.1-0.2 0.1 -0.1 0-0.2 0-0.2-0.1 -0.1-0.1-0.1-0.2-0.1-0.3 0-0.1 0-0.1 0-0.2 0-0.1 0-0.1 0.1-0.2 0 0 0.1-0.1 0.1-0.1 0 0 0.1 0 0.1 0 0.1 0 0.2-0.1 0.3-0.1 0 0 0-0.1 0-0.1 0-0.1 0-0.2 0-0.2 0-0.1-0.1-0.1-0.2-0.1 -0.1 0-0.1 0-0.2 0.1 0 0-0.1 0.1-0.1 0.2L24.5 15.1c0-0.1 0-0.2 0.1-0.3 0-0.1 0.1-0.1 0.1-0.2 0.1 0 0.1-0.1 0.2-0.1 0.1 0 0.1 0 0.2 0 0 0 0.1 0.1 0.1 0.1 0 0 0 0.1 0 0.2 0 0 0 0.1 0 0.2v0.4c0 0.2 0 0.4 0 0.5 0 0.1 0 0.1 0 0.2h-0.2C25.1 16.2 25.1 16.1 25.1 16ZM25.1 15.4c-0.1 0-0.1 0.1-0.2 0.1 -0.1 0-0.1 0-0.1 0.1s0 0-0.1 0.1c0 0 0 0.1 0 0.1 0 0.1 0 0.1 0 0.2 0 0 0.1 0.1 0.1 0.1 0.1 0 0.1 0 0.2-0.1 0 0 0.1-0.1 0.1-0.2 0-0.1 0-0.1 0-0.3V15.4Z"/>
  <path fill="#808080" d="M25.4 15.8l0.1 0c0 0.1 0 0.2 0.1 0.2 0 0.1 0.1 0.1 0.2 0.1s0.1 0 0.2-0.1c0 0 0.1-0.1 0.1-0.2 0-0.1 0-0.1 0-0.1 0 0-0.1-0.1-0.2-0.1 -0.1 0-0.2-0.1-0.2-0.1 0 0-0.1-0.1-0.1-0.1 0-0.1 0-0.1 0-0.2 0-0.1 0-0.1 0-0.2 0-0.1 0-0.1 0.1-0.1 0 0 0.1-0.1 0.1-0.1 0 0 0.1 0 0.1 0 0.1 0 0.1 0 0.2 0.1 0.1 0 0.1 0.1 0.1 0.1 0 0.1 0 0.1 0.1 0.2l-0.1 0c0-0.1 0-0.1-0.1-0.2 0 0-0.1-0.1-0.1-0.1 -0.1 0-0.1 0-0.1 0.1 0 0 0 0.1 0 0.1 0 0 0 0.1 0 0.1 0 0 0 0.1 0.1 0.1 0 0 0.1 0 0.1 0.1 0.1 0 0.2 0.1 0.2 0.1 0 0 0.1 0.1 0.1 0.1 0 0.1 0 0.1 0 0.2 0 0.1 0 0.2 0 0.2 0 0.1-0.1 0.1-0.1 0.2 -0.1 0-0.1 0.1-0.2 0.1 -0.1 0-0.2 0-0.3-0.1C25.5 16.1 25.4 15.9 25.4 15.8Z"/>
  <path fill="#808080" d="M6.5 18.7l0 0.2c0 0-0.1 0-0.1 0 0 0-0.1 0-0.1 0 0 0 0-0.1-0.1-0.1s0-0.1 0-0.3v-0.8H6.1v-0.2h0.1v-0.3l0.1-0.1v0.5h0.1v0.2H6.4v0.8c0 0.1 0 0.1 0 0.1 0 0 0 0 0 0 0 0 0 0 0 0C6.4 18.7 6.5 18.7 6.5 18.7Z"/>
  <path fill="#808080" d="M6.6 18.9v-1.9h0.1v0.7c0.1-0.1 0.1-0.2 0.2-0.2 0.1 0 0.1 0 0.2 0.1 0 0 0.1 0.1 0.1 0.2 0 0.1 0 0.2 0 0.3v0.9H7.1v-0.9c0-0.1 0-0.2 0-0.3 0-0.1-0.1-0.1-0.1-0.1 0 0-0.1 0-0.1 0.1 0 0-0.1 0.1-0.1 0.1 0 0.1 0 0.2 0 0.3v0.8H6.6Z"/>
  <path fill="#808080" d="M7.5 18.9v-1.4h0.1v0.2c0-0.1 0.1-0.2 0.1-0.2 0 0 0.1 0 0.1 0 0 0 0.1 0 0.1 0.1l0 0.2c0 0-0.1-0.1-0.1-0.1 0 0-0.1 0-0.1 0 0 0 0 0.1 0 0.1 0 0.1 0 0.2 0 0.3v0.7H7.5Z"/>
  <path fill="#808080" d="M7.9 18.2c0-0.3 0-0.5 0.1-0.6 0.1-0.1 0.2-0.2 0.2-0.2 0.1 0 0.2 0.1 0.3 0.2 0.1 0.1 0.1 0.3 0.1 0.5 0 0.2 0 0.3 0 0.4C8.6 18.7 8.6 18.8 8.5 18.9c-0.1 0.1-0.1 0.1-0.2 0.1 -0.1 0-0.2-0.1-0.3-0.2C8 18.6 7.9 18.5 7.9 18.2ZM8.1 18.2c0 0.2 0 0.3 0.1 0.4 0 0.1 0.1 0.1 0.2 0.1 0.1 0 0.1 0 0.2-0.1 0-0.1 0.1-0.2 0.1-0.4 0-0.2 0-0.3-0.1-0.4 0-0.1-0.1-0.1-0.2-0.1 -0.1 0-0.1 0-0.2 0.1C8.1 17.9 8.1 18.1 8.1 18.2Z"/>
  <path fill="#808080" d="M9 18.9l-0.2-1.4h0.1l0.1 0.8 0 0.3c0 0 0-0.1 0-0.3l0.1-0.8h0.1l0.1 0.8 0 0.3 0-0.3 0.1-0.8h0.1L9.6 18.9h-0.1l-0.1-0.8 0-0.2L9.1 18.9H9Z"/>
  <path fill="#808080" d="M10 18.9v-1.4h0.1v0.2c0.1-0.2 0.1-0.2 0.3-0.2 0 0 0.1 0 0.1 0 0 0 0.1 0.1 0.1 0.1 0 0.1 0 0.1 0 0.2 0 0 0 0.1 0 0.2v0.9h-0.1v-0.9c0-0.1 0-0.2 0-0.2 0 0 0-0.1-0.1-0.1 0 0-0.1 0-0.1 0 -0.1 0-0.1 0-0.1 0.1 0 0.1-0.1 0.2-0.1 0.4v0.8H10Z"/>
  <path fill="#808080" d="M11.9 19.2c-0.1 0.1-0.1 0.2-0.2 0.2 -0.1 0-0.1 0.1-0.2 0.1 -0.1 0-0.2 0-0.2-0.1 -0.1-0.1-0.1-0.2-0.1-0.4 0-0.1 0-0.2 0-0.2 0-0.1 0.1-0.1 0.1-0.2 0 0 0.1-0.1 0.1-0.1 0 0 0.1 0 0.2 0 0.1 0 0.2-0.1 0.3-0.1 0 0 0-0.1 0-0.1 0-0.1 0-0.2 0-0.3 0-0.1-0.1-0.1-0.2-0.1 -0.1 0-0.1 0-0.2 0.1 0 0-0.1 0.1-0.1 0.3l-0.2 0c0-0.1 0-0.2 0.1-0.3 0-0.1 0.1-0.1 0.1-0.2 0.1 0 0.1-0.1 0.2-0.1 0.1 0 0.2 0 0.2 0.1 0.1 0 0.1 0.1 0.1 0.1 0 0.1 0 0.1 0.1 0.2 0 0.1 0 0.1 0 0.3v0.4c0 0.3 0 0.5 0 0.5 0 0.1 0 0.1 0 0.2h-0.2C11.9 19.4 11.9 19.3 11.9 19.2ZM11.9 18.3c-0.1 0-0.2 0.1-0.3 0.1 -0.1 0-0.1 0-0.1 0.1 0 0-0.1 0.1-0.1 0.1 0 0 0 0.1 0 0.1 0 0.1 0 0.1 0.1 0.2 0 0.1 0.1 0.1 0.1 0.1 0.1 0 0.1 0 0.2-0.1 0.1-0.1 0.1-0.1 0.1-0.2 0-0.1 0-0.2 0-0.3V18.3Z"/>
  <path fill="#808080" d="M12.7 19.1l0 0.3c0 0-0.1 0-0.1 0 -0.1 0-0.1 0-0.1-0.1 0 0-0.1-0.1-0.1-0.1 0-0.1 0-0.2 0-0.4v-1H12.2v-0.2h0.1v-0.4l0.2-0.2v0.6h0.2v0.2h-0.2v1c0 0.1 0 0.1 0 0.2 0 0 0 0 0 0.1 0 0 0 0 0.1 0C12.6 19.2 12.7 19.2 12.7 19.1Z"/>
  <path fill="#808080" d="M13.7 20.2l0-0.3c0 0 0.1 0 0.1 0 0 0 0.1 0 0.1 0 0 0 0-0.1 0.1-0.1 0 0 0-0.1 0-0.2 0 0 0 0 0-0.1l-0.4-1.8h0.2l0.2 1c0 0.1 0.1 0.3 0.1 0.4 0-0.1 0-0.3 0.1-0.4l0.2-1h0.2l-0.4 1.8c0 0.2-0.1 0.3-0.1 0.4 0 0.1-0.1 0.2-0.1 0.2 0 0-0.1 0.1-0.1 0.1C13.8 20.2 13.8 20.2 13.7 20.2Z"/>
  <path fill="#808080" d="M14.6 18.6c0-0.3 0.1-0.6 0.2-0.7 0.1-0.1 0.2-0.2 0.3-0.2 0.1 0 0.2 0.1 0.3 0.2 0.1 0.2 0.1 0.4 0.1 0.7 0 0.2 0 0.4-0.1 0.5s-0.1 0.2-0.2 0.3c-0.1 0.1-0.2 0.1-0.2 0.1 -0.1 0-0.3-0.1-0.3-0.2C14.7 19.1 14.6 18.9 14.6 18.6ZM14.8 18.6c0 0.2 0 0.4 0.1 0.5 0.1 0.1 0.1 0.2 0.2 0.2 0.1 0 0.2-0.1 0.2-0.2 0.1-0.1 0.1-0.3 0.1-0.5 0-0.2 0-0.4-0.1-0.5 -0.1-0.1-0.1-0.2-0.2-0.2 -0.1 0-0.2 0.1-0.2 0.2C14.8 18.2 14.8 18.4 14.8 18.6Z"/>
  <path fill="#808080" d="M16.4 19.5v-0.3c-0.1 0.2-0.2 0.3-0.3 0.3 -0.1 0-0.1 0-0.2-0.1 0 0-0.1-0.1-0.1-0.1 0-0.1 0-0.1-0.1-0.2 0-0.1 0-0.2 0-0.3v-1.1h0.2v1c0 0.2 0 0.3 0 0.3 0 0.1 0 0.1 0.1 0.2 0 0 0.1 0.1 0.1 0.1 0.1 0 0.1 0 0.1-0.1 0 0 0.1-0.1 0.1-0.2 0-0.1 0-0.2 0-0.3v-0.9h0.2v1.8H16.4Z"/>
  <path fill="#808080" d="M16.9 19.5v-0.3h0.2v0.3H16.9Z"/>
  <path fill="#808080" d="M6.2 22.5v-1.7H5.9V20.6h0.9v0.2H6.4v1.7H6.2Z"/>
  <path fill="#808080" d="M6.9 22.5V20.6h0.1v0.7c0.1-0.1 0.1-0.2 0.2-0.2 0.1 0 0.1 0 0.2 0.1 0 0 0.1 0.1 0.1 0.2 0 0.1 0 0.2 0 0.3v0.9H7.4v-0.9c0-0.1 0-0.2 0-0.3 0-0.1-0.1-0.1-0.1-0.1 0 0-0.1 0-0.1 0.1 0 0-0.1 0.1-0.1 0.1 0 0.1 0 0.2 0 0.3v0.8H6.9Z"/>
  <path fill="#808080" d="M7.7 20.8V20.6h0.1v0.3H7.7ZM7.7 22.5v-1.4h0.1v1.4H7.7Z"/>
  <path fill="#808080" d="M8 22.1l0.1 0c0 0.1 0 0.2 0.1 0.2 0 0.1 0.1 0.1 0.1 0.1 0.1 0 0.1 0 0.1-0.1 0 0 0-0.1 0-0.2 0-0.1 0-0.1 0-0.1 0 0-0.1 0-0.1-0.1 -0.1 0-0.2-0.1-0.2-0.1 0 0-0.1-0.1-0.1-0.1 0-0.1 0-0.1 0-0.2 0-0.1 0-0.1 0-0.2 0-0.1 0-0.1 0.1-0.1 0 0 0-0.1 0.1-0.1 0 0 0.1 0 0.1 0 0.1 0 0.1 0 0.2 0 0 0 0.1 0.1 0.1 0.1 0 0.1 0 0.1 0 0.2l-0.1 0c0-0.1 0-0.1-0.1-0.2 0 0-0.1-0.1-0.1-0.1 -0.1 0-0.1 0-0.1 0.1 0 0 0 0.1 0 0.1 0 0 0 0.1 0 0.1 0 0 0 0 0.1 0.1 0 0 0.1 0 0.1 0.1 0.1 0 0.2 0.1 0.2 0.1 0 0 0.1 0.1 0.1 0.1 0 0.1 0 0.1 0 0.2 0 0.1 0 0.2 0 0.2 0 0.1-0.1 0.1-0.1 0.2 -0.1 0-0.1 0.1-0.2 0.1 -0.1 0-0.2 0-0.2-0.1C8 22.3 8 22.2 8 22.1Z"/>
  <path fill="#808080" d="M9.2 20.8V20.6H9.4v0.3H9.2ZM9.2 22.5v-1.4H9.4v1.4H9.2Z"/>
  <path fill="#808080" d="M9.5 22.1l0.1 0c0 0.1 0 0.2 0.1 0.2 0 0.1 0.1 0.1 0.1 0.1s0.1 0 0.1-0.1c0 0 0-0.1 0-0.2 0-0.1 0-0.1 0-0.1 0 0-0.1 0-0.1-0.1 -0.1 0-0.2-0.1-0.2-0.1 0 0-0.1-0.1-0.1-0.1 0-0.1 0-0.1 0-0.2 0-0.1 0-0.1 0-0.2 0-0.1 0-0.1 0.1-0.1 0 0 0.1-0.1 0.1-0.1 0 0 0.1 0 0.1 0 0.1 0 0.1 0 0.2 0 0 0 0.1 0.1 0.1 0.1 0 0.1 0 0.1 0 0.2l-0.1 0c0-0.1 0-0.1-0.1-0.2 0 0-0.1-0.1-0.1-0.1 -0.1 0-0.1 0-0.1 0.1 0 0 0 0.1 0 0.1 0 0 0 0.1 0 0.1 0 0 0 0 0.1 0.1 0 0 0.1 0 0.1 0.1 0.1 0 0.2 0.1 0.2 0.1 0 0 0.1 0.1 0.1 0.1 0 0.1 0 0.1 0 0.2 0 0.1 0 0.2 0 0.2 0 0.1-0.1 0.1-0.1 0.2 0 0-0.1 0.1-0.2 0.1 -0.1 0-0.2 0-0.2-0.1C9.6 22.3 9.5 22.2 9.5 22.1Z"/>
  <path fill="#808080" d="M11.1 22.6l0 0.3c0 0-0.1 0-0.1 0 -0.1 0-0.1 0-0.1 0 0 0-0.1-0.1-0.1-0.1 0-0.1 0-0.2 0-0.3v-1h-0.1v-0.2h0.1v-0.4l0.2-0.2v0.6h0.2v0.2h-0.2v1c0 0.1 0 0.1 0 0.2 0 0 0 0 0 0.1s0 0 0.1 0C11.1 22.6 11.1 22.6 11.1 22.6Z"/>
  <path fill="#808080" d="M11.3 22.9v-2.3h0.2v0.8c0.1-0.2 0.2-0.2 0.3-0.2 0.1 0 0.1 0 0.2 0.1 0.1 0.1 0.1 0.1 0.1 0.2 0 0.1 0 0.2 0 0.4v1.1h-0.2v-1.1c0-0.1 0-0.2-0.1-0.3 0-0.1-0.1-0.1-0.1-0.1 0 0-0.1 0-0.1 0.1 0 0-0.1 0.1-0.1 0.2 0 0.1 0 0.2 0 0.3v0.9H11.3Z"/>
  <path fill="#808080" d="M13 22.3l0.2 0c0 0.2-0.1 0.3-0.1 0.4 -0.1 0.1-0.2 0.1-0.3 0.1 -0.1 0-0.2-0.1-0.3-0.2 -0.1-0.1-0.1-0.4-0.1-0.6 0-0.3 0-0.5 0.1-0.7 0.1-0.2 0.2-0.2 0.3-0.2 0.1 0 0.2 0.1 0.3 0.2 0.1 0.2 0.1 0.4 0.1 0.6 0 0 0 0 0 0.1h-0.7c0 0.2 0 0.3 0.1 0.4 0.1 0.1 0.1 0.1 0.2 0.1 0.1 0 0.1 0 0.2-0.1C12.9 22.6 13 22.5 13 22.3ZM12.4 21.9h0.5c0-0.1 0-0.2-0.1-0.3 -0.1-0.1-0.1-0.2-0.2-0.2 -0.1 0-0.1 0-0.2 0.1C12.5 21.6 12.5 21.7 12.4 21.9Z"/>
  <path fill="#808080" d="M13.9 22.9v-1.5H13.8v-0.2h0.1v-0.2c0-0.1 0-0.2 0-0.2 0-0.1 0-0.1 0.1-0.2 0 0 0.1-0.1 0.2-0.1 0 0 0.1 0 0.2 0l0 0.2c0 0-0.1 0-0.1 0 0 0-0.1 0-0.1 0.1 0 0 0 0.1 0 0.2v0.2h0.2v0.2h-0.2v1.5H13.9Z"/>
  <path fill="#808080" d="M14.4 20.9v-0.3h0.2v0.3H14.4ZM14.4 22.9v-1.7h0.2v1.7H14.4Z"/>
  <path fill="#808080" d="M14.8 22.9v-1.7h0.1v0.2c0.1-0.2 0.2-0.3 0.3-0.3 0.1 0 0.1 0 0.2 0.1 0 0 0.1 0.1 0.1 0.1 0 0.1 0 0.1 0.1 0.2 0 0.1 0 0.1 0 0.3v1h-0.2v-1c0-0.1 0-0.2 0-0.3 0-0.1 0-0.1-0.1-0.1 0 0-0.1-0.1-0.1-0.1 -0.1 0-0.1 0-0.2 0.1 0 0.1-0.1 0.2-0.1 0.4v0.9H14.8Z"/>
  <path fill="#808080" d="M16.4 22.7c-0.1 0.1-0.1 0.2-0.2 0.2 -0.1 0-0.1 0.1-0.2 0.1 -0.1 0-0.2 0-0.2-0.1 -0.1-0.1-0.1-0.2-0.1-0.3 0-0.1 0-0.2 0-0.2 0-0.1 0-0.1 0.1-0.2 0 0 0.1-0.1 0.1-0.1 0 0 0.1 0 0.1 0 0.1 0 0.2-0.1 0.3-0.1 0 0 0-0.1 0-0.1 0-0.1 0-0.2 0-0.2 0-0.1-0.1-0.1-0.2-0.1 -0.1 0-0.1 0-0.2 0.1 0 0-0.1 0.1-0.1 0.2l-0.2 0c0-0.1 0-0.2 0.1-0.3 0-0.1 0.1-0.1 0.1-0.2 0.1 0 0.1-0.1 0.2-0.1 0.1 0 0.1 0 0.2 0 0.1 0 0.1 0.1 0.1 0.1 0 0.1 0 0.1 0 0.2 0 0 0 0.1 0 0.3v0.4c0 0.3 0 0.4 0 0.5 0 0.1 0 0.1 0 0.2h-0.2C16.4 22.8 16.4 22.8 16.4 22.7ZM16.4 22c-0.1 0-0.1 0.1-0.3 0.1 -0.1 0-0.1 0-0.1 0.1 0 0 0 0.1-0.1 0.1 0 0 0 0.1 0 0.1 0 0.1 0 0.1 0.1 0.2 0 0.1 0.1 0.1 0.1 0.1 0.1 0 0.1 0 0.2-0.1 0 0 0.1-0.1 0.1-0.2 0-0.1 0-0.2 0-0.3V22Z"/>
  <path fill="#808080" d="M16.8 22.9v-2.3h0.2v2.3H16.8Z"/>
  <path fill="#808080" d="M17.7 22.4l0.2 0c0 0.1 0 0.2 0.1 0.3 0 0.1 0.1 0.1 0.2 0.1 0.1 0 0.1 0 0.2-0.1s0.1-0.1 0.1-0.2c0-0.1 0-0.1 0-0.2 0 0-0.1-0.1-0.2-0.1 -0.1-0.1-0.2-0.1-0.2-0.1 0 0-0.1-0.1-0.1-0.2 0-0.1 0-0.1 0-0.2 0-0.1 0-0.1 0-0.2 0-0.1 0-0.1 0.1-0.2 0 0 0.1-0.1 0.1-0.1 0 0 0.1 0 0.1 0 0.1 0 0.1 0 0.2 0.1 0.1 0 0.1 0.1 0.1 0.2 0 0.1 0 0.2 0.1 0.3l-0.2 0c0-0.1 0-0.2-0.1-0.2 0 0-0.1-0.1-0.1-0.1 -0.1 0-0.1 0-0.2 0.1 0 0 0 0.1 0 0.2 0 0 0 0.1 0 0.1 0 0 0 0.1 0.1 0.1 0 0 0.1 0 0.1 0.1 0.1 0.1 0.2 0.1 0.2 0.1 0 0 0.1 0.1 0.1 0.1 0 0.1 0 0.1 0 0.2 0 0.1 0 0.2 0 0.3 0 0.1-0.1 0.1-0.1 0.2s-0.1 0.1-0.2 0.1c-0.1 0-0.2 0-0.3-0.1C17.7 22.7 17.7 22.6 17.7 22.4Z"/>
  <path fill="#808080" d="M19 22.6l0 0.3c0 0-0.1 0-0.1 0 -0.1 0-0.1 0-0.1 0 0 0-0.1-0.1-0.1-0.1 0-0.1 0-0.2 0-0.3v-1h-0.1v-0.2h0.1v-0.4l0.2-0.2v0.6h0.2v0.2h-0.2v1c0 0.1 0 0.1 0 0.2 0 0 0 0 0 0.1s0 0 0.1 0C18.9 22.6 19 22.6 19 22.6Z"/>
  <path fill="#808080" d="M19.8 22.7c-0.1 0.1-0.1 0.2-0.2 0.2 -0.1 0-0.1 0.1-0.2 0.1 -0.1 0-0.2 0-0.2-0.1 -0.1-0.1-0.1-0.2-0.1-0.3 0-0.1 0-0.2 0-0.2 0-0.1 0-0.1 0.1-0.2 0 0 0.1-0.1 0.1-0.1 0 0 0.1 0 0.1 0 0.1 0 0.2-0.1 0.3-0.1 0 0 0-0.1 0-0.1 0-0.1 0-0.2 0-0.2 0-0.1-0.1-0.1-0.2-0.1 -0.1 0-0.1 0-0.2 0.1 0 0-0.1 0.1-0.1 0.2l-0.2 0c0-0.1 0-0.2 0.1-0.3 0-0.1 0.1-0.1 0.1-0.2 0.1 0 0.1-0.1 0.2-0.1 0.1 0 0.1 0 0.2 0 0.1 0 0.1 0.1 0.1 0.1 0 0.1 0 0.1 0.1 0.2 0 0 0 0.1 0 0.3v0.4c0 0.3 0 0.4 0 0.5 0 0.1 0 0.1 0 0.2h-0.2C19.8 22.8 19.8 22.8 19.8 22.7ZM19.8 22c-0.1 0-0.1 0.1-0.3 0.1 -0.1 0-0.1 0-0.1 0.1 0 0 0 0.1-0.1 0.1 0 0 0 0.1 0 0.1 0 0.1 0 0.1 0 0.2 0 0.1 0.1 0.1 0.1 0.1 0.1 0 0.1 0 0.2-0.1 0 0 0.1-0.1 0.1-0.2 0-0.1 0-0.2 0-0.3V22Z"/>
  <path fill="#808080" d="M20.5 22.6l0 0.3c0 0-0.1 0-0.1 0 -0.1 0-0.1 0-0.1 0 0 0-0.1-0.1-0.1-0.1s0-0.2 0-0.3v-1h-0.1v-0.2h0.1v-0.4l0.2-0.2v0.6h0.2v0.2h-0.2v1c0 0.1 0 0.1 0 0.2 0 0 0 0 0 0.1 0 0 0 0 0.1 0C20.5 22.6 20.5 22.6 20.5 22.6Z"/>
  <path fill="#808080" d="M21.3 22.3l0.2 0c0 0.2-0.1 0.3-0.1 0.4 -0.1 0.1-0.2 0.1-0.3 0.1 -0.1 0-0.2-0.1-0.3-0.2 -0.1-0.1-0.1-0.4-0.1-0.6 0-0.3 0-0.5 0.1-0.7 0.1-0.2 0.2-0.2 0.3-0.2 0.1 0 0.2 0.1 0.3 0.2 0.1 0.2 0.1 0.4 0.1 0.6 0 0 0 0 0 0.1h-0.7c0 0.2 0 0.3 0.1 0.4 0.1 0.1 0.1 0.1 0.2 0.1 0.1 0 0.1 0 0.2-0.1C21.3 22.6 21.3 22.5 21.3 22.3ZM20.8 21.9h0.5c0-0.1 0-0.2-0.1-0.3 -0.1-0.1-0.1-0.2-0.2-0.2 -0.1 0-0.1 0-0.2 0.1C20.8 21.6 20.8 21.7 20.8 21.9Z"/>
  <path fill="#808080" d="M21.7 22.9v-1.7h0.1v0.2c0-0.1 0.1-0.1 0.1-0.2 0.1 0 0.1-0.1 0.2-0.1 0.1 0 0.1 0 0.2 0.1 0 0.1 0.1 0.1 0.1 0.2 0.1-0.2 0.2-0.3 0.3-0.3 0.1 0 0.2 0 0.2 0.1 0 0.1 0.1 0.2 0.1 0.4v1.1h-0.2v-1.1c0-0.1 0-0.2 0-0.2 0 0 0-0.1-0.1-0.1 0 0-0.1 0-0.1 0 -0.1 0-0.1 0-0.2 0.1 0 0.1-0.1 0.2-0.1 0.4v1h-0.2v-1.1c0-0.1 0-0.2 0-0.3 0-0.1-0.1-0.1-0.1-0.1 0 0-0.1 0-0.1 0.1 0 0-0.1 0.1-0.1 0.2 0 0.1 0 0.2 0 0.4v0.9H21.7Z"/>
  <path fill="#808080" d="M23.9 22.3l0.2 0c0 0.2-0.1 0.3-0.1 0.4 -0.1 0.1-0.2 0.1-0.3 0.1 -0.1 0-0.3-0.1-0.3-0.2 -0.1-0.1-0.1-0.4-0.1-0.6 0-0.3 0-0.5 0.1-0.7 0.1-0.2 0.2-0.2 0.3-0.2 0.1 0 0.2 0.1 0.3 0.2 0.1 0.2 0.1 0.4 0.1 0.6 0 0 0 0 0 0.1h-0.7c0 0.2 0 0.3 0.1 0.4 0.1 0.1 0.1 0.1 0.2 0.1 0.1 0 0.1 0 0.2-0.1C23.8 22.6 23.9 22.5 23.9 22.3ZM23.4 21.9h0.5c0-0.1 0-0.2-0.1-0.3 -0.1-0.1-0.1-0.2-0.2-0.2 -0.1 0-0.1 0-0.2 0.1C23.4 21.6 23.4 21.7 23.4 21.9Z"/>
  <path fill="#808080" d="M24.2 22.9v-1.7h0.1v0.2c0.1-0.2 0.2-0.3 0.3-0.3 0.1 0 0.1 0 0.2 0.1 0 0 0.1 0.1 0.1 0.1 0 0.1 0 0.1 0.1 0.2 0 0.1 0 0.1 0 0.3v1h-0.2v-1c0-0.1 0-0.2 0-0.3 0-0.1 0-0.1-0.1-0.1 0 0-0.1-0.1-0.1-0.1 -0.1 0-0.1 0-0.2 0.1 -0.1 0.1-0.1 0.2-0.1 0.4v0.9H24.2Z"/>
  <path fill="#808080" d="M25.6 22.6l0 0.3c0 0-0.1 0-0.1 0 -0.1 0-0.1 0-0.1 0 0 0-0.1-0.1-0.1-0.1s0-0.2 0-0.3v-1h-0.1v-0.2h0.1v-0.4l0.2-0.2v0.6h0.2v0.2h-0.2v1c0 0.1 0 0.1 0 0.2 0 0 0 0 0 0.1 0 0 0 0 0.1 0C25.6 22.6 25.6 22.6 25.6 22.6Z"/>
  <path fill="#808080" d="M26.6 22.6l0 0.3c0 0-0.1 0-0.1 0 -0.1 0-0.1 0-0.1 0 0 0-0.1-0.1-0.1-0.1 0-0.1 0-0.2 0-0.3v-1h-0.1v-0.2h0.1v-0.4l0.2-0.2v0.6h0.2v0.2h-0.2v1c0 0.1 0 0.1 0 0.2 0 0 0 0 0 0.1 0 0 0 0 0.1 0C26.6 22.6 26.6 22.6 26.6 22.6Z"/>
  <path fill="#808080" d="M26.8 22.9v-2.3h0.2v0.8c0.1-0.2 0.2-0.2 0.3-0.2 0.1 0 0.1 0 0.2 0.1 0.1 0.1 0.1 0.1 0.1 0.2 0 0.1 0 0.2 0 0.4v1.1h-0.2v-1.1c0-0.1 0-0.2 0-0.3 0-0.1-0.1-0.1-0.1-0.1 0 0-0.1 0-0.1 0.1 0 0-0.1 0.1-0.1 0.2 0 0.1 0 0.2 0 0.3v0.9H26.8Z"/>
  <path fill="#808080" d="M28.4 22.7c-0.1 0.1-0.1 0.2-0.2 0.2 -0.1 0-0.1 0.1-0.2 0.1 -0.1 0-0.2 0-0.2-0.1 -0.1-0.1-0.1-0.2-0.1-0.3 0-0.1 0-0.2 0-0.2 0-0.1 0-0.1 0.1-0.2s0.1-0.1 0.1-0.1c0 0 0.1 0 0.1 0 0.1 0 0.2-0.1 0.3-0.1 0 0 0-0.1 0-0.1 0-0.1 0-0.2 0-0.2 0-0.1-0.1-0.1-0.2-0.1 -0.1 0-0.1 0-0.2 0.1 0 0-0.1 0.1-0.1 0.2l-0.2 0c0-0.1 0-0.2 0.1-0.3 0-0.1 0.1-0.1 0.1-0.2 0.1 0 0.1-0.1 0.2-0.1s0.1 0 0.2 0c0 0 0.1 0.1 0.1 0.1 0 0.1 0 0.1 0.1 0.2 0 0 0 0.1 0 0.3v0.4c0 0.3 0 0.4 0 0.5 0 0.1 0 0.1 0 0.2h-0.2C28.5 22.8 28.4 22.8 28.4 22.7ZM28.4 22c-0.1 0-0.1 0.1-0.3 0.1 -0.1 0-0.1 0-0.1 0.1 0 0 0 0.1-0.1 0.1 0 0 0 0.1 0 0.1 0 0.1 0 0.1 0.1 0.2 0 0.1 0.1 0.1 0.1 0.1 0.1 0 0.1 0 0.2-0.1 0 0 0.1-0.1 0.1-0.2 0-0.1 0-0.2 0-0.3V22Z"/>
  <path fill="#808080" d="M29.2 22.6l0 0.3c0 0-0.1 0-0.1 0 -0.1 0-0.1 0-0.1 0 0 0-0.1-0.1-0.1-0.1 0-0.1 0-0.2 0-0.3v-1h-0.1v-0.2h0.1v-0.4l0.2-0.2v0.6h0.2v0.2h-0.2v1c0 0.1 0 0.1 0 0.2 0 0 0 0 0 0.1 0 0 0 0 0.1 0C29.1 22.6 29.2 22.6 29.2 22.6Z"/>
  <path fill="#808080" d="M6.1 25.8L5.8 24.4h0.1l0.1 0.8 0 0.3c0 0 0-0.1 0-0.3L6.3 24.4h0.1l0.1 0.8 0 0.3 0-0.3 0.1-0.8h0.1l-0.2 1.4H6.5l-0.1-0.8 0-0.2 -0.2 1.1H6.1Z"/>
  <path fill="#808080" d="M7 24.1v-0.3h0.1v0.3H7ZM7 25.8V24.4h0.1v1.4H7Z"/>
  <path fill="#808080" d="M7.4 25.8v-1.9h0.1v1.9H7.4Z"/>
  <path fill="#808080" d="M7.7 25.8v-1.9h0.1v1.9H7.7Z"/>
  <path fill="#808080" d="M8.6 25.8H8.5v-1.9H8.6v0.7c0.1-0.1 0.1-0.2 0.2-0.2 0 0 0.1 0 0.1 0.1 0 0 0.1 0.1 0.1 0.1 0 0.1 0.1 0.1 0.1 0.2 0 0.1 0 0.2 0 0.3 0 0.2 0 0.4-0.1 0.6 -0.1 0.1-0.1 0.2-0.2 0.2 -0.1 0-0.2-0.1-0.2-0.2V25.8ZM8.6 25c0 0.2 0 0.3 0 0.4 0 0.1 0.1 0.2 0.2 0.2 0.1 0 0.1 0 0.2-0.1 0-0.1 0.1-0.2 0.1-0.4 0-0.2 0-0.3-0.1-0.4 0-0.1-0.1-0.1-0.1-0.1 -0.1 0-0.1 0-0.2 0.1C8.6 24.7 8.6 24.9 8.6 25Z"/>
  <path fill="#808080" d="M9.9 25.3l0.1 0c0 0.1-0.1 0.3-0.1 0.3 -0.1 0.1-0.1 0.1-0.2 0.1 -0.1 0-0.2-0.1-0.3-0.2 -0.1-0.1-0.1-0.3-0.1-0.5 0-0.2 0-0.4 0.1-0.5 0.1-0.1 0.2-0.2 0.3-0.2 0.1 0 0.2 0.1 0.3 0.2 0.1 0.1 0.1 0.3 0.1 0.5 0 0 0 0 0 0.1H9.4c0 0.2 0 0.3 0.1 0.4 0 0.1 0.1 0.1 0.2 0.1 0 0 0.1 0 0.1-0.1C9.8 25.5 9.9 25.4 9.9 25.3ZM9.4 24.9h0.4c0-0.1 0-0.2-0.1-0.3 0-0.1-0.1-0.1-0.2-0.1 -0.1 0-0.1 0-0.2 0.1C9.5 24.7 9.4 24.8 9.4 24.9Z"/>
  <path fill="#808080" d="M10.6 25.9l0.1 0c0 0.1 0 0.1 0 0.2 0 0 0.1 0.1 0.1 0.1 0.1 0 0.1 0 0.1-0.1 0 0 0.1-0.1 0.1-0.2 0 0 0-0.1 0-0.3 -0.1 0.1-0.1 0.2-0.2 0.2 -0.1 0-0.2-0.1-0.3-0.2 -0.1-0.1-0.1-0.3-0.1-0.5 0-0.1 0-0.3 0-0.4 0-0.1 0.1-0.2 0.1-0.3 0.1-0.1 0.1-0.1 0.2-0.1 0.1 0 0.2 0.1 0.2 0.2V24.4h0.1v1.2c0 0.2 0 0.4 0 0.5 0 0.1-0.1 0.2-0.1 0.2 -0.1 0.1-0.1 0.1-0.2 0.1 -0.1 0-0.2 0-0.2-0.1C10.6 26.1 10.6 26 10.6 25.9ZM10.7 25c0 0.2 0 0.3 0.1 0.4 0 0.1 0.1 0.1 0.2 0.1s0.1 0 0.2-0.1c0-0.1 0.1-0.2 0.1-0.4 0-0.2 0-0.3-0.1-0.4 0-0.1-0.1-0.1-0.2-0.1 -0.1 0-0.1 0-0.2 0.1C10.7 24.7 10.7 24.9 10.7 25Z"/>
  <path fill="#808080" d="M11.4 25.2c0-0.3 0-0.5 0.1-0.7 0.1-0.1 0.2-0.2 0.3-0.2 0.1 0 0.2 0.1 0.3 0.2 0.1 0.1 0.1 0.3 0.1 0.6 0 0.2 0 0.4-0.1 0.5 0 0.1-0.1 0.2-0.2 0.3 -0.1 0.1-0.1 0.1-0.2 0.1 -0.1 0-0.2-0.1-0.3-0.2C11.5 25.7 11.4 25.5 11.4 25.2ZM11.6 25.2c0 0.2 0 0.4 0.1 0.5 0.1 0.1 0.1 0.2 0.2 0.2 0.1 0 0.1-0.1 0.2-0.2 0.1-0.1 0.1-0.3 0.1-0.5 0-0.2 0-0.3-0.1-0.4 -0.1-0.1-0.1-0.2-0.2-0.2 -0.1 0-0.1 0.1-0.2 0.2C11.6 24.9 11.6 25 11.6 25.2Z"/>
  <path fill="#808080" d="M12.5 24.1v-0.3h0.2v0.3H12.5ZM12.5 26v-1.6h0.2v1.6H12.5Z"/>
  <path fill="#808080" d="M12.8 26v-1.6h0.1v0.2c0.1-0.2 0.2-0.3 0.3-0.3 0.1 0 0.1 0 0.2 0.1 0 0 0.1 0.1 0.1 0.1 0 0.1 0 0.1 0 0.2 0 0 0 0.1 0 0.3v1h-0.2v-1c0-0.1 0-0.2 0-0.2 0-0.1 0-0.1-0.1-0.1 0 0-0.1 0-0.1 0 -0.1 0-0.1 0-0.2 0.1 0 0.1-0.1 0.2-0.1 0.4v0.9H12.8Z"/>
  <path fill="#808080" d="M13.8 26.2l0.2 0c0 0.1 0 0.1 0.1 0.2 0 0.1 0.1 0.1 0.2 0.1 0.1 0 0.1 0 0.2-0.1 0 0 0.1-0.1 0.1-0.2 0-0.1 0-0.2 0-0.3 -0.1 0.1-0.2 0.2-0.3 0.2 -0.1 0-0.2-0.1-0.3-0.2 -0.1-0.2-0.1-0.3-0.1-0.6 0-0.2 0-0.3 0-0.4 0-0.1 0.1-0.2 0.1-0.3 0.1-0.1 0.1-0.1 0.2-0.1 0.1 0 0.2 0.1 0.3 0.2v-0.2h0.1v1.4c0 0.2 0 0.4 0 0.5 0 0.1-0.1 0.2-0.1 0.2 -0.1 0.1-0.1 0.1-0.2 0.1 -0.1 0-0.2 0-0.3-0.1C13.8 26.5 13.8 26.3 13.8 26.2ZM13.9 25.2c0 0.2 0 0.4 0.1 0.5 0 0.1 0.1 0.1 0.2 0.1 0.1 0 0.1 0 0.2-0.1 0-0.1 0.1-0.2 0.1-0.5 0-0.2 0-0.3-0.1-0.4 0-0.1-0.1-0.1-0.2-0.1 -0.1 0-0.1 0.1-0.2 0.1C13.9 24.9 13.9 25 13.9 25.2Z"/>
  <path fill="#808080" d="M15.2 25.2c0-0.3 0-0.5 0.1-0.7 0.1-0.1 0.2-0.2 0.3-0.2 0.1 0 0.2 0.1 0.3 0.2 0.1 0.1 0.1 0.3 0.1 0.6 0 0.2 0 0.4-0.1 0.5 0 0.1-0.1 0.2-0.2 0.3 -0.1 0.1-0.1 0.1-0.2 0.1 -0.1 0-0.2-0.1-0.3-0.2C15.3 25.7 15.2 25.5 15.2 25.2ZM15.4 25.2c0 0.2 0 0.4 0.1 0.5 0.1 0.1 0.1 0.2 0.2 0.2 0.1 0 0.1-0.1 0.2-0.2 0-0.1 0.1-0.3 0.1-0.5 0-0.2 0-0.3-0.1-0.4 -0.1-0.1-0.1-0.2-0.2-0.2 -0.1 0-0.1 0.1-0.2 0.2C15.4 24.9 15.4 25 15.4 25.2Z"/>
  <path fill="#808080" d="M16.3 26v-1.6h0.1v0.2c0.1-0.2 0.2-0.3 0.3-0.3 0.1 0 0.1 0 0.1 0.1 0 0 0.1 0.1 0.1 0.1s0 0.1 0 0.2c0 0 0 0.1 0 0.3v1H16.8v-1c0-0.1 0-0.2 0-0.2 0-0.1 0-0.1-0.1-0.1 0 0-0.1 0-0.1 0 -0.1 0-0.1 0-0.2 0.1 0 0.1-0.1 0.2-0.1 0.4v0.9H16.3Z"/>
  <path fill="#808080" d="M18.1 25.8l0 0.2c0 0-0.1 0-0.1 0 -0.1 0-0.1 0-0.1 0 0 0-0.1-0.1-0.1-0.1 0-0.1 0-0.2 0-0.3v-0.9h-0.1v-0.2h0.1v-0.4l0.2-0.2v0.6h0.2v0.2h-0.2v0.9c0 0.1 0 0.1 0 0.2 0 0 0 0 0 0.1 0 0 0 0 0.1 0C18 25.8 18 25.8 18.1 25.8Z"/>
  <path fill="#808080" d="M18.2 26v-2.2h0.2v0.8c0.1-0.1 0.2-0.2 0.3-0.2 0.1 0 0.1 0 0.2 0.1 0 0.1 0.1 0.1 0.1 0.2 0 0.1 0 0.2 0 0.4v1h-0.2v-1c0-0.1 0-0.2 0-0.3 0-0.1-0.1-0.1-0.1-0.1 0 0-0.1 0-0.1 0.1 0 0-0.1 0.1-0.1 0.2 0 0.1 0 0.2 0 0.3v0.9H18.2Z"/>
  <path fill="#808080" d="M19.2 24.1v-0.3h0.2v0.3H19.2ZM19.2 26v-1.6h0.2v1.6H19.2Z"/>
  <path fill="#808080" d="M19.5 25.6l0.2 0c0 0.1 0 0.2 0.1 0.2 0 0.1 0.1 0.1 0.2 0.1 0.1 0 0.1 0 0.2-0.1 0 0 0.1-0.1 0.1-0.2 0-0.1 0-0.1 0-0.1 0 0-0.1-0.1-0.2-0.1 -0.1-0.1-0.2-0.1-0.2-0.1 0 0-0.1-0.1-0.1-0.2 0-0.1 0-0.1 0-0.2 0-0.1 0-0.1 0-0.2 0-0.1 0-0.1 0.1-0.2 0 0 0.1-0.1 0.1-0.1 0 0 0.1 0 0.1 0 0.1 0 0.1 0 0.2 0.1 0.1 0 0.1 0.1 0.1 0.1 0 0.1 0 0.1 0.1 0.2l-0.2 0c0-0.1 0-0.1-0.1-0.2 0 0-0.1-0.1-0.1-0.1 -0.1 0-0.1 0-0.2 0.1 0 0 0 0.1 0 0.1 0 0 0 0.1 0 0.1 0 0 0 0.1 0.1 0.1 0 0 0.1 0 0.1 0.1 0.1 0.1 0.2 0.1 0.2 0.1 0 0 0.1 0.1 0.1 0.1 0 0.1 0 0.1 0 0.2 0 0.1 0 0.2 0 0.3 0 0.1-0.1 0.1-0.1 0.2 -0.1 0-0.1 0.1-0.2 0.1 -0.1 0-0.2 0-0.3-0.1C19.6 25.9 19.5 25.7 19.5 25.6Z"/>
  <path fill="#808080" d="M20.9 24.1v-0.3h0.2v0.3H20.9ZM20.9 26v-1.6h0.2v1.6H20.9Z"/>
  <path fill="#808080" d="M21.3 26v-1.6h0.1v0.2c0-0.1 0.1-0.1 0.1-0.2 0 0 0.1-0.1 0.2-0.1 0.1 0 0.1 0 0.2 0.1 0 0.1 0.1 0.1 0.1 0.2 0.1-0.2 0.2-0.3 0.3-0.3 0.1 0 0.2 0 0.2 0.1 0 0.1 0.1 0.2 0.1 0.4v1.1h-0.2v-1c0-0.1 0-0.2 0-0.2 0 0 0-0.1-0.1-0.1 0 0-0.1 0-0.1 0 -0.1 0-0.1 0-0.2 0.1 0 0.1-0.1 0.2-0.1 0.4v0.9h-0.2v-1c0-0.1 0-0.2 0-0.3 0-0.1-0.1-0.1-0.1-0.1 0 0-0.1 0-0.1 0.1 0 0-0.1 0.1-0.1 0.2 0 0.1 0 0.2 0 0.3v0.8H21.3Z"/>
  <path fill="#808080" d="M23.4 25.8c-0.1 0.1-0.1 0.1-0.2 0.2 -0.1 0-0.1 0.1-0.2 0.1 -0.1 0-0.2 0-0.2-0.1 -0.1-0.1-0.1-0.2-0.1-0.3 0-0.1 0-0.2 0-0.2 0-0.1 0-0.1 0.1-0.2 0 0 0.1-0.1 0.1-0.1 0 0 0.1 0 0.1 0 0.1 0 0.2-0.1 0.3-0.1 0 0 0-0.1 0-0.1 0-0.1 0-0.2 0-0.2 0-0.1-0.1-0.1-0.2-0.1 -0.1 0-0.1 0-0.2 0.1 0 0-0.1 0.1-0.1 0.2l-0.1 0c0-0.1 0-0.2 0.1-0.3 0-0.1 0.1-0.1 0.1-0.2 0.1 0 0.1-0.1 0.2-0.1 0.1 0 0.1 0 0.2 0 0 0 0.1 0.1 0.1 0.1 0 0 0 0.1 0 0.2 0 0 0 0.1 0 0.3v0.4c0 0.3 0 0.4 0 0.5 0 0.1 0 0.1 0 0.2h-0.2C23.4 26 23.4 25.9 23.4 25.8ZM23.4 25.2c-0.1 0-0.1 0.1-0.3 0.1 -0.1 0-0.1 0-0.1 0.1 0 0 0 0.1-0.1 0.1 0 0 0 0.1 0 0.1 0 0.1 0 0.1 0 0.2 0 0 0.1 0.1 0.1 0.1 0.1 0 0.1 0 0.2-0.1 0 0 0.1-0.1 0.1-0.2 0-0.1 0-0.1 0-0.3V25.2Z"/>
  <path fill="#808080" d="M23.7 26.2l0.1 0c0 0.1 0 0.1 0.1 0.2 0 0.1 0.1 0.1 0.2 0.1 0.1 0 0.1 0 0.2-0.1 0 0 0.1-0.1 0.1-0.2 0-0.1 0-0.2 0-0.3 -0.1 0.1-0.2 0.2-0.3 0.2 -0.1 0-0.2-0.1-0.3-0.2s-0.1-0.3-0.1-0.6c0-0.2 0-0.3 0-0.4 0-0.1 0.1-0.2 0.1-0.3 0.1-0.1 0.1-0.1 0.2-0.1 0.1 0 0.2 0.1 0.3 0.2v-0.2h0.1v1.4c0 0.2 0 0.4 0 0.5 0 0.1-0.1 0.2-0.1 0.2 -0.1 0.1-0.1 0.1-0.2 0.1 -0.1 0-0.2 0-0.3-0.1C23.8 26.5 23.7 26.3 23.7 26.2ZM23.9 25.2c0 0.2 0 0.4 0.1 0.5 0 0.1 0.1 0.1 0.2 0.1 0.1 0 0.1 0 0.2-0.1 0-0.1 0.1-0.2 0.1-0.5 0-0.2 0-0.3-0.1-0.4 -0.1-0.1-0.1-0.1-0.2-0.1 -0.1 0-0.1 0.1-0.2 0.1C23.9 24.9 23.9 25 23.9 25.2Z"/>
  <path fill="#808080" d="M25.4 25.5l0.2 0c0 0.2-0.1 0.3-0.1 0.4 -0.1 0.1-0.2 0.1-0.3 0.1 -0.1 0-0.2-0.1-0.3-0.2 -0.1-0.1-0.1-0.3-0.1-0.6 0-0.3 0-0.5 0.1-0.6 0.1-0.1 0.2-0.2 0.3-0.2 0.1 0 0.2 0.1 0.3 0.2 0.1 0.1 0.1 0.4 0.1 0.6 0 0 0 0 0 0.1h-0.7c0 0.2 0 0.3 0.1 0.4 0.1 0.1 0.1 0.1 0.2 0.1 0.1 0 0.1 0 0.1-0.1C25.3 25.7 25.3 25.6 25.4 25.5ZM24.9 25.1h0.5c0-0.1 0-0.2-0.1-0.3 0-0.1-0.1-0.2-0.2-0.2 -0.1 0-0.1 0-0.2 0.1C24.9 24.8 24.9 24.9 24.9 25.1Z"/>
  <path fill="#808080" d="M26.5 25.8l0 0.2c0 0-0.1 0-0.1 0 -0.1 0-0.1 0-0.1 0 0 0-0.1-0.1-0.1-0.1 0-0.1 0-0.2 0-0.3v-0.9h-0.1v-0.2h0.1v-0.4l0.2-0.2v0.6h0.2v0.2h-0.2v0.9c0 0.1 0 0.1 0 0.2 0 0 0 0 0 0.1 0 0 0 0 0.1 0C26.5 25.8 26.5 25.8 26.5 25.8Z"/>
  <path fill="#808080" d="M26.6 25.2c0-0.3 0-0.5 0.1-0.7 0.1-0.1 0.2-0.2 0.3-0.2 0.1 0 0.2 0.1 0.3 0.2 0.1 0.1 0.1 0.3 0.1 0.6 0 0.2 0 0.4-0.1 0.5 0 0.1-0.1 0.2-0.2 0.3 -0.1 0.1-0.1 0.1-0.2 0.1 -0.1 0-0.2-0.1-0.3-0.2C26.7 25.7 26.6 25.5 26.6 25.2ZM26.8 25.2c0 0.2 0 0.4 0.1 0.5 0.1 0.1 0.1 0.2 0.2 0.2 0.1 0 0.1-0.1 0.2-0.2 0.1-0.1 0.1-0.3 0.1-0.5 0-0.2 0-0.3-0.1-0.4 -0.1-0.1-0.1-0.2-0.2-0.2 -0.1 0-0.1 0.1-0.2 0.2C26.8 24.9 26.8 25 26.8 25.2Z"/>
  <path fill="#808080" d="M5.9 29v-1.4h0.1v0.2c0-0.1 0.1-0.1 0.1-0.2 0 0 0.1-0.1 0.1-0.1 0.1 0 0.1 0 0.1 0.1 0 0 0.1 0.1 0.1 0.2 0.1-0.2 0.1-0.2 0.2-0.2 0.1 0 0.1 0 0.2 0.1 0 0.1 0.1 0.2 0.1 0.4V29H6.9v-0.9c0-0.1 0-0.2 0-0.2C6.8 27.9 6.8 27.8 6.8 27.8c0 0-0.1 0-0.1 0 -0.1 0-0.1 0-0.1 0.1 0 0.1-0.1 0.2-0.1 0.3V29H6.4v-0.9c0-0.1 0-0.2 0-0.2 0-0.1-0.1-0.1-0.1-0.1 0 0-0.1 0-0.1 0.1 0 0-0.1 0.1-0.1 0.2 0 0.1 0 0.2 0 0.3V29H5.9Z"/>
  <path fill="#808080" d="M7.7 28.8c-0.1 0.1-0.1 0.1-0.1 0.2 0 0-0.1 0-0.1 0 -0.1 0-0.2 0-0.2-0.1 0-0.1-0.1-0.2-0.1-0.3 0-0.1 0-0.1 0-0.2 0-0.1 0-0.1 0.1-0.1 0 0 0.1-0.1 0.1-0.1 0 0 0.1 0 0.1 0 0.1 0 0.2 0 0.2-0.1 0 0 0-0.1 0-0.1 0-0.1 0-0.2 0-0.2 0-0.1-0.1-0.1-0.2-0.1 -0.1 0-0.1 0-0.1 0.1 0 0-0.1 0.1-0.1 0.2l-0.1 0c0-0.1 0-0.2 0.1-0.2 0-0.1 0.1-0.1 0.1-0.1 0.1 0 0.1 0 0.2 0 0.1 0 0.1 0 0.2 0 0 0 0.1 0.1 0.1 0.1 0 0 0 0.1 0 0.2 0 0 0 0.1 0 0.2v0.3c0 0.2 0 0.4 0 0.4C7.9 28.9 7.9 28.9 7.9 29H7.7C7.7 29 7.7 28.9 7.7 28.8ZM7.7 28.3c0 0-0.1 0.1-0.2 0.1 -0.1 0-0.1 0-0.1 0 0 0 0 0-0.1 0.1 0 0 0 0.1 0 0.1 0 0.1 0 0.1 0 0.2 0 0 0.1 0.1 0.1 0.1 0.1 0 0.1 0 0.1-0.1 0 0 0.1-0.1 0.1-0.2 0-0.1 0-0.1 0-0.2V28.3Z"/>
  <path fill="#808080" d="M8.1 29v-1.9h0.1v1.1l0.3-0.6H8.7l-0.3 0.5L8.7 29H8.5l-0.3-0.7 -0.1 0.2V29H8.1Z"/>
  <path fill="#808080" d="M9.4 28.5l0.1 0c0 0.1-0.1 0.3-0.1 0.3 -0.1 0.1-0.1 0.1-0.2 0.1 -0.1 0-0.2-0.1-0.3-0.2 -0.1-0.1-0.1-0.3-0.1-0.5 0-0.2 0-0.4 0.1-0.5 0.1-0.1 0.2-0.2 0.3-0.2 0.1 0 0.2 0.1 0.3 0.2 0.1 0.1 0.1 0.3 0.1 0.5 0 0 0 0 0 0.1H8.9c0 0.2 0 0.3 0.1 0.4 0 0.1 0.1 0.1 0.2 0.1 0 0 0.1 0 0.1-0.1C9.3 28.7 9.3 28.6 9.4 28.5ZM8.9 28.2h0.4c0-0.1 0-0.2 0-0.3 0-0.1-0.1-0.1-0.2-0.1 -0.1 0-0.1 0-0.2 0.1C8.9 27.9 8.9 28 8.9 28.2Z"/>
  <path fill="#808080" d="M10.1 27.3v-0.3h0.1v0.3H10.1ZM10.1 29v-1.4h0.1V29H10.1Z"/>
  <path fill="#808080" d="M10.7 28.8l0 0.2c0 0-0.1 0-0.1 0 0 0-0.1 0-0.1 0 0 0 0-0.1-0.1-0.1 0 0 0-0.1 0-0.3v-0.8h-0.1v-0.2h0.1v-0.3l0.1-0.1v0.5h0.1v0.2H10.6v0.8c0 0.1 0 0.1 0 0.1 0 0 0 0 0 0 0 0 0 0 0 0C10.7 28.8 10.7 28.8 10.7 28.8Z"/>
  <path fill="#808080" d="M11.3 29v-1.9h0.1V29H11.3Z"/>
  <path fill="#808080" d="M11.6 28.3c0-0.3 0-0.5 0.1-0.6 0.1-0.1 0.2-0.2 0.3-0.2 0.1 0 0.2 0.1 0.3 0.2 0.1 0.1 0.1 0.3 0.1 0.5 0 0.2 0 0.3 0 0.4 0 0.1-0.1 0.2-0.1 0.2 -0.1 0.1-0.1 0.1-0.2 0.1 -0.1 0-0.2-0.1-0.3-0.2C11.6 28.7 11.6 28.5 11.6 28.3ZM11.7 28.3c0 0.2 0 0.3 0.1 0.4 0 0.1 0.1 0.1 0.2 0.1 0.1 0 0.1 0 0.2-0.1 0-0.1 0.1-0.2 0.1-0.4 0-0.2 0-0.3-0.1-0.4 0-0.1-0.1-0.1-0.2-0.1 -0.1 0-0.1 0-0.2 0.1C11.7 28 11.7 28.1 11.7 28.3Z"/>
  <path fill="#808080" d="M12.4 28.4c0-0.3 0-0.5 0.1-0.6 0.1-0.1 0.2-0.2 0.3-0.2 0.1 0 0.2 0.1 0.3 0.2 0.1 0.1 0.1 0.3 0.1 0.6 0 0.2 0 0.3 0 0.5 0 0.1-0.1 0.2-0.1 0.3 -0.1 0.1-0.1 0.1-0.2 0.1 -0.1 0-0.2-0.1-0.3-0.2C12.5 28.8 12.4 28.7 12.4 28.4ZM12.6 28.4c0 0.2 0 0.3 0.1 0.4 0 0.1 0.1 0.1 0.2 0.1 0.1 0 0.1-0.1 0.2-0.1 0.1-0.1 0.1-0.2 0.1-0.4 0-0.2 0-0.3-0.1-0.4 0-0.1-0.1-0.1-0.2-0.1 -0.1 0-0.1 0-0.2 0.1C12.6 28.1 12.6 28.2 12.6 28.4Z"/>
  <path fill="#808080" d="M13.4 29.2v-2.1h0.1v1.2l0.3-0.6h0.2l-0.3 0.6 0.4 1h-0.2l-0.3-0.8 -0.1 0.2v0.6H13.4Z"/>
  <path fill="#808080" d="M14.7 29.2v-2.1h0.1v2.1H14.7Z"/>
  <path fill="#808080" d="M15.1 27.4v-0.3h0.1v0.3H15.1ZM15.1 29.2V27.6h0.1v1.5H15.1Z"/>
  <path fill="#808080" d="M15.4 29.2v-2.1h0.1v1.2l0.3-0.6h0.2l-0.3 0.6 0.4 1h-0.2l-0.3-0.8 -0.1 0.2v0.6H15.4Z"/>
  <path fill="#808080" d="M16.9 28.7l0.2 0c0 0.2-0.1 0.3-0.1 0.4 -0.1 0.1-0.1 0.1-0.2 0.1 -0.1 0-0.2-0.1-0.3-0.2 -0.1-0.1-0.1-0.3-0.1-0.6 0-0.3 0-0.5 0.1-0.6 0.1-0.1 0.2-0.2 0.3-0.2 0.1 0 0.2 0.1 0.3 0.2 0.1 0.1 0.1 0.3 0.1 0.6 0 0 0 0 0 0.1H16.4c0 0.2 0 0.3 0.1 0.4 0 0.1 0.1 0.1 0.2 0.1 0.1 0 0.1 0 0.1-0.1C16.8 28.9 16.8 28.8 16.9 28.7ZM16.4 28.3h0.5c0-0.1 0-0.2-0.1-0.3 0-0.1-0.1-0.1-0.2-0.1 -0.1 0-0.1 0-0.2 0.1C16.4 28 16.4 28.1 16.4 28.3Z"/>
  <path fill="#808080" d="M18.2 29c-0.1 0.1-0.1 0.1-0.2 0.2 0 0-0.1 0-0.2 0 -0.1 0-0.2 0-0.2-0.1 0-0.1-0.1-0.2-0.1-0.3 0-0.1 0-0.1 0-0.2 0-0.1 0-0.1 0.1-0.1s0.1-0.1 0.1-0.1c0 0 0.1 0 0.1 0 0.1 0 0.2-0.1 0.3-0.1 0 0 0-0.1 0-0.1 0-0.1 0-0.2 0-0.2 0-0.1-0.1-0.1-0.2-0.1 -0.1 0-0.1 0-0.1 0.1 0 0-0.1 0.1-0.1 0.2l-0.1 0c0-0.1 0-0.2 0.1-0.3 0-0.1 0.1-0.1 0.1-0.2 0.1 0 0.1-0.1 0.2-0.1 0.1 0 0.1 0 0.2 0 0 0 0.1 0.1 0.1 0.1 0 0 0 0.1 0 0.2 0 0 0 0.1 0 0.2v0.3c0 0.2 0 0.4 0 0.5 0 0.1 0 0.1 0 0.2h-0.2C18.2 29.1 18.2 29 18.2 29ZM18.2 28.4c-0.1 0-0.1 0.1-0.2 0.1 -0.1 0-0.1 0-0.1 0.1s0 0-0.1 0.1c0 0 0 0.1 0 0.1 0 0.1 0 0.1 0 0.2 0 0 0.1 0.1 0.1 0.1 0.1 0 0.1 0 0.1-0.1 0 0 0.1-0.1 0.1-0.2 0-0.1 0-0.1 0-0.3V28.4Z"/>
  <path fill="#808080" d="M19.3 28.9l0 0.2c0 0-0.1 0-0.1 0 -0.1 0-0.1 0-0.1 0 0 0 0-0.1-0.1-0.1 0 0 0-0.1 0-0.3v-0.9h-0.1V27.6h0.1v-0.4l0.1-0.2v0.5h0.1v0.2h-0.1v0.9c0 0.1 0 0.1 0 0.1s0 0 0 0c0 0 0 0 0 0C19.3 28.9 19.3 28.9 19.3 28.9Z"/>
  <path fill="#808080" d="M19.5 29.2V27.6h0.1v0.2c0-0.1 0.1-0.2 0.1-0.2 0 0 0.1-0.1 0.1-0.1 0 0 0.1 0 0.2 0.1l0 0.2c0 0-0.1-0.1-0.1-0.1 0 0-0.1 0-0.1 0 0 0 0 0.1-0.1 0.1 0 0.1 0 0.2 0 0.3v0.8H19.5Z"/>
  <path fill="#808080" d="M20.6 28.7l0.2 0c0 0.2-0.1 0.3-0.1 0.4 -0.1 0.1-0.1 0.1-0.2 0.1 -0.1 0-0.2-0.1-0.3-0.2 -0.1-0.1-0.1-0.3-0.1-0.6 0-0.3 0-0.5 0.1-0.6 0.1-0.1 0.2-0.2 0.3-0.2 0.1 0 0.2 0.1 0.3 0.2 0.1 0.1 0.1 0.3 0.1 0.6 0 0 0 0 0 0.1h-0.6c0 0.2 0 0.3 0.1 0.4 0 0.1 0.1 0.1 0.2 0.1 0.1 0 0.1 0 0.1-0.1C20.6 28.9 20.6 28.8 20.6 28.7ZM20.2 28.3h0.5c0-0.1 0-0.2-0.1-0.3 0-0.1-0.1-0.1-0.2-0.1 -0.1 0-0.1 0-0.2 0.1C20.2 28 20.2 28.1 20.2 28.3Z"/>
  <path fill="#808080" d="M21.6 28.7l0.2 0c0 0.2-0.1 0.3-0.1 0.4 -0.1 0.1-0.1 0.1-0.2 0.1 -0.1 0-0.2-0.1-0.3-0.2 -0.1-0.1-0.1-0.3-0.1-0.6 0-0.3 0-0.5 0.1-0.6 0.1-0.1 0.2-0.2 0.3-0.2 0.1 0 0.2 0.1 0.3 0.2 0.1 0.1 0.1 0.3 0.1 0.6 0 0 0 0 0 0.1h-0.6c0 0.2 0 0.3 0.1 0.4 0 0.1 0.1 0.1 0.2 0.1 0.1 0 0.1 0 0.1-0.1C21.5 28.9 21.5 28.8 21.6 28.7ZM21.1 28.3h0.5c0-0.1 0-0.2-0.1-0.3 0-0.1-0.1-0.1-0.2-0.1 -0.1 0-0.1 0-0.2 0.1C21.1 28 21.1 28.1 21.1 28.3Z"/>
  <path fill="#808080" d="M22.9 29.2v-0.2c-0.1 0.1-0.1 0.2-0.2 0.2 -0.1 0-0.1 0-0.2-0.1 -0.1-0.1-0.1-0.2-0.1-0.3 0-0.1 0-0.3 0-0.4 0-0.1 0-0.3 0-0.4 0-0.1 0.1-0.2 0.1-0.3 0.1-0.1 0.1-0.1 0.2-0.1 0.1 0 0.1 0 0.1 0.1 0 0 0.1 0.1 0.1 0.1v-0.7h0.1v2.1H22.9ZM22.4 28.4c0 0.2 0 0.3 0.1 0.4 0 0.1 0.1 0.1 0.2 0.1 0.1 0 0.1 0 0.2-0.1 0-0.1 0.1-0.2 0.1-0.4 0-0.2 0-0.4-0.1-0.5 0-0.1-0.1-0.1-0.2-0.1 -0.1 0-0.1 0-0.2 0.1C22.5 28.1 22.4 28.2 22.4 28.4Z"/>
  <path fill="#808080" d="M23.2 28.4c0-0.3 0-0.5 0.1-0.6 0.1-0.1 0.2-0.2 0.3-0.2 0.1 0 0.2 0.1 0.3 0.2 0.1 0.1 0.1 0.3 0.1 0.6 0 0.2 0 0.3 0 0.5 0 0.1-0.1 0.2-0.1 0.3 -0.1 0.1-0.1 0.1-0.2 0.1 -0.1 0-0.2-0.1-0.3-0.2C23.2 28.8 23.2 28.7 23.2 28.4ZM23.4 28.4c0 0.2 0 0.3 0.1 0.4 0 0.1 0.1 0.1 0.2 0.1 0.1 0 0.1-0.1 0.2-0.1 0-0.1 0.1-0.2 0.1-0.4 0-0.2 0-0.3-0.1-0.4 0-0.1-0.1-0.1-0.2-0.1 -0.1 0-0.1 0-0.2 0.1C23.4 28.1 23.4 28.2 23.4 28.4Z"/>
  <path fill="#808080" d="M24.7 28.6l0.1 0c0 0.2-0.1 0.3-0.1 0.4 -0.1 0.1-0.1 0.1-0.2 0.1 -0.1 0-0.2-0.1-0.3-0.2 -0.1-0.1-0.1-0.3-0.1-0.6 0-0.2 0-0.3 0-0.4 0-0.1 0.1-0.2 0.1-0.3 0.1-0.1 0.1-0.1 0.2-0.1 0.1 0 0.2 0 0.2 0.1 0.1 0.1 0.1 0.2 0.1 0.4l-0.1 0c0-0.1 0-0.2-0.1-0.2 0 0-0.1-0.1-0.1-0.1 -0.1 0-0.1 0-0.2 0.1s-0.1 0.2-0.1 0.4c0 0.2 0 0.4 0.1 0.4 0 0.1 0.1 0.1 0.2 0.1 0.1 0 0.1 0 0.1-0.1C24.7 28.8 24.7 28.7 24.7 28.6Z"/>
  <path fill="#808080" d="M25.6 29.2v-0.2c-0.1 0.2-0.2 0.3-0.3 0.3 -0.1 0-0.1 0-0.1-0.1 0 0-0.1-0.1-0.1-0.1 0-0.1 0-0.1 0-0.2 0 0 0-0.1 0-0.2V27.6h0.1v0.8c0 0.1 0 0.2 0 0.3 0 0.1 0 0.1 0.1 0.2 0 0 0.1 0.1 0.1 0.1 0 0 0.1 0 0.1-0.1 0 0 0.1-0.1 0.1-0.2 0-0.1 0-0.2 0-0.3V27.6h0.1v1.5H25.6Z"/>
  <path fill="#808080" d="M25.9 29.2V27.6h0.1v0.2c0-0.1 0.1-0.1 0.1-0.2 0 0 0.1-0.1 0.2-0.1 0.1 0 0.1 0 0.2 0.1 0 0 0.1 0.1 0.1 0.2 0.1-0.2 0.2-0.3 0.3-0.3 0.1 0 0.2 0 0.2 0.1 0 0.1 0.1 0.2 0.1 0.4v1h-0.1v-1c0-0.1 0-0.2 0-0.2 0 0 0-0.1-0.1-0.1 0 0-0.1 0-0.1 0 -0.1 0-0.1 0-0.1 0.1 0 0.1-0.1 0.2-0.1 0.3v0.9h-0.1v-1c0-0.1 0-0.2 0-0.3 0-0.1-0.1-0.1-0.1-0.1 0 0-0.1 0-0.1 0.1 0 0-0.1 0.1-0.1 0.2 0 0.1 0 0.2 0 0.3v0.8H25.9Z"/>
  <path fill="#808080" d="M27.9 29.2v-0.2c-0.1 0.2-0.2 0.3-0.3 0.3 -0.1 0-0.1 0-0.1-0.1 0 0-0.1-0.1-0.1-0.1 0-0.1 0-0.1 0-0.2 0 0 0-0.1 0-0.2V27.6h0.1v0.8c0 0.1 0 0.2 0 0.3 0 0.1 0 0.1 0.1 0.2 0 0 0.1 0.1 0.1 0.1 0 0 0.1 0 0.1-0.1 0 0 0.1-0.1 0.1-0.2s0-0.2 0-0.3V27.6h0.1v1.5H27.9Z"/>
  <path fill="#808080" d="M28.2 29.2V27.6h0.1v0.2c0.1-0.2 0.2-0.2 0.3-0.2 0.1 0 0.1 0 0.1 0 0 0 0.1 0.1 0.1 0.1 0 0.1 0 0.1 0 0.2 0 0.1 0 0.1 0 0.3v0.9h-0.1v-0.9c0-0.1 0-0.2 0-0.2 0-0.1 0-0.1-0.1-0.1 0 0-0.1 0-0.1 0 -0.1 0-0.1 0-0.2 0.1 0 0.1-0.1 0.2-0.1 0.4v0.8H28.2Z"/>
  <path fill="#808080" d="M29.7 28.7l0.1 0c0 0.2-0.1 0.3-0.1 0.4 -0.1 0.1-0.1 0.1-0.2 0.1 -0.1 0-0.2-0.1-0.3-0.2 -0.1-0.1-0.1-0.3-0.1-0.6 0-0.3 0-0.5 0.1-0.6 0.1-0.1 0.2-0.2 0.3-0.2 0.1 0 0.2 0.1 0.3 0.2 0.1 0.1 0.1 0.3 0.1 0.6 0 0 0 0 0 0.1h-0.6c0 0.2 0 0.3 0.1 0.4 0 0.1 0.1 0.1 0.2 0.1 0.1 0 0.1 0 0.1-0.1C29.7 28.9 29.7 28.8 29.7 28.7ZM29.3 28.3h0.5c0-0.1 0-0.2-0.1-0.3 0-0.1-0.1-0.1-0.2-0.1 -0.1 0-0.1 0-0.2 0.1C29.3 28 29.3 28.1 29.3 28.3Z"/>
  <path fill="#808080" d="M30.4 28.9l0 0.2c0 0-0.1 0-0.1 0 0 0-0.1 0-0.1 0 0 0 0-0.1-0.1-0.1 0 0 0-0.1 0-0.3v-0.9h-0.1V27.6h0.1v-0.4l0.1-0.2v0.5h0.1v0.2h-0.1v0.9c0 0.1 0 0.1 0 0.1 0 0 0 0 0 0 0 0 0 0 0 0C30.4 28.9 30.4 28.9 30.4 28.9Z"/>
  <path fill="#808080" d="M6.2 32l0 0.2c0 0-0.1 0-0.1 0 0 0-0.1 0-0.1 0 0 0 0-0.1-0.1-0.1 0 0 0-0.1 0-0.3v-0.8H5.8v-0.2H5.9v-0.3l0.1-0.1v0.5H6.2v0.2H6.1v0.8c0 0.1 0 0.1 0 0.1C6.1 32 6.1 32 6.1 32c0 0 0 0 0 0C6.2 32 6.2 32 6.2 32Z"/>
  <path fill="#808080" d="M6.3 32.2V30.3h0.1v0.7c0.1-0.1 0.1-0.2 0.2-0.2 0.1 0 0.1 0 0.2 0.1 0 0 0.1 0.1 0.1 0.2 0 0.1 0 0.2 0 0.3v0.9H6.9v-0.9c0-0.1 0-0.2 0-0.3 0-0.1-0.1-0.1-0.1-0.1 0 0-0.1 0-0.1 0.1C6.5 31.1 6.5 31.2 6.5 31.2c0 0.1 0 0.1 0 0.3v0.8H6.3Z"/>
  <path fill="#808080" d="M7.7 32.1c0 0.1-0.1 0.1-0.1 0.2 0 0-0.1 0-0.1 0 -0.1 0-0.2 0-0.2-0.1 0-0.1-0.1-0.2-0.1-0.3 0-0.1 0-0.1 0-0.2 0-0.1 0-0.1 0.1-0.1 0 0 0.1-0.1 0.1-0.1 0 0 0.1 0 0.1 0 0.1 0 0.2 0 0.2-0.1 0 0 0-0.1 0-0.1 0-0.1 0-0.2 0-0.2 0-0.1-0.1-0.1-0.2-0.1 -0.1 0-0.1 0-0.1 0.1 0 0-0.1 0.1-0.1 0.2l-0.1 0c0-0.1 0-0.2 0.1-0.2 0-0.1 0.1-0.1 0.1-0.1 0.1 0 0.1 0 0.2 0 0.1 0 0.1 0 0.2 0 0 0 0.1 0.1 0.1 0.1 0 0 0 0.1 0 0.2 0 0 0 0.1 0 0.2v0.3c0 0.2 0 0.4 0 0.4 0 0.1 0 0.1 0 0.2h-0.1C7.7 32.2 7.7 32.1 7.7 32.1ZM7.7 31.5c0 0-0.1 0.1-0.2 0.1 -0.1 0-0.1 0-0.1 0 0 0 0 0-0.1 0.1C7.3 31.8 7.3 31.8 7.3 31.9c0 0.1 0 0.1 0 0.2 0 0 0.1 0.1 0.1 0.1 0.1 0 0.1 0 0.1-0.1 0 0 0.1-0.1 0.1-0.2 0-0.1 0-0.1 0-0.2V31.5Z"/>
  <path fill="#808080" d="M8.3 32l0 0.2c0 0-0.1 0-0.1 0 0 0-0.1 0-0.1 0 0 0 0-0.1-0.1-0.1 0 0 0-0.1 0-0.3v-0.8H8v-0.2h0.1v-0.3l0.1-0.1v0.5h0.1v0.2H8.2v0.8c0 0.1 0 0.1 0 0.1C8.2 32 8.2 32 8.2 32c0 0 0 0 0 0C8.3 32 8.3 32 8.3 32Z"/>
  <path fill="#808080" d="M8.9 32.2V30.3h0.1v0.7c0.1-0.1 0.1-0.2 0.2-0.2 0.1 0 0.1 0 0.2 0.1 0 0 0.1 0.1 0.1 0.2 0 0.1 0 0.2 0 0.3v0.9H9.4v-0.9c0-0.1 0-0.2 0-0.3 0-0.1-0.1-0.1-0.1-0.1 0 0-0.1 0-0.1 0.1 0 0-0.1 0.1-0.1 0.1 0 0.1 0 0.1 0 0.3v0.8H8.9Z"/>
  <path fill="#808080" d="M10.3 32.1c0 0.1-0.1 0.1-0.1 0.2 0 0-0.1 0-0.1 0 -0.1 0-0.2 0-0.2-0.1 0-0.1-0.1-0.2-0.1-0.3 0-0.1 0-0.1 0-0.2 0-0.1 0-0.1 0.1-0.1 0 0 0.1-0.1 0.1-0.1 0 0 0.1 0 0.1 0 0.1 0 0.2 0 0.2-0.1 0 0 0-0.1 0-0.1 0-0.1 0-0.2 0-0.2 0-0.1-0.1-0.1-0.2-0.1 -0.1 0-0.1 0-0.1 0.1 0 0-0.1 0.1-0.1 0.2l-0.1 0c0-0.1 0-0.2 0.1-0.2 0-0.1 0.1-0.1 0.1-0.1 0.1 0 0.1 0 0.2 0 0.1 0 0.1 0 0.2 0 0 0 0.1 0.1 0.1 0.1 0 0 0 0.1 0 0.2 0 0 0 0.1 0 0.2v0.3c0 0.2 0 0.4 0 0.4 0 0.1 0 0.1 0 0.2h-0.1C10.3 32.2 10.3 32.1 10.3 32.1ZM10.3 31.5c0 0-0.1 0.1-0.2 0.1 -0.1 0-0.1 0-0.1 0 0 0 0 0-0.1 0.1 0 0 0 0.1 0 0.1 0 0.1 0 0.1 0 0.2 0 0 0.1 0.1 0.1 0.1 0.1 0 0.1 0 0.1-0.1 0 0 0.1-0.1 0.1-0.2 0-0.1 0-0.1 0-0.2V31.5Z"/>
  <path fill="#808080" d="M10.6 31.8l0.1 0c0 0.1 0 0.2 0.1 0.2 0 0 0.1 0.1 0.1 0.1 0.1 0 0.1 0 0.1-0.1 0 0 0-0.1 0-0.2 0-0.1 0-0.1 0-0.1 0 0-0.1 0-0.1-0.1 -0.1 0-0.2-0.1-0.2-0.1 0 0-0.1-0.1-0.1-0.1 0-0.1 0-0.1 0-0.2 0-0.1 0-0.1 0-0.2 0-0.1 0-0.1 0.1-0.1 0 0 0 0 0.1-0.1 0 0 0.1 0 0.1 0 0.1 0 0.1 0 0.2 0 0 0 0.1 0.1 0.1 0.1 0 0.1 0 0.1 0 0.2l-0.1 0c0-0.1 0-0.1-0.1-0.2 0 0-0.1-0.1-0.1-0.1 -0.1 0-0.1 0-0.1 0.1 0 0 0 0.1 0 0.1 0 0 0 0.1 0 0.1 0 0 0 0 0.1 0.1 0 0 0.1 0 0.1 0.1 0.1 0 0.2 0.1 0.2 0.1 0 0 0.1 0.1 0.1 0.1 0 0.1 0 0.1 0 0.2s0 0.2 0 0.2c0 0.1-0.1 0.1-0.1 0.2 0 0-0.1 0.1-0.2 0.1 -0.1 0-0.2 0-0.2-0.1C10.6 32.1 10.6 32 10.6 31.8Z"/>
  <path fill="#808080" d="M11.9 32.2h-0.1V30.3h0.1v0.7c0.1-0.1 0.1-0.2 0.2-0.2 0.1 0 0.1 0 0.1 0.1 0 0 0.1 0.1 0.1 0.1 0 0.1 0.1 0.1 0.1 0.2 0 0.1 0 0.2 0 0.3 0 0.2 0 0.4-0.1 0.6 -0.1 0.1-0.1 0.2-0.2 0.2s-0.2-0.1-0.2-0.2V32.2ZM11.9 31.5c0 0.2 0 0.3 0 0.4 0 0.1 0.1 0.2 0.2 0.2 0.1 0 0.1 0 0.2-0.1 0-0.1 0.1-0.2 0.1-0.4 0-0.2 0-0.3-0.1-0.4 0-0.1-0.1-0.1-0.1-0.1 -0.1 0-0.1 0-0.2 0.1C12 31.2 11.9 31.4 11.9 31.5Z"/>
  <path fill="#808080" d="M13.2 31.8l0.1 0c0 0.1-0.1 0.3-0.1 0.3s-0.1 0.1-0.2 0.1c-0.1 0-0.2-0.1-0.3-0.2 -0.1-0.1-0.1-0.3-0.1-0.5 0-0.2 0-0.4 0.1-0.6 0.1-0.1 0.2-0.2 0.3-0.2 0.1 0 0.2 0.1 0.3 0.2 0.1 0.1 0.1 0.3 0.1 0.5 0 0 0 0 0 0.1h-0.6c0 0.2 0 0.3 0.1 0.4 0 0.1 0.1 0.1 0.2 0.1 0 0 0.1 0 0.1-0.1C13.2 32 13.2 31.9 13.2 31.8ZM12.8 31.4h0.4c0-0.1 0-0.2-0.1-0.3 0-0.1-0.1-0.1-0.2-0.1 -0.1 0-0.1 0-0.2 0.1C12.8 31.2 12.8 31.3 12.8 31.4Z"/>
  <path fill="#808080" d="M14.1 31.8l0.1 0c0 0.1-0.1 0.3-0.1 0.3 -0.1 0.1-0.1 0.1-0.2 0.1 -0.1 0-0.2-0.1-0.3-0.2 -0.1-0.1-0.1-0.3-0.1-0.5 0-0.2 0-0.4 0.1-0.6 0.1-0.1 0.2-0.2 0.3-0.2 0.1 0 0.2 0.1 0.3 0.2 0.1 0.1 0.1 0.3 0.1 0.5 0 0 0 0 0 0.1h-0.6c0 0.2 0 0.3 0.1 0.4 0 0.1 0.1 0.1 0.2 0.1 0 0 0.1 0 0.1-0.1C14 32 14 31.9 14.1 31.8ZM13.6 31.4h0.4c0-0.1 0-0.2-0.1-0.3 0-0.1-0.1-0.1-0.2-0.1 -0.1 0-0.1 0-0.2 0.1C13.6 31.2 13.6 31.3 13.6 31.4Z"/>
  <path fill="#808080" d="M14.4 32.2v-1.4h0.1v0.2c0.1-0.1 0.1-0.2 0.3-0.2 0 0 0.1 0 0.1 0 0 0 0.1 0.1 0.1 0.1 0 0.1 0 0.1 0 0.2 0 0 0 0.1 0 0.2v0.9h-0.1v-0.9c0-0.1 0-0.2 0-0.2 0 0 0-0.1-0.1-0.1 0 0-0.1 0-0.1 0 -0.1 0-0.1 0-0.1 0.1 0 0.1-0.1 0.2-0.1 0.4v0.8H14.4Z"/>
  <path fill="#808080" d="M15.6 31.5l0.1 0c0 0.1 0 0.1 0.1 0.2 0 0 0.1 0.1 0.1 0.1 0.1 0 0.1 0 0.1-0.1 0 0 0-0.1 0-0.1 0 0 0-0.1 0-0.1 0 0-0.1 0-0.1-0.1 -0.1 0-0.1-0.1-0.2-0.1 0 0-0.1-0.1-0.1-0.1 0 0 0-0.1 0-0.2 0 0 0-0.1 0-0.1 0 0 0-0.1 0.1-0.1 0 0 0 0 0.1-0.1 0 0 0.1 0 0.1 0 0.1 0 0.1 0 0.1 0 0 0 0.1 0.1 0.1 0.1 0 0 0 0.1 0 0.2l-0.1 0c0-0.1 0-0.1 0-0.1 0 0-0.1 0-0.1 0 -0.1 0-0.1 0-0.1 0 0 0 0 0.1 0 0.1 0 0 0 0 0 0.1 0 0 0 0 0 0.1 0 0 0 0 0.1 0.1 0.1 0 0.1 0.1 0.2 0.1 0 0 0.1 0.1 0.1 0.1s0 0.1 0 0.2c0 0.1 0 0.1 0 0.2 0 0.1-0.1 0.1-0.1 0.1 0 0-0.1 0-0.1 0 -0.1 0-0.1 0-0.2-0.1C15.6 31.8 15.6 31.7 15.6 31.5Z"/>
  <path fill="#808080" d="M16.3 32.2V30.3h0.1v0.7c0.1-0.1 0.1-0.2 0.2-0.2 0.1 0 0.1 0 0.1 0.1 0 0 0.1 0.1 0.1 0.2 0 0.1 0 0.2 0 0.3v0.8h-0.1v-0.8c0-0.1 0-0.2 0-0.2 0-0.1-0.1-0.1-0.1-0.1 0 0-0.1 0-0.1 0.1 0 0-0.1 0.1-0.1 0.1 0 0.1 0 0.1 0 0.2v0.7H16.3Z"/>
  <path fill="#808080" d="M17.4 32.6v-1.6h0.1v0.3c0-0.1 0.1-0.2 0.1-0.2 0 0 0.1-0.1 0.1-0.1 0.1 0 0.1 0 0.2 0.1l-0.1 0.3c0 0-0.1-0.1-0.1-0.1 0 0-0.1 0-0.1 0.1 0 0 0 0.1-0.1 0.2 0 0.1 0 0.2 0 0.3v0.9H17.4Z"/>
  <path fill="#808080" d="M18.6 32.6v-0.2c-0.1 0.2-0.2 0.3-0.3 0.3 -0.1 0-0.1 0-0.2-0.1 0 0-0.1-0.1-0.1-0.1s0-0.1 0-0.2c0-0.1 0-0.1 0-0.3v-1h0.2v0.9c0 0.1 0 0.2 0 0.3 0 0.1 0 0.1 0.1 0.2 0 0 0.1 0.1 0.1 0.1 0 0 0.1 0 0.1-0.1 0 0 0.1-0.1 0.1-0.2 0-0.1 0-0.2 0-0.3v-0.9h0.2v1.6H18.6Z"/>
  <path fill="#808080" d="M19 32.6v-1.6h0.1v0.2c0.1-0.2 0.2-0.3 0.3-0.3 0.1 0 0.1 0 0.2 0.1 0 0 0.1 0.1 0.1 0.1 0 0.1 0 0.1 0.1 0.2 0 0.1 0 0.1 0 0.3v1H19.6v-1c0-0.1 0-0.2 0-0.3 0-0.1 0-0.1-0.1-0.1 0 0-0.1-0.1-0.1-0.1 -0.1 0-0.1 0-0.2 0.1 0 0.1-0.1 0.2-0.1 0.4v0.9H19Z"/>
  <path fill="#808080" d="M20 32.6V30.3h0.2v1.3l0.4-0.7h0.2l-0.4 0.6 0.4 1h-0.2l-0.3-0.8 -0.1 0.2v0.7H20Z"/>
  <path fill="#808080" d="M21.6 32.1l0.2 0c0 0.2-0.1 0.3-0.1 0.4 -0.1 0.1-0.2 0.1-0.3 0.1 -0.1 0-0.2-0.1-0.3-0.2 -0.1-0.1-0.1-0.4-0.1-0.6 0-0.3 0-0.5 0.1-0.6 0.1-0.2 0.2-0.2 0.3-0.2 0.1 0 0.2 0.1 0.3 0.2 0.1 0.1 0.1 0.4 0.1 0.6 0 0 0 0 0 0.1h-0.7c0 0.2 0 0.3 0.1 0.4 0.1 0.1 0.1 0.1 0.2 0.1 0.1 0 0.1 0 0.1-0.1C21.5 32.3 21.5 32.2 21.6 32.1ZM21.1 31.6h0.5c0-0.1 0-0.2-0.1-0.3 -0.1-0.1-0.1-0.2-0.2-0.2 -0.1 0-0.1 0-0.2 0.1C21.1 31.3 21.1 31.5 21.1 31.6Z"/>
  <path fill="#808080" d="M22.5 32.6v-0.2c-0.1 0.2-0.1 0.2-0.3 0.2 -0.1 0-0.1 0-0.2-0.1s-0.1-0.2-0.1-0.3c0-0.1-0.1-0.3-0.1-0.4 0-0.2 0-0.3 0-0.4 0-0.1 0.1-0.2 0.1-0.3 0.1-0.1 0.1-0.1 0.2-0.1 0.1 0 0.1 0 0.1 0.1 0 0 0.1 0.1 0.1 0.2V30.3h0.2v2.3H22.5ZM22 31.8c0 0.2 0 0.4 0.1 0.5 0.1 0.1 0.1 0.2 0.2 0.2 0.1 0 0.1-0.1 0.2-0.2 0-0.1 0.1-0.3 0.1-0.5 0-0.2 0-0.4-0.1-0.5 0-0.1-0.1-0.2-0.2-0.2 -0.1 0-0.1 0.1-0.2 0.2C22.1 31.4 22 31.5 22 31.8Z"/>
  <path fill="#808080" d="M23 32.6v-0.3h0.2v0.3H23Z"/>
  <path fill="#808080" d="M6.2 36.7v-1.7H5.9v-0.2h0.9v0.2H6.4v1.7H6.2Z"/>
  <path fill="#808080" d="M6.9 36.7v-1.9h0.1v0.7c0.1-0.1 0.1-0.2 0.2-0.2 0.1 0 0.1 0 0.2 0.1 0 0 0.1 0.1 0.1 0.2 0 0.1 0 0.2 0 0.3v0.9H7.4v-0.9c0-0.1 0-0.2 0-0.3 0-0.1-0.1-0.1-0.1-0.1 0 0-0.1 0-0.1 0.1 0 0-0.1 0.1-0.1 0.2 0 0.1 0 0.1 0 0.3v0.8H6.9Z"/>
  <path fill="#808080" d="M8.2 36.5c0 0.1-0.1 0.1-0.1 0.2 0 0-0.1 0-0.1 0 -0.1 0-0.2 0-0.2-0.1 0-0.1-0.1-0.2-0.1-0.3 0-0.1 0-0.1 0-0.2 0-0.1 0-0.1 0.1-0.1s0.1-0.1 0.1-0.1c0 0 0.1 0 0.1 0 0.1 0 0.2-0.1 0.2-0.1 0 0 0-0.1 0-0.1 0-0.1 0-0.2 0-0.2 0-0.1-0.1-0.1-0.2-0.1 -0.1 0-0.1 0-0.1 0.1 0 0-0.1 0.1-0.1 0.2l-0.1 0c0-0.1 0-0.2 0.1-0.2 0-0.1 0.1-0.1 0.1-0.1 0.1 0 0.1 0 0.2 0 0.1 0 0.1 0 0.2 0 0 0 0.1 0.1 0.1 0.1 0 0 0 0.1 0 0.2 0 0 0 0.1 0 0.2v0.3c0 0.2 0 0.4 0 0.4 0 0.1 0 0.1 0 0.2h-0.1C8.2 36.7 8.2 36.6 8.2 36.5ZM8.2 36c0 0-0.1 0.1-0.2 0.1 -0.1 0-0.1 0-0.1 0 0 0 0 0-0.1 0.1 0 0 0 0.1 0 0.1 0 0.1 0 0.1 0 0.2 0 0 0.1 0.1 0.1 0.1 0.1 0 0.1 0 0.1-0.1 0 0 0.1-0.1 0.1-0.2 0-0.1 0-0.1 0-0.2V36Z"/>
  <path fill="#808080" d="M8.6 36.7v-1.4h0.1v0.2c0.1-0.2 0.1-0.2 0.3-0.2 0 0 0.1 0 0.1 0 0 0 0.1 0.1 0.1 0.1 0 0 0 0.1 0 0.2 0 0 0 0.1 0 0.2v0.9H9.1v-0.9c0-0.1 0-0.2 0-0.2 0 0 0-0.1-0.1-0.1 0 0-0.1 0-0.1 0 -0.1 0-0.1 0-0.1 0.1 0 0.1-0.1 0.2-0.1 0.4v0.8H8.6Z"/>
  <path fill="#808080" d="M9.4 36.7v-1.9h0.1v1.1l0.3-0.6h0.2L9.7 35.8l0.3 0.9H9.9l-0.3-0.7 -0.1 0.2v0.6H9.4Z"/>
  <path fill="#808080" d="M10.6 37.2l0-0.2c0 0 0.1 0 0.1 0 0 0 0.1 0 0.1 0 0 0 0 0 0-0.1 0 0 0-0.1 0-0.2 0 0 0 0 0-0.1l-0.3-1.4h0.1l0.2 0.8c0 0.1 0 0.2 0.1 0.3 0-0.1 0-0.2 0.1-0.3l0.2-0.8h0.1l-0.3 1.4c0 0.2-0.1 0.3-0.1 0.3 0 0.1-0.1 0.1-0.1 0.2 0 0-0.1 0.1-0.1 0.1C10.7 37.3 10.6 37.3 10.6 37.2Z"/>
  <path fill="#808080" d="M11.3 36c0-0.3 0-0.5 0.1-0.6 0.1-0.1 0.2-0.2 0.3-0.2 0.1 0 0.2 0.1 0.3 0.2 0.1 0.1 0.1 0.3 0.1 0.5 0 0.2 0 0.3 0 0.4 0 0.1-0.1 0.2-0.1 0.2 -0.1 0.1-0.1 0.1-0.2 0.1 -0.1 0-0.2-0.1-0.3-0.2C11.4 36.4 11.3 36.2 11.3 36ZM11.5 36c0 0.2 0 0.3 0.1 0.4 0 0.1 0.1 0.1 0.2 0.1 0.1 0 0.1 0 0.2-0.1 0-0.1 0.1-0.2 0.1-0.4 0-0.2 0-0.3-0.1-0.4 0-0.1-0.1-0.1-0.2-0.1 -0.1 0-0.1 0-0.2 0.1C11.5 35.7 11.5 35.8 11.5 36Z"/>
  <path fill="#808080" d="M12.8 36.7v-0.2c-0.1 0.2-0.1 0.2-0.3 0.2 0 0-0.1 0-0.1 0 0 0-0.1-0.1-0.1-0.1 0 0 0-0.1 0-0.2 0 0 0-0.1 0-0.2v-0.9h0.1v0.8c0 0.1 0 0.2 0 0.3 0 0.1 0 0.1 0.1 0.1 0 0 0.1 0.1 0.1 0.1 0 0 0.1 0 0.1-0.1 0 0 0.1-0.1 0.1-0.1 0-0.1 0-0.2 0-0.3v-0.8h0.1v1.4H12.8Z"/>
  <path fill="none" d="M21.3 32.4c-6.2 0-11.3-4.6-11.3-10.4 0-5.7 5.1-10.4 11.3-10.4 6.2 0 11.3 4.6 11.3 10.4C32.6 27.7 27.5 32.4 21.3 32.4Z"/>
  <path d="M21.3 12.4c5.8 0 10.5 4.3 10.5 9.6s-4.7 9.6-10.5 9.6c-5.8 0-10.5-4.3-10.5-9.6S15.5 12.4 21.3 12.4M19.4 28.6c-2.6 0-5.1-1-6.7-2.8 0.1 0.2 0.2 0.4 0.4 0.6 1.6 2.2 4.3 3.4 7.2 3.4 1.9 0 3.9-0.5 5.7-1.7 4.4-2.8 5.7-8 2.9-11.8 -0.1-0.2-0.3-0.4-0.5-0.5 2.2 3.7 0.8 8.6-3.3 11.2C23.3 28.1 21.3 28.6 19.4 28.6M21.3 10.9c-6.7 0-12.1 5-12.1 11.1s5.4 11.1 12.1 11.1c6.7 0 12.1-5 12.1-11.1S27.9 10.9 21.3 10.9L21.3 10.9Z"/>
  <path fill="#b3b3b3" d="M28.9 16.3c-0.1-0.2-0.3-0.4-0.5-0.5 2.2 3.7 0.8 8.5-3.3 11.2 -4.1 2.6-9.6 2.1-12.4-1.2 0.1 0.2 0.2 0.4 0.4 0.6 2.7 3.7 8.5 4.5 12.9 1.7C30.3 25.3 31.6 20 28.9 16.3Z"/>
  <path fill="#ffffff" d="M39.9 38.1l-0.6-0.7c0 0-0.2 1.3-1 2 -0.9 0.7-2.3 0.8-2.3 0.8l0.6 0.7c0 0 1.5-0.1 2.3-0.8C39.7 39.4 39.9 38.1 39.9 38.1Z"/>
  <path d="M39.9 38.1c0 0-0.2 1.3-1 2 -0.9 0.7-2.3 0.8-2.3 0.8l1.2 1.2c0 0 1.4-0.3 2.3-1 0.8-0.7 1.1-1.8 1.1-1.8L39.9 38.1Z"/>
  <path d="M39.3 37.4l-8.7-9.4c0 0-0.5 1.1-1.4 1.8 -0.8 0.6-2 0.9-2 0.9l8.7 9.4c0 0 1.5-0.1 2.4-0.8C39.1 38.7 39.3 37.4 39.3 37.4Z"/>
</svg>
