<svg enable-background="new 0 0 42 42" viewBox="0 0 42 42" x="0" y="0" width="42" height="42" version="1.1" xmlns="http://www.w3.org/2000/svg" xml:space="preserve">
  <polygon fill="#ffffff" stroke="#ffffff" stroke-miterlimit="10" points="35.5 38 6.5 37.9 6.5 3.5 27.5 3.5 27.5 9.5 35.5 9.5"/>
  <path fill="#ffffff" stroke="#333333" stroke-miterlimit="10" stroke-width="2" d="M35 39H6V3h22.6L35 9.3V39ZM6 39h29V9.9l-7 0V3L6 3V39Z"/>
  <rect fill="#bf0022" x="7" y="13" width="27" height="22"/>
  <path fill="#ffffff" stroke="#ffffff" stroke-miterlimit="10" d="M8 31.3V16.7h3.1c1.2 0 1.9 0.1 2.3 0.2 0.5 0.2 1 0.7 1.4 1.4 0.4 0.7 0.6 1.7 0.6 2.8 0 0.9-0.1 1.6-0.3 2.3 -0.2 0.6-0.5 1.1-0.8 1.4s-0.7 0.6-1 0.7c-0.5 0.1-1.1 0.2-2 0.2H10v5.5H8ZM10 19.2v4.1h1.1c0.8 0 1.3-0.1 1.5-0.2 0.3-0.2 0.5-0.4 0.6-0.7s0.2-0.7 0.2-1.1c0-0.5-0.1-1-0.3-1.3 -0.2-0.3-0.5-0.6-0.8-0.6 -0.2-0.1-0.7-0.1-1.4-0.1H10Z"/>
  <path fill="#ffffff" stroke="#ffffff" stroke-miterlimit="10" d="M16.9 16.7h3.5c0.8 0 1.4 0.1 1.8 0.3 0.6 0.3 1 0.7 1.4 1.3 0.4 0.6 0.7 1.4 0.9 2.4 0.2 0.9 0.3 2.1 0.3 3.4 0 1.2-0.1 2.2-0.3 3.1 -0.2 1.1-0.6 1.9-1 2.6 -0.3 0.5-0.8 0.9-1.4 1.2 -0.4 0.2-1 0.3-1.7 0.3h-3.6V16.7ZM18.9 19.2v9.7H20.3c0.5 0 0.9 0 1.2-0.1 0.3-0.1 0.6-0.3 0.8-0.6 0.2-0.3 0.4-0.8 0.5-1.4 0.1-0.7 0.2-1.5 0.2-2.7 0-1.1-0.1-2-0.2-2.6 -0.1-0.6-0.3-1.1-0.5-1.4 -0.2-0.3-0.5-0.6-0.9-0.7 -0.3-0.1-0.8-0.1-1.6-0.1H18.9Z"/>
  <path fill="#ffffff" stroke="#ffffff" stroke-miterlimit="10" d="M26.6 31.3V16.7h6.6v2.5h-4.6v3.4h4v2.5h-4v6.2H26.6Z"/>
</svg>
