<svg xmlns="http://www.w3.org/2000/svg" version="1.1" x="0" y="0" width="24" height="24" viewBox="0 0 24 24" enable-background="new 0 0 24 24" xml:space="preserve">
  <rect x="1" y="6" fill="#FFFFFF" stroke="#565555" stroke-miterlimit="10" width="18" height="17"/>
  <polygon fill="#BF0022" stroke="#771212" stroke-miterlimit="10" points="23 6 16.4 1 16.5 4 12 4 12 8 16.5 8 16.4 11 "/>
  <path d="M5.6 17.3l1.7-0.2c0.1 0.6 0.3 1 0.6 1.2s0.7 0.4 1.3 0.4c0.6 0 1-0.1 1.3-0.4s0.4-0.5 0.4-0.8c0-0.2-0.1-0.4-0.2-0.5s-0.3-0.3-0.6-0.4c-0.2-0.1-0.7-0.2-1.4-0.4 -0.9-0.2-1.6-0.5-2-0.8 -0.5-0.5-0.8-1-0.8-1.7 0-0.4 0.1-0.8 0.4-1.2s0.6-0.7 1.1-0.9 1-0.3 1.7-0.3c1.1 0 1.9 0.2 2.4 0.7s0.8 1.1 0.9 1.9l-1.7 0.1c-0.1-0.4-0.2-0.8-0.5-1 -0.2-0.2-0.6-0.3-1.1-0.3 -0.5 0-0.9 0.1-1.2 0.3 -0.2 0.1-0.3 0.3-0.3 0.5 0 0.2 0.1 0.4 0.3 0.5 0.2 0.2 0.8 0.4 1.6 0.6s1.5 0.4 1.9 0.6 0.7 0.5 0.9 0.9 0.3 0.8 0.3 1.4c0 0.5-0.1 1-0.4 1.4s-0.7 0.8-1.2 1S9.9 20.2 9.2 20.2c-1.1 0-1.9-0.2-2.5-0.8S5.7 18.2 5.6 17.3z"/>
</svg>
