<?xml version="1.0" encoding="UTF-8" standalone="no"?>
<svg
   xmlns:dc="http://purl.org/dc/elements/1.1/"
   xmlns:cc="http://creativecommons.org/ns#"
   xmlns:rdf="http://www.w3.org/1999/02/22-rdf-syntax-ns#"
   xmlns:svg="http://www.w3.org/2000/svg"
   xmlns="http://www.w3.org/2000/svg"
   xmlns:sodipodi="http://sodipodi.sourceforge.net/DTD/sodipodi-0.dtd"
   xmlns:inkscape="http://www.inkscape.org/namespaces/inkscape"
   version="1.1"
   x="0px"
   y="0px"
   viewBox="0 0 100 100"
   enable-background="new 0 0 100 100"
   xml:space="preserve"
   id="svg64"
   sodipodi:docname="life-buoy.svg"
   width="100"
   height="100"
   inkscape:version="0.92.2 (5c3e80d, 2017-08-06)"><metadata
     id="metadata70"><rdf:RDF><cc:Work
         rdf:about=""><dc:format>image/svg+xml</dc:format><dc:type
           rdf:resource="http://purl.org/dc/dcmitype/StillImage" /><dc:title></dc:title></cc:Work></rdf:RDF></metadata><defs
     id="defs68" /><sodipodi:namedview
     pagecolor="#ffffff"
     bordercolor="#666666"
     borderopacity="1"
     objecttolerance="10"
     gridtolerance="10"
     guidetolerance="10"
     inkscape:pageopacity="0"
     inkscape:pageshadow="2"
     inkscape:window-width="640"
     inkscape:window-height="480"
     id="namedview66"
     showgrid="false"
     units="px"
     width="100mm"
     inkscape:zoom="1.888"
     inkscape:cx="50"
     inkscape:cy="62.5"
     inkscape:window-x="1547"
     inkscape:window-y="419"
     inkscape:window-maximized="0"
     inkscape:current-layer="svg64" /><path
     d="m 28.9,8.199998 c -0.7,-0.3 -1.8,-1.7 -2.4,-2 -0.5,-0.3 -2.3,-0.5 -3.7,0.3 0.4,0.1 2.1,1.3 2.4,1.6 0.2,0.3 1.4,0.7 3.7,0.1 z"
     id="path2"
     inkscape:connector-curvature="0"
     style="fill:#ffffff" /><path
     d="m 15.9,12.099998 c -0.7,0.3 -2.5,0.2 -3.1,0.5 -0.6,0.3 -1.9,1.6 -2,3.2 0.3,-0.2 2.3,-1 2.7,-1 0.4,0.1 1.3,-0.6 2.4,-2.7 z"
     id="path4"
     inkscape:connector-curvature="0"
     style="fill:#ffffff" /><path
     d="m 10.3,21.399998 c 0.4,-0.2 1,-1.1 1.5,-3.4 -0.6,0.5 -2.3,1 -2.8,1.5 -0.5,0.4 -1.3,2 -1,3.7 0.2,-0.4 2,-1.6 2.3,-1.8 z"
     id="path6"
     inkscape:connector-curvature="0"
     style="fill:#ffffff" /><path
     d="m 9.1,28.499998 c 0.1,-0.1 0.3,-0.5 0.3,-1.1 0.1,-0.6 0.1,-1.4 0,-2.6 -0.4,0.6 -1.9,1.6 -2.2,2.3 -0.4,0.6 -0.4,2.6 0.5,3.9 0.1,-0.3 1.1,-2.2 1.4,-2.5 z"
     id="path8"
     inkscape:connector-curvature="0"
     style="fill:#ffffff" /><path
     d="m 92.3,27.699998 c 0.2,-0.3 1.4,-1.8 1.6,-2.1 0.2,-0.2 0.6,-1.4 -0.6,-3.4 -0.1,0.7 -1.2,2 -1.5,2.5 -0.2,0.5 -0.2,1.8 0.5,3 z"
     id="path10"
     inkscape:connector-curvature="0"
     style="fill:#ffffff" /><path
     d="m 92.1,30.999998 c -0.3,0.5 -0.6,1.8 -0.1,3.1 0.2,-0.3 1.6,-1.6 1.9,-1.8 0.3,-0.2 0.8,-1.3 0.1,-3.4 -0.2,0.7 -1.6,1.7 -1.9,2.1 z"
     id="path12"
     inkscape:connector-curvature="0"
     style="fill:#ffffff" /><path
     d="m 92.3,18.999998 c 0.1,-0.3 0.1,-1.6 -1.6,-3.1 0.1,0.7 -0.5,2.3 -0.6,2.8 0,0.6 0.3,1.8 1.3,2.7 z"
     id="path14"
     inkscape:connector-curvature="0"
     style="fill:#ffffff" /><path
     d="m 36.5,8.499998 c -0.7,-0.3 -1.9,-1.7 -2.4,-2 -0.5,-0.3 -2.2,-0.6 -3.7,0 0.3,0.2 1.9,1.6 2.2,1.9 0.3,0.2 1.5,0.7 3.9,0.1 z"
     id="path16"
     inkscape:connector-curvature="0"
     style="fill:#ffffff" /><path
     d="m 86.3,13.699998 c 0.1,0.5 0.8,1.8 2.1,2.3 0,-0.3 0.1,-2.3 0.1,-2.6 0.1,-0.3 -0.3,-1.5 -2.4,-2.6 0.4,0.6 0.2,2.3 0.2,2.9 z"
     id="path18"
     inkscape:connector-curvature="0"
     style="fill:#ffffff" /><path
     d="m 84,11.099998 c -0.1,-0.3 -0.5,-2.3 -0.5,-2.6 0,-0.3 -0.7,-1.4 -3,-1.9 0.5,0.6 0.7,2.3 0.9,2.8 0.3,0.5 1.3,1.5 2.6,1.7 z"
     id="path20"
     inkscape:connector-curvature="0"
     style="fill:#ffffff" /><path
     d="m 62.5,5.499998 c 0.5,0.3 1.9,0.6 3.2,0 -0.3,-0.2 -1.7,-1.6 -1.9,-1.8 -0.2,-0.3 -1.3,-0.7 -3.4,-0.2 0.6,0.3 1.6,1.7 2.1,2 z"
     id="path22"
     inkscape:connector-curvature="0"
     style="fill:#ffffff" /><path
     d="m 69.2,5.899998 c 0.5,0.3 1.9,0.7 3.2,0.2 -0.3,-0.2 -1.6,-1.7 -1.8,-2 -0.2,-0.3 -1.3,-0.8 -3.4,-0.3 0.6,0.4 1.5,1.8 2,2.1 z"
     id="path24"
     inkscape:connector-curvature="0"
     style="fill:#ffffff" /><path
     d="m 75.6,6.899998 c 0.4,0.4 1.6,1 2.9,1 l -1.2,-2.4 c -0.1,-0.3 -1.1,-1.2 -3.5,-1 0.7,0.3 1.5,1.9 1.8,2.4 z"
     id="path26"
     inkscape:connector-curvature="0"
     style="fill:#ffffff" /><path
     d="m 17.3,9.699998 c 0.6,0 1.2,0.1 1.4,0.2 0.4,0.1 1.3,-0.1 3.2,-1.2 -0.7,-0.2 -2.2,-1.1 -2.9,-1.1 -0.6,-0.1 -2.5,0.7 -3.1,2.2 0.1,0 0.8,-0.1 1.4,-0.1 z"
     id="path28"
     inkscape:connector-curvature="0"
     style="fill:#ffffff" /><path
     d="m 26.4,92.499998 c -0.6,-0.4 -1.6,-1.9 -2.2,-2.2 -0.5,-0.3 -2.2,-0.7 -3.6,0 0.3,0.2 1.9,1.6 2.2,1.8 0.2,0.3 1.3,0.7 3.6,0.4 z"
     id="path30"
     inkscape:connector-curvature="0"
     style="fill:#ffffff" /><path
     d="m 8.6,83.599998 c 0,0.3 -0.1,2.5 -0.1,2.8 0,0.3 0.5,1.8 3,2.8 -0.5,-0.7 -0.5,-2.5 -0.6,-3.1 -0.2,-0.5 -1,-1.7 -2.3,-2.5 z"
     id="path32"
     inkscape:connector-curvature="0"
     style="fill:#ffffff" /><path
     d="m 30.1,93.099998 c 0.2,0.3 1.9,0.9 4.2,-0.2 -0.8,-0.1 -2.2,-1.3 -2.7,-1.6 -0.3,-0.1 -0.8,-0.3 -1.4,-0.3 -0.2,0 -0.6,-0.1 -1,-0.1 -0.4,0 -0.8,0 -1.2,0.1 0.2,0.1 0.6,0.6 0.9,1.1 0.2,0.2 0.4,0.5 0.5,0.7 0.4,0.1 0.6,0.2 0.7,0.3 z"
     id="path34"
     inkscape:connector-curvature="0"
     style="fill:#ffffff" /><path
     d="m 17,89.799998 c -0.5,-0.4 -1.8,-1.1 -3.2,-1.2 0.1,0.3 1.1,2.2 1.3,2.5 0.1,0.3 1.3,1.3 4,1 -0.8,-0.3 -1.7,-1.9 -2.1,-2.3 z"
     id="path36"
     inkscape:connector-curvature="0"
     style="fill:#ffffff" /><path
     d="m 8.1,57.699998 c -0.1,0 -0.1,0.1 -0.2,0.1 -0.3,0.2 -1.1,1.1 -1.6,3.5 0.6,-0.5 2.3,-1 2.8,-1.4 0,0 0,0 0.1,-0.1 3.7,14.3 14.8,25.8 29,30.2 -0.8,0 -1.8,0.3 -2.7,0.9 0.4,0.1 2.3,1 2.5,1.3 0.2,0.2 1.1,0.3 2.4,-0.1 2.8,1.3 6.2,2 9.6,2 2.9,0 5.6,-0.5 8.1,-1.5 0.2,-0.1 0.3,-0.2 0.5,-0.3 0.5,0 1,0 1.6,0 -0.2,-0.2 -0.5,-0.5 -0.8,-0.9 0.1,-0.2 0.2,-0.4 0.2,-0.6 15.3,-3.2 27.6,-14.7 32.1,-29.5 0,0 0.1,0 0.1,0 0,0.6 0,1.2 0.3,1.8 0.2,-0.4 1.6,-1.9 1.9,-2 0.3,-0.2 0.8,-1.2 0.8,-3.3 -0.1,0.1 -0.3,0.3 -0.6,0.4 1.7,-4.5 2.4,-11 0.1,-16.8 -0.3,-0.8 -1,-1.3 -1.7,-1.5 0,-0.2 -0.1,-0.4 -0.1,-0.6 0.3,-0.3 0.7,-0.5 0.8,-0.6 0.3,-0.2 0.9,-1.2 0.5,-3.3 -0.3,0.5 -1.3,1.2 -1.9,1.6 -4.1,-13.8 -15,-24.8 -28.8,-29 -0.1,-0.7 -0.6,-1.4 -1.2,-1.7 -2.9,-1.5 -6.8,-2.3 -10.6,-2.3 -2.9,0 -5.6,0.5 -8.1,1.5 -0.6,0.2 -1.1,0.7 -1.3,1.3 -0.1,-0.1 -0.2,-0.1 -0.2,-0.1 -0.6,-0.3 -2.2,-0.4 -3.6,0.2 0.2,0.1 0.8,0.5 1.3,0.9 -13.4,3.6 -24.2,13.6 -28.9,26.5 -0.1,-0.6 -0.4,-1.3 -0.8,-2.1 -0.1,0.8 -1.2,2.2 -1.4,2.8 -0.1,0.4 -0.1,1.3 0.2,2.2 -0.2,0.2 -0.4,0.4 -0.5,0.7 -2.3,4.3 -3.5,12 -0.9,18.6 0.2,0.5 0.6,0.9 1,1.2 z m 51.7,29.6 c 0.1,-4.8 -0.1,-12.9 -1.3,-19.3 4.8,-2 8.7,-5.8 10.9,-10.5 5,1.3 13.6,3.1 18.8,3.7 -4.3,12.9 -15,22.9 -28.4,26.1 z m 3.1,-75.7 c 12.9,4.2 22.9,15 26.1,28.3 -0.7,0 -1.5,0 -2.3,0 -2.5,0 -10.4,0.1 -17.1,1.3 -2,-4.8 -5.8,-8.7 -10.5,-10.9 1.3,-5 3.1,-13.6 3.8,-18.7 z m -19.1,21.8 c 0.4,0.5 0.9,0.9 1.6,1 2.7,0.4 8.1,0.4 10.6,0.4 v 0 c 0.9,0 1.6,-0.5 2.1,-1.2 3.6,1.8 6.6,4.8 8.2,8.5 -0.5,0.4 -0.9,0.9 -1,1.6 -0.4,2.7 -0.4,7.9 -0.4,10.7 0,0.9 0.5,1.6 1.2,2.1 -1.8,3.6 -4.8,6.6 -8.5,8.2 -0.4,-0.5 -0.9,-0.9 -1.6,-1 -2.7,-0.4 -8.1,-0.4 -10.7,-0.4 -0.9,0 -1.6,0.5 -2.1,1.2 -3.7,-1.8 -6.6,-4.8 -8.2,-8.5 0.5,-0.4 0.9,-0.9 1,-1.6 0.4,-2.7 0.4,-7.9 0.4,-10.7 0,-0.9 -0.5,-1.6 -1.2,-2.1 1.9,-3.6 4.9,-6.6 8.6,-8.2 z m -2.2,-22.7 c -0.1,4.8 0.1,12.9 1.3,19.3 -4.8,2 -8.7,5.8 -10.9,10.5 -5,-1.3 -13.6,-3.1 -18.8,-3.7 4.3,-12.9 15,-22.9 28.4,-26.1 z m -27,47.5 c 2.5,0 10.4,-0.1 17.1,-1.3 2,4.8 5.8,8.7 10.5,10.9 -1.3,5 -3.1,13.6 -3.7,18.8 -12.9,-4.2 -22.9,-14.9 -26.1,-28.3 0.7,-0.1 1.4,-0.1 2.2,-0.1 z"
     id="path38"
     inkscape:connector-curvature="0"
     style="fill:#ffffff" /><path
     d="m 6.3,66.399998 c 0.4,-0.4 1.1,-1.7 1.1,-3.2 -0.3,0.2 -2.2,1.2 -2.5,1.3 -0.3,0.1 -1.3,1.2 -1,3.7 0.4,-0.6 1.9,-1.4 2.4,-1.8 z"
     id="path40"
     inkscape:connector-curvature="0"
     style="fill:#ffffff" /><path
     d="m 5.7,73.399998 c 0.2,-0.6 0.4,-2.1 -0.2,-3.4 -0.2,0.3 -1.5,1.9 -1.8,2.2 -0.2,0.2 -0.6,1.5 0.3,3.8 0.2,-0.8 1.4,-2.1 1.7,-2.6 z"
     id="path42"
     inkscape:connector-curvature="0"
     style="fill:#ffffff" /><path
     d="m 4.9,79.599998 c -0.2,0.3 -0.3,1.7 1.5,3.7 -0.1,-0.8 0.7,-2.4 0.8,-3 0,-0.6 -0.3,-2.1 -1.2,-3.3 z"
     id="path44"
     inkscape:connector-curvature="0"
     style="fill:#ffffff" /><path
     d="m 89.3,80.799998 c -0.6,0.2 -1.8,1.1 -2.4,2.6 0.4,-0.1 2.5,-0.2 2.8,-0.3 0.2,0 0.6,-0.1 1.1,-0.6 0.2,-0.2 0.5,-0.5 0.8,-0.9 0.3,-0.4 0.6,-1 0.8,-1.6 -0.4,0.3 -1,0.5 -1.6,0.6 -0.6,0.1 -1.2,0.1 -1.5,0.2 z"
     id="path46"
     inkscape:connector-curvature="0"
     style="fill:#ffffff" /><path
     d="m 63.5,91.299998 c -0.2,-0.1 -0.3,-0.1 -0.5,-0.1 l -0.3,-0.1 c -0.1,0 -0.3,-0.1 -0.4,-0.1 0.3,0.3 0.5,0.8 0.7,1.4 l 0.5,1.3 c 0.1,0.3 1,1.4 3.6,1.4 -0.7,-0.5 -1.3,-2.1 -1.6,-2.6 -0.2,-0.2 -0.6,-0.5 -1.1,-0.8 -0.3,-0.1 -0.5,-0.3 -0.9,-0.4 z"
     id="path48"
     inkscape:connector-curvature="0"
     style="fill:#ffffff" /><path
     d="m 93.8,64.699998 c -0.3,0.7 -1.6,1.9 -1.9,2.5 -0.3,0.6 -0.4,2.2 0.2,3.6 0.2,-0.3 1.5,-2 1.7,-2.3 0.4,-0.3 0.7,-1.5 0,-3.8 z"
     id="path50"
     inkscape:connector-curvature="0"
     style="fill:#ffffff" /><path
     d="m 94,75.099998 c 0.1,-0.3 0.1,-0.7 0.2,-1.2 0,-0.5 0,-1.1 -0.2,-1.7 -0.2,0.4 -0.6,0.8 -1.1,1.3 -0.5,0.4 -1,0.7 -1.1,1 -0.4,0.5 -0.8,2 -0.6,3.4 0.3,-0.2 2,-1.5 2.2,-1.8 0.2,-0.1 0.5,-0.4 0.6,-1 z"
     id="path52"
     inkscape:connector-curvature="0"
     style="fill:#ffffff" /><path
     d="m 70.5,93.299998 c -0.2,0 -0.7,0.1 -0.8,0.2 -0.2,0.1 -0.6,0.1 -0.9,0.3 l 1,0.9 c 0.4,0.4 1,0.7 1.1,0.8 0.2,0.2 1.7,0.5 3.8,-1.1 -0.8,0.1 -2.4,-0.8 -2.9,-1 -0.3,-0.2 -0.8,-0.2 -1.3,-0.1 z"
     id="path54"
     inkscape:connector-curvature="0"
     style="fill:#ffffff" /><path
     d="m 78,90.199998 c -0.6,0.1 -2,0.7 -2.9,1.9 0.3,0 2.4,0.3 2.8,0.4 0.3,0.1 1.7,-0.2 3.2,-2.2 -0.8,0.3 -2.5,-0.1 -3.1,-0.1 z"
     id="path56"
     inkscape:connector-curvature="0"
     style="fill:#ffffff" /><path
     d="m 83.9,87.999998 c 0.3,0 1.6,-0.3 3,-2.4 -0.7,0.3 -2.5,-0.1 -3.1,0 -0.6,0.1 -2,1 -2.7,2.4 0.3,0 2.4,0 2.8,0 z"
     id="path58"
     inkscape:connector-curvature="0"
     style="fill:#ffffff" /></svg>