<svg xmlns="http://www.w3.org/2000/svg" xmlns:xlink="http://www.w3.org/1999/xlink" version="1.1" x="0px" y="0px" viewBox="0 0 28 35" enable-background="new 0 0 28 28" xml:space="preserve"><path d="M24.295,15.444c-0.552,0-1,0.448-1,1v6.851H4.705V4.705h6.851c0.553,0,1-0.448,1-1s-0.447-1-1-1H3.705c-0.553,0-1,0.448-1,1  v20.59c0,0.552,0.447,1,1,1h20.59c0.553,0,1-0.448,1-1v-7.851C25.295,15.892,24.848,15.444,24.295,15.444z"/><path d="M24.295,2.705h-7.412c-0.553,0-1,0.448-1,1s0.447,1,1,1h4.998l-7.884,7.884c-0.391,0.391-0.391,1.023,0,1.414  c0.195,0.195,0.451,0.293,0.707,0.293s0.512-0.098,0.707-0.293l7.884-7.884v5c0,0.552,0.448,1,1,1c0.553,0,1-0.448,1-1V3.705  C25.295,3.152,24.848,2.705,24.295,2.705z"/><text x="0" y="43" fill="#000000" font-size="5px" font-weight="bold" font-family="'Helvetica Neue', Helvetica, Arial-Unicode, Arial, Sans-serif">Created by Karent Molly</text><text x="0" y="48" fill="#000000" font-size="5px" font-weight="bold" font-family="'Helvetica Neue', Helvetica, Arial-Unicode, Arial, Sans-serif">from the Noun Project</text></svg>