<svg id="Layer_1" viewBox="0 0 92 92" x="0px" y="0px" width="92px" height="92px" version="1.1" xmlns="http://www.w3.org/2000/svg" xml:space="preserve" xmlns:xlink="http://www.w3.org/1999/xlink">
  <path d="M61 50c0 2.762-1.238 6-4 6H30.279c0 0-7.278 8.763-8.044 8.763 -0.141 0-0.149-0.394-0.149-0.394l1.415-9.244c-2.761 0-5.5-2.363-5.5-5.125V29c0-2.761 3.239-4 6-4h33c2.762 0 4 1.239 4 4V50Z" style="fill:#afcfe8;stroke-miterlimit:10;stroke-width:2;stroke:#08496d"/>
  <polygon points="67.803 40 43.618 40 41 36.676 41 18.911 43.427 17 67.803 17 70 19.693 70 36.341" style="fill:#2e90c6;stroke-miterlimit:10;stroke-width:2;stroke:#1c2b30"/>
  <line x1="56" y1="19" x2="56" y2="37" style="fill:none;stroke-miterlimit:10;stroke-width:4;stroke:#f2f2f2"/>
  <line x1="47" y1="28" x2="65" y2="28" style="fill:none;stroke-miterlimit:10;stroke-width:4;stroke:#f2f2f2"/>
</svg>
