<svg xmlns="http://www.w3.org/2000/svg" version="1.1" x="0" y="0" width="62" height="62" viewBox="0 0 62 62" enable-background="new 0 0 62 62" xml:space="preserve">
  <polygon fill="#FFFFFF" stroke="#FFFFFF" stroke-miterlimit="10" points="55.5 59.6 7.5 59.5 7.5 3.5 43.5 3.5 43.5 13.5 55.5 13.5 "/>
  <path fill="#FFFFFF" stroke="#333333" stroke-miterlimit="10" d="M55.5 60.5h-48V3l36 0 11.9 10.8L55.5 60.5zM7.5 60.5h48V14.1l-12 0V3.1L7.5 3.1V60.5z"/>
  <path fill="#808080" d="M13.8 10.9l0.2 0.1c0 0.3-0.1 0.6-0.2 0.8 -0.1 0.2-0.3 0.3-0.4 0.3 -0.2 0-0.3-0.1-0.4-0.2 -0.1-0.1-0.2-0.3-0.3-0.6 -0.1-0.3-0.1-0.5-0.1-0.8 0-0.3 0-0.6 0.1-0.9 0.1-0.2 0.2-0.4 0.3-0.6 0.1-0.1 0.3-0.2 0.4-0.2 0.2 0 0.3 0.1 0.4 0.2 0.1 0.2 0.2 0.4 0.2 0.7l-0.2 0.1c0-0.2-0.1-0.4-0.2-0.5 -0.1-0.1-0.2-0.2-0.3-0.2 -0.1 0-0.2 0.1-0.3 0.2 -0.1 0.1-0.1 0.3-0.2 0.5 0 0.2-0.1 0.4-0.1 0.6 0 0.3 0 0.5 0.1 0.7 0 0.2 0.1 0.3 0.2 0.4 0.1 0.1 0.2 0.1 0.3 0.1 0.1 0 0.2-0.1 0.3-0.2C13.7 11.4 13.8 11.2 13.8 10.9z"/>
  <path fill="#808080" d="M14.2 10.9c0-0.4 0.1-0.7 0.2-0.9 0.1-0.2 0.2-0.3 0.4-0.3 0.2 0 0.3 0.1 0.4 0.3 0.1 0.2 0.2 0.5 0.2 0.8 0 0.3 0 0.5-0.1 0.7 0 0.2-0.1 0.3-0.2 0.4 -0.1 0.1-0.2 0.1-0.3 0.1 -0.2 0-0.3-0.1-0.4-0.3C14.2 11.6 14.2 11.3 14.2 10.9zM14.4 10.9c0 0.3 0 0.5 0.1 0.7 0.1 0.1 0.2 0.2 0.3 0.2s0.2-0.1 0.3-0.2c0.1-0.1 0.1-0.4 0.1-0.7 0-0.3 0-0.5-0.1-0.6 -0.1-0.1-0.1-0.2-0.2-0.2 -0.1 0-0.2 0.1-0.2 0.2C14.4 10.4 14.4 10.6 14.4 10.9z"/>
  <path fill="#808080" d="M15.6 12V9.8h0.2v0.3c0.1-0.2 0.2-0.4 0.4-0.4 0.1 0 0.1 0 0.2 0.1 0.1 0 0.1 0.1 0.1 0.2 0 0.1 0.1 0.2 0.1 0.3 0 0.1 0 0.2 0 0.4v1.4H16.3v-1.4c0-0.2 0-0.3 0-0.4 0-0.1 0-0.1-0.1-0.2 0 0-0.1-0.1-0.1-0.1 -0.1 0-0.2 0.1-0.2 0.2 -0.1 0.1-0.1 0.3-0.1 0.6v1.2H15.6z"/>
  <path fill="#808080" d="M16.8 12.2l0.2 0.1c0 0.1 0 0.2 0.1 0.3 0.1 0.1 0.1 0.1 0.2 0.1 0.1 0 0.2 0 0.2-0.1 0.1-0.1 0.1-0.2 0.1-0.3 0-0.1 0-0.2 0-0.5 -0.1 0.2-0.2 0.3-0.3 0.3 -0.2 0-0.3-0.1-0.4-0.3 -0.1-0.2-0.1-0.5-0.1-0.8 0-0.2 0-0.4 0.1-0.6 0-0.2 0.1-0.3 0.2-0.4 0.1-0.1 0.2-0.1 0.3-0.1 0.1 0 0.3 0.1 0.3 0.3V9.8h0.2v2c0 0.4 0 0.6-0.1 0.8 0 0.1-0.1 0.3-0.2 0.3 -0.1 0.1-0.2 0.1-0.3 0.1 -0.1 0-0.3-0.1-0.3-0.2S16.8 12.5 16.8 12.2zM17 10.8c0 0.3 0 0.5 0.1 0.7 0.1 0.1 0.1 0.2 0.2 0.2 0.1 0 0.2-0.1 0.2-0.2 0.1-0.1 0.1-0.3 0.1-0.6 0-0.3 0-0.5-0.1-0.6 -0.1-0.1-0.1-0.2-0.2-0.2 -0.1 0-0.2 0.1-0.2 0.2C17 10.4 17 10.6 17 10.8z"/>
  <path fill="#808080" d="M18.1 12V9.8h0.2V10.1c0-0.2 0.1-0.3 0.1-0.3 0-0.1 0.1-0.1 0.1-0.1 0.1 0 0.1 0 0.2 0.1l-0.1 0.4c0-0.1-0.1-0.1-0.1-0.1 0 0-0.1 0-0.1 0.1s-0.1 0.1-0.1 0.2c0 0.1 0 0.3 0 0.4v1.2H18.1z"/>
  <path fill="#808080" d="M19.7 11.7c-0.1 0.1-0.1 0.2-0.2 0.3 -0.1 0-0.1 0.1-0.2 0.1 -0.1 0-0.2-0.1-0.3-0.2 -0.1-0.1-0.1-0.3-0.1-0.5 0-0.1 0-0.2 0-0.3 0-0.1 0.1-0.2 0.1-0.2 0-0.1 0.1-0.1 0.1-0.1 0 0 0.1 0 0.2-0.1 0.2 0 0.3-0.1 0.4-0.1 0-0.1 0-0.1 0-0.1 0-0.2 0-0.3-0.1-0.3 -0.1-0.1-0.1-0.1-0.2-0.1 -0.1 0-0.2 0-0.2 0.1 0 0.1-0.1 0.2-0.1 0.3l-0.2 0c0-0.2 0-0.3 0.1-0.4 0-0.1 0.1-0.2 0.2-0.2 0.1-0.1 0.2-0.1 0.3-0.1s0.2 0 0.2 0.1c0.1 0 0.1 0.1 0.1 0.2 0 0.1 0.1 0.2 0.1 0.3 0 0.1 0 0.2 0 0.4v0.5c0 0.4 0 0.6 0 0.7 0 0.1 0 0.2 0.1 0.3h-0.2C19.7 11.9 19.7 11.9 19.7 11.7zM19.6 10.9c-0.1 0.1-0.2 0.1-0.3 0.1 -0.1 0-0.1 0-0.2 0.1 0 0-0.1 0.1-0.1 0.1 0 0.1 0 0.1 0 0.2 0 0.1 0 0.2 0.1 0.3 0 0.1 0.1 0.1 0.2 0.1 0.1 0 0.1 0 0.2-0.1 0.1-0.1 0.1-0.2 0.1-0.3 0-0.1 0-0.2 0-0.4V10.9z"/>
  <path fill="#808080" d="M20.6 11.7l0 0.3c-0.1 0-0.1 0-0.2 0 -0.1 0-0.1 0-0.2-0.1 0 0-0.1-0.1-0.1-0.2 0-0.1 0-0.2 0-0.5v-1.3h-0.1V9.8h0.1V9.2l0.2-0.2v0.8H20.6v0.3h-0.2v1.3c0 0.1 0 0.2 0 0.2 0 0 0 0.1 0 0.1 0 0 0 0 0.1 0C20.5 11.7 20.6 11.7 20.6 11.7z"/>
  <path fill="#808080" d="M20.7 11.3l0.2-0.1c0 0.2 0 0.3 0.1 0.4 0.1 0.1 0.1 0.1 0.2 0.1 0.1 0 0.2 0 0.2-0.1 0-0.1 0.1-0.2 0.1-0.3 0-0.1 0-0.2-0.1-0.2 0 0-0.1-0.1-0.2-0.1 -0.1-0.1-0.3-0.1-0.3-0.2 -0.1-0.1-0.1-0.1-0.1-0.2 0-0.1 0-0.2 0-0.3 0-0.1 0-0.2 0-0.3 0-0.1 0.1-0.2 0.1-0.2 0 0 0.1-0.1 0.1-0.1 0.1 0 0.1 0 0.2 0 0.1 0 0.2 0 0.2 0.1 0.1 0.1 0.1 0.1 0.2 0.2 0 0.1 0.1 0.2 0.1 0.4l-0.2 0.1c0-0.1 0-0.2-0.1-0.3 0-0.1-0.1-0.1-0.2-0.1 -0.1 0-0.2 0-0.2 0.1 0 0.1-0.1 0.1-0.1 0.2 0 0.1 0 0.1 0 0.1s0 0.1 0.1 0.1c0 0 0.1 0 0.2 0.1 0.1 0.1 0.2 0.1 0.3 0.2 0.1 0 0.1 0.1 0.1 0.2 0 0.1 0 0.2 0 0.3 0 0.1 0 0.2-0.1 0.4 0 0.1-0.1 0.2-0.2 0.3 -0.1 0.1-0.2 0.1-0.3 0.1 -0.2 0-0.3-0.1-0.4-0.2C20.8 11.8 20.7 11.6 20.7 11.3z"/>
  <path fill="#808080" d="M23 11.7l0 0.3c-0.1 0-0.1 0-0.2 0 -0.1 0-0.1 0-0.2-0.1 0 0-0.1-0.1-0.1-0.2 0-0.1 0-0.2 0-0.5v-1.3h-0.1V9.8h0.1V9.2l0.2-0.2v0.8h0.2v0.3h-0.2v1.3c0 0.1 0 0.2 0 0.2 0 0 0 0.1 0 0.1 0 0 0 0 0.1 0C23 11.7 23 11.7 23 11.7z"/>
  <path fill="#808080" d="M23.2 10.9c0-0.4 0.1-0.7 0.2-0.9 0.1-0.2 0.2-0.3 0.4-0.3 0.2 0 0.3 0.1 0.4 0.3 0.1 0.2 0.2 0.5 0.2 0.8 0 0.3 0 0.5-0.1 0.7 0 0.2-0.1 0.3-0.2 0.4 -0.1 0.1-0.2 0.1-0.3 0.1 -0.2 0-0.3-0.1-0.4-0.3C23.2 11.6 23.2 11.3 23.2 10.9zM23.4 10.9c0 0.3 0 0.5 0.1 0.7 0.1 0.1 0.2 0.2 0.3 0.2 0.1 0 0.2-0.1 0.3-0.2 0.1-0.1 0.1-0.4 0.1-0.7 0-0.3 0-0.5-0.1-0.6 -0.1-0.1-0.1-0.2-0.2-0.2 -0.1 0-0.2 0.1-0.3 0.2C23.4 10.4 23.4 10.6 23.4 10.9z"/>
  <path fill="#808080" d="M26.3 8.9h0.2v1.8c0 0.3 0 0.6-0.1 0.8 0 0.2-0.1 0.3-0.2 0.5 -0.1 0.1-0.2 0.2-0.4 0.2 -0.2 0-0.3-0.1-0.4-0.2 -0.1-0.1-0.2-0.2-0.2-0.4 0-0.2-0.1-0.5-0.1-0.8V8.9h0.2V10.7c0 0.3 0 0.5 0 0.6 0 0.1 0.1 0.2 0.1 0.3 0.1 0.1 0.1 0.1 0.2 0.1 0.2 0 0.3-0.1 0.3-0.2 0.1-0.1 0.1-0.4 0.1-0.8V8.9z"/>
  <path fill="#808080" d="M26.9 12V8.9h0.2v3.1H26.9z"/>
  <path fill="#808080" d="M27.4 11l0.2 0c0 0.2 0 0.3 0.1 0.4 0 0.1 0.1 0.2 0.2 0.2 0.1 0.1 0.2 0.1 0.3 0.1 0.1 0 0.2 0 0.2-0.1 0.1 0 0.1-0.1 0.1-0.2 0-0.1 0-0.2 0-0.3 0-0.1 0-0.2 0-0.3 0-0.1-0.1-0.1-0.1-0.2 0 0-0.1-0.1-0.3-0.2 -0.2-0.1-0.3-0.1-0.3-0.2 -0.1-0.1-0.1-0.2-0.2-0.3 0-0.1-0.1-0.2-0.1-0.4 0-0.2 0-0.3 0.1-0.4 0-0.1 0.1-0.2 0.2-0.3 0.1-0.1 0.2-0.1 0.3-0.1 0.1 0 0.2 0 0.3 0.1 0.1 0.1 0.2 0.2 0.2 0.3 0.1 0.1 0.1 0.3 0.1 0.5l-0.2 0c0-0.2 0-0.3-0.1-0.4 -0.1-0.1-0.2-0.1-0.3-0.1 -0.1 0-0.2 0-0.3 0.1 -0.1 0.1-0.1 0.2-0.1 0.3 0 0.1 0 0.2 0.1 0.3 0 0.1 0.2 0.1 0.3 0.2 0.2 0.1 0.3 0.1 0.4 0.2 0.1 0.1 0.2 0.2 0.2 0.3 0 0.1 0.1 0.3 0.1 0.4 0 0.2 0 0.3-0.1 0.5 0 0.1-0.1 0.3-0.2 0.3s-0.2 0.1-0.3 0.1c-0.1 0-0.3 0-0.4-0.1 -0.1-0.1-0.2-0.2-0.2-0.4C27.4 11.4 27.4 11.2 27.4 11z"/>
  <path fill="#808080" d="M29.8 12V11.7c-0.1 0.3-0.2 0.4-0.4 0.4 -0.1 0-0.1 0-0.2-0.1 -0.1-0.1-0.1-0.1-0.1-0.2 0-0.1 0-0.2-0.1-0.3 0-0.1 0-0.2 0-0.4V9.8h0.2v1.3c0 0.2 0 0.3 0 0.4 0 0.1 0 0.2 0.1 0.2 0 0.1 0.1 0.1 0.2 0.1 0.1 0 0.1 0 0.2-0.1 0.1-0.1 0.1-0.1 0.1-0.2 0-0.1 0-0.2 0-0.4V9.8h0.2v2.3H29.8z"/>
  <path fill="#808080" d="M30.3 12.9V9.8h0.2v0.3c0-0.1 0.1-0.2 0.1-0.3 0.1-0.1 0.1-0.1 0.2-0.1 0.1 0 0.2 0 0.3 0.1 0.1 0.1 0.1 0.2 0.2 0.4 0 0.2 0.1 0.4 0.1 0.6 0 0.2 0 0.4-0.1 0.6 0 0.2-0.1 0.3-0.2 0.4 -0.1 0.1-0.2 0.1-0.3 0.1 -0.1 0-0.1 0-0.2-0.1 -0.1-0.1-0.1-0.1-0.1-0.2v1.1H30.3zM30.4 10.9c0 0.3 0 0.5 0.1 0.6 0.1 0.1 0.1 0.2 0.2 0.2 0.1 0 0.2-0.1 0.2-0.2 0.1-0.1 0.1-0.4 0.1-0.7 0-0.3 0-0.5-0.1-0.6 -0.1-0.1-0.1-0.2-0.2-0.2 -0.1 0-0.2 0.1-0.2 0.2C30.5 10.4 30.4 10.6 30.4 10.9z"/>
  <path fill="#808080" d="M31.5 12.9V9.8h0.2v0.3c0-0.1 0.1-0.2 0.1-0.3 0.1-0.1 0.1-0.1 0.2-0.1 0.1 0 0.2 0 0.3 0.1 0.1 0.1 0.1 0.2 0.2 0.4 0 0.2 0.1 0.4 0.1 0.6 0 0.2 0 0.4-0.1 0.6 0 0.2-0.1 0.3-0.2 0.4 -0.1 0.1-0.2 0.1-0.3 0.1 -0.1 0-0.1 0-0.2-0.1 -0.1-0.1-0.1-0.1-0.1-0.2v1.1H31.5zM31.7 10.9c0 0.3 0 0.5 0.1 0.6 0.1 0.1 0.1 0.2 0.2 0.2 0.1 0 0.2-0.1 0.2-0.2 0.1-0.1 0.1-0.4 0.1-0.7 0-0.3 0-0.5-0.1-0.6 -0.1-0.1-0.1-0.2-0.2-0.2 -0.1 0-0.2 0.1-0.2 0.2C31.8 10.4 31.7 10.6 31.7 10.9z"/>
  <path fill="#808080" d="M32.7 10.9c0-0.4 0.1-0.7 0.2-0.9 0.1-0.2 0.2-0.3 0.4-0.3 0.2 0 0.3 0.1 0.4 0.3 0.1 0.2 0.2 0.5 0.2 0.8 0 0.3 0 0.5-0.1 0.7 0 0.2-0.1 0.3-0.2 0.4 -0.1 0.1-0.2 0.1-0.3 0.1 -0.2 0-0.3-0.1-0.4-0.3C32.8 11.6 32.7 11.3 32.7 10.9zM33 10.9c0 0.3 0 0.5 0.1 0.7 0.1 0.1 0.1 0.2 0.3 0.2 0.1 0 0.2-0.1 0.2-0.2 0.1-0.1 0.1-0.4 0.1-0.7 0-0.3 0-0.5-0.1-0.6 -0.1-0.1-0.1-0.2-0.2-0.2 -0.1 0-0.2 0.1-0.3 0.2C33 10.4 33 10.6 33 10.9z"/>
  <path fill="#808080" d="M34.1 12V9.8h0.2V10.1c0-0.2 0.1-0.3 0.1-0.3 0-0.1 0.1-0.1 0.1-0.1 0.1 0 0.1 0 0.2 0.1l-0.1 0.4c0-0.1-0.1-0.1-0.1-0.1 0 0-0.1 0-0.1 0.1s-0.1 0.1-0.1 0.2c0 0.1 0 0.3 0 0.4v1.2H34.1z"/>
  <path fill="#808080" d="M35.3 11.7l0 0.3c-0.1 0-0.1 0-0.2 0 -0.1 0-0.1 0-0.2-0.1 0 0-0.1-0.1-0.1-0.2 0-0.1 0-0.2 0-0.5v-1.3h-0.1V9.8h0.1V9.2l0.2-0.2v0.8h0.2v0.3h-0.2v1.3c0 0.1 0 0.2 0 0.2 0 0 0 0.1 0 0.1 0 0 0 0 0.1 0C35.2 11.7 35.3 11.7 35.3 11.7z"/>
  <path fill="#808080" d="M36.6 12V9.3h-0.5v-0.4h1.3v0.4h-0.5v2.8H36.6z"/>
  <path fill="#808080" d="M38.1 11.3l0.2 0.1c0 0.2-0.1 0.4-0.2 0.5 -0.1 0.1-0.2 0.2-0.3 0.2 -0.2 0-0.3-0.1-0.4-0.3 -0.1-0.2-0.2-0.5-0.2-0.9 0-0.4 0.1-0.7 0.2-0.9 0.1-0.2 0.2-0.3 0.4-0.3 0.2 0 0.3 0.1 0.4 0.3 0.1 0.2 0.2 0.5 0.2 0.9 0 0 0 0.1 0 0.1h-0.9c0 0.2 0 0.4 0.1 0.6 0.1 0.1 0.1 0.2 0.3 0.2 0.1 0 0.1 0 0.2-0.1C38 11.6 38 11.5 38.1 11.3zM37.4 10.7h0.7c0-0.2 0-0.3-0.1-0.4 -0.1-0.1-0.1-0.2-0.3-0.2 -0.1 0-0.2 0.1-0.2 0.2C37.5 10.3 37.4 10.5 37.4 10.7z"/>
  <path fill="#808080" d="M39.3 11.7C39.2 11.9 39.2 12 39.1 12c-0.1 0-0.1 0.1-0.2 0.1 -0.1 0-0.2-0.1-0.3-0.2 -0.1-0.1-0.1-0.3-0.1-0.5 0-0.1 0-0.2 0-0.3 0-0.1 0.1-0.2 0.1-0.2 0-0.1 0.1-0.1 0.1-0.1 0 0 0.1 0 0.2-0.1 0.2 0 0.3-0.1 0.4-0.1 0-0.1 0-0.1 0-0.1 0-0.2 0-0.3-0.1-0.3 -0.1-0.1-0.1-0.1-0.2-0.1 -0.1 0-0.2 0-0.2 0.1 0 0.1-0.1 0.2-0.1 0.3l-0.2 0c0-0.2 0-0.3 0.1-0.4 0-0.1 0.1-0.2 0.2-0.2 0.1-0.1 0.2-0.1 0.3-0.1 0.1 0 0.2 0 0.2 0.1 0.1 0 0.1 0.1 0.1 0.2 0 0.1 0.1 0.2 0.1 0.3 0 0.1 0 0.2 0 0.4v0.5c0 0.4 0 0.6 0 0.7 0 0.1 0 0.2 0.1 0.3h-0.2C39.3 11.9 39.3 11.9 39.3 11.7zM39.3 10.9c-0.1 0.1-0.2 0.1-0.3 0.1 -0.1 0-0.1 0-0.2 0.1 0 0-0.1 0.1-0.1 0.1 0 0.1 0 0.1 0 0.2 0 0.1 0 0.2 0.1 0.3 0 0.1 0.1 0.1 0.2 0.1 0.1 0 0.1 0 0.2-0.1 0.1-0.1 0.1-0.2 0.1-0.3 0-0.1 0-0.2 0-0.4V10.9z"/>
  <path fill="#808080" d="M39.8 12V9.8h0.2v0.3c0-0.1 0.1-0.2 0.2-0.3 0.1-0.1 0.1-0.1 0.2-0.1 0.1 0 0.2 0 0.2 0.1 0.1 0.1 0.1 0.2 0.1 0.3 0.1-0.3 0.2-0.4 0.4-0.4 0.1 0 0.2 0.1 0.3 0.2 0.1 0.1 0.1 0.3 0.1 0.6v1.6h-0.2v-1.4c0-0.2 0-0.3 0-0.3 0-0.1 0-0.1-0.1-0.2 0 0-0.1-0.1-0.1-0.1 -0.1 0-0.2 0.1-0.2 0.2 -0.1 0.1-0.1 0.3-0.1 0.5v1.3h-0.2V10.6c0-0.2 0-0.3 0-0.4 0-0.1-0.1-0.1-0.2-0.1 -0.1 0-0.1 0-0.2 0.1 0 0.1-0.1 0.1-0.1 0.3 0 0.1 0 0.3 0 0.5v1.2H39.8z"/>
  <path fill="#808080" d="M12.6 18.1l0-0.4c0 0 0.1 0 0.1 0 0 0 0.1 0 0.1 0s0-0.1 0.1-0.1c0 0 0-0.1 0.1-0.3 0 0 0-0.1 0-0.1l-0.5-2.3h0.2l0.2 1.3c0 0.2 0.1 0.3 0.1 0.5 0-0.2 0.1-0.3 0.1-0.5l0.3-1.3h0.2l-0.5 2.3c0 0.2-0.1 0.4-0.1 0.5 0 0.1-0.1 0.2-0.1 0.3 0 0.1-0.1 0.1-0.2 0.1C12.7 18.2 12.6 18.2 12.6 18.1z"/>
  <path fill="#808080" d="M13.7 16.1c0-0.4 0.1-0.7 0.2-0.9 0.1-0.2 0.2-0.3 0.4-0.3 0.2 0 0.3 0.1 0.4 0.3 0.1 0.2 0.2 0.5 0.2 0.8 0 0.3 0 0.5-0.1 0.7 0 0.2-0.1 0.3-0.2 0.4s-0.2 0.1-0.3 0.1c-0.2 0-0.3-0.1-0.4-0.3C13.7 16.8 13.7 16.5 13.7 16.1zM13.9 16.1c0 0.3 0 0.5 0.1 0.7 0.1 0.1 0.2 0.2 0.3 0.2 0.1 0 0.2-0.1 0.3-0.2 0.1-0.1 0.1-0.4 0.1-0.7 0-0.3 0-0.5-0.1-0.6 -0.1-0.1-0.1-0.2-0.2-0.2 -0.1 0-0.2 0.1-0.3 0.2C13.9 15.6 13.9 15.8 13.9 16.1z"/>
  <path fill="#808080" d="M15.8 17.3v-0.3c-0.1 0.3-0.2 0.4-0.4 0.4 -0.1 0-0.1 0-0.2-0.1 -0.1-0.1-0.1-0.1-0.1-0.2 0-0.1 0-0.2-0.1-0.3 0-0.1 0-0.2 0-0.4v-1.4h0.2v1.3c0 0.2 0 0.3 0 0.4 0 0.1 0 0.2 0.1 0.2 0 0.1 0.1 0.1 0.2 0.1 0.1 0 0.1 0 0.2-0.1 0.1-0.1 0.1-0.1 0.1-0.2 0-0.1 0-0.2 0-0.4v-1.2h0.2v2.3H15.8z"/>
  <path fill="#808080" d="M17.7 17.3v-0.3c-0.1 0.2-0.2 0.3-0.3 0.3 -0.1 0-0.2 0-0.3-0.1 -0.1-0.1-0.1-0.2-0.2-0.4 0-0.2-0.1-0.4-0.1-0.6 0-0.2 0-0.4 0.1-0.6 0-0.2 0.1-0.3 0.2-0.4 0.1-0.1 0.2-0.1 0.3-0.1 0.1 0 0.1 0 0.2 0.1 0.1 0.1 0.1 0.1 0.1 0.2v-1.1h0.2v3.1H17.7zM17.1 16.1c0 0.3 0 0.5 0.1 0.7 0.1 0.1 0.1 0.2 0.2 0.2 0.1 0 0.2-0.1 0.2-0.2 0.1-0.1 0.1-0.3 0.1-0.6 0-0.3 0-0.5-0.1-0.7 -0.1-0.1-0.1-0.2-0.2-0.2 -0.1 0-0.2 0.1-0.2 0.2C17.1 15.6 17.1 15.8 17.1 16.1z"/>
  <path fill="#808080" d="M18.2 14.6v-0.4h0.2v0.4H18.2zM18.2 17.3v-2.3h0.2v2.3H18.2z"/>
  <path fill="#808080" d="M19.5 17.3v-0.3c-0.1 0.2-0.2 0.3-0.3 0.3 -0.1 0-0.2 0-0.3-0.1 -0.1-0.1-0.1-0.2-0.2-0.4 0-0.2-0.1-0.4-0.1-0.6 0-0.2 0-0.4 0.1-0.6 0-0.2 0.1-0.3 0.2-0.4 0.1-0.1 0.2-0.1 0.3-0.1 0.1 0 0.1 0 0.2 0.1 0.1 0.1 0.1 0.1 0.1 0.2v-1.1h0.2v3.1H19.5zM18.9 16.1c0 0.3 0 0.5 0.1 0.7 0.1 0.1 0.1 0.2 0.2 0.2 0.1 0 0.2-0.1 0.2-0.2 0.1-0.1 0.1-0.3 0.1-0.6 0-0.3 0-0.5-0.1-0.7 -0.1-0.1-0.1-0.2-0.2-0.2 -0.1 0-0.2 0.1-0.2 0.2C18.9 15.6 18.9 15.8 18.9 16.1z"/>
  <path fill="#808080" d="M21.4 17c-0.1 0.1-0.1 0.2-0.2 0.3 -0.1 0-0.1 0.1-0.2 0.1 -0.1 0-0.2-0.1-0.3-0.2 -0.1-0.1-0.1-0.3-0.1-0.5 0-0.1 0-0.2 0-0.3 0-0.1 0.1-0.2 0.1-0.2 0-0.1 0.1-0.1 0.1-0.1 0 0 0.1 0 0.2-0.1 0.2 0 0.3-0.1 0.4-0.1 0-0.1 0-0.1 0-0.1 0-0.2 0-0.3-0.1-0.3 -0.1-0.1-0.1-0.1-0.2-0.1 -0.1 0-0.2 0-0.2 0.1 0 0.1-0.1 0.2-0.1 0.3l-0.2-0.1c0-0.2 0-0.3 0.1-0.4 0-0.1 0.1-0.2 0.2-0.2 0.1-0.1 0.2-0.1 0.3-0.1s0.2 0 0.2 0.1c0.1 0 0.1 0.1 0.1 0.2 0 0.1 0.1 0.2 0.1 0.3 0 0.1 0 0.2 0 0.4v0.5c0 0.4 0 0.6 0 0.7 0 0.1 0 0.2 0.1 0.3H21.5C21.5 17.2 21.5 17.1 21.4 17zM21.4 16.1c-0.1 0.1-0.2 0.1-0.3 0.1 -0.1 0-0.1 0-0.2 0.1 0 0-0.1 0.1-0.1 0.1 0 0.1 0 0.1 0 0.2 0 0.1 0 0.2 0.1 0.3 0 0.1 0.1 0.1 0.2 0.1s0.1 0 0.2-0.1c0.1-0.1 0.1-0.2 0.1-0.3 0-0.1 0-0.2 0-0.4V16.1z"/>
  <path fill="#808080" d="M22.6 17.5l0.2 0.1c0 0.1 0 0.2 0.1 0.3 0.1 0.1 0.1 0.1 0.2 0.1 0.1 0 0.2 0 0.2-0.1 0.1-0.1 0.1-0.2 0.1-0.3 0-0.1 0-0.2 0-0.5 -0.1 0.2-0.2 0.3-0.3 0.3 -0.2 0-0.3-0.1-0.4-0.3 -0.1-0.2-0.1-0.5-0.1-0.8 0-0.2 0-0.4 0.1-0.6 0-0.2 0.1-0.3 0.2-0.4 0.1-0.1 0.2-0.1 0.3-0.1 0.1 0 0.3 0.1 0.3 0.3v-0.3h0.2v2c0 0.4 0 0.6-0.1 0.8 0 0.1-0.1 0.3-0.2 0.4 -0.1 0.1-0.2 0.1-0.3 0.1 -0.1 0-0.3-0.1-0.3-0.2C22.6 17.9 22.6 17.7 22.6 17.5zM22.7 16.1c0 0.3 0 0.5 0.1 0.7 0.1 0.1 0.1 0.2 0.2 0.2 0.1 0 0.2-0.1 0.2-0.2 0.1-0.1 0.1-0.3 0.1-0.6 0-0.3 0-0.5-0.1-0.6 -0.1-0.1-0.1-0.2-0.2-0.2 -0.1 0-0.2 0.1-0.2 0.2C22.8 15.6 22.7 15.8 22.7 16.1z"/>
  <path fill="#808080" d="M23.9 17.3v-2.3h0.2v0.3c0-0.2 0.1-0.3 0.1-0.3 0-0.1 0.1-0.1 0.1-0.1 0.1 0 0.1 0 0.2 0.1l-0.1 0.4c0-0.1-0.1-0.1-0.1-0.1 0 0-0.1 0-0.1 0.1 0 0.1-0.1 0.1-0.1 0.2 0 0.1 0 0.3 0 0.4v1.2H23.9z"/>
  <path fill="#808080" d="M25.5 16.5l0.2 0.1c0 0.2-0.1 0.4-0.2 0.5 -0.1 0.1-0.2 0.2-0.3 0.2 -0.2 0-0.3-0.1-0.4-0.3 -0.1-0.2-0.2-0.5-0.2-0.9 0-0.4 0.1-0.7 0.2-0.9 0.1-0.2 0.2-0.3 0.4-0.3 0.2 0 0.3 0.1 0.4 0.3 0.1 0.2 0.2 0.5 0.2 0.9 0 0 0 0.1 0 0.1h-0.9c0 0.2 0 0.4 0.1 0.6s0.1 0.2 0.3 0.2c0.1 0 0.1 0 0.2-0.1C25.4 16.8 25.4 16.7 25.5 16.5zM24.8 15.9h0.7c0-0.2 0-0.3-0.1-0.4 -0.1-0.1-0.1-0.2-0.2-0.2 -0.1 0-0.2 0.1-0.2 0.2C24.8 15.6 24.8 15.7 24.8 15.9z"/>
  <path fill="#808080" d="M26.7 17c-0.1 0.1-0.1 0.2-0.2 0.3 -0.1 0-0.1 0.1-0.2 0.1 -0.1 0-0.2-0.1-0.3-0.2 -0.1-0.1-0.1-0.3-0.1-0.5 0-0.1 0-0.2 0-0.3 0-0.1 0.1-0.2 0.1-0.2 0-0.1 0.1-0.1 0.1-0.1 0 0 0.1 0 0.2-0.1 0.2 0 0.3-0.1 0.4-0.1 0-0.1 0-0.1 0-0.1 0-0.2 0-0.3-0.1-0.3 -0.1-0.1-0.1-0.1-0.2-0.1 -0.1 0-0.2 0-0.2 0.1 0 0.1-0.1 0.2-0.1 0.3l-0.2-0.1c0-0.2 0-0.3 0.1-0.4 0-0.1 0.1-0.2 0.2-0.2 0.1-0.1 0.2-0.1 0.3-0.1 0.1 0 0.2 0 0.2 0.1 0.1 0 0.1 0.1 0.1 0.2 0 0.1 0.1 0.2 0.1 0.3 0 0.1 0 0.2 0 0.4v0.5c0 0.4 0 0.6 0 0.7 0 0.1 0 0.2 0.1 0.3h-0.2C26.7 17.2 26.7 17.1 26.7 17zM26.7 16.1c-0.1 0.1-0.2 0.1-0.3 0.1 -0.1 0-0.1 0-0.2 0.1 0 0-0.1 0.1-0.1 0.1 0 0.1 0 0.1 0 0.2 0 0.1 0 0.2 0.1 0.3 0 0.1 0.1 0.1 0.2 0.1s0.1 0 0.2-0.1c0.1-0.1 0.1-0.2 0.1-0.3 0-0.1 0-0.2 0-0.4V16.1z"/>
  <path fill="#808080" d="M27.6 16.9l0 0.3c-0.1 0-0.1 0-0.2 0 -0.1 0-0.1 0-0.2-0.1 0 0-0.1-0.1-0.1-0.2 0-0.1 0-0.2 0-0.5v-1.3h-0.1v-0.3h0.1v-0.6l0.2-0.2v0.8h0.2v0.3h-0.2v1.3c0 0.1 0 0.2 0 0.2 0 0 0 0.1 0 0.1 0 0 0 0 0.1 0C27.6 16.9 27.6 16.9 27.6 16.9z"/>
  <path fill="#808080" d="M28.2 18.2l0-0.3c0 0 0.1 0 0.1 0 0 0 0.1 0 0.1-0.1s0-0.2 0-0.4v-2.4h0.2v2.4c0 0.3 0 0.5-0.1 0.6 0 0.1-0.1 0.2-0.2 0.2C28.3 18.2 28.3 18.2 28.2 18.2zM28.5 14.6v-0.4h0.2v0.4H28.5z"/>
  <path fill="#808080" d="M28.9 16.1c0-0.4 0.1-0.7 0.2-0.9 0.1-0.2 0.2-0.3 0.4-0.3 0.2 0 0.3 0.1 0.4 0.3 0.1 0.2 0.2 0.5 0.2 0.8 0 0.3 0 0.5-0.1 0.7 0 0.2-0.1 0.3-0.2 0.4 -0.1 0.1-0.2 0.1-0.3 0.1 -0.2 0-0.3-0.1-0.4-0.3C29 16.8 28.9 16.5 28.9 16.1zM29.1 16.1c0 0.3 0 0.5 0.1 0.7 0.1 0.1 0.2 0.2 0.3 0.2 0.1 0 0.2-0.1 0.3-0.2 0.1-0.1 0.1-0.4 0.1-0.7 0-0.3 0-0.5-0.1-0.6 -0.1-0.1-0.1-0.2-0.2-0.2s-0.2 0.1-0.2 0.2C29.2 15.6 29.1 15.8 29.1 16.1z"/>
  <path fill="#808080" d="M30.5 17.3h-0.2v-3.1h0.2v1.1c0.1-0.2 0.2-0.3 0.3-0.3 0.1 0 0.1 0 0.2 0.1 0.1 0.1 0.1 0.1 0.2 0.2 0 0.1 0.1 0.2 0.1 0.4 0 0.1 0 0.3 0 0.5 0 0.4 0 0.7-0.2 0.9 -0.1 0.2-0.2 0.3-0.4 0.3 -0.1 0-0.2-0.1-0.3-0.3V17.3zM30.5 16.1c0 0.3 0 0.5 0.1 0.6 0.1 0.2 0.1 0.3 0.3 0.3 0.1 0 0.2-0.1 0.2-0.2 0.1-0.1 0.1-0.4 0.1-0.7 0-0.3 0-0.5-0.1-0.7 -0.1-0.1-0.1-0.2-0.2-0.2 -0.1 0-0.2 0.1-0.2 0.2C30.5 15.6 30.5 15.8 30.5 16.1z"/>
  <path fill="#808080" d="M32.4 17.3l-0.4-2.3h0.2l0.2 1.3 0.1 0.5c0 0 0-0.2 0.1-0.5l0.2-1.3h0.2l0.2 1.3 0.1 0.4 0.1-0.4 0.2-1.3h0.2l-0.4 2.3h-0.2l-0.2-1.4 0-0.4 -0.2 1.7H32.4z"/>
  <path fill="#808080" d="M33.8 14.6v-0.4h0.2v0.4H33.8zM33.8 17.3v-2.3h0.2v2.3H33.8z"/>
  <path fill="#808080" d="M34.8 16.9l0 0.3c-0.1 0-0.1 0-0.2 0 -0.1 0-0.1 0-0.2-0.1 0 0-0.1-0.1-0.1-0.2 0-0.1 0-0.2 0-0.5v-1.3h-0.1v-0.3h0.1v-0.6l0.2-0.2v0.8h0.2v0.3h-0.2v1.3c0 0.1 0 0.2 0 0.2 0 0 0 0.1 0 0.1 0 0 0 0 0.1 0C34.7 16.9 34.8 16.9 34.8 16.9z"/>
  <path fill="#808080" d="M35 17.3v-3.1H35.2v1.1c0.1-0.2 0.2-0.3 0.4-0.3 0.1 0 0.2 0 0.2 0.1 0.1 0.1 0.1 0.2 0.1 0.3 0 0.1 0 0.3 0 0.5v1.4h-0.2v-1.4c0-0.2 0-0.3-0.1-0.4 0-0.1-0.1-0.1-0.2-0.1 -0.1 0-0.1 0-0.2 0.1 -0.1 0.1-0.1 0.1-0.1 0.2 0 0.1 0 0.2 0 0.4v1.2H35z"/>
  <path fill="#808080" d="M37.7 17c-0.1 0.1-0.1 0.2-0.2 0.3 -0.1 0-0.1 0.1-0.2 0.1 -0.1 0-0.2-0.1-0.3-0.2 -0.1-0.1-0.1-0.3-0.1-0.5 0-0.1 0-0.2 0-0.3 0-0.1 0.1-0.2 0.1-0.2 0-0.1 0.1-0.1 0.1-0.1 0 0 0.1 0 0.2-0.1 0.2 0 0.3-0.1 0.4-0.1 0-0.1 0-0.1 0-0.1 0-0.2 0-0.3-0.1-0.3 0-0.1-0.1-0.1-0.2-0.1 -0.1 0-0.2 0-0.2 0.1 0 0.1-0.1 0.2-0.1 0.3l-0.2-0.1c0-0.2 0-0.3 0.1-0.4 0-0.1 0.1-0.2 0.2-0.2 0.1-0.1 0.2-0.1 0.3-0.1s0.2 0 0.3 0.1c0.1 0 0.1 0.1 0.1 0.2 0 0.1 0.1 0.2 0.1 0.3 0 0.1 0 0.2 0 0.4v0.5c0 0.4 0 0.6 0 0.7 0 0.1 0 0.2 0.1 0.3h-0.2C37.7 17.2 37.7 17.1 37.7 17zM37.7 16.1c-0.1 0.1-0.2 0.1-0.3 0.1 -0.1 0-0.1 0-0.2 0.1 0 0-0.1 0.1-0.1 0.1 0 0.1 0 0.1 0 0.2 0 0.1 0 0.2 0.1 0.3 0 0.1 0.1 0.1 0.2 0.1 0.1 0 0.1 0 0.2-0.1 0.1-0.1 0.1-0.2 0.1-0.3 0-0.1 0-0.2 0-0.4V16.1z"/>
  <path fill="#808080" d="M38.2 17.3v-3.1h0.2v3.1H38.2z"/>
  <path fill="#808080" d="M38.7 17.3v-3.1h0.2v3.1H38.7z"/>
  <path fill="#808080" d="M13.4 22.2c-0.1 0.1-0.1 0.2-0.2 0.3 -0.1 0-0.1 0.1-0.2 0.1 -0.1 0-0.2-0.1-0.3-0.2 -0.1-0.1-0.1-0.3-0.1-0.5 0-0.1 0-0.2 0-0.3 0-0.1 0.1-0.2 0.1-0.2 0-0.1 0.1-0.1 0.1-0.1 0 0 0.1 0 0.2-0.1 0.2 0 0.3-0.1 0.4-0.1 0-0.1 0-0.1 0-0.1 0-0.2 0-0.3-0.1-0.3 -0.1-0.1-0.1-0.1-0.2-0.1 -0.1 0-0.2 0-0.2 0.1 0 0.1-0.1 0.2-0.1 0.3l-0.2-0.1c0-0.2 0-0.3 0.1-0.4 0-0.1 0.1-0.2 0.2-0.2 0.1-0.1 0.2-0.1 0.3-0.1 0.1 0 0.2 0 0.2 0.1 0.1 0 0.1 0.1 0.1 0.2 0 0.1 0.1 0.2 0.1 0.3 0 0.1 0 0.2 0 0.4v0.5c0 0.4 0 0.6 0 0.7 0 0.1 0 0.2 0.1 0.3h-0.2C13.4 22.4 13.4 22.3 13.4 22.2zM13.4 21.4c-0.1 0.1-0.2 0.1-0.3 0.1 -0.1 0-0.1 0-0.2 0.1 0 0-0.1 0.1-0.1 0.1 0 0.1 0 0.1 0 0.2 0 0.1 0 0.2 0.1 0.3 0 0.1 0.1 0.1 0.2 0.1 0.1 0 0.1 0 0.2-0.1 0.1-0.1 0.1-0.2 0.1-0.3 0-0.1 0-0.2 0-0.4V21.4z"/>
  <path fill="#808080" d="M13.9 23.4V20.3h0.2v0.3c0-0.1 0.1-0.2 0.1-0.3 0.1-0.1 0.1-0.1 0.2-0.1 0.1 0 0.2 0.1 0.3 0.2 0.1 0.1 0.1 0.2 0.2 0.4 0 0.2 0.1 0.4 0.1 0.6 0 0.2 0 0.4-0.1 0.6 0 0.2-0.1 0.3-0.2 0.4 -0.1 0.1-0.2 0.1-0.3 0.1 -0.1 0-0.1 0-0.2-0.1 -0.1-0.1-0.1-0.1-0.1-0.2v1.1H13.9zM14.1 21.4c0 0.3 0 0.5 0.1 0.6 0.1 0.1 0.1 0.2 0.2 0.2 0.1 0 0.2-0.1 0.2-0.2 0.1-0.1 0.1-0.4 0.1-0.7 0-0.3 0-0.5-0.1-0.6 -0.1-0.1-0.1-0.2-0.2-0.2 -0.1 0-0.2 0.1-0.2 0.2C14.1 20.9 14.1 21.1 14.1 21.4z"/>
  <path fill="#808080" d="M15.2 23.4V20.3h0.2v0.3c0-0.1 0.1-0.2 0.1-0.3 0.1-0.1 0.1-0.1 0.2-0.1 0.1 0 0.2 0.1 0.3 0.2 0.1 0.1 0.1 0.2 0.2 0.4 0 0.2 0.1 0.4 0.1 0.6 0 0.2 0 0.4-0.1 0.6 0 0.2-0.1 0.3-0.2 0.4 -0.1 0.1-0.2 0.1-0.3 0.1 -0.1 0-0.1 0-0.2-0.1 -0.1-0.1-0.1-0.1-0.1-0.2v1.1H15.2zM15.4 21.4c0 0.3 0 0.5 0.1 0.6 0.1 0.1 0.1 0.2 0.2 0.2 0.1 0 0.2-0.1 0.2-0.2C16 21.9 16 21.7 16 21.4c0-0.3 0-0.5-0.1-0.6 -0.1-0.1-0.1-0.2-0.2-0.2 -0.1 0-0.2 0.1-0.2 0.2C15.4 20.9 15.4 21.1 15.4 21.4z"/>
  <path fill="#808080" d="M16.4 22.5v-3.1h0.2v3.1H16.4z"/>
  <path fill="#808080" d="M17 19.8v-0.4h0.2v0.4H17zM17 22.5V20.3h0.2v2.3H17z"/>
  <path fill="#808080" d="M18.3 21.7l0.2 0c0 0.3-0.1 0.5-0.2 0.6 -0.1 0.1-0.2 0.2-0.3 0.2 -0.2 0-0.3-0.1-0.4-0.3 -0.1-0.2-0.1-0.5-0.1-0.9 0-0.2 0-0.5 0.1-0.6 0-0.2 0.1-0.3 0.2-0.4 0.1-0.1 0.2-0.1 0.3-0.1 0.1 0 0.2 0.1 0.3 0.2 0.1 0.1 0.1 0.3 0.2 0.5l-0.2 0.1c0-0.2-0.1-0.3-0.1-0.3 0-0.1-0.1-0.1-0.2-0.1 -0.1 0-0.2 0.1-0.2 0.2 -0.1 0.1-0.1 0.4-0.1 0.7 0 0.3 0 0.5 0.1 0.7 0.1 0.1 0.1 0.2 0.2 0.2 0.1 0 0.1 0 0.2-0.1C18.2 22 18.2 21.9 18.3 21.7z"/>
  <path fill="#808080" d="M19.4 22.2c-0.1 0.1-0.1 0.2-0.2 0.3 -0.1 0-0.1 0.1-0.2 0.1 -0.1 0-0.2-0.1-0.3-0.2 -0.1-0.1-0.1-0.3-0.1-0.5 0-0.1 0-0.2 0-0.3 0-0.1 0.1-0.2 0.1-0.2 0-0.1 0.1-0.1 0.1-0.1 0 0 0.1 0 0.2-0.1 0.2 0 0.3-0.1 0.4-0.1 0-0.1 0-0.1 0-0.1 0-0.2 0-0.3-0.1-0.3 -0.1-0.1-0.1-0.1-0.2-0.1 -0.1 0-0.2 0-0.2 0.1 0 0.1-0.1 0.2-0.1 0.3l-0.2-0.1c0-0.2 0-0.3 0.1-0.4 0-0.1 0.1-0.2 0.2-0.2 0.1-0.1 0.2-0.1 0.3-0.1 0.1 0 0.2 0 0.2 0.1 0.1 0 0.1 0.1 0.1 0.2 0 0.1 0.1 0.2 0.1 0.3 0 0.1 0 0.2 0 0.4v0.5c0 0.4 0 0.6 0 0.7 0 0.1 0 0.2 0.1 0.3h-0.2C19.4 22.4 19.4 22.3 19.4 22.2zM19.4 21.4c-0.1 0.1-0.2 0.1-0.3 0.1 -0.1 0-0.1 0-0.2 0.1 0 0-0.1 0.1-0.1 0.1 0 0.1 0 0.1 0 0.2 0 0.1 0 0.2 0.1 0.3 0 0.1 0.1 0.1 0.2 0.1 0.1 0 0.1 0 0.2-0.1 0.1-0.1 0.1-0.2 0.1-0.3 0-0.1 0-0.2 0-0.4V21.4z"/>
  <path fill="#808080" d="M20.3 22.2l0 0.3c-0.1 0-0.1 0-0.2 0 -0.1 0-0.1 0-0.2-0.1 0 0-0.1-0.1-0.1-0.2 0-0.1 0-0.2 0-0.5v-1.3h-0.1V20.3h0.1v-0.6l0.2-0.2v0.8h0.2v0.3h-0.2v1.3c0 0.1 0 0.2 0 0.2 0 0 0 0.1 0 0.1 0 0 0 0 0.1 0C20.3 22.2 20.3 22.2 20.3 22.2z"/>
  <path fill="#808080" d="M20.5 19.8v-0.4h0.2v0.4H20.5zM20.5 22.5V20.3h0.2v2.3H20.5z"/>
  <path fill="#808080" d="M21 21.4c0-0.4 0.1-0.7 0.2-0.9 0.1-0.2 0.2-0.3 0.4-0.3 0.2 0 0.3 0.1 0.4 0.3 0.1 0.2 0.2 0.5 0.2 0.8 0 0.3 0 0.5-0.1 0.7 0 0.2-0.1 0.3-0.2 0.4 -0.1 0.1-0.2 0.1-0.3 0.1 -0.2 0-0.3-0.1-0.4-0.3C21 22.1 21 21.8 21 21.4zM21.2 21.4c0 0.3 0 0.5 0.1 0.7 0.1 0.1 0.2 0.2 0.3 0.2 0.1 0 0.2-0.1 0.3-0.2 0.1-0.1 0.1-0.4 0.1-0.7 0-0.3 0-0.5-0.1-0.6 -0.1-0.1-0.1-0.2-0.2-0.2s-0.2 0.1-0.2 0.2C21.2 20.9 21.2 21.1 21.2 21.4z"/>
  <path fill="#808080" d="M22.3 22.5V20.3h0.2v0.3c0.1-0.2 0.2-0.4 0.4-0.4 0.1 0 0.1 0 0.2 0.1 0.1 0 0.1 0.1 0.1 0.2s0.1 0.2 0.1 0.3c0 0.1 0 0.2 0 0.4v1.4h-0.2v-1.4c0-0.2 0-0.3 0-0.4 0-0.1 0-0.1-0.1-0.2 0 0-0.1-0.1-0.1-0.1 -0.1 0-0.2 0.1-0.2 0.2 -0.1 0.1-0.1 0.3-0.1 0.6v1.2H22.3z"/>
  <path fill="#808080" d="M24.7 22.2l0 0.3c-0.1 0-0.1 0-0.2 0 -0.1 0-0.1 0-0.2-0.1 0 0-0.1-0.1-0.1-0.2 0-0.1 0-0.2 0-0.5v-1.3h-0.1V20.3h0.1v-0.6l0.2-0.2v0.8h0.2v0.3h-0.2v1.3c0 0.1 0 0.2 0 0.2 0 0 0 0.1 0 0.1 0 0 0 0 0.1 0C24.6 22.2 24.7 22.2 24.7 22.2z"/>
  <path fill="#808080" d="M24.9 22.5v-3.1h0.2v1.1c0.1-0.2 0.2-0.3 0.4-0.3 0.1 0 0.2 0 0.2 0.1 0.1 0.1 0.1 0.2 0.1 0.3 0 0.1 0 0.3 0 0.5v1.4h-0.2V21.1c0-0.2 0-0.3-0.1-0.4 0-0.1-0.1-0.1-0.2-0.1 -0.1 0-0.1 0-0.2 0.1 -0.1 0.1-0.1 0.1-0.1 0.2s0 0.2 0 0.4v1.2H24.9z"/>
  <path fill="#808080" d="M27 22.2c-0.1 0.1-0.1 0.2-0.2 0.3 -0.1 0-0.1 0.1-0.2 0.1 -0.1 0-0.2-0.1-0.3-0.2 -0.1-0.1-0.1-0.3-0.1-0.5 0-0.1 0-0.2 0-0.3 0-0.1 0.1-0.2 0.1-0.2 0-0.1 0.1-0.1 0.1-0.1 0 0 0.1 0 0.2-0.1 0.2 0 0.3-0.1 0.4-0.1 0-0.1 0-0.1 0-0.1 0-0.2 0-0.3-0.1-0.3 -0.1-0.1-0.1-0.1-0.2-0.1 -0.1 0-0.2 0-0.2 0.1 0 0.1-0.1 0.2-0.1 0.3l-0.2-0.1c0-0.2 0-0.3 0.1-0.4 0-0.1 0.1-0.2 0.2-0.2 0.1-0.1 0.2-0.1 0.3-0.1 0.1 0 0.2 0 0.2 0.1 0.1 0 0.1 0.1 0.1 0.2 0 0.1 0.1 0.2 0.1 0.3 0 0.1 0 0.2 0 0.4v0.5c0 0.4 0 0.6 0 0.7 0 0.1 0 0.2 0.1 0.3h-0.2C27 22.4 27 22.3 27 22.2zM26.9 21.4c-0.1 0.1-0.2 0.1-0.3 0.1 -0.1 0-0.1 0-0.2 0.1 0 0-0.1 0.1-0.1 0.1 0 0.1 0 0.1 0 0.2 0 0.1 0 0.2 0.1 0.3 0 0.1 0.1 0.1 0.2 0.1 0.1 0 0.1 0 0.2-0.1 0.1-0.1 0.1-0.2 0.1-0.3 0-0.1 0-0.2 0-0.4V21.4z"/>
  <path fill="#808080" d="M27.9 22.2l0 0.3c-0.1 0-0.1 0-0.2 0 -0.1 0-0.1 0-0.2-0.1 0 0-0.1-0.1-0.1-0.2 0-0.1 0-0.2 0-0.5v-1.3h-0.1V20.3h0.1v-0.6l0.2-0.2v0.8h0.2v0.3H27.7v1.3c0 0.1 0 0.2 0 0.2 0 0 0 0.1 0 0.1 0 0 0 0 0.1 0C27.8 22.2 27.9 22.2 27.9 22.2z"/>
  <path fill="#808080" d="M29 22.5l-0.4-2.3h0.2l0.2 1.3 0.1 0.5c0 0 0-0.2 0.1-0.5l0.2-1.3h0.2l0.2 1.3 0.1 0.4 0.1-0.4 0.2-1.3h0.2l-0.4 2.3h-0.2l-0.2-1.4 0-0.4 -0.2 1.7H29z"/>
  <path fill="#808080" d="M31.2 22.2c-0.1 0.1-0.1 0.2-0.2 0.3 -0.1 0-0.1 0.1-0.2 0.1 -0.1 0-0.2-0.1-0.3-0.2 -0.1-0.1-0.1-0.3-0.1-0.5 0-0.1 0-0.2 0-0.3 0-0.1 0.1-0.2 0.1-0.2 0-0.1 0.1-0.1 0.1-0.1 0 0 0.1 0 0.2-0.1 0.2 0 0.3-0.1 0.4-0.1 0-0.1 0-0.1 0-0.1 0-0.2 0-0.3-0.1-0.3 -0.1-0.1-0.1-0.1-0.2-0.1 -0.1 0-0.2 0-0.2 0.1 0 0.1-0.1 0.2-0.1 0.3l-0.2-0.1c0-0.2 0-0.3 0.1-0.4 0-0.1 0.1-0.2 0.2-0.2 0.1-0.1 0.2-0.1 0.3-0.1 0.1 0 0.2 0 0.2 0.1 0.1 0 0.1 0.1 0.1 0.2 0 0.1 0.1 0.2 0.1 0.3 0 0.1 0 0.2 0 0.4v0.5c0 0.4 0 0.6 0 0.7 0 0.1 0 0.2 0.1 0.3h-0.2C31.2 22.4 31.2 22.3 31.2 22.2zM31.2 21.4c-0.1 0.1-0.2 0.1-0.3 0.1 -0.1 0-0.1 0-0.2 0.1 0 0-0.1 0.1-0.1 0.1 0 0.1 0 0.1 0 0.2 0 0.1 0 0.2 0.1 0.3 0 0.1 0.1 0.1 0.2 0.1 0.1 0 0.1 0 0.2-0.1 0.1-0.1 0.1-0.2 0.1-0.3 0-0.1 0-0.2 0-0.4V21.4z"/>
  <path fill="#808080" d="M31.6 21.8l0.2-0.1c0 0.2 0 0.3 0.1 0.4 0.1 0.1 0.1 0.1 0.2 0.1 0.1 0 0.2 0 0.2-0.1 0-0.1 0.1-0.2 0.1-0.3 0-0.1 0-0.2-0.1-0.2 0 0-0.1-0.1-0.2-0.1 -0.1-0.1-0.2-0.1-0.3-0.2 -0.1-0.1-0.1-0.1-0.1-0.2 0-0.1 0-0.2 0-0.3 0-0.1 0-0.2 0-0.3 0-0.1 0.1-0.2 0.1-0.2 0 0 0.1-0.1 0.1-0.1 0.1 0 0.1 0 0.2 0 0.1 0 0.2 0 0.2 0.1 0.1 0.1 0.1 0.1 0.2 0.2 0 0.1 0.1 0.2 0.1 0.4l-0.2 0.1c0-0.1 0-0.2-0.1-0.3 0-0.1-0.1-0.1-0.2-0.1 -0.1 0-0.2 0-0.2 0.1 0 0.1-0.1 0.1-0.1 0.2 0 0 0 0.1 0 0.1 0 0 0 0.1 0.1 0.1 0 0 0.1 0 0.2 0.1 0.1 0.1 0.2 0.1 0.3 0.2 0.1 0 0.1 0.1 0.1 0.2 0 0.1 0 0.2 0 0.3 0 0.1 0 0.2-0.1 0.4 0 0.1-0.1 0.2-0.2 0.3 -0.1 0.1-0.2 0.1-0.3 0.1 -0.2 0-0.3-0.1-0.4-0.2C31.7 22.3 31.6 22.1 31.6 21.8z"/>
  <path fill="#808080" d="M33.9 22.2l0 0.3c-0.1 0-0.1 0-0.2 0 -0.1 0-0.1 0-0.2-0.1 0 0-0.1-0.1-0.1-0.2 0-0.1 0-0.2 0-0.5v-1.3h-0.1V20.3h0.2v-0.6l0.2-0.2v0.8h0.2v0.3h-0.2v1.3c0 0.1 0 0.2 0 0.2 0 0 0 0.1 0 0.1 0 0 0 0 0.1 0C33.8 22.2 33.9 22.2 33.9 22.2z"/>
  <path fill="#808080" d="M34.1 22.5v-3.1h0.2v1.1c0.1-0.2 0.2-0.3 0.4-0.3 0.1 0 0.2 0 0.2 0.1 0.1 0.1 0.1 0.2 0.1 0.3 0 0.1 0 0.3 0 0.5v1.4h-0.2V21.1c0-0.2 0-0.3-0.1-0.4 0-0.1-0.1-0.1-0.2-0.1 -0.1 0-0.1 0-0.2 0.1s-0.1 0.1-0.1 0.2c0 0.1 0 0.2 0 0.4v1.2H34.1z"/>
  <path fill="#808080" d="M35.4 22.5V20.3h0.2v0.3c0-0.2 0.1-0.3 0.1-0.3 0-0.1 0.1-0.1 0.1-0.1 0.1 0 0.1 0 0.2 0.1l-0.1 0.4c0-0.1-0.1-0.1-0.1-0.1 0 0-0.1 0-0.1 0.1 0 0.1-0.1 0.1-0.1 0.2 0 0.1 0 0.3 0 0.4v1.2H35.4z"/>
  <path fill="#808080" d="M36.1 21.4c0-0.4 0.1-0.7 0.2-0.9 0.1-0.2 0.2-0.3 0.4-0.3 0.2 0 0.3 0.1 0.4 0.3s0.2 0.5 0.2 0.8c0 0.3 0 0.5-0.1 0.7s-0.1 0.3-0.2 0.4c-0.1 0.1-0.2 0.1-0.3 0.1 -0.2 0-0.3-0.1-0.4-0.3C36.1 22.1 36.1 21.8 36.1 21.4zM36.3 21.4c0 0.3 0 0.5 0.1 0.7 0.1 0.1 0.1 0.2 0.2 0.2 0.1 0 0.2-0.1 0.3-0.2 0.1-0.1 0.1-0.4 0.1-0.7 0-0.3 0-0.5-0.1-0.6 -0.1-0.1-0.1-0.2-0.3-0.2 -0.1 0-0.2 0.1-0.2 0.2C36.3 20.9 36.3 21.1 36.3 21.4z"/>
  <path fill="#808080" d="M37.6 22.5l-0.4-2.3h0.2l0.2 1.3 0.1 0.5c0 0 0-0.2 0.1-0.5l0.2-1.3h0.2l0.2 1.3 0.1 0.4 0.1-0.4 0.2-1.3h0.2l-0.4 2.3h-0.2l-0.2-1.4L38.1 20.8l-0.2 1.7H37.6z"/>
  <path fill="#808080" d="M39.1 22.5V20.3h0.2v0.3c0.1-0.2 0.2-0.4 0.4-0.4 0.1 0 0.1 0 0.2 0.1 0.1 0 0.1 0.1 0.1 0.2 0 0.1 0.1 0.2 0.1 0.3 0 0.1 0 0.2 0 0.4v1.4h-0.2v-1.4c0-0.2 0-0.3 0-0.4s0-0.1-0.1-0.2c0 0-0.1-0.1-0.1-0.1 -0.1 0-0.2 0.1-0.2 0.2 -0.1 0.1-0.1 0.3-0.1 0.6v1.2H39.1z"/>
  <path fill="#808080" d="M41.8 22.2c-0.1 0.1-0.1 0.2-0.2 0.3 -0.1 0-0.1 0.1-0.2 0.1 -0.1 0-0.2-0.1-0.3-0.2 -0.1-0.1-0.1-0.3-0.1-0.5 0-0.1 0-0.2 0-0.3 0-0.1 0.1-0.2 0.1-0.2 0-0.1 0.1-0.1 0.1-0.1 0 0 0.1 0 0.2-0.1 0.2 0 0.3-0.1 0.4-0.1 0-0.1 0-0.1 0-0.1 0-0.2 0-0.3-0.1-0.3 -0.1-0.1-0.1-0.1-0.2-0.1 -0.1 0-0.2 0-0.2 0.1 0 0.1-0.1 0.2-0.1 0.3l-0.2-0.1c0-0.2 0-0.3 0.1-0.4 0-0.1 0.1-0.2 0.2-0.2 0.1-0.1 0.2-0.1 0.3-0.1 0.1 0 0.2 0 0.2 0.1 0.1 0 0.1 0.1 0.1 0.2 0 0.1 0.1 0.2 0.1 0.3 0 0.1 0 0.2 0 0.4v0.5c0 0.4 0 0.6 0 0.7 0 0.1 0 0.2 0.1 0.3h-0.2C41.8 22.4 41.8 22.3 41.8 22.2zM41.8 21.4c-0.1 0.1-0.2 0.1-0.3 0.1 -0.1 0-0.1 0-0.2 0.1 0 0-0.1 0.1-0.1 0.1 0 0.1 0 0.1 0 0.2 0 0.1 0 0.2 0.1 0.3 0 0.1 0.1 0.1 0.2 0.1s0.1 0 0.2-0.1c0.1-0.1 0.1-0.2 0.1-0.3 0-0.1 0-0.2 0-0.4V21.4z"/>
  <path fill="#808080" d="M42.7 22.2l0 0.3c-0.1 0-0.1 0-0.1 0 -0.1 0-0.1 0-0.2-0.1 0 0-0.1-0.1-0.1-0.2 0-0.1 0-0.2 0-0.5v-1.3h-0.1V20.3h0.2v-0.6l0.2-0.2v0.8h0.2v0.3h-0.2v1.3c0 0.1 0 0.2 0 0.2 0 0 0 0.1 0 0.1 0 0 0 0 0.1 0C42.7 22.2 42.7 22.2 42.7 22.2z"/>
  <path fill="#808080" d="M12.6 28.6l0-0.4c0 0 0.1 0 0.1 0 0 0 0.1 0 0.1 0 0 0 0-0.1 0.1-0.1 0 0 0-0.1 0.1-0.3 0 0 0-0.1 0-0.1l-0.5-2.3h0.2l0.2 1.3c0 0.2 0.1 0.3 0.1 0.5 0-0.2 0.1-0.3 0.1-0.5l0.3-1.3h0.2l-0.5 2.3c0 0.2-0.1 0.4-0.1 0.5 0 0.1-0.1 0.2-0.1 0.3 0 0.1-0.1 0.1-0.2 0.1C12.7 28.7 12.6 28.7 12.6 28.6z"/>
  <path fill="#808080" d="M13.7 26.6c0-0.4 0.1-0.7 0.2-0.9 0.1-0.2 0.2-0.3 0.4-0.3 0.2 0 0.3 0.1 0.4 0.3 0.1 0.2 0.2 0.5 0.2 0.8 0 0.3 0 0.5-0.1 0.7 0 0.2-0.1 0.3-0.2 0.4 -0.1 0.1-0.2 0.1-0.3 0.1 -0.2 0-0.3-0.1-0.4-0.3C13.7 27.3 13.7 27 13.7 26.6zM13.9 26.6c0 0.3 0 0.5 0.1 0.7 0.1 0.1 0.2 0.2 0.3 0.2 0.1 0 0.2-0.1 0.3-0.2s0.1-0.4 0.1-0.7c0-0.3 0-0.5-0.1-0.6 -0.1-0.1-0.1-0.2-0.2-0.2 -0.1 0-0.2 0.1-0.3 0.2C13.9 26.1 13.9 26.3 13.9 26.6z"/>
  <path fill="#808080" d="M15.8 27.8v-0.3c-0.1 0.3-0.2 0.4-0.4 0.4 -0.1 0-0.1 0-0.2-0.1 -0.1 0-0.1-0.1-0.1-0.2 0-0.1 0-0.2-0.1-0.3 0-0.1 0-0.2 0-0.4v-1.4h0.2v1.3c0 0.2 0 0.3 0 0.4 0 0.1 0 0.2 0.1 0.2 0 0.1 0.1 0.1 0.2 0.1 0.1 0 0.1 0 0.2-0.1 0.1-0.1 0.1-0.1 0.1-0.2 0-0.1 0-0.2 0-0.4v-1.2h0.2v2.3H15.8z"/>
  <path fill="#808080" d="M16.4 27.8v-0.4h0.2v0.4H16.4z"/>
  <path fill="#808080" d="M13.1 33V30.3h-0.5v-0.4h1.3v0.4h-0.5v2.8H13.1z"/>
  <path fill="#808080" d="M14 33v-3.1h0.2v1.1c0.1-0.2 0.2-0.3 0.4-0.3 0.1 0 0.2 0 0.2 0.1 0.1 0.1 0.1 0.2 0.1 0.3 0 0.1 0 0.3 0 0.5v1.4h-0.2v-1.4c0-0.2 0-0.3-0.1-0.4 0-0.1-0.1-0.1-0.2-0.1 -0.1 0-0.1 0-0.2 0.1 -0.1 0.1-0.1 0.1-0.1 0.2 0 0.1 0 0.2 0 0.4v1.2H14z"/>
  <path fill="#808080" d="M15.3 30.3v-0.4h0.2v0.4H15.3zM15.3 33v-2.3h0.2v2.3H15.3z"/>
  <path fill="#808080" d="M15.7 32.3l0.2-0.1c0 0.2 0 0.3 0.1 0.3 0.1 0.1 0.1 0.1 0.2 0.1s0.2 0 0.2-0.1c0-0.1 0.1-0.2 0.1-0.3 0-0.1 0-0.2-0.1-0.2 0 0-0.1-0.1-0.2-0.1 -0.1-0.1-0.3-0.1-0.3-0.2 -0.1-0.1-0.1-0.1-0.1-0.2 0-0.1 0-0.2 0-0.3 0-0.1 0-0.2 0-0.3 0-0.1 0.1-0.2 0.1-0.2 0 0 0.1-0.1 0.1-0.1 0.1 0 0.1 0 0.2 0 0.1 0 0.2 0 0.2 0.1 0.1 0.1 0.1 0.1 0.2 0.2s0.1 0.2 0.1 0.4l-0.2 0.1c0-0.1 0-0.2-0.1-0.3 0-0.1-0.1-0.1-0.2-0.1 -0.1 0-0.2 0-0.2 0.1 0 0.1-0.1 0.1-0.1 0.2 0 0.1 0 0.1 0 0.1 0 0 0 0.1 0.1 0.1 0 0 0.1 0 0.2 0.1 0.1 0.1 0.2 0.1 0.3 0.2 0.1 0 0.1 0.1 0.1 0.2 0 0.1 0 0.2 0 0.3 0 0.1 0 0.3-0.1 0.4 0 0.1-0.1 0.2-0.2 0.3s-0.2 0.1-0.3 0.1c-0.2 0-0.3-0.1-0.4-0.2S15.7 32.6 15.7 32.3z"/>
  <path fill="#808080" d="M17.6 30.3v-0.4H17.8v0.4H17.6zM17.6 33v-2.3H17.8v2.3H17.6z"/>
  <path fill="#808080" d="M18 32.3l0.2-0.1c0 0.2 0 0.3 0.1 0.3 0.1 0.1 0.1 0.1 0.2 0.1 0.1 0 0.2 0 0.2-0.1 0-0.1 0.1-0.2 0.1-0.3 0-0.1 0-0.2-0.1-0.2 0 0-0.1-0.1-0.2-0.1 -0.1-0.1-0.3-0.1-0.3-0.2 -0.1-0.1-0.1-0.1-0.1-0.2 0-0.1 0-0.2 0-0.3 0-0.1 0-0.2 0-0.3 0-0.1 0.1-0.2 0.1-0.2 0 0 0.1-0.1 0.1-0.1 0.1 0 0.1 0 0.2 0 0.1 0 0.2 0 0.2 0.1 0.1 0.1 0.1 0.1 0.2 0.2 0 0.1 0.1 0.2 0.1 0.4l-0.2 0.1c0-0.1 0-0.2-0.1-0.3 0-0.1-0.1-0.1-0.2-0.1 -0.1 0-0.2 0-0.2 0.1 0 0.1-0.1 0.1-0.1 0.2 0 0.1 0 0.1 0 0.1 0 0 0 0.1 0.1 0.1 0 0 0.1 0 0.2 0.1 0.1 0.1 0.2 0.1 0.3 0.2 0.1 0 0.1 0.1 0.1 0.2 0 0.1 0 0.2 0 0.3 0 0.1 0 0.3-0.1 0.4 0 0.1-0.1 0.2-0.2 0.3 -0.1 0.1-0.2 0.1-0.3 0.1 -0.2 0-0.3-0.1-0.4-0.2C18.1 32.8 18.1 32.6 18 32.3z"/>
  <path fill="#808080" d="M20.3 32.7l0 0.3c-0.1 0-0.1 0-0.2 0 -0.1 0-0.1 0-0.2-0.1 0 0-0.1-0.1-0.1-0.2 0-0.1 0-0.2 0-0.5v-1.3h-0.1v-0.3h0.1v-0.6l0.2-0.2v0.8h0.2v0.3h-0.2v1.3c0 0.1 0 0.2 0 0.2 0 0 0 0.1 0 0.1 0 0 0 0 0.1 0C20.3 32.7 20.3 32.7 20.3 32.7z"/>
  <path fill="#808080" d="M20.5 33v-3.1h0.2v1.1c0.1-0.2 0.2-0.3 0.4-0.3 0.1 0 0.2 0 0.2 0.1 0.1 0.1 0.1 0.2 0.1 0.3 0 0.1 0 0.3 0 0.5v1.4h-0.2v-1.4c0-0.2 0-0.3-0.1-0.4 0-0.1-0.1-0.1-0.2-0.1 -0.1 0-0.1 0-0.2 0.1 -0.1 0.1-0.1 0.1-0.1 0.2 0 0.1 0 0.2 0 0.4v1.2H20.5z"/>
  <path fill="#808080" d="M22.6 32.3l0.2 0.1c0 0.2-0.1 0.4-0.2 0.5 -0.1 0.1-0.2 0.2-0.3 0.2 -0.2 0-0.3-0.1-0.4-0.3 -0.1-0.2-0.2-0.5-0.2-0.9 0-0.4 0.1-0.7 0.2-0.9 0.1-0.2 0.2-0.3 0.4-0.3 0.2 0 0.3 0.1 0.4 0.3 0.1 0.2 0.2 0.5 0.2 0.9 0 0 0 0.1 0 0.1h-0.9c0 0.2 0 0.4 0.1 0.6 0.1 0.1 0.1 0.2 0.3 0.2 0.1 0 0.1 0 0.2-0.1C22.6 32.6 22.6 32.4 22.6 32.3zM22 31.7h0.7c0-0.2 0-0.3-0.1-0.4 -0.1-0.1-0.1-0.2-0.2-0.2 -0.1 0-0.2 0.1-0.2 0.2C22 31.3 22 31.5 22 31.7z"/>
  <path fill="#808080" d="M23.8 33v-2h-0.2v-0.3h0.2V30.5c0-0.1 0-0.3 0-0.3 0-0.1 0.1-0.2 0.1-0.2 0-0.1 0.1-0.1 0.2-0.1 0.1 0 0.1 0 0.2 0l0 0.3c0 0-0.1 0-0.1 0 -0.1 0-0.1 0-0.1 0.1 0 0.1 0 0.1 0 0.3v0.2h0.2v0.3h-0.2v2H23.8z"/>
  <path fill="#808080" d="M24.4 30.3v-0.4h0.2v0.4H24.4zM24.4 33v-2.3h0.2v2.3H24.4z"/>
  <path fill="#808080" d="M24.9 33v-2.3h0.2v0.3c0.1-0.2 0.2-0.4 0.4-0.4 0.1 0 0.1 0 0.2 0.1 0.1 0.1 0.1 0.1 0.1 0.2 0 0.1 0.1 0.2 0.1 0.3 0 0.1 0 0.2 0 0.4v1.4h-0.2v-1.4c0-0.2 0-0.3 0-0.4 0-0.1 0-0.1-0.1-0.2 0 0-0.1-0.1-0.1-0.1 -0.1 0-0.2 0.1-0.2 0.2 -0.1 0.1-0.1 0.3-0.1 0.6v1.2H24.9z"/>
  <path fill="#808080" d="M26.9 32.7c-0.1 0.1-0.1 0.2-0.2 0.3 -0.1 0.1-0.1 0.1-0.2 0.1 -0.1 0-0.2-0.1-0.3-0.2 -0.1-0.1-0.1-0.3-0.1-0.5 0-0.1 0-0.2 0-0.3 0-0.1 0.1-0.2 0.1-0.2 0-0.1 0.1-0.1 0.1-0.1 0 0 0.1 0 0.2-0.1 0.2 0 0.3-0.1 0.4-0.1 0-0.1 0-0.1 0-0.1 0-0.2 0-0.3-0.1-0.3 -0.1-0.1-0.1-0.1-0.2-0.1 -0.1 0-0.2 0-0.2 0.1 0 0.1-0.1 0.2-0.1 0.3l-0.2-0.1c0-0.2 0-0.3 0.1-0.4 0-0.1 0.1-0.2 0.2-0.2 0.1-0.1 0.2-0.1 0.3-0.1 0.1 0 0.2 0 0.2 0.1 0.1 0 0.1 0.1 0.1 0.2 0 0.1 0.1 0.2 0.1 0.3 0 0.1 0 0.2 0 0.4v0.5c0 0.4 0 0.6 0 0.7 0 0.1 0 0.2 0.1 0.3h-0.2C27 32.9 27 32.8 26.9 32.7zM26.9 31.9c-0.1 0.1-0.2 0.1-0.3 0.1 -0.1 0-0.1 0-0.2 0.1 0 0-0.1 0.1-0.1 0.1 0 0.1 0 0.1 0 0.2 0 0.1 0 0.2 0.1 0.3 0 0.1 0.1 0.1 0.2 0.1 0.1 0 0.1 0 0.2-0.1 0.1-0.1 0.1-0.2 0.1-0.3 0-0.1 0-0.2 0-0.4V31.9z"/>
  <path fill="#808080" d="M27.4 33v-3.1h0.2v3.1H27.4z"/>
  <path fill="#808080" d="M28.5 32.3l0.2-0.1c0 0.2 0 0.3 0.1 0.3 0.1 0.1 0.1 0.1 0.2 0.1 0.1 0 0.2 0 0.2-0.1 0-0.1 0.1-0.2 0.1-0.3 0-0.1 0-0.2-0.1-0.2 0 0-0.1-0.1-0.2-0.1 -0.1-0.1-0.2-0.1-0.3-0.2 -0.1-0.1-0.1-0.1-0.1-0.2 0-0.1 0-0.2 0-0.3 0-0.1 0-0.2 0-0.3 0-0.1 0.1-0.2 0.1-0.2 0 0 0.1-0.1 0.1-0.1 0.1 0 0.1 0 0.2 0 0.1 0 0.2 0 0.2 0.1 0.1 0.1 0.1 0.1 0.2 0.2 0 0.1 0.1 0.2 0.1 0.4l-0.2 0.1c0-0.1 0-0.2-0.1-0.3 0-0.1-0.1-0.1-0.2-0.1 -0.1 0-0.2 0-0.2 0.1 0 0.1-0.1 0.1-0.1 0.2 0 0.1 0 0.1 0 0.1 0 0 0 0.1 0.1 0.1 0 0 0.1 0 0.2 0.1 0.1 0.1 0.2 0.1 0.3 0.2 0.1 0 0.1 0.1 0.1 0.2 0 0.1 0.1 0.2 0.1 0.3 0 0.1 0 0.3-0.1 0.4 0 0.1-0.1 0.2-0.2 0.3 -0.1 0.1-0.2 0.1-0.3 0.1 -0.2 0-0.3-0.1-0.4-0.2C28.6 32.8 28.5 32.6 28.5 32.3z"/>
  <path fill="#808080" d="M30.2 32.7l0 0.3c-0.1 0-0.1 0-0.2 0 -0.1 0-0.1 0-0.2-0.1 0 0-0.1-0.1-0.1-0.2 0-0.1 0-0.2 0-0.5v-1.3h-0.1v-0.3h0.1v-0.6l0.2-0.2v0.8h0.2v0.3h-0.2v1.3c0 0.1 0 0.2 0 0.2 0 0 0 0.1 0 0.1 0 0 0 0 0.1 0C30.1 32.7 30.2 32.7 30.2 32.7z"/>
  <path fill="#808080" d="M31.2 32.7c-0.1 0.1-0.1 0.2-0.2 0.3 -0.1 0.1-0.1 0.1-0.2 0.1 -0.1 0-0.2-0.1-0.3-0.2 -0.1-0.1-0.1-0.3-0.1-0.5 0-0.1 0-0.2 0-0.3 0-0.1 0.1-0.2 0.1-0.2 0-0.1 0.1-0.1 0.1-0.1 0 0 0.1 0 0.2-0.1 0.2 0 0.3-0.1 0.4-0.1 0-0.1 0-0.1 0-0.1 0-0.2 0-0.3-0.1-0.3 -0.1-0.1-0.1-0.1-0.2-0.1 -0.1 0-0.2 0-0.2 0.1 0 0.1-0.1 0.2-0.1 0.3l-0.2-0.1c0-0.2 0-0.3 0.1-0.4 0-0.1 0.1-0.2 0.2-0.2 0.1-0.1 0.2-0.1 0.3-0.1 0.1 0 0.2 0 0.2 0.1 0.1 0 0.1 0.1 0.1 0.2 0 0.1 0.1 0.2 0.1 0.3 0 0.1 0 0.2 0 0.4v0.5c0 0.4 0 0.6 0 0.7 0 0.1 0 0.2 0.1 0.3h-0.2C31.2 32.9 31.2 32.8 31.2 32.7zM31.2 31.9c-0.1 0.1-0.2 0.1-0.3 0.1 -0.1 0-0.1 0-0.2 0.1 0 0-0.1 0.1-0.1 0.1 0 0.1 0 0.1 0 0.2 0 0.1 0 0.2 0.1 0.3 0 0.1 0.1 0.1 0.2 0.1 0.1 0 0.1 0 0.2-0.1 0.1-0.1 0.1-0.2 0.1-0.3 0-0.1 0-0.2 0-0.4V31.9z"/>
  <path fill="#808080" d="M32.1 32.7l0 0.3c-0.1 0-0.1 0-0.2 0 -0.1 0-0.1 0-0.2-0.1 0 0-0.1-0.1-0.1-0.2 0-0.1 0-0.2 0-0.5v-1.3h-0.1v-0.3h0.1v-0.6l0.2-0.2v0.8h0.2v0.3h-0.2v1.3c0 0.1 0 0.2 0 0.2 0 0 0 0.1 0 0.1 0 0 0 0 0.1 0C32 32.7 32.1 32.7 32.1 32.7z"/>
  <path fill="#808080" d="M33.1 32.3l0.2 0.1c0 0.2-0.1 0.4-0.2 0.5s-0.2 0.2-0.3 0.2c-0.2 0-0.3-0.1-0.4-0.3 -0.1-0.2-0.2-0.5-0.2-0.9 0-0.4 0.1-0.7 0.2-0.9 0.1-0.2 0.2-0.3 0.4-0.3 0.2 0 0.3 0.1 0.4 0.3 0.1 0.2 0.2 0.5 0.2 0.9 0 0 0 0.1 0 0.1h-0.9c0 0.2 0 0.4 0.1 0.6 0.1 0.1 0.2 0.2 0.2 0.2 0.1 0 0.1 0 0.2-0.1C33.1 32.6 33.1 32.4 33.1 32.3zM32.5 31.7h0.7c0-0.2 0-0.3-0.1-0.4 -0.1-0.1-0.1-0.2-0.2-0.2 -0.1 0-0.2 0.1-0.2 0.2C32.5 31.3 32.5 31.5 32.5 31.7z"/>
  <path fill="#808080" d="M33.6 33v-2.3h0.2v0.3c0-0.1 0.1-0.2 0.1-0.3 0.1-0.1 0.1-0.1 0.2-0.1 0.1 0 0.2 0 0.2 0.1 0.1 0.1 0.1 0.2 0.1 0.3 0.1-0.3 0.2-0.4 0.4-0.4 0.1 0 0.2 0.1 0.3 0.2 0.1 0.1 0.1 0.3 0.1 0.6v1.6h-0.2v-1.4c0-0.2 0-0.3 0-0.3 0-0.1 0-0.1-0.1-0.2 0 0-0.1-0.1-0.1-0.1 -0.1 0-0.2 0.1-0.2 0.2 -0.1 0.1-0.1 0.3-0.1 0.5v1.3h-0.2v-1.5c0-0.2 0-0.3-0.1-0.4 0-0.1-0.1-0.1-0.2-0.1 -0.1 0-0.1 0-0.2 0.1 0 0.1-0.1 0.1-0.1 0.3 0 0.1 0 0.3 0 0.5v1.2H33.6z"/>
  <path fill="#808080" d="M36.3 32.3l0.2 0.1c0 0.2-0.1 0.4-0.2 0.5s-0.2 0.2-0.3 0.2c-0.2 0-0.3-0.1-0.4-0.3 -0.1-0.2-0.2-0.5-0.2-0.9 0-0.4 0.1-0.7 0.2-0.9 0.1-0.2 0.2-0.3 0.4-0.3 0.2 0 0.3 0.1 0.4 0.3 0.1 0.2 0.2 0.5 0.2 0.9 0 0 0 0.1 0 0.1h-0.9c0 0.2 0 0.4 0.1 0.6 0.1 0.1 0.2 0.2 0.2 0.2 0.1 0 0.1 0 0.2-0.1C36.2 32.6 36.3 32.4 36.3 32.3zM35.7 31.7h0.7c0-0.2 0-0.3-0.1-0.4 -0.1-0.1-0.1-0.2-0.3-0.2 -0.1 0-0.2 0.1-0.2 0.2C35.7 31.3 35.7 31.5 35.7 31.7z"/>
  <path fill="#808080" d="M36.8 33v-2.3h0.2v0.3c0.1-0.2 0.2-0.4 0.4-0.4 0.1 0 0.1 0 0.2 0.1 0.1 0.1 0.1 0.1 0.1 0.2 0 0.1 0.1 0.2 0.1 0.3 0 0.1 0 0.2 0 0.4v1.4h-0.2v-1.4c0-0.2 0-0.3 0-0.4 0-0.1 0-0.1-0.1-0.2 0 0-0.1-0.1-0.1-0.1 -0.1 0-0.2 0.1-0.2 0.2 -0.1 0.1-0.1 0.3-0.1 0.6v1.2H36.8z"/>
  <path fill="#808080" d="M38.5 32.7l0 0.3c-0.1 0-0.1 0-0.2 0 -0.1 0-0.1 0-0.2-0.1 0 0-0.1-0.1-0.1-0.2 0-0.1 0-0.2 0-0.5v-1.3h-0.1v-0.3H38.1v-0.6l0.2-0.2v0.8h0.2v0.3h-0.2v1.3c0 0.1 0 0.2 0 0.2 0 0 0 0.1 0 0.1 0 0 0 0 0.1 0C38.4 32.7 38.5 32.7 38.5 32.7z"/>
  <path fill="#808080" d="M39.8 32.7l0 0.3c-0.1 0-0.1 0-0.2 0 -0.1 0-0.1 0-0.2-0.1 0 0-0.1-0.1-0.1-0.2 0-0.1 0-0.2 0-0.5v-1.3h-0.1v-0.3h0.2v-0.6l0.2-0.2v0.8h0.2v0.3H39.6v1.3c0 0.1 0 0.2 0 0.2 0 0 0 0.1 0 0.1 0 0 0 0 0.1 0C39.7 32.7 39.7 32.7 39.8 32.7z"/>
  <path fill="#808080" d="M40 33v-3.1h0.2v1.1c0.1-0.2 0.2-0.3 0.4-0.3 0.1 0 0.2 0 0.2 0.1 0.1 0.1 0.1 0.2 0.1 0.3 0 0.1 0 0.3 0 0.5v1.4h-0.2v-1.4c0-0.2 0-0.3-0.1-0.4 0-0.1-0.1-0.1-0.2-0.1 -0.1 0-0.1 0-0.2 0.1 -0.1 0.1-0.1 0.1-0.1 0.2 0 0.1 0 0.2 0 0.4v1.2H40z"/>
  <path fill="#808080" d="M42 32.7c-0.1 0.1-0.1 0.2-0.2 0.3 -0.1 0.1-0.1 0.1-0.2 0.1 -0.1 0-0.2-0.1-0.3-0.2 -0.1-0.1-0.1-0.3-0.1-0.5 0-0.1 0-0.2 0-0.3 0-0.1 0.1-0.2 0.1-0.2 0-0.1 0.1-0.1 0.1-0.1 0 0 0.1 0 0.2-0.1 0.2 0 0.3-0.1 0.4-0.1 0-0.1 0-0.1 0-0.1 0-0.2 0-0.3-0.1-0.3 -0.1-0.1-0.1-0.1-0.2-0.1 -0.1 0-0.2 0-0.2 0.1 0 0.1-0.1 0.2-0.1 0.3l-0.2-0.1c0-0.2 0-0.3 0.1-0.4 0-0.1 0.1-0.2 0.2-0.2 0.1-0.1 0.2-0.1 0.3-0.1s0.2 0 0.2 0.1c0.1 0 0.1 0.1 0.1 0.2 0 0.1 0.1 0.2 0.1 0.3 0 0.1 0 0.2 0 0.4v0.5c0 0.4 0 0.6 0 0.7 0 0.1 0 0.2 0.1 0.3h-0.2C42.1 32.9 42 32.8 42 32.7zM42 31.9c-0.1 0.1-0.2 0.1-0.3 0.1 -0.1 0-0.1 0-0.2 0.1 0 0-0.1 0.1-0.1 0.1 0 0.1 0 0.1 0 0.2 0 0.1 0 0.2 0.1 0.3 0 0.1 0.1 0.1 0.2 0.1 0.1 0 0.1 0 0.2-0.1 0.1-0.1 0.1-0.2 0.1-0.3 0-0.1 0-0.2 0-0.4V31.9z"/>
  <path fill="#808080" d="M43 32.7l0 0.3c-0.1 0-0.1 0-0.2 0 -0.1 0-0.1 0-0.2-0.1 0 0-0.1-0.1-0.1-0.2 0-0.1 0-0.2 0-0.5v-1.3h-0.1v-0.3h0.1v-0.6l0.2-0.2v0.8h0.2v0.3h-0.2v1.3c0 0.1 0 0.2 0 0.2 0 0 0 0.1 0 0.1 0 0 0 0 0.1 0C42.9 32.7 42.9 32.7 43 32.7z"/>
  <path fill="#808080" d="M12.8 38.3l-0.4-2.3h0.2l0.2 1.3 0.1 0.5c0 0 0-0.2 0.1-0.5l0.2-1.3h0.2l0.2 1.3 0.1 0.4 0.1-0.4 0.2-1.3h0.2l-0.4 2.3h-0.2L13.3 36.9l0-0.4 -0.2 1.7H12.8z"/>
  <path fill="#808080" d="M14.3 35.6v-0.4h0.2v0.4H14.3zM14.3 38.3v-2.3h0.2v2.3H14.3z"/>
  <path fill="#808080" d="M14.8 38.3v-3.1h0.2v3.1H14.8z"/>
  <path fill="#808080" d="M15.3 38.3v-3.1h0.2v3.1H15.3z"/>
  <path fill="#808080" d="M16.6 38.3h-0.2v-3.1h0.2v1.1c0.1-0.2 0.2-0.3 0.3-0.3 0.1 0 0.1 0 0.2 0.1 0.1 0.1 0.1 0.1 0.2 0.2 0 0.1 0.1 0.2 0.1 0.4 0 0.1 0 0.3 0 0.5 0 0.4-0.1 0.7-0.2 0.9 -0.1 0.2-0.2 0.3-0.4 0.3 -0.1 0-0.2-0.1-0.3-0.3V38.3zM16.6 37.1c0 0.3 0 0.5 0.1 0.6 0.1 0.2 0.1 0.3 0.3 0.3 0.1 0 0.2-0.1 0.2-0.2 0.1-0.1 0.1-0.4 0.1-0.7 0-0.3 0-0.5-0.1-0.7 -0.1-0.1-0.1-0.2-0.2-0.2 -0.1 0-0.2 0.1-0.2 0.2C16.7 36.6 16.6 36.8 16.6 37.1z"/>
  <path fill="#808080" d="M18.5 37.5l0.2 0c0 0.2-0.1 0.4-0.2 0.5 -0.1 0.1-0.2 0.2-0.3 0.2 -0.2 0-0.3-0.1-0.4-0.3 -0.1-0.2-0.2-0.5-0.2-0.9 0-0.4 0.1-0.7 0.2-0.9 0.1-0.2 0.2-0.3 0.4-0.3 0.2 0 0.3 0.1 0.4 0.3 0.1 0.2 0.2 0.5 0.2 0.9 0 0 0 0.1 0 0.1h-0.9c0 0.3 0 0.4 0.1 0.6 0.1 0.1 0.1 0.2 0.2 0.2 0.1 0 0.1 0 0.2-0.1C18.5 37.8 18.5 37.7 18.5 37.5zM17.9 36.9h0.7c0-0.2 0-0.3-0.1-0.4 -0.1-0.1-0.1-0.2-0.2-0.2 -0.1 0-0.2 0.1-0.2 0.2C17.9 36.6 17.9 36.7 17.9 36.9z"/>
  <path fill="#808080" d="M19.6 38.4l0.2 0.1c0 0.1 0 0.2 0.1 0.3 0 0.1 0.1 0.1 0.2 0.1 0.1 0 0.2 0 0.2-0.1 0.1-0.1 0.1-0.2 0.1-0.3 0-0.1 0-0.2 0-0.5 -0.1 0.2-0.2 0.3-0.3 0.3 -0.2 0-0.3-0.1-0.4-0.3 -0.1-0.2-0.1-0.5-0.1-0.8 0-0.2 0-0.4 0.1-0.6 0-0.2 0.1-0.3 0.2-0.4 0.1-0.1 0.2-0.1 0.3-0.1 0.1 0 0.3 0.1 0.3 0.3v-0.3h0.2v2c0 0.4 0 0.6-0.1 0.8 0 0.1-0.1 0.3-0.2 0.4 -0.1 0.1-0.2 0.1-0.3 0.1 -0.1 0-0.3-0.1-0.3-0.2C19.6 38.9 19.6 38.7 19.6 38.4zM19.8 37.1c0 0.3 0 0.5 0.1 0.6 0.1 0.1 0.1 0.2 0.2 0.2s0.2-0.1 0.2-0.2c0.1-0.1 0.1-0.3 0.1-0.6 0-0.3 0-0.5-0.1-0.6 -0.1-0.1-0.1-0.2-0.2-0.2 -0.1 0-0.2 0.1-0.2 0.2C19.8 36.6 19.8 36.8 19.8 37.1z"/>
  <path fill="#808080" d="M20.8 37.1c0-0.4 0.1-0.7 0.2-0.9 0.1-0.2 0.2-0.3 0.4-0.3 0.2 0 0.3 0.1 0.4 0.3 0.1 0.2 0.2 0.5 0.2 0.8 0 0.3 0 0.5-0.1 0.7 0 0.2-0.1 0.3-0.2 0.4 -0.1 0.1-0.2 0.1-0.3 0.1 -0.2 0-0.3-0.1-0.4-0.3C20.9 37.8 20.8 37.5 20.8 37.1zM21.1 37.1c0 0.3 0 0.5 0.1 0.7 0.1 0.1 0.2 0.2 0.3 0.2 0.1 0 0.2-0.1 0.3-0.2 0.1-0.1 0.1-0.4 0.1-0.7 0-0.3 0-0.5-0.1-0.6 -0.1-0.1-0.2-0.2-0.2-0.2 -0.1 0-0.2 0.1-0.3 0.2C21.1 36.6 21.1 36.8 21.1 37.1z"/>
  <path fill="#808080" d="M22.2 35.6v-0.4h0.2v0.4H22.2zM22.2 38.3v-2.3h0.2v2.3H22.2z"/>
  <path fill="#808080" d="M22.7 38.3v-2.3h0.2v0.3c0.1-0.2 0.2-0.4 0.4-0.4 0.1 0 0.1 0 0.2 0.1 0.1 0 0.1 0.1 0.1 0.2 0 0.1 0.1 0.2 0.1 0.3 0 0.1 0 0.2 0 0.4v1.4h-0.2v-1.4c0-0.2 0-0.3 0-0.4 0-0.1 0-0.1-0.1-0.2s-0.1-0.1-0.1-0.1c-0.1 0-0.2 0.1-0.2 0.2 -0.1 0.1-0.1 0.3-0.1 0.6v1.2H22.7z"/>
  <path fill="#808080" d="M24 38.4l0.2 0.1c0 0.1 0 0.2 0.1 0.3 0.1 0.1 0.1 0.1 0.2 0.1 0.1 0 0.2 0 0.2-0.1 0.1-0.1 0.1-0.2 0.1-0.3 0-0.1 0-0.2 0-0.5 -0.1 0.2-0.2 0.3-0.3 0.3 -0.2 0-0.3-0.1-0.4-0.3 -0.1-0.2-0.1-0.5-0.1-0.8 0-0.2 0-0.4 0.1-0.6 0-0.2 0.1-0.3 0.2-0.4 0.1-0.1 0.2-0.1 0.3-0.1 0.1 0 0.3 0.1 0.3 0.3v-0.3h0.2v2c0 0.4 0 0.6-0.1 0.8 0 0.1-0.1 0.3-0.2 0.4 -0.1 0.1-0.2 0.1-0.3 0.1 -0.1 0-0.3-0.1-0.3-0.2C24 38.9 24 38.7 24 38.4zM24.1 37.1c0 0.3 0 0.5 0.1 0.6 0.1 0.1 0.1 0.2 0.2 0.2 0.1 0 0.2-0.1 0.2-0.2 0.1-0.1 0.1-0.3 0.1-0.6 0-0.3 0-0.5-0.1-0.6 -0.1-0.1-0.1-0.2-0.2-0.2 -0.1 0-0.2 0.1-0.2 0.2C24.2 36.6 24.1 36.8 24.1 37.1z"/>
  <path fill="#808080" d="M25.8 37.1c0-0.4 0.1-0.7 0.2-0.9 0.1-0.2 0.2-0.3 0.4-0.3 0.2 0 0.3 0.1 0.4 0.3 0.1 0.2 0.2 0.5 0.2 0.8 0 0.3 0 0.5-0.1 0.7 0 0.2-0.1 0.3-0.2 0.4 -0.1 0.1-0.2 0.1-0.3 0.1 -0.2 0-0.3-0.1-0.4-0.3C25.9 37.8 25.8 37.5 25.8 37.1zM26 37.1c0 0.3 0 0.5 0.1 0.7 0.1 0.1 0.2 0.2 0.3 0.2 0.1 0 0.2-0.1 0.3-0.2 0.1-0.1 0.1-0.4 0.1-0.7 0-0.3 0-0.5-0.1-0.6 -0.1-0.1-0.1-0.2-0.2-0.2 -0.1 0-0.2 0.1-0.3 0.2C26.1 36.6 26 36.8 26 37.1z"/>
  <path fill="#808080" d="M27.2 38.3v-2.3h0.2v0.3c0.1-0.2 0.2-0.4 0.4-0.4 0.1 0 0.1 0 0.2 0.1 0.1 0 0.1 0.1 0.1 0.2 0 0.1 0.1 0.2 0.1 0.3 0 0.1 0 0.2 0 0.4v1.4h-0.2v-1.4c0-0.2 0-0.3 0-0.4 0-0.1 0-0.1-0.1-0.2 0 0-0.1-0.1-0.1-0.1 -0.1 0-0.2 0.1-0.2 0.2 -0.1 0.1-0.1 0.3-0.1 0.6v1.2H27.2z"/>
  <path fill="#808080" d="M29.6 37.9l0 0.3c-0.1 0-0.1 0-0.2 0 -0.1 0-0.1 0-0.2-0.1 0 0-0.1-0.1-0.1-0.2 0-0.1 0-0.2 0-0.5v-1.3h-0.1v-0.3h0.1v-0.6l0.2-0.2v0.8h0.2v0.3h-0.2v1.3c0 0.1 0 0.2 0 0.2 0 0 0 0.1 0 0.1 0 0 0 0 0.1 0C29.5 37.9 29.5 37.9 29.6 37.9z"/>
  <path fill="#808080" d="M29.8 38.3v-3.1h0.2v1.1c0.1-0.2 0.2-0.3 0.4-0.3 0.1 0 0.2 0 0.2 0.1 0.1 0.1 0.1 0.2 0.1 0.3 0 0.1 0 0.3 0 0.5v1.4h-0.2v-1.4c0-0.2 0-0.3-0.1-0.4 0-0.1-0.1-0.1-0.2-0.1 -0.1 0-0.1 0-0.2 0.1 -0.1 0.1-0.1 0.1-0.1 0.2 0 0.1 0 0.2 0 0.4v1.2H29.8z"/>
  <path fill="#808080" d="M31 35.6v-0.4h0.2v0.4H31zM31 38.3v-2.3h0.2v2.3H31z"/>
  <path fill="#808080" d="M31.5 37.6l0.2-0.1c0 0.2 0 0.3 0.1 0.4 0.1 0.1 0.1 0.1 0.2 0.1 0.1 0 0.2 0 0.2-0.1 0-0.1 0.1-0.2 0.1-0.3 0-0.1 0-0.2-0.1-0.2 0 0-0.1-0.1-0.2-0.1 -0.1-0.1-0.2-0.1-0.3-0.2 -0.1-0.1-0.1-0.1-0.1-0.2 0-0.1 0-0.2 0-0.3 0-0.1 0-0.2 0-0.3 0-0.1 0.1-0.2 0.1-0.2 0 0 0.1-0.1 0.1-0.1 0.1 0 0.1 0 0.2 0 0.1 0 0.2 0 0.2 0.1 0.1 0.1 0.1 0.1 0.2 0.2 0 0.1 0.1 0.2 0.1 0.4l-0.2 0.1c0-0.1 0-0.2-0.1-0.3 0-0.1-0.1-0.1-0.2-0.1 -0.1 0-0.2 0-0.2 0.1 0 0.1-0.1 0.1-0.1 0.2 0 0.1 0 0.1 0 0.1 0 0 0 0.1 0.1 0.1 0 0 0.1 0 0.2 0.1 0.1 0.1 0.2 0.1 0.3 0.2 0.1 0 0.1 0.1 0.1 0.2 0 0.1 0 0.2 0 0.3 0 0.1 0 0.2-0.1 0.4 0 0.1-0.1 0.2-0.2 0.3 -0.1 0.1-0.2 0.1-0.3 0.1 -0.2 0-0.3-0.1-0.4-0.2C31.5 38 31.5 37.8 31.5 37.6z"/>
  <path fill="#808080" d="M33.3 35.6v-0.4h0.2v0.4H33.3zM33.3 38.3v-2.3h0.2v2.3H33.3z"/>
  <path fill="#808080" d="M33.8 38.3v-2.3h0.2v0.3c0-0.1 0.1-0.2 0.1-0.3 0.1-0.1 0.1-0.1 0.2-0.1 0.1 0 0.2 0 0.2 0.1 0.1 0.1 0.1 0.2 0.1 0.3 0.1-0.3 0.2-0.4 0.4-0.4 0.1 0 0.2 0.1 0.3 0.2 0.1 0.1 0.1 0.3 0.1 0.6v1.6h-0.2v-1.4c0-0.2 0-0.3 0-0.3 0-0.1 0-0.1-0.1-0.2 0 0-0.1-0.1-0.1-0.1 -0.1 0-0.2 0.1-0.2 0.2 -0.1 0.1-0.1 0.3-0.1 0.5v1.3h-0.2v-1.5c0-0.2 0-0.3 0-0.4 0-0.1-0.1-0.1-0.2-0.1 -0.1 0-0.1 0-0.2 0.1 0 0.1-0.1 0.1-0.1 0.2 0 0.1 0 0.3 0 0.5v1.2H33.8z"/>
  <path fill="#808080" d="M36.5 38c-0.1 0.1-0.1 0.2-0.2 0.3 -0.1 0.1-0.1 0.1-0.2 0.1 -0.1 0-0.2-0.1-0.3-0.2 -0.1-0.1-0.1-0.3-0.1-0.5 0-0.1 0-0.2 0-0.3 0-0.1 0.1-0.2 0.1-0.2 0-0.1 0.1-0.1 0.1-0.1 0 0 0.1 0 0.2-0.1 0.2 0 0.3-0.1 0.4-0.1 0-0.1 0-0.1 0-0.1 0-0.2 0-0.3-0.1-0.3 -0.1-0.1-0.1-0.1-0.2-0.1 -0.1 0-0.2 0-0.2 0.1 0 0.1-0.1 0.2-0.1 0.3l-0.2-0.1c0-0.2 0-0.3 0.1-0.4 0-0.1 0.1-0.2 0.2-0.2 0.1-0.1 0.2-0.1 0.3-0.1 0.1 0 0.2 0 0.2 0.1 0.1 0 0.1 0.1 0.1 0.2 0 0.1 0.1 0.2 0.1 0.3 0 0.1 0 0.2 0 0.4v0.5c0 0.4 0 0.6 0 0.7 0 0.1 0 0.2 0.1 0.3h-0.2C36.6 38.2 36.5 38.1 36.5 38zM36.5 37.1c-0.1 0.1-0.2 0.1-0.3 0.1 -0.1 0-0.1 0-0.2 0.1 0 0-0.1 0.1-0.1 0.1 0 0.1 0 0.1 0 0.2 0 0.1 0 0.2 0.1 0.3 0 0.1 0.1 0.1 0.2 0.1 0.1 0 0.1 0 0.2-0.1 0.1-0.1 0.1-0.2 0.1-0.3 0-0.1 0-0.2 0-0.4V37.1z"/>
  <path fill="#808080" d="M37 38.4l0.2 0.1c0 0.1 0 0.2 0.1 0.3 0.1 0.1 0.1 0.1 0.2 0.1 0.1 0 0.2 0 0.2-0.1 0-0.1 0.1-0.2 0.1-0.3 0-0.1 0-0.2 0-0.5 -0.1 0.2-0.2 0.3-0.3 0.3 -0.2 0-0.3-0.1-0.4-0.3 -0.1-0.2-0.1-0.5-0.1-0.8 0-0.2 0-0.4 0.1-0.6 0-0.2 0.1-0.3 0.2-0.4 0.1-0.1 0.2-0.1 0.3-0.1 0.1 0 0.3 0.1 0.3 0.3v-0.3h0.2v2c0 0.4 0 0.6-0.1 0.8 0 0.1-0.1 0.3-0.2 0.4 -0.1 0.1-0.2 0.1-0.3 0.1 -0.1 0-0.3-0.1-0.3-0.2C37 38.9 37 38.7 37 38.4zM37.2 37.1c0 0.3 0 0.5 0.1 0.6 0.1 0.1 0.1 0.2 0.2 0.2s0.2-0.1 0.2-0.2c0.1-0.1 0.1-0.3 0.1-0.6 0-0.3 0-0.5-0.1-0.6 -0.1-0.1-0.1-0.2-0.2-0.2 -0.1 0-0.2 0.1-0.2 0.2C37.2 36.6 37.2 36.8 37.2 37.1z"/>
  <path fill="#808080" d="M39.1 37.5l0.2 0c0 0.2-0.1 0.4-0.2 0.5 -0.1 0.1-0.2 0.2-0.3 0.2 -0.2 0-0.3-0.1-0.4-0.3 -0.1-0.2-0.2-0.5-0.2-0.9 0-0.4 0.1-0.7 0.2-0.9 0.1-0.2 0.2-0.3 0.4-0.3 0.2 0 0.3 0.1 0.4 0.3 0.1 0.2 0.2 0.5 0.2 0.9 0 0 0 0.1 0 0.1h-0.9c0 0.3 0 0.4 0.1 0.6 0.1 0.1 0.2 0.2 0.3 0.2 0.1 0 0.1 0 0.2-0.1C39.1 37.8 39.1 37.7 39.1 37.5zM38.5 36.9h0.7c0-0.2 0-0.3-0.1-0.4 -0.1-0.1-0.1-0.2-0.3-0.2 -0.1 0-0.2 0.1-0.2 0.2C38.5 36.6 38.5 36.7 38.5 36.9z"/>
  <path fill="#808080" d="M40.7 37.9l0 0.3c-0.1 0-0.1 0-0.2 0 -0.1 0-0.1 0-0.2-0.1 0 0-0.1-0.1-0.1-0.2 0-0.1 0-0.2 0-0.5v-1.3H40.1v-0.3h0.1v-0.6l0.2-0.2v0.8h0.2v0.3h-0.2v1.3c0 0.1 0 0.2 0 0.2 0 0 0 0.1 0 0.1 0 0 0 0 0.1 0C40.6 37.9 40.6 37.9 40.7 37.9z"/>
  <path fill="#808080" d="M40.8 37.1c0-0.4 0.1-0.7 0.2-0.9 0.1-0.2 0.2-0.3 0.4-0.3 0.2 0 0.3 0.1 0.4 0.3 0.1 0.2 0.2 0.5 0.2 0.8 0 0.3 0 0.5-0.1 0.7 0 0.2-0.1 0.3-0.2 0.4 -0.1 0.1-0.2 0.1-0.3 0.1 -0.2 0-0.3-0.1-0.4-0.3C40.9 37.8 40.8 37.5 40.8 37.1zM41 37.1c0 0.3 0 0.5 0.1 0.7 0.1 0.1 0.2 0.2 0.3 0.2 0.1 0 0.2-0.1 0.3-0.2 0.1-0.1 0.1-0.4 0.1-0.7 0-0.3 0-0.5-0.1-0.6 -0.1-0.1-0.2-0.2-0.2-0.2 -0.1 0-0.2 0.1-0.3 0.2C41 36.6 41 36.8 41 37.1z"/>
  <path fill="#808080" d="M12.6 43.5v-2.3h0.2v0.3c0-0.1 0.1-0.2 0.1-0.3 0.1-0.1 0.1-0.1 0.2-0.1 0.1 0 0.2 0 0.2 0.1 0.1 0.1 0.1 0.2 0.1 0.3 0.1-0.3 0.2-0.4 0.4-0.4 0.1 0 0.2 0.1 0.3 0.2 0.1 0.1 0.1 0.3 0.1 0.6v1.6h-0.2v-1.4c0-0.2 0-0.3 0-0.3 0-0.1 0-0.1-0.1-0.2 0 0-0.1-0.1-0.1-0.1 -0.1 0-0.2 0.1-0.2 0.2 -0.1 0.1-0.1 0.3-0.1 0.5v1.3h-0.2v-1.5c0-0.2 0-0.3 0-0.4 0-0.1-0.1-0.1-0.2-0.1 -0.1 0-0.1 0-0.2 0.1 0 0.1-0.1 0.1-0.1 0.3 0 0.1 0 0.3 0 0.5v1.2H12.6z"/>
  <path fill="#808080" d="M15.3 43.2c-0.1 0.1-0.1 0.2-0.2 0.3 -0.1 0.1-0.1 0.1-0.2 0.1 -0.1 0-0.2-0.1-0.3-0.2 -0.1-0.1-0.1-0.3-0.1-0.5 0-0.1 0-0.2 0-0.3 0-0.1 0.1-0.2 0.1-0.2 0-0.1 0.1-0.1 0.1-0.1 0 0 0.1 0 0.2-0.1 0.2 0 0.3-0.1 0.4-0.1 0-0.1 0-0.1 0-0.1 0-0.2 0-0.3-0.1-0.3 -0.1-0.1-0.1-0.1-0.2-0.1 -0.1 0-0.2 0-0.2 0.1 0 0.1-0.1 0.2-0.1 0.3l-0.2-0.1c0-0.2 0-0.3 0.1-0.4 0-0.1 0.1-0.2 0.2-0.2 0.1-0.1 0.2-0.1 0.3-0.1 0.1 0 0.2 0 0.2 0.1 0.1 0 0.1 0.1 0.1 0.2 0 0.1 0.1 0.2 0.1 0.3 0 0.1 0 0.2 0 0.4v0.5c0 0.4 0 0.6 0 0.7 0 0.1 0 0.2 0.1 0.3h-0.2C15.3 43.4 15.3 43.3 15.3 43.2zM15.3 42.4c-0.1 0.1-0.2 0.1-0.3 0.1 -0.1 0-0.1 0-0.2 0.1 0 0-0.1 0.1-0.1 0.1 0 0.1 0 0.1 0 0.2 0 0.1 0 0.2 0.1 0.3 0 0.1 0.1 0.1 0.2 0.1 0.1 0 0.1 0 0.2-0.1 0.1-0.1 0.1-0.2 0.1-0.3 0-0.1 0-0.2 0-0.4V42.4z"/>
  <path fill="#808080" d="M15.8 43.5v-3.1h0.2v1.8l0.5-0.9h0.3l-0.5 0.8 0.5 1.4h-0.2l-0.4-1.2 -0.1 0.3v0.9H15.8z"/>
  <path fill="#808080" d="M17.8 42.8l0.2 0c0 0.2-0.1 0.4-0.2 0.5 -0.1 0.1-0.2 0.2-0.3 0.2 -0.2 0-0.3-0.1-0.4-0.3 -0.1-0.2-0.2-0.5-0.2-0.9 0-0.4 0.1-0.7 0.2-0.9 0.1-0.2 0.2-0.3 0.4-0.3 0.2 0 0.3 0.1 0.4 0.3 0.1 0.2 0.2 0.5 0.2 0.9 0 0 0 0.1 0 0.1h-0.9c0 0.2 0 0.4 0.1 0.6 0.1 0.1 0.2 0.2 0.3 0.2 0.1 0 0.1 0 0.2-0.1C17.7 43.1 17.7 42.9 17.8 42.8zM17.1 42.2h0.7c0-0.2 0-0.3-0.1-0.4 -0.1-0.1-0.1-0.2-0.3-0.2 -0.1 0-0.2 0.1-0.2 0.2C17.2 41.8 17.1 42 17.1 42.2z"/>
  <path fill="#808080" d="M18.9 40.8v-0.4h0.2v0.4H18.9zM18.9 43.5v-2.3h0.2v2.3H18.9z"/>
  <path fill="#808080" d="M19.8 43.2l0 0.3c-0.1 0-0.1 0-0.2 0 -0.1 0-0.1 0-0.2-0.1 0 0-0.1-0.1-0.1-0.2 0-0.1 0-0.2 0-0.5v-1.3h-0.1v-0.3h0.1v-0.6l0.2-0.2v0.8h0.2v0.3h-0.2v1.3c0 0.1 0 0.2 0 0.2 0 0 0 0.1 0 0.1 0 0 0 0 0.1 0C19.8 43.2 19.8 43.2 19.8 43.2z"/>
  <path fill="#808080" d="M20.7 43.5v-3.1h0.2v3.1H20.7z"/>
  <path fill="#808080" d="M21.1 42.4c0-0.4 0.1-0.7 0.2-0.9 0.1-0.2 0.2-0.2 0.4-0.2 0.2 0 0.3 0.1 0.4 0.3 0.1 0.2 0.2 0.5 0.2 0.8 0 0.3 0 0.5-0.1 0.7 0 0.2-0.1 0.3-0.2 0.4 -0.1 0.1-0.2 0.1-0.3 0.1 -0.2 0-0.3-0.1-0.4-0.3C21.2 43 21.1 42.8 21.1 42.4zM21.3 42.4c0 0.3 0 0.5 0.1 0.7 0.1 0.1 0.2 0.2 0.3 0.2 0.1 0 0.2-0.1 0.3-0.2 0.1-0.1 0.1-0.4 0.1-0.7 0-0.3 0-0.5-0.1-0.6 -0.1-0.1-0.1-0.2-0.2-0.2 -0.1 0-0.2 0.1-0.3 0.2C21.3 41.9 21.3 42.1 21.3 42.4z"/>
  <path fill="#808080" d="M22.4 42.4c0-0.4 0.1-0.7 0.2-0.9 0.1-0.2 0.2-0.2 0.4-0.2 0.2 0 0.3 0.1 0.4 0.3 0.1 0.2 0.2 0.5 0.2 0.8 0 0.3 0 0.5-0.1 0.7 0 0.2-0.1 0.3-0.2 0.4 -0.1 0.1-0.2 0.1-0.3 0.1 -0.2 0-0.3-0.1-0.4-0.3C22.4 43 22.4 42.8 22.4 42.4zM22.6 42.4c0 0.3 0 0.5 0.1 0.7 0.1 0.1 0.2 0.2 0.3 0.2 0.1 0 0.2-0.1 0.3-0.2 0.1-0.1 0.1-0.4 0.1-0.7 0-0.3 0-0.5-0.1-0.6 -0.1-0.1-0.1-0.2-0.2-0.2 -0.1 0-0.2 0.1-0.3 0.2C22.6 41.9 22.6 42.1 22.6 42.4z"/>
  <path fill="#808080" d="M23.7 43.5v-3.1h0.2v1.8l0.5-0.9h0.3l-0.5 0.8 0.5 1.4h-0.2l-0.4-1.2 -0.1 0.3v0.9H23.7z"/>
  <path fill="#808080" d="M25.5 43.5v-3.1h0.2v3.1H25.5z"/>
  <path fill="#808080" d="M26 40.8v-0.4h0.2v0.4H26zM26 43.5v-2.3h0.2v2.3H26z"/>
  <path fill="#808080" d="M26.6 43.5v-3.1h0.2v1.8l0.5-0.9h0.3l-0.5 0.8 0.5 1.4h-0.2l-0.4-1.2 -0.1 0.3v0.9H26.6z"/>
  <path fill="#808080" d="M28.5 42.8l0.2 0c0 0.2-0.1 0.4-0.2 0.5 -0.1 0.1-0.2 0.2-0.3 0.2 -0.2 0-0.3-0.1-0.4-0.3 -0.1-0.2-0.2-0.5-0.2-0.9 0-0.4 0.1-0.7 0.2-0.9 0.1-0.2 0.2-0.3 0.4-0.3 0.2 0 0.3 0.1 0.4 0.3 0.1 0.2 0.2 0.5 0.2 0.9 0 0 0 0.1 0 0.1h-0.9c0 0.2 0 0.4 0.1 0.6 0.1 0.1 0.2 0.2 0.3 0.2 0.1 0 0.1 0 0.2-0.1C28.4 43.1 28.5 42.9 28.5 42.8zM27.9 42.2h0.7c0-0.2 0-0.3-0.1-0.4 -0.1-0.1-0.1-0.2-0.3-0.2 -0.1 0-0.2 0.1-0.2 0.2C27.9 41.8 27.9 42 27.9 42.2z"/>
  <path fill="#808080" d="M30.4 43.2c-0.1 0.1-0.1 0.2-0.2 0.3 -0.1 0.1-0.1 0.1-0.2 0.1 -0.1 0-0.2-0.1-0.3-0.2 -0.1-0.1-0.1-0.3-0.1-0.5 0-0.1 0-0.2 0-0.3 0-0.1 0.1-0.2 0.1-0.2 0-0.1 0.1-0.1 0.1-0.1 0 0 0.1 0 0.2-0.1 0.2 0 0.3-0.1 0.4-0.1 0-0.1 0-0.1 0-0.1 0-0.2 0-0.3-0.1-0.3 0-0.1-0.1-0.1-0.2-0.1 -0.1 0-0.2 0-0.2 0.1s-0.1 0.2-0.1 0.3l-0.2-0.1c0-0.2 0-0.3 0.1-0.4 0-0.1 0.1-0.2 0.2-0.2 0.1-0.1 0.2-0.1 0.3-0.1s0.2 0 0.2 0.1c0.1 0 0.1 0.1 0.1 0.2 0 0.1 0.1 0.2 0.1 0.3 0 0.1 0 0.2 0 0.4v0.5c0 0.4 0 0.6 0 0.7 0 0.1 0 0.2 0.1 0.3h-0.2C30.4 43.4 30.4 43.3 30.4 43.2zM30.4 42.4c-0.1 0.1-0.2 0.1-0.3 0.1 -0.1 0-0.1 0-0.2 0.1 0 0-0.1 0.1-0.1 0.1 0 0.1 0 0.1 0 0.2 0 0.1 0 0.2 0.1 0.3 0 0.1 0.1 0.1 0.2 0.1 0.1 0 0.1 0 0.2-0.1 0.1-0.1 0.1-0.2 0.1-0.3 0-0.1 0-0.2 0-0.4V42.4z"/>
  <path fill="#808080" d="M32 43.2l0 0.3c-0.1 0-0.1 0-0.2 0 -0.1 0-0.1 0-0.2-0.1 0 0-0.1-0.1-0.1-0.2 0-0.1 0-0.2 0-0.5v-1.3h-0.1v-0.3h0.2v-0.6l0.2-0.2v0.8h0.2v0.3h-0.2v1.3c0 0.1 0 0.2 0 0.2 0 0 0 0.1 0 0.1 0 0 0 0 0.1 0C31.9 43.2 31.9 43.2 32 43.2z"/>
  <path fill="#808080" d="M32.2 43.5v-2.3h0.2v0.3c0-0.2 0.1-0.3 0.1-0.3 0 0 0.1-0.1 0.1-0.1 0.1 0 0.1 0 0.2 0.1l-0.1 0.4c-0.1-0.1-0.1-0.1-0.1-0.1 0 0-0.1 0-0.1 0.1 0 0.1-0.1 0.1-0.1 0.2 0 0.1 0 0.3 0 0.4v1.2H32.2z"/>
  <path fill="#808080" d="M33.8 42.8l0.2 0c0 0.2-0.1 0.4-0.2 0.5 -0.1 0.1-0.2 0.2-0.3 0.2 -0.2 0-0.3-0.1-0.4-0.3 -0.1-0.2-0.2-0.5-0.2-0.9 0-0.4 0.1-0.7 0.2-0.9 0.1-0.2 0.2-0.3 0.4-0.3 0.2 0 0.3 0.1 0.4 0.3 0.1 0.2 0.2 0.5 0.2 0.9 0 0 0 0.1 0 0.1h-0.9c0 0.2 0 0.4 0.1 0.6 0.1 0.1 0.1 0.2 0.3 0.2 0.1 0 0.1 0 0.2-0.1C33.7 43.1 33.7 42.9 33.8 42.8zM33.1 42.2h0.7c0-0.2 0-0.3-0.1-0.4 -0.1-0.1-0.1-0.2-0.3-0.2 -0.1 0-0.2 0.1-0.2 0.2C33.1 41.8 33.1 42 33.1 42.2z"/>
  <path fill="#808080" d="M35 42.8l0.2 0c0 0.2-0.1 0.4-0.2 0.5 -0.1 0.1-0.2 0.2-0.3 0.2 -0.2 0-0.3-0.1-0.4-0.3 -0.1-0.2-0.2-0.5-0.2-0.9 0-0.4 0.1-0.7 0.2-0.9 0.1-0.2 0.2-0.3 0.4-0.3 0.2 0 0.3 0.1 0.4 0.3 0.1 0.2 0.2 0.5 0.2 0.9 0 0 0 0.1 0 0.1h-0.9c0 0.2 0 0.4 0.1 0.6 0.1 0.1 0.2 0.2 0.2 0.2 0.1 0 0.1 0 0.2-0.1C35 43.1 35 42.9 35 42.8zM34.4 42.2h0.7c0-0.2 0-0.3-0.1-0.4 -0.1-0.1-0.1-0.2-0.2-0.2 -0.1 0-0.2 0.1-0.2 0.2C34.4 41.8 34.4 42 34.4 42.2z"/>
  <path fill="#808080" d="M36.9 43.5v-0.3c-0.1 0.2-0.2 0.3-0.3 0.3 -0.1 0-0.2 0-0.3-0.1 -0.1-0.1-0.1-0.2-0.2-0.4 0-0.2-0.1-0.4-0.1-0.6 0-0.2 0-0.4 0.1-0.6 0-0.2 0.1-0.3 0.2-0.4 0.1-0.1 0.2-0.1 0.3-0.1 0.1 0 0.1 0 0.2 0.1 0.1 0.1 0.1 0.1 0.1 0.2v-1.1h0.2v3.1H36.9zM36.3 42.4c0 0.3 0 0.5 0.1 0.6 0.1 0.1 0.1 0.2 0.2 0.2 0.1 0 0.2-0.1 0.2-0.2 0.1-0.1 0.1-0.3 0.1-0.6 0-0.3 0-0.5-0.1-0.7 -0.1-0.1-0.1-0.2-0.2-0.2 -0.1 0-0.2 0.1-0.2 0.2C36.3 41.9 36.3 42.1 36.3 42.4z"/>
  <path fill="#808080" d="M37.3 42.4c0-0.4 0.1-0.7 0.2-0.9 0.1-0.2 0.2-0.2 0.4-0.2 0.2 0 0.3 0.1 0.4 0.3 0.1 0.2 0.2 0.5 0.2 0.8 0 0.3 0 0.5-0.1 0.7 0 0.2-0.1 0.3-0.2 0.4 -0.1 0.1-0.2 0.1-0.3 0.1 -0.2 0-0.3-0.1-0.4-0.3C37.4 43 37.3 42.8 37.3 42.4zM37.6 42.4c0 0.3 0 0.5 0.1 0.7s0.2 0.2 0.3 0.2c0.1 0 0.2-0.1 0.3-0.2 0.1-0.1 0.1-0.4 0.1-0.7 0-0.3 0-0.5-0.1-0.6 -0.1-0.1-0.1-0.2-0.2-0.2 -0.1 0-0.2 0.1-0.3 0.2C37.6 41.9 37.6 42.1 37.6 42.4z"/>
  <path fill="#808080" d="M39.5 42.7l0.2 0.1c0 0.3-0.1 0.5-0.2 0.6 -0.1 0.1-0.2 0.2-0.3 0.2 -0.2 0-0.3-0.1-0.4-0.3 -0.1-0.2-0.1-0.5-0.1-0.9 0-0.2 0-0.5 0.1-0.6 0-0.2 0.1-0.3 0.2-0.4 0.1-0.1 0.2-0.1 0.3-0.1 0.1 0 0.2 0.1 0.3 0.2 0.1 0.1 0.1 0.3 0.2 0.5l-0.2 0.1c0-0.2-0.1-0.3-0.1-0.3 0-0.1-0.1-0.1-0.2-0.1 -0.1 0-0.2 0.1-0.2 0.2 -0.1 0.1-0.1 0.4-0.1 0.7 0 0.3 0 0.5 0.1 0.7 0.1 0.1 0.1 0.2 0.2 0.2 0.1 0 0.1 0 0.2-0.1C39.4 43 39.5 42.9 39.5 42.7z"/>
  <path fill="#808080" d="M40.6 43.5V43.2c-0.1 0.3-0.2 0.4-0.4 0.4 -0.1 0-0.1 0-0.2-0.1 -0.1-0.1-0.1-0.1-0.1-0.2 0-0.1-0.1-0.2-0.1-0.3 0-0.1 0-0.2 0-0.4v-1.4h0.2v1.3c0 0.2 0 0.3 0 0.4 0 0.1 0 0.2 0.1 0.2 0 0.1 0.1 0.1 0.2 0.1 0.1 0 0.1 0 0.2-0.1 0.1-0.1 0.1-0.1 0.1-0.2 0-0.1 0-0.2 0-0.4v-1.2h0.2v2.3H40.6z"/>
  <path fill="#808080" d="M41.1 43.5v-2.3h0.2v0.3c0-0.1 0.1-0.2 0.1-0.3 0.1-0.1 0.1-0.1 0.2-0.1 0.1 0 0.2 0 0.2 0.1 0.1 0.1 0.1 0.2 0.1 0.3 0.1-0.3 0.2-0.4 0.4-0.4 0.1 0 0.2 0.1 0.3 0.2 0.1 0.1 0.1 0.3 0.1 0.6v1.6h-0.2v-1.4c0-0.2 0-0.3 0-0.3 0-0.1 0-0.1-0.1-0.2 0 0-0.1-0.1-0.1-0.1 -0.1 0-0.2 0.1-0.2 0.2 -0.1 0.1-0.1 0.3-0.1 0.5v1.3h-0.2v-1.5c0-0.2 0-0.3-0.1-0.4 0-0.1-0.1-0.1-0.2-0.1 -0.1 0-0.1 0-0.2 0.1 0 0.1-0.1 0.1-0.1 0.3 0 0.1 0 0.3 0 0.5v1.2H41.1z"/>
  <path fill="#808080" d="M43.8 43.5V43.2c-0.1 0.3-0.2 0.4-0.4 0.4 -0.1 0-0.1 0-0.2-0.1 -0.1-0.1-0.1-0.1-0.1-0.2 0-0.1-0.1-0.2-0.1-0.3 0-0.1 0-0.2 0-0.4v-1.4h0.2v1.3c0 0.2 0 0.3 0 0.4 0 0.1 0 0.2 0.1 0.2 0 0.1 0.1 0.1 0.2 0.1 0.1 0 0.1 0 0.2-0.1 0.1-0.1 0.1-0.1 0.1-0.2 0-0.1 0-0.2 0-0.4v-1.2h0.2v2.3H43.8z"/>
  <path fill="#808080" d="M44.3 43.5v-2.3h0.2v0.3c0.1-0.2 0.2-0.4 0.4-0.4 0.1 0 0.1 0 0.2 0.1 0.1 0.1 0.1 0.1 0.1 0.2 0 0.1 0.1 0.2 0.1 0.3 0 0.1 0 0.2 0 0.4v1.4H45.1v-1.4c0-0.2 0-0.3 0-0.4 0-0.1 0-0.1-0.1-0.2 0 0-0.1-0.1-0.1-0.1 -0.1 0-0.2 0.1-0.2 0.2s-0.1 0.3-0.1 0.6v1.2H44.3z"/>
  <path fill="#808080" d="M46.4 42.8l0.2 0c0 0.2-0.1 0.4-0.2 0.5 -0.1 0.1-0.2 0.2-0.3 0.2 -0.2 0-0.3-0.1-0.4-0.3 -0.1-0.2-0.2-0.5-0.2-0.9 0-0.4 0.1-0.7 0.2-0.9 0.1-0.2 0.2-0.3 0.4-0.3 0.2 0 0.3 0.1 0.4 0.3 0.1 0.2 0.2 0.5 0.2 0.9 0 0 0 0.1 0 0.1h-0.9c0 0.2 0 0.4 0.1 0.6 0.1 0.1 0.1 0.2 0.2 0.2 0.1 0 0.1 0 0.2-0.1C46.4 43.1 46.4 42.9 46.4 42.8zM45.8 42.2h0.7c0-0.2 0-0.3-0.1-0.4 -0.1-0.1-0.1-0.2-0.2-0.2 -0.1 0-0.2 0.1-0.2 0.2C45.8 41.8 45.8 42 45.8 42.2z"/>
  <path fill="#808080" d="M47.3 43.2l0 0.3c-0.1 0-0.1 0-0.2 0 -0.1 0-0.1 0-0.2-0.1 0 0-0.1-0.1-0.1-0.2 0-0.1 0-0.2 0-0.5v-1.3h-0.1v-0.3h0.1v-0.6l0.2-0.2v0.8h0.2v0.3h-0.2v1.3c0 0.1 0 0.2 0 0.2 0 0 0 0.1 0 0.1 0 0 0 0 0.1 0C47.3 43.2 47.3 43.2 47.3 43.2z"/>
  <path fill="#808080" d="M13.1 48.4l0 0.3c-0.1 0-0.1 0-0.2 0 -0.1 0-0.1 0-0.2-0.1 0 0-0.1-0.1-0.1-0.2 0-0.1 0-0.2 0-0.5v-1.3H12.5v-0.3h0.1v-0.6l0.2-0.2v0.8h0.2v0.3h-0.2v1.3c0 0.1 0 0.2 0 0.2 0 0 0 0.1 0 0.1 0 0 0 0 0.1 0C13 48.4 13 48.4 13.1 48.4z"/>
  <path fill="#808080" d="M13.3 48.8v-3.1h0.2v1.1c0.1-0.2 0.2-0.3 0.4-0.3 0.1 0 0.2 0 0.2 0.1 0.1 0.1 0.1 0.2 0.1 0.3 0 0.1 0 0.3 0 0.5v1.4h-0.2v-1.4c0-0.2 0-0.3-0.1-0.4 0-0.1-0.1-0.1-0.2-0.1 -0.1 0-0.1 0-0.2 0.1 -0.1 0.1-0.1 0.1-0.1 0.2 0 0.1 0 0.2 0 0.4v1.2H13.3z"/>
  <path fill="#808080" d="M15.3 48.5c-0.1 0.1-0.1 0.2-0.2 0.3 -0.1 0.1-0.1 0.1-0.2 0.1 -0.1 0-0.2-0.1-0.3-0.2 -0.1-0.1-0.1-0.3-0.1-0.5 0-0.1 0-0.2 0-0.3s0.1-0.2 0.1-0.2c0-0.1 0.1-0.1 0.1-0.1 0 0 0.1 0 0.2-0.1 0.2 0 0.3-0.1 0.4-0.1 0-0.1 0-0.1 0-0.1 0-0.2 0-0.3-0.1-0.3 -0.1-0.1-0.1-0.1-0.2-0.1 -0.1 0-0.2 0-0.2 0.1 0 0.1-0.1 0.2-0.1 0.3l-0.2-0.1c0-0.2 0-0.3 0.1-0.4 0-0.1 0.1-0.2 0.2-0.2 0.1-0.1 0.2-0.1 0.3-0.1 0.1 0 0.2 0 0.2 0.1 0.1 0 0.1 0.1 0.1 0.2 0 0.1 0.1 0.2 0.1 0.3 0 0.1 0 0.2 0 0.4v0.5c0 0.4 0 0.6 0 0.7 0 0.1 0 0.2 0.1 0.3h-0.2C15.3 48.7 15.3 48.6 15.3 48.5zM15.3 47.6c-0.1 0.1-0.2 0.1-0.3 0.1 -0.1 0-0.1 0-0.2 0.1 0 0-0.1 0.1-0.1 0.1 0 0.1 0 0.1 0 0.2 0 0.1 0 0.2 0.1 0.3 0 0.1 0.1 0.1 0.2 0.1 0.1 0 0.1 0 0.2-0.1 0.1-0.1 0.1-0.2 0.1-0.3 0-0.1 0-0.2 0-0.4V47.6z"/>
  <path fill="#808080" d="M16.3 48.4l0 0.3c-0.1 0-0.1 0-0.2 0 -0.1 0-0.1 0-0.2-0.1 0 0-0.1-0.1-0.1-0.2 0-0.1 0-0.2 0-0.5v-1.3h-0.1v-0.3h0.1v-0.6l0.2-0.2v0.8h0.2v0.3h-0.2v1.3c0 0.1 0 0.2 0 0.2 0 0 0 0.1 0 0.1s0 0 0.1 0C16.2 48.4 16.2 48.4 16.3 48.4z"/>
  <path fill="#808080" d="M17.1 48.8v-3.1h0.2v1.1c0.1-0.2 0.2-0.3 0.4-0.3 0.1 0 0.2 0 0.2 0.1 0.1 0.1 0.1 0.2 0.1 0.3 0 0.1 0 0.3 0 0.5v1.4h-0.2v-1.4c0-0.2 0-0.3-0.1-0.4 0-0.1-0.1-0.1-0.2-0.1 -0.1 0-0.1 0-0.2 0.1 -0.1 0.1-0.1 0.1-0.1 0.2 0 0.1 0 0.2 0 0.4v1.2H17.1z"/>
  <path fill="#808080" d="M19.1 48.5c-0.1 0.1-0.1 0.2-0.2 0.3 -0.1 0.1-0.1 0.1-0.2 0.1 -0.1 0-0.2-0.1-0.3-0.2 -0.1-0.1-0.1-0.3-0.1-0.5 0-0.1 0-0.2 0-0.3 0-0.1 0.1-0.2 0.1-0.2 0-0.1 0.1-0.1 0.1-0.1 0 0 0.1 0 0.2-0.1 0.2 0 0.3-0.1 0.4-0.1 0-0.1 0-0.1 0-0.1 0-0.2 0-0.3-0.1-0.3 -0.1-0.1-0.1-0.1-0.2-0.1 -0.1 0-0.2 0-0.2 0.1 0 0.1-0.1 0.2-0.1 0.3l-0.2-0.1c0-0.2 0-0.3 0.1-0.4 0-0.1 0.1-0.2 0.2-0.2 0.1-0.1 0.2-0.1 0.3-0.1s0.2 0 0.2 0.1c0.1 0 0.1 0.1 0.1 0.2 0 0.1 0.1 0.2 0.1 0.3 0 0.1 0 0.2 0 0.4v0.5c0 0.4 0 0.6 0 0.7 0 0.1 0 0.2 0.1 0.3h-0.2C19.2 48.7 19.2 48.6 19.1 48.5zM19.1 47.6c-0.1 0.1-0.2 0.1-0.3 0.1 -0.1 0-0.1 0-0.2 0.1 0 0-0.1 0.1-0.1 0.1 0 0.1 0 0.1 0 0.2 0 0.1 0 0.2 0.1 0.3 0 0.1 0.1 0.1 0.2 0.1 0.1 0 0.1 0 0.2-0.1 0.1-0.1 0.1-0.2 0.1-0.3 0-0.1 0-0.2 0-0.4V47.6z"/>
  <path fill="#808080" d="M19.6 48.1l0.2-0.1c0 0.2 0 0.3 0.1 0.4 0.1 0.1 0.1 0.1 0.2 0.1s0.2 0 0.2-0.1c0-0.1 0.1-0.2 0.1-0.3 0-0.1 0-0.2-0.1-0.2 0 0-0.1-0.1-0.2-0.1 -0.1-0.1-0.3-0.1-0.3-0.2 -0.1-0.1-0.1-0.1-0.1-0.2 0-0.1 0-0.2 0-0.3 0-0.1 0-0.2 0-0.3 0-0.1 0.1-0.2 0.1-0.2 0 0 0.1-0.1 0.1-0.1 0.1 0 0.1 0 0.2 0 0.1 0 0.2 0 0.2 0.1 0.1 0.1 0.1 0.1 0.2 0.2 0 0.1 0.1 0.2 0.1 0.4l-0.2 0.1c0-0.1 0-0.2-0.1-0.3 0-0.1-0.1-0.1-0.2-0.1 -0.1 0-0.2 0-0.2 0.1 0 0.1-0.1 0.1-0.1 0.2 0 0 0 0.1 0 0.1 0 0 0 0.1 0.1 0.1 0 0 0.1 0 0.2 0.1 0.1 0.1 0.2 0.1 0.3 0.2 0.1 0 0.1 0.1 0.1 0.2 0 0.1 0 0.2 0 0.3 0 0.1 0 0.2-0.1 0.4 0 0.1-0.1 0.2-0.2 0.3 -0.1 0.1-0.2 0.1-0.3 0.1 -0.2 0-0.3-0.1-0.4-0.2C19.6 48.5 19.6 48.3 19.6 48.1z"/>
  <path fill="#808080" d="M21.6 48.8h-0.2v-3.1h0.2v1.1c0.1-0.2 0.2-0.3 0.3-0.3 0.1 0 0.1 0 0.2 0.1 0.1 0.1 0.1 0.1 0.2 0.2 0 0.1 0.1 0.2 0.1 0.4 0 0.1 0 0.3 0 0.5 0 0.4 0 0.7-0.2 0.9 -0.1 0.2-0.2 0.3-0.4 0.3 -0.1 0-0.3-0.1-0.3-0.3V48.8zM21.6 47.6c0 0.3 0 0.5 0.1 0.6 0.1 0.2 0.1 0.3 0.3 0.3 0.1 0 0.2-0.1 0.2-0.2 0.1-0.1 0.1-0.4 0.1-0.6 0-0.3 0-0.5-0.1-0.7 -0.1-0.1-0.1-0.2-0.2-0.2 -0.1 0-0.2 0.1-0.2 0.2C21.7 47.1 21.6 47.3 21.6 47.6z"/>
  <path fill="#808080" d="M23.5 48l0.2 0c0 0.2-0.1 0.4-0.2 0.5 -0.1 0.1-0.2 0.2-0.3 0.2 -0.2 0-0.3-0.1-0.4-0.3 -0.1-0.2-0.2-0.5-0.2-0.9 0-0.4 0.1-0.7 0.2-0.9 0.1-0.2 0.2-0.3 0.4-0.3 0.2 0 0.3 0.1 0.4 0.3 0.1 0.2 0.2 0.5 0.2 0.9 0 0 0 0.1 0 0.1h-0.9c0 0.3 0 0.4 0.1 0.6 0.1 0.1 0.1 0.2 0.3 0.2 0.1 0 0.1 0 0.2-0.1C23.5 48.3 23.5 48.2 23.5 48zM22.9 47.4h0.7c0-0.2 0-0.3-0.1-0.4 -0.1-0.1-0.1-0.2-0.3-0.2 -0.1 0-0.2 0.1-0.2 0.2C22.9 47 22.9 47.2 22.9 47.4z"/>
  <path fill="#808080" d="M24.8 48l0.2 0c0 0.2-0.1 0.4-0.2 0.5 -0.1 0.1-0.2 0.2-0.3 0.2 -0.2 0-0.3-0.1-0.4-0.3 -0.1-0.2-0.2-0.5-0.2-0.9 0-0.4 0.1-0.7 0.2-0.9 0.1-0.2 0.2-0.3 0.4-0.3 0.2 0 0.3 0.1 0.4 0.3 0.1 0.2 0.2 0.5 0.2 0.9 0 0 0 0.1 0 0.1h-0.9c0 0.3 0 0.4 0.1 0.6 0.1 0.1 0.2 0.2 0.3 0.2 0.1 0 0.1 0 0.2-0.1C24.7 48.3 24.8 48.2 24.8 48zM24.2 47.4h0.7c0-0.2 0-0.3-0.1-0.4 -0.1-0.1-0.1-0.2-0.3-0.2 -0.1 0-0.2 0.1-0.2 0.2C24.2 47 24.2 47.2 24.2 47.4z"/>
  <path fill="#808080" d="M25.3 48.8v-2.3h0.2v0.3c0.1-0.2 0.2-0.4 0.4-0.4 0.1 0 0.1 0 0.2 0.1 0.1 0.1 0.1 0.1 0.1 0.2 0 0.1 0.1 0.2 0.1 0.3 0 0.1 0 0.2 0 0.4v1.4h-0.2v-1.4c0-0.2 0-0.3 0-0.4 0-0.1 0-0.1-0.1-0.2 0 0-0.1-0.1-0.1-0.1 -0.1 0-0.2 0.1-0.2 0.2 -0.1 0.1-0.1 0.3-0.1 0.6v1.2H25.3z"/>
  <path fill="#808080" d="M27.1 48.1l0.2-0.1c0 0.2 0 0.3 0.1 0.4 0.1 0.1 0.1 0.1 0.2 0.1 0.1 0 0.2 0 0.2-0.1 0-0.1 0.1-0.2 0.1-0.3 0-0.1 0-0.2-0.1-0.2 0 0-0.1-0.1-0.2-0.1 -0.1-0.1-0.3-0.1-0.3-0.2 -0.1-0.1-0.1-0.1-0.1-0.2 0-0.1 0-0.2 0-0.3 0-0.1 0-0.2 0-0.3 0-0.1 0.1-0.2 0.1-0.2 0 0 0.1-0.1 0.1-0.1 0.1 0 0.1 0 0.2 0 0.1 0 0.2 0 0.2 0.1 0.1 0.1 0.1 0.1 0.2 0.2 0 0.1 0.1 0.2 0.1 0.4l-0.2 0.1c0-0.1 0-0.2-0.1-0.3 0-0.1-0.1-0.1-0.2-0.1 -0.1 0-0.2 0-0.2 0.1 0 0.1-0.1 0.1-0.1 0.2 0 0 0 0.1 0 0.1 0 0 0 0.1 0.1 0.1 0 0 0.1 0 0.2 0.1 0.1 0.1 0.2 0.1 0.3 0.2 0.1 0 0.1 0.1 0.1 0.2 0 0.1 0 0.2 0 0.3 0 0.1 0 0.2-0.1 0.4 0 0.1-0.1 0.2-0.2 0.3 -0.1 0.1-0.2 0.1-0.3 0.1 -0.2 0-0.3-0.1-0.4-0.2C27.2 48.5 27.1 48.3 27.1 48.1z"/>
  <path fill="#808080" d="M28.3 48.8v-3.1h0.2v1.1c0.1-0.2 0.2-0.3 0.4-0.3 0.1 0 0.2 0 0.2 0.1 0.1 0.1 0.1 0.2 0.1 0.3 0 0.1 0 0.3 0 0.5v1.4h-0.2v-1.4c0-0.2 0-0.3-0.1-0.4 0-0.1-0.1-0.1-0.2-0.1 -0.1 0-0.1 0-0.2 0.1 -0.1 0.1-0.1 0.1-0.1 0.2 0 0.1 0 0.2 0 0.4v1.2H28.3z"/>
  <path fill="#808080" d="M29.6 48.8v-2.3h0.2v0.3c0-0.2 0.1-0.3 0.1-0.3 0 0 0.1-0.1 0.1-0.1 0.1 0 0.1 0 0.2 0.1l-0.1 0.4c0-0.1-0.1-0.1-0.1-0.1 0 0-0.1 0-0.1 0.1 0 0.1-0.1 0.1-0.1 0.2 0 0.1 0 0.3 0 0.4v1.2H29.6z"/>
  <path fill="#808080" d="M31.2 48.8v-0.3c-0.1 0.3-0.2 0.4-0.4 0.4 -0.1 0-0.1 0-0.2-0.1 -0.1-0.1-0.1-0.1-0.1-0.2 0-0.1 0-0.2-0.1-0.3 0-0.1 0-0.2 0-0.4v-1.4h0.2v1.3c0 0.2 0 0.3 0 0.4 0 0.1 0 0.2 0.1 0.2 0 0.1 0.1 0.1 0.2 0.1 0.1 0 0.1 0 0.2-0.1 0.1-0.1 0.1-0.1 0.1-0.2 0-0.1 0-0.3 0-0.4v-1.2h0.2v2.3H31.2z"/>
  <path fill="#808080" d="M31.7 48.8v-2.3h0.2v0.3c0.1-0.2 0.2-0.4 0.4-0.4 0.1 0 0.1 0 0.2 0.1 0.1 0.1 0.1 0.1 0.1 0.2 0 0.1 0.1 0.2 0.1 0.3 0 0.1 0 0.2 0 0.4v1.4h-0.2v-1.4c0-0.2 0-0.3 0-0.4 0-0.1 0-0.1-0.1-0.2 0 0-0.1-0.1-0.1-0.1 -0.1 0-0.2 0.1-0.2 0.2 -0.1 0.1-0.1 0.3-0.1 0.6v1.2H31.7z"/>
  <path fill="#808080" d="M33 48.8v-3.1h0.2v1.8l0.5-0.9h0.3l-0.5 0.8 0.5 1.4h-0.2l-0.4-1.2 -0.1 0.3v0.9H33z"/>
  <path fill="#808080" d="M34.9 48l0.2 0c0 0.2-0.1 0.4-0.2 0.5s-0.2 0.2-0.3 0.2c-0.2 0-0.3-0.1-0.4-0.3 -0.1-0.2-0.2-0.5-0.2-0.9 0-0.4 0.1-0.7 0.2-0.9 0.1-0.2 0.2-0.3 0.4-0.3 0.2 0 0.3 0.1 0.4 0.3 0.1 0.2 0.2 0.5 0.2 0.9 0 0 0 0.1 0 0.1h-0.9c0 0.3 0 0.4 0.1 0.6 0.1 0.1 0.2 0.2 0.3 0.2 0.1 0 0.1 0 0.2-0.1C34.9 48.3 34.9 48.2 34.9 48zM34.3 47.4h0.7c0-0.2 0-0.3-0.1-0.4 -0.1-0.1-0.1-0.2-0.3-0.2 -0.1 0-0.2 0.1-0.2 0.2C34.3 47 34.3 47.2 34.3 47.4z"/>
  <path fill="#808080" d="M36.2 48.8v-0.3c-0.1 0.2-0.2 0.3-0.3 0.3 -0.1 0-0.2 0-0.3-0.1 -0.1-0.1-0.1-0.2-0.2-0.4 0-0.2-0.1-0.4-0.1-0.6 0-0.2 0-0.4 0.1-0.6 0-0.2 0.1-0.3 0.2-0.4 0.1-0.1 0.2-0.1 0.3-0.1 0.1 0 0.1 0 0.2 0.1 0.1 0.1 0.1 0.1 0.1 0.2v-1.1h0.2v3.1H36.2zM35.5 47.6c0 0.3 0 0.5 0.1 0.7 0.1 0.1 0.1 0.2 0.2 0.2 0.1 0 0.2-0.1 0.2-0.2 0.1-0.1 0.1-0.3 0.1-0.6 0-0.3 0-0.5-0.1-0.7 -0.1-0.1-0.1-0.2-0.2-0.2s-0.2 0.1-0.2 0.2S35.5 47.3 35.5 47.6z"/>
  <path fill="#808080" d="M36.7 48.8v-0.4h0.2v0.4H36.7z"/>
  <path fill="#808080" d="M13.1 55.9v-2.8h-0.5v-0.4h1.3v0.4h-0.5v2.8H13.1z"/>
  <path fill="#808080" d="M14 55.9v-3.1h0.2v1.1c0.1-0.2 0.2-0.3 0.4-0.3 0.1 0 0.2 0 0.2 0.1 0.1 0.1 0.1 0.2 0.1 0.3 0 0.1 0 0.3 0 0.5v1.4h-0.2v-1.4c0-0.2 0-0.3-0.1-0.4 0-0.1-0.1-0.1-0.2-0.1 -0.1 0-0.1 0-0.2 0.1 -0.1 0.1-0.1 0.1-0.1 0.2 0 0.1 0 0.2 0 0.4v1.2H14z"/>
  <path fill="#808080" d="M16.1 55.7c-0.1 0.1-0.1 0.2-0.2 0.3 -0.1 0.1-0.1 0.1-0.2 0.1 -0.1 0-0.2-0.1-0.3-0.2 -0.1-0.1-0.1-0.3-0.1-0.5 0-0.1 0-0.2 0-0.3 0-0.1 0.1-0.2 0.1-0.2 0-0.1 0.1-0.1 0.1-0.1 0 0 0.1 0 0.2-0.1 0.2 0 0.3-0.1 0.4-0.1 0-0.1 0-0.1 0-0.1 0-0.2 0-0.3-0.1-0.3 -0.1-0.1-0.1-0.1-0.2-0.1 -0.1 0-0.2 0-0.2 0.1 0 0.1-0.1 0.2-0.1 0.3l-0.2 0c0-0.2 0-0.3 0.1-0.4 0-0.1 0.1-0.2 0.2-0.2 0.1-0.1 0.2-0.1 0.3-0.1 0.1 0 0.2 0 0.2 0.1 0.1 0 0.1 0.1 0.1 0.2s0.1 0.2 0.1 0.3c0 0.1 0 0.2 0 0.4v0.5c0 0.4 0 0.6 0 0.7 0 0.1 0 0.2 0.1 0.3h-0.2C16.1 55.9 16.1 55.8 16.1 55.7zM16.1 54.8c-0.1 0.1-0.2 0.1-0.3 0.1 -0.1 0-0.1 0-0.2 0.1 0 0-0.1 0.1-0.1 0.1 0 0.1 0 0.1 0 0.2 0 0.1 0 0.2 0.1 0.3 0 0.1 0.1 0.1 0.2 0.1 0.1 0 0.1 0 0.2-0.1 0.1-0.1 0.1-0.2 0.1-0.3 0-0.1 0-0.2 0-0.4V54.8z"/>
  <path fill="#808080" d="M16.6 55.9v-2.3h0.2v0.3c0.1-0.2 0.2-0.4 0.4-0.4 0.1 0 0.1 0 0.2 0.1 0.1 0.1 0.1 0.1 0.1 0.2 0 0.1 0.1 0.2 0.1 0.3 0 0.1 0 0.2 0 0.4v1.4h-0.2v-1.4c0-0.2 0-0.3 0-0.4 0-0.1 0-0.1-0.1-0.2 0 0-0.1-0.1-0.1-0.1 -0.1 0-0.2 0.1-0.2 0.2 -0.1 0.1-0.1 0.3-0.1 0.6v1.2H16.6z"/>
  <path fill="#808080" d="M17.9 55.9v-3.1h0.2v1.8l0.5-0.9h0.3l-0.5 0.8 0.5 1.4h-0.2l-0.4-1.2 -0.1 0.3v0.9H17.9z"/>
  <path fill="#808080" d="M19.6 56.8l0-0.4c0 0 0.1 0 0.1 0 0 0 0.1 0 0.1 0 0 0 0-0.1 0.1-0.1 0 0 0-0.1 0.1-0.3 0 0 0-0.1 0-0.1l-0.5-2.3h0.2l0.2 1.3c0 0.2 0.1 0.3 0.1 0.5 0-0.2 0.1-0.3 0.1-0.5l0.3-1.3h0.2l-0.5 2.3c0 0.2-0.1 0.4-0.1 0.5 0 0.1-0.1 0.2-0.1 0.3 0 0.1-0.1 0.1-0.2 0.1C19.7 56.9 19.7 56.9 19.6 56.8z"/>
  <path fill="#808080" d="M20.7 54.8c0-0.4 0.1-0.7 0.2-0.9 0.1-0.2 0.2-0.3 0.4-0.3 0.2 0 0.3 0.1 0.4 0.3 0.1 0.2 0.2 0.5 0.2 0.8 0 0.3 0 0.5-0.1 0.7 0 0.2-0.1 0.3-0.2 0.4 -0.1 0.1-0.2 0.1-0.3 0.1 -0.2 0-0.3-0.1-0.4-0.3C20.8 55.5 20.7 55.2 20.7 54.8zM20.9 54.8c0 0.3 0 0.5 0.1 0.7 0.1 0.1 0.2 0.2 0.3 0.2s0.2-0.1 0.3-0.2c0.1-0.1 0.1-0.4 0.1-0.7 0-0.3 0-0.5-0.1-0.6 -0.1-0.1-0.2-0.2-0.2-0.2 -0.1 0-0.2 0.1-0.3 0.2C21 54.3 20.9 54.5 20.9 54.8z"/>
  <path fill="#808080" d="M22.9 55.9v-0.3c-0.1 0.3-0.2 0.4-0.4 0.4 -0.1 0-0.1 0-0.2-0.1s-0.1-0.1-0.1-0.2c0-0.1-0.1-0.2-0.1-0.3 0-0.1 0-0.2 0-0.4v-1.4h0.2v1.3c0 0.2 0 0.3 0 0.4 0 0.1 0 0.2 0.1 0.2 0 0.1 0.1 0.1 0.2 0.1 0.1 0 0.1 0 0.2-0.1 0.1-0.1 0.1-0.1 0.1-0.2 0-0.1 0-0.2 0-0.4v-1.2h0.2v2.3H22.9z"/>
</svg>
