<svg xmlns="http://www.w3.org/2000/svg" xmlns:xlink="http://www.w3.org/1999/xlink" version="1.1" id="Layer_1" x="0px" y="0px" width="62px" height="62px" viewBox="0 0 62 62" enable-background="new 0 0 62 62" xml:space="preserve">
  <linearGradient id="SVGID_1_" gradientUnits="userSpaceOnUse" x1="30.624" y1="21.6494" x2="30.624" y2="42.7407">
    <stop offset="0.0909" style="stop-color:#B3B4B4;stop-opacity:0.88"/>
    <stop offset="0.1504" style="stop-color:#CBCCCC;stop-opacity:0.9074"/>
    <stop offset="0.2204" style="stop-color:#E1E1E1;stop-opacity:0.9396"/>
    <stop offset="0.2883" style="stop-color:#EEEEEE;stop-opacity:0.9709"/>
    <stop offset="0.3515" stop-color="#F2F2F2"/>
    <stop offset="0.4879" stop-color="#F0F0F0"/>
    <stop offset="0.5544" stop-color="#E8E8E8"/>
    <stop offset="0.6059" stop-color="#DBDBDB"/>
    <stop offset="0.6494" stop-color="#C9C9C9"/>
    <stop offset="0.6848" stop-color="#B3B4B4"/>
    <stop offset="0.7347" style="stop-color:#B0B1B1;stop-opacity:0.9563"/>
    <stop offset="0.7774" style="stop-color:#A5A6A6;stop-opacity:0.9188"/>
    <stop offset="0.8176" style="stop-color:#949494;stop-opacity:0.8835"/>
    <stop offset="0.8562" style="stop-color:#7B7B7B;stop-opacity:0.8496"/>
    <stop offset="0.8936" style="stop-color:#5B5B5B;stop-opacity:0.8167"/>
    <stop offset="0.9303" style="stop-color:#343434;stop-opacity:0.7846"/>
    <stop offset="0.9655" style="stop-color:#060606;stop-opacity:0.7536"/>
    <stop offset="0.9697" style="stop-color:#000000;stop-opacity:0.75"/>
  </linearGradient>
  <path fill="url(#SVGID_1_)" d="M1.631 20.266l57.931 0.154 0.054 22.989c0 0 0.221 2.085-0.464 2.855C58.447 47.058 56.836 47 56.836 47H4.622c0 0-1.612-0.306-2.363-0.891 -0.758-0.593-0.655-1.814-0.655-1.814L1.631 20.266z"/>
  <polygon fill="#CCCCCC" points="43.892 12.057 52.915 20 8.244 20 "/>
  <linearGradient id="SVGID_2_" gradientUnits="userSpaceOnUse" x1="30.5771" y1="20.2617" x2="30.6792" y2="11.5579">
    <stop offset="0.0909" style="stop-color:#B3B4B4;stop-opacity:0.88"/>
    <stop offset="0.1504" style="stop-color:#CBCCCC;stop-opacity:0.9074"/>
    <stop offset="0.2204" style="stop-color:#E1E1E1;stop-opacity:0.9396"/>
    <stop offset="0.2883" style="stop-color:#EEEEEE;stop-opacity:0.9709"/>
    <stop offset="0.3515" stop-color="#F2F2F2"/>
    <stop offset="0.4879" stop-color="#F0F0F0"/>
    <stop offset="0.5544" stop-color="#E8E8E8"/>
    <stop offset="0.6059" stop-color="#DBDBDB"/>
    <stop offset="0.6494" stop-color="#C9C9C9"/>
    <stop offset="0.6848" stop-color="#B3B4B4"/>
    <stop offset="0.7347" style="stop-color:#B0B1B1;stop-opacity:0.9563"/>
    <stop offset="0.7774" style="stop-color:#A5A6A6;stop-opacity:0.9188"/>
    <stop offset="0.8176" style="stop-color:#949494;stop-opacity:0.8835"/>
    <stop offset="0.8562" style="stop-color:#7B7B7B;stop-opacity:0.8496"/>
    <stop offset="0.8936" style="stop-color:#5B5B5B;stop-opacity:0.8167"/>
    <stop offset="0.9303" style="stop-color:#343434;stop-opacity:0.7846"/>
    <stop offset="0.9655" style="stop-color:#060606;stop-opacity:0.7536"/>
    <stop offset="0.9697" style="stop-color:#000000;stop-opacity:0.75"/>
  </linearGradient>
  <path fill="url(#SVGID_2_)" d="M48.28 14.074c-1.094-0.401-4.175-1.712-4.175-1.712S44 12.29 43.892 12.195c-0.113-0.102-24.645-1.545-27.196 0.233 -0.618 0.43-3.631 1.001-4.415 1.213C6.565 15.188 2.244 20 2.244 20h56.671C58.915 20 52.091 15.472 48.28 14.074z"/>
  <path fill="#605E5E" d="M59.757 20h-6.842H8.244 1.403C1.181 20 1 20.35 1 20.586v0.429C1 21.252 1.181 21 1.403 21h58.354C59.979 21 60 21.252 60 21.015v-0.429C60 20.35 59.979 20 59.757 20z"/>
  <polygon fill="#CCCCCC" points="44.866 13.831 43.633 12.33 43 12.327 43 2 17 2 17 12.303 15.641 13.509 "/>
  <path fill="none" stroke="#000000" stroke-miterlimit="10" d="M43.866 13.82c0.55 0.006 0.692-0.317 0.316-0.718l-0.04-0.042c-0.376-0.401-0.941-0.73-1.163-0.731 -0.222 0-0.479-0.452-0.479-1.001V2.5c0-0.55-0.298-1-0.848-1H18.299c-0.55 0-0.799 0.45-0.799 1v8.803c0 0.55-0.44 1.271-0.855 1.603s-0.354 0.608 0.195 0.614L43.866 13.82z"/>
  <path fill="#514F4F" stroke="#5B5959" stroke-miterlimit="10" d="M37.5 3.751c0 0.178-1.02-0.251-1.186-0.251h-11.47c-0.167 0-0.345 0.43-0.345 0.251V3.108c0-0.178 0.178-0.608 0.345-0.608h11.47c0.166 0 1.186 0.431 1.186 0.608V3.751z"/>
  <path d="M45.584 37.213c1.1-0.003 2.113 0.769 2.252 1.715 0.138 0.947 0.251 1.231 0.251 0.633 0-0.6 0-1.99 0-3.09v-5.306c0-1.1-0.9-2-2-2H13.866c-1.1 0-2 0.9-2 2v5.77c0 1.1 0 2.066 0 2.148s0.045-0.282 0.101-0.81 1.001-0.961 2.101-0.964L45.584 37.213zM13.074 31.757c0-0.035 0-0.056 0-0.082 0-0.146 0-0.146 0-0.146 0-0.012 0-0.06 0-0.107 0-0.046 0.102-0.284 0.226-0.527 0.125-0.244 1.686-0.443 2.786-0.443h27.779c1.1 0 2.229 0.089 2.507 0.199s0.507 0.726 0.507 0.772c0 0.047 0 0.123 0 0.169 0 0.046 0 0.678 0 1.402 0 0.726-0.9 1.318-2 1.318H15.074c-1.1 0-2-0.771-2-1.715C13.074 32.597 13.074 32.597 13.074 31.757z"/>
  <path fill="#CCCCCC" stroke="#000000" stroke-miterlimit="10" d="M51.077 14.689c-3.348-1.635-8.308-2.475-8.308-2.475s4.84 1.449 8.052 3.257c3.793 2.136 7.204 4.866 7.204 4.866l0.031 26.525L57.418 47.5h-8.379l-0.952-6.69 -0.503-3.522 -35.516 0.068 -0.202 2.057L11.03 47.5c0 0-6.861 0-7.88 0 1.009 0-0.321-0.406-0.65-1V20.157c0 0 1.463-1.763 3.388-3.431 2.561-2.22 11.576-4.504 11.576-4.504s-5.622 0.63-9.639 2.574C3.645 16.819 0.5 20.157 0.5 20.157v24.184c0 0 0.369 1.844 2.104 2.838 0.232 0.133 0.54 0.229 0.728 0.296C3.434 47.512 3.5 47.541 3.5 47.563V48.5h7.395l-1.342 12h0.154 0.048 41.164l-1.692-12H57.5v-1.321c1-0.068 2-2.838 2-2.838V20.157C59.5 20.157 55.664 16.929 51.077 14.689z"/>
  <polygon points="51.104 61.334 51.104 61.333 50.621 61.333 "/>
  <polygon fill="#514F4F" points="9.706 61 9.702 61 50.621 61 51.104 61 51.206 61 50.953 60 50.918 60 9.754 60 "/>
  <path fill="#514F4F" d="M45.865 31H42v3h5v-2.325 -0.168 -0.169C47 30.849 46.426 31 45.865 31z"/>
  <path fill="#514F4F" d="M14.086 31C13.526 31 13 30.849 13 31.337v0.169c0 0 0 0.022 0 0.168 0 0.026 0 0.047 0 0.082C13 32.597 13 34 13 34h4v-3H14.086z"/>
  <polygon fill="#F4EDED" stroke="#605E5E" stroke-miterlimit="10" points="16.5 31.5 16.5 34.312 16.5 51.5 41.5 51.5 41.5 34.312 41.5 31.5 "/>
</svg>
