<svg viewBox="0 0 24 24" width="24" height="24" xmlns="http://www.w3.org/2000/svg"><style>.a{fill:#fff;}</style><path d="M13.1 14.9c3.9 0 7.1-3.1 7.1-7 0-3.9-3.2-7-7.1-7S6 4.1 6 7.9C6 11.8 9.2 14.9 13.1 14.9Z" class="a"/><path d="M13.1 1.4c3.6 0 6.6 2.9 6.6 6.5 0 3.6-3 6.5-6.6 6.5 -3.6 0-6.6-2.9-6.6-6.5C6.5 4.3 9.5 1.4 13.1 1.4M14.3 12.4c-1.2 0-2.5-0.4-3.6-1.1C8.1 9.5 7.2 6.2 8.6 3.7c-0.1 0.1-0.2 0.2-0.3 0.4 -1.7 2.5-0.9 6.1 1.8 8 1.1 0.8 2.4 1.1 3.6 1.1 1.8 0 3.5-0.8 4.5-2.3 0.1-0.1 0.2-0.3 0.2-0.4C17.5 11.7 15.9 12.4 14.3 12.4M13.1 0.4c-4.2 0-7.6 3.4-7.6 7.5 0 4.1 3.4 7.5 7.6 7.5 4.2 0 7.6-3.4 7.6-7.5C20.7 3.8 17.3 0.4 13.1 0.4L13.1 0.4Z"/><path d="M8.3 4c0.1-0.1 0.2-0.3 0.3-0.4 -1.4 2.5-0.5 5.8 2.1 7.6 2.6 1.8 6 1.4 7.8-0.8 -0.1 0.1-0.2 0.3-0.2 0.4 -1.7 2.5-5.3 3-8.1 1.2C7.4 10.1 6.6 6.6 8.3 4Z" fill="#b3b3b3"/><path d="M1.4 18.8l0.4-0.4c0 0 0.1 0.9 0.6 1.3 0.5 0.5 1.5 0.5 1.5 0.5l-0.4 0.5c0 0-0.9-0.1-1.5-0.5C1.5 19.7 1.4 18.8 1.4 18.8Z" class="a"/><path d="M1.4 18.8c0 0 0.1 0.9 0.6 1.3 0.5 0.5 1.5 0.5 1.5 0.5l-0.7 0.8c0 0-0.9-0.2-1.4-0.7 -0.5-0.5-0.7-1.2-0.7-1.2L1.4 18.8Z"/><path d="M1.8 18.3l5.5-6.4c0 0 0.3 0.7 0.9 1.2 0.5 0.4 1.2 0.6 1.2 0.6l-5.5 6.4c0 0-0.9-0.1-1.5-0.5C1.9 19.2 1.8 18.3 1.8 18.3Z"/></svg>