<svg id="Layer_1" enable-background="new 0 0 24 24" viewBox="0 0 24 24" x="0px" y="0px" width="24px" height="24px" version="1.1" xmlns="http://www.w3.org/2000/svg" xml:space="preserve">
  <path fill="#ffffff" stroke="#216372" stroke-miterlimit="10" d="M22.31 14.137l-6.186 7.82L14.632 18.2c-1.123 0.224-2.201 0.342-3.216 0.342 -4.794 0-9.514-3.481-9.713-3.629l1.196-1.604c0.043 0.032 4.379 3.232 8.517 3.232 0.776 0 1.603-0.086 2.463-0.239l-1.434-3.614L22.31 14.137Z"/>
  <path fill="#0ddf00" stroke="#216372" stroke-miterlimit="10" d="M1.703 9.509l6.186-7.82L9.38 5.446c1.123-0.224 2.202-0.342 3.217-0.342 4.794 0 9.514 3.481 9.712 3.629l-1.196 1.604c-0.043-0.032-4.379-3.232-8.516-3.232 -0.776 0-1.604 0.086-2.464 0.239l1.435 3.613L1.703 9.509Z"/>
</svg>
