<svg id="Layer_1" viewBox="0 0 92 92" x="0px" y="0px" width="92px" height="92px" version="1.1" xmlns="http://www.w3.org/2000/svg" xml:space="preserve" xmlns:xlink="http://www.w3.org/1999/xlink">
  <g>
    <polygon points="44.942 25.5 42.771 23.5 40.942 23.5 14.5 23.5 14.5 66.5 17.514 66.5 18.5 66.5 18.5 68.5 52.5 68.5 52.5 33.114" style="fill:none;stroke-miterlimit:10;stroke:#b3b3b3"/>
    <polyline points="44.5 25 44.5 32.5 52 32.5" style="fill:none;stroke-miterlimit:10;stroke:#b3b3b3"/>
    <g>
      <g>
        <path d="M20.622 29.147c2.155 0.963 2.434 0.929 4.686 0.138 -0.114 0.04 1.637 0.781 2.229 1.047 0.655 0.295 1.451-0.327 2.015-0.593 1.454-0.686 2.858 0.415 4.906-0.153 1.292-0.358 1.706-0.041 2.973 0.479 0.684 0.28 2.137-0.618 2.77-0.843 0.905-0.321 0.515-1.771-0.398-1.446 -0.913 0.324-1.771 0.925-2.697 0.546 -0.631-0.258-1.238-0.683-1.927-0.492 -0.891 0.247-1.829 0.734-2.686 0.486 -0.598-0.173-1.612-0.718-2.261-0.54 -0.858 0.236-1.706 0.795-2.508 1.173 0.578-0.272-0.149-0.237-0.743-0.505 -0.438-0.198-0.876-0.396-1.314-0.593 -0.574-0.259-1.239 0.156-1.778 0.346 -1.263 0.443-1.049 0.306-2.508-0.346C20.503 27.461 19.74 28.753 20.622 29.147L20.622 29.147Z" fill="#b3b3b3"/>
      </g>
    </g>
    <g>
      <g>
        <path d="M35.372 33.223c0.37 0.151 0.74 0.303 1.11 0.455 0.349 0.143 0.945 0.531 1.346 0.388 0.791-0.281 1.581-0.562 2.372-0.843 0.905-0.321 0.515-1.771-0.398-1.446 -0.772 0.274-1.544 0.549-2.316 0.823 0.066-0.024 0.526 0.094 0.108-0.077 -0.238-0.098-0.475-0.195-0.712-0.292 -0.37-0.151-0.74-0.303-1.11-0.455C34.875 31.41 34.489 32.862 35.372 33.223L35.372 33.223Z" fill="#b3b3b3"/>
      </g>
    </g>
    <g>
      <g>
        <path d="M30.23 33.223c0.827 0.24 1.848 0.755 2.713 0.755 0.902 0 1.96-0.515 2.827-0.755 0.931-0.258 0.535-1.705-0.398-1.446 -0.87 0.241-1.739 0.482-2.609 0.723 0.44-0.122 0.384 0.007-0.013-0.108 -0.288-0.083-0.576-0.167-0.864-0.25 -0.419-0.122-0.838-0.243-1.257-0.364C29.697 31.507 29.303 32.955 30.23 33.223L30.23 33.223Z" fill="#b3b3b3"/>
      </g>
    </g>
    <g>
      <g>
        <path d="M24.907 33.147c0.905 0.408 1.85 0.998 2.808 1.261 0.476 0.131 1.161-0.35 1.568-0.542 0.508-0.24 1.017-0.479 1.525-0.719 0.875-0.412 0.113-1.705-0.757-1.295 -0.838 0.395-1.677 0.79-2.515 1.186 0.252 0 0.504 0 0.757 0 -0.876-0.396-1.752-0.791-2.628-1.186C24.79 31.458 24.026 32.75 24.907 33.147L24.907 33.147Z" fill="#b3b3b3"/>
      </g>
    </g>
    <g>
      <g>
        <path d="M20.622 33.147c0.388 0.174 0.776 0.347 1.164 0.521 0.337 0.15 0.919 0.532 1.299 0.398 0.8-0.281 1.6-0.562 2.4-0.843 0.907-0.318 0.517-1.768-0.398-1.446 -0.8 0.281-1.6 0.562-2.4 0.843 0.192 0.025 0.385 0.05 0.578 0.076 -0.628-0.281-1.257-0.562-1.886-0.843C20.503 31.461 19.74 32.753 20.622 33.147L20.622 33.147Z" fill="#b3b3b3"/>
      </g>
    </g>
    <g>
      <g>
        <path d="M20.801 37.523c2.782 0.815 4.803-0.023 7.6 0.686 0.921 0.234 1.606-0.789 2.639-0.534 1.732 0.427 2.134 0.409 3.837-0.159 0.96-0.32 1.992 0.835 3.043 0.466 1.733-0.608 2.151 0.14 3.822 0.14 1.606 0 1.985-0.718 3.768-0.241 1.185 0.317 2.571-0.338 3.746-0.586 0.946-0.2 0.545-1.646-0.398-1.446 -2.546 0.537-4.639-0.242-7.011 0.682 -0.869 0.338-1.904-0.844-2.91-0.491 -1.732 0.607-2.245-0.104-3.938-0.104 -1.475 0-1.989 0.681-3.561 0.293 -1.277-0.315-1.524-0.143-2.772 0.412 -0.891 0.396-2.159-0.894-3.122-0.603 -1.832 0.553-2.511 0.575-4.345 0.039C20.269 35.804 19.875 37.252 20.801 37.523L20.801 37.523Z" fill="#b3b3b3"/>
      </g>
    </g>
    <g>
      <g>
        <path d="M20.801 37.523c2.782 0.815 4.803-0.023 7.6 0.686 0.921 0.234 1.606-0.789 2.639-0.534 1.732 0.427 2.134 0.409 3.837-0.159 0.96-0.32 1.992 0.835 3.043 0.466 1.733-0.608 2.151 0.14 3.822 0.14 1.606 0 1.985-0.718 3.768-0.241 1.185 0.317 2.571-0.338 3.746-0.586 0.946-0.2 0.545-1.646-0.398-1.446 -2.546 0.537-4.639-0.242-7.011 0.682 -0.869 0.338-1.904-0.844-2.91-0.491 -1.732 0.607-2.245-0.104-3.938-0.104 -1.475 0-1.989 0.681-3.561 0.293 -1.277-0.315-1.524-0.143-2.772 0.412 -0.891 0.396-2.159-0.894-3.122-0.603 -1.832 0.553-2.511 0.575-4.345 0.039C20.269 35.804 19.875 37.252 20.801 37.523L20.801 37.523Z" fill="#b3b3b3"/>
      </g>
    </g>
    <g>
      <g>
        <path d="M20.801 41.523c2.782 0.815 4.803-0.023 7.6 0.686 0.921 0.234 1.606-0.789 2.639-0.534 1.732 0.427 2.134 0.409 3.837-0.159 0.96-0.32 1.992 0.835 3.043 0.466 1.733-0.608 2.151 0.14 3.822 0.14 1.606 0 1.985-0.718 3.768-0.241 1.185 0.317 2.571-0.338 3.746-0.586 0.946-0.2 0.545-1.646-0.398-1.446 -2.546 0.537-4.639-0.242-7.011 0.682 -0.869 0.338-1.904-0.844-2.91-0.491 -1.732 0.607-2.245-0.104-3.938-0.104 -1.475 0-1.989 0.681-3.561 0.293 -1.277-0.315-1.524-0.143-2.772 0.412 -0.891 0.396-2.159-0.894-3.122-0.603 -1.832 0.553-2.511 0.575-4.345 0.039C20.269 39.804 19.875 41.252 20.801 41.523L20.801 41.523Z" fill="#b3b3b3"/>
      </g>
    </g>
    <g>
      <g>
        <path d="M20.801 45.523c2.782 0.815 4.802-0.023 7.6 0.687 0.921 0.234 1.606-0.789 2.639-0.535 1.731 0.426 2.135 0.409 3.837-0.159 0.96-0.32 1.992 0.834 3.043 0.465 1.732-0.607 2.151 0.14 3.822 0.14 1.607 0 1.985-0.718 3.768-0.24 1.185 0.317 2.571-0.339 3.746-0.586 0.946-0.199 0.545-1.645-0.398-1.446 -2.546 0.536-4.64-0.242-7.011 0.682 -0.869 0.338-1.904-0.843-2.91-0.491 -1.731 0.607-2.246-0.104-3.938-0.104 -1.475 0-1.989 0.68-3.561 0.293 -1.277-0.315-1.524-0.143-2.772 0.413 -0.891 0.396-2.159-0.894-3.122-0.603 -1.832 0.553-2.511 0.575-4.345 0.038C20.269 43.804 19.875 45.251 20.801 45.523L20.801 45.523Z" fill="#b3b3b3"/>
      </g>
    </g>
    <g>
      <g>
        <path d="M20.801 49.523c2.782 0.814 4.802-0.023 7.6 0.687 0.921 0.233 1.606-0.79 2.639-0.535 1.731 0.427 2.135 0.408 3.837-0.159 0.96-0.319 1.992 0.835 3.043 0.466 1.732-0.607 2.151 0.14 3.822 0.14 1.607 0 1.985-0.718 3.768-0.24 1.185 0.316 2.571-0.339 3.746-0.586 0.946-0.199 0.545-1.646-0.398-1.447 -2.546 0.536-4.64-0.241-7.011 0.682 -0.869 0.339-1.904-0.843-2.91-0.49 -1.731 0.607-2.246-0.104-3.938-0.104 -1.475 0-1.989 0.68-3.561 0.293 -1.277-0.314-1.524-0.143-2.772 0.412 -0.891 0.396-2.159-0.893-3.122-0.603 -1.832 0.554-2.511 0.576-4.345 0.038C20.269 47.804 19.875 49.252 20.801 49.523L20.801 49.523Z" fill="#b3b3b3"/>
      </g>
    </g>
    <g>
      <g>
        <path d="M20.801 53.523c2.782 0.814 4.802-0.023 7.6 0.687 0.921 0.233 1.606-0.79 2.639-0.535 1.731 0.427 2.135 0.408 3.837-0.159 0.96-0.319 1.992 0.835 3.043 0.466 1.732-0.607 2.151 0.14 3.822 0.14 1.607 0 1.985-0.718 3.768-0.24 1.185 0.316 2.571-0.339 3.746-0.586 0.946-0.199 0.545-1.646-0.398-1.447 -2.546 0.536-4.64-0.241-7.011 0.682 -0.869 0.339-1.904-0.843-2.91-0.49 -1.731 0.607-2.246-0.104-3.938-0.104 -1.475 0-1.989 0.68-3.561 0.293 -1.277-0.314-1.524-0.143-2.772 0.412 -0.891 0.396-2.159-0.893-3.122-0.603 -1.832 0.554-2.511 0.576-4.345 0.038C20.269 51.804 19.875 53.252 20.801 53.523L20.801 53.523Z" fill="#b3b3b3"/>
      </g>
    </g>
    <g>
      <g>
        <path d="M20.801 57.523c2.782 0.814 4.802-0.023 7.6 0.687 0.921 0.233 1.606-0.79 2.639-0.535 1.731 0.427 2.135 0.408 3.837-0.159 0.96-0.319 1.992 0.835 3.043 0.466 1.732-0.607 2.151 0.14 3.822 0.14 1.607 0 1.985-0.718 3.768-0.24 1.185 0.316 2.571-0.339 3.746-0.586 0.946-0.199 0.545-1.646-0.398-1.447 -2.546 0.536-4.64-0.241-7.011 0.682 -0.869 0.339-1.904-0.843-2.91-0.49 -1.731 0.607-2.246-0.104-3.938-0.104 -1.475 0-1.989 0.68-3.561 0.293 -1.277-0.314-1.524-0.143-2.772 0.412 -0.891 0.396-2.159-0.893-3.122-0.603 -1.832 0.554-2.511 0.576-4.345 0.038C20.269 55.804 19.875 57.252 20.801 57.523L20.801 57.523Z" fill="#b3b3b3"/>
      </g>
    </g>
    <g>
      <g>
        <path d="M20.801 61.523c2.782 0.814 4.802-0.023 7.6 0.687 0.921 0.233 1.606-0.79 2.639-0.535 1.731 0.427 2.135 0.408 3.837-0.159 0.96-0.319 1.992 0.835 3.043 0.466 1.732-0.607 2.151 0.14 3.822 0.14 1.607 0 1.985-0.718 3.768-0.24 1.185 0.316 2.571-0.339 3.746-0.586 0.946-0.199 0.545-1.646-0.398-1.447 -2.546 0.536-4.64-0.241-7.011 0.682 -0.869 0.339-1.904-0.843-2.91-0.49 -1.731 0.607-2.246-0.104-3.938-0.104 -1.475 0-1.989 0.68-3.561 0.293 -1.277-0.314-1.524-0.143-2.772 0.412 -0.891 0.396-2.159-0.893-3.122-0.603 -1.832 0.554-2.511 0.576-4.345 0.038C20.269 59.804 19.875 61.252 20.801 61.523L20.801 61.523Z" fill="#b3b3b3"/>
      </g>
    </g>
    <g>
      <g>
        <path d="M20.801 65.523c2.782 0.814 4.802-0.023 7.6 0.687 0.921 0.233 1.606-0.79 2.639-0.535 1.731 0.427 2.135 0.408 3.837-0.159 0.96-0.319 1.992 0.835 3.043 0.466 1.732-0.607 2.151 0.14 3.822 0.14 1.607 0 1.985-0.718 3.768-0.24 1.185 0.316 2.571-0.339 3.746-0.586 0.946-0.199 0.545-1.646-0.398-1.447 -2.546 0.536-4.64-0.241-7.011 0.682 -0.869 0.339-1.904-0.843-2.91-0.49 -1.731 0.607-2.246-0.104-3.938-0.104 -1.475 0-1.989 0.68-3.561 0.293 -1.277-0.314-1.524-0.143-2.772 0.412 -0.891 0.396-2.159-0.893-3.122-0.603 -1.832 0.554-2.511 0.576-4.345 0.038C20.269 63.804 19.875 65.252 20.801 65.523L20.801 65.523Z" fill="#b3b3b3"/>
      </g>
    </g>
    <polyline points="44.942 25.5 18.314 26.078 18.521 66.5" style="fill:none;stroke-miterlimit:10;stroke:#b3b3b3"/>
  </g>
  <g>
    <path d="M63.435 43.671c-0.536-0.536-4.708 3.756-4.231 4.231L74.76 63.459c0.534 0.535 1.947-0.008 3.085-1.146 1.139-1.137 1.653-2.521 1.119-3.057L63.435 43.671Z"/>
    <ellipse cx="49.671" cy="36.171" rx="15.529" ry="14.4" style="fill:none;stroke-miterlimit:10;stroke:#000"/>
    <path d="M59.203 47.902l4.231-4.231L59.203 47.902Z" fill="none"/>
    <path d="M78.964 59.256c0 0-1.509 0.707-2.547 1.744 -1.063 1.064-1.657 2.459-1.657 2.459" style="fill:none;stroke-miterlimit:10;stroke-width:0.25;stroke:#fff"/>
    <ellipse cx="49.431" cy="36.303" rx="14.403" ry="13.531" style="fill:none;stroke-miterlimit:10;stroke:#e6e6e6"/>
  </g>
</svg>
