<svg xmlns="http://www.w3.org/2000/svg" xmlns:xlink="http://www.w3.org/1999/xlink" version="1.1" x="0px" y="0px" viewBox="0 0 100 125" enable-background="new 0 0 100 100" xml:space="preserve"><path d="M50.3,99l-2.6,0V69c0-1.3,1-2.3,2.3-2.3c1.3,0,2.3,1,2.3,2.3V99L50.3,99z M87.9,18.5l-3.2-3.2L81.4,12  c-1.2-1.1-3.1-1.3-4.5-0.3l-7.5,5.4c-3.1-1.8-6.4-3.2-9.9-4.1L58,3.9c-0.3-1.7-1.8-2.9-3.4-2.9L50,1l-4.6,0c-1.7,0-3.2,1.2-3.4,2.9  L40.4,13c-3.5,0.9-6.9,2.3-10.1,4.2L22.9,12c-1.4-1-3.3-0.8-4.5,0.4l-3.2,3.2l-3.2,3.2c-1.2,1.2-1.4,3.1-0.4,4.5l5.4,7.6  c-1.8,3.1-3.1,6.5-4,9.9l-9.1,1.4c-1.7,0.3-2.9,1.8-2.9,3.4l0,4.6l0,4.6c0,1.7,1.2,3.2,2.9,3.4l9.2,1.5c0.9,3.4,2.3,6.7,4.2,9.8  l-5.3,7.5c-1,1.4-0.8,3.3,0.4,4.5l3.2,3.2l3.2,3.2c1.2,1.2,3.1,1.4,4.5,0.4l7.6-5.4c0.7,0.4,1.4,0.8,2.2,1.2  c0.2,0.1,0.4,0.2,0.6,0.3c0.6,0.3,1.2,0.6,1.8,0.8c0.1,0.1,0.3,0.1,0.4,0.2c0.8,0.3,1.5,0.6,2.3,0.8c0,0,0,0,0.1,0  c0.8,0.3,1.6,0.5,2.3,0.7c0.5,0.1,1,0.2,1.5,0.3V70.7c0-3-1.3-5.8-3.6-7.7c-3.8-3.3-6.2-8.2-6.2-13.7c0-6.6,3.5-12.4,8.8-15.6  c0.4-0.2,0.9,0.1,0.9,0.5v10.4c0,3.1,2.5,5.6,5.6,5.6h4.7c3.1,0,5.6-2.5,5.6-5.6V33.7c0-0.4,0.5-0.7,0.8-0.5c5.9,3,9.9,9.1,9.9,16.1  c0,5.7-2.7,10.8-6.8,14.2c-2.5,2-4,4.9-4,8.1v15.8c0.6-0.1,1.3-0.3,1.9-0.5c0.7-0.2,1.5-0.4,2.2-0.7c0.2-0.1,0.4-0.1,0.6-0.2  c0.5-0.2,1-0.4,1.4-0.5c0.4-0.1,0.7-0.3,1.1-0.5c0.2-0.1,0.5-0.2,0.7-0.3c0.5-0.2,1-0.5,1.5-0.7v0c0.7-0.3,1.3-0.7,2-1.1l7.5,5.4  c1.4,1,3.3,0.8,4.5-0.4l3.2-3.2l3.2-3.2c1.2-1.2,1.4-3.1,0.4-4.5L83,69.4c1.8-3.1,3.2-6.4,4.1-9.9l9.1-1.6c1.7-0.3,2.9-1.8,2.9-3.4  l0-4.6l0-4.6c0-1.7-1.2-3.2-2.9-3.4L87,40.4c-0.9-3.4-2.3-6.7-4.1-9.9l5.4-7.5C89.3,21.6,89.1,19.7,87.9,18.5z"/><text x="0" y="115" fill="#000000" font-size="5px" font-weight="bold" font-family="'Helvetica Neue', Helvetica, Arial-Unicode, Arial, Sans-serif">Created by Gregor Črešnar</text><text x="0" y="120" fill="#000000" font-size="5px" font-weight="bold" font-family="'Helvetica Neue', Helvetica, Arial-Unicode, Arial, Sans-serif">from the Noun Project</text></svg>